<svg width="1920" height="540" viewBox="0 0 1920 540" fill="none" xmlns="http://www.w3.org/2000/svg">
<circle cx="960" cy="176" r="36" fill="url(#paint0_radial_143_43)"/>
<g filter="url(#filter0_d_143_43)">
<path d="M953.4 187H950.63L958.642 165.182H961.369L969.38 187H966.61L960.091 168.634H959.92L953.4 187ZM954.423 178.477H965.588V180.821H954.423V178.477Z" fill="#B8D3E0"/>
</g>
<g filter="url(#filter1_d_143_43)">
<circle cx="960" cy="176" r="21.5" stroke="#B8D3E0" stroke-opacity="0.6" stroke-width="3" shape-rendering="crispEdges"/>
</g>
<path d="M1011.66 182C1011.88 180.031 1012 178.029 1012 176C1012 171.15 1011.34 166.454 1010.09 162H1030L1044 148H1108L1092.43 175.854C1090.31 179.649 1086.31 182 1081.96 182H1011.66Z" fill="#29363D" fill-opacity="0.5"/>
<path d="M908.342 182H838.041C833.693 182 829.686 179.649 827.565 175.854L812 148H876L890 162H909.906C908.664 166.454 908 171.15 908 176C908 178.029 908.116 180.031 908.342 182Z" fill="#29363D" fill-opacity="0.5"/>
<path d="M968 219.274C988.481 215.512 1004 197.569 1004 176C1004 154.431 988.481 136.488 968 132.726V140.81C984.076 144.449 996.08 158.823 996.08 176C996.08 193.177 984.076 207.551 968 211.19V219.274Z" fill="#29363D" fill-opacity="0.5"/>
<path d="M952 219.274C931.519 215.512 916 197.569 916 176C916 154.431 931.519 136.488 952 132.726V140.81C935.924 144.449 923.92 158.823 923.92 176C923.92 193.177 935.924 207.551 952 211.19V219.274Z" fill="#29363D" fill-opacity="0.5"/>
<path d="M1003 176C1003 196.661 988.428 213.92 969 218.057V211.98C985.129 207.958 997.08 193.376 997.08 176C997.08 158.624 985.129 144.042 969 140.02V133.943C988.428 138.08 1003 155.339 1003 176ZM951 218.057C931.572 213.92 917 196.661 917 176C917 155.339 931.572 138.08 951 133.943V140.02C934.871 144.042 922.92 158.624 922.92 176C922.92 193.376 934.871 207.958 951 211.98V218.057Z" stroke="#C2CFD6" stroke-opacity="0.5" stroke-width="2"/>
<path d="M390 119L397 126L405 117L400 112V68L390 62V119Z" fill="#29363D" fill-opacity="0.5"/>
<path d="M399.293 112.707L399 112.414V112V68.5662L391 63.7662V118.586L396.957 124.543L403.626 117.04L399.293 112.707Z" stroke="#C2CFD6" stroke-opacity="0.5" stroke-width="2"/>
<path d="M1530 119L1523 126L1515 117L1520 112V68L1530 62V119Z" fill="#29363D" fill-opacity="0.5"/>
<path d="M1520.71 112.707L1521 112.414V112V68.5662L1529 63.7662V118.586L1523.04 124.543L1516.37 117.04L1520.71 112.707Z" stroke="#C2CFD6" stroke-opacity="0.5" stroke-width="2"/>
<path d="M968.079 224.144C988.764 220.293 1004.44 201.928 1004.44 179.852C1004.44 157.777 988.764 139.411 968.079 135.561V143.835C984.316 147.56 996.439 162.271 996.439 179.852C996.439 197.433 984.316 212.144 968.079 215.869V224.144Z" fill="#477085" fill-opacity="0.75"/>
<path d="M951.919 224.144C931.233 220.293 915.559 201.928 915.559 179.852C915.559 157.777 931.233 139.411 951.919 135.561V143.835C935.681 147.56 923.558 162.271 923.558 179.852C923.558 197.433 935.681 212.144 951.919 215.869V224.144Z" fill="#477085" fill-opacity="0.75"/>
<path d="M1003.44 179.852C1003.44 201.023 988.702 218.693 969.079 222.923V216.657C985.377 212.544 997.439 197.62 997.439 179.852C997.439 162.085 985.377 147.161 969.079 143.047V136.781C988.702 141.011 1003.44 158.681 1003.44 179.852ZM950.919 222.923C931.295 218.693 916.559 201.023 916.559 179.852C916.559 158.681 931.295 141.011 950.919 136.781V143.047C934.62 147.161 922.558 162.085 922.558 179.852C922.558 197.62 934.62 212.544 950.919 216.657V222.923Z" stroke="#B8D3E0" stroke-opacity="0.6" stroke-width="2"/>
<path d="M384.3 121.513L391.37 128.677L399.45 119.466L394.4 114.348V69.314L384.3 63.173V121.513Z" fill="#477085" fill-opacity="0.75"/>
<path d="M393.688 115.05L393.4 114.758V114.348V69.8763L385.3 64.9513V121.102L391.327 127.21L398.084 119.506L393.688 115.05Z" stroke="#B8D3E0" stroke-opacity="0.6" stroke-width="2"/>
<path d="M1535.7 121.513L1528.63 128.677L1520.55 119.466L1525.6 114.348V69.314L1535.7 63.173V121.513Z" fill="#477085" fill-opacity="0.75"/>
<path d="M1526.31 115.05L1526.6 114.758V114.348V69.8763L1534.7 64.9513V121.102L1528.67 127.21L1521.91 119.506L1526.31 115.05Z" stroke="#B8D3E0" stroke-opacity="0.6" stroke-width="2"/>
<path d="M405.51 125.607L410.56 130.724H939.764C928.396 135.538 919.055 144.286 913.396 155.288H893.34L879.2 140.959H403.49L396.42 133.795L405.51 125.607Z" fill="#477085" fill-opacity="0.75"/>
<path d="M1006.6 155.288H1026.66L1040.8 140.959H1516.51L1523.58 133.795L1514.49 125.607L1509.44 130.724H980.235C991.603 135.538 1000.94 144.286 1006.6 155.288Z" fill="#477085" fill-opacity="0.75"/>
<path d="M409.848 131.426L410.142 131.724H410.56H935.325C925.753 136.771 917.879 144.662 912.79 154.288H893.758L879.912 140.257L879.618 139.959H879.2H403.908L397.867 133.837L405.469 126.989L409.848 131.426ZM1040.8 139.959H1040.38L1040.09 140.257L1026.24 154.288H1007.21C1002.12 144.662 994.246 136.771 984.674 131.724H1509.44H1509.86L1510.15 131.426L1514.53 126.989L1522.13 133.837L1516.09 139.959H1040.8Z" stroke="#B8D3E0" stroke-opacity="0.6" stroke-width="2"/>
<path d="M411 123L416 128H939.965C928.71 132.703 919.46 141.25 913.858 152H894L880 138H409L402 131L411 123Z" fill="#29363D" fill-opacity="0.5"/>
<path d="M1006.14 152H1026L1040 138H1511L1518 131L1509 123L1504 128H980.035C991.29 132.703 1000.54 141.25 1006.14 152Z" fill="#29363D" fill-opacity="0.5"/>
<path d="M415.293 128.707L415.586 129H416H935.482C926.046 133.932 918.281 141.622 913.255 151H894.414L880.707 137.293L880.414 137H880H409.414L403.457 131.043L410.96 124.374L415.293 128.707ZM1040 137H1039.59L1039.29 137.293L1025.59 151H1006.74C1001.72 141.622 993.954 133.932 984.518 129H1504H1504.41L1504.71 128.707L1509.04 124.374L1516.54 131.043L1510.59 137H1040Z" stroke="#C2CFD6" stroke-opacity="0.5" stroke-width="2"/>
<mask id="mask0_143_43" style="mask-type:alpha" maskUnits="userSpaceOnUse" x="0" y="75" width="1920" height="126">
<path d="M900 200H833.644C825.184 200 817.349 195.546 813.021 188.276L801.979 169.724C797.651 162.454 789.816 158 781.356 158H410.941C404.576 158 398.471 155.471 393.971 150.971L377.029 134.029C372.529 129.529 370 123.424 370 117.059V100C370 86.7452 359.255 76 346 76H0M1020 200H1086.36C1094.82 200 1102.65 195.546 1106.98 188.276L1118.02 169.724C1122.35 162.454 1130.18 158 1138.64 158H1509.06C1515.42 158 1521.53 155.471 1526.03 150.971L1542.97 134.029C1547.47 129.529 1550 123.424 1550 117.059V100C1550 86.7452 1560.75 76 1574 76H1920" stroke="white" stroke-opacity="0.5"/>
</mask>
<g mask="url(#mask0_143_43)">
<rect width="1920" height="540" fill="url(#paint1_linear_143_43)"/>
</g>
<rect x="0.5" y="0.5" width="1919" height="539" stroke="#EE0000"/>
<defs>
<filter id="filter0_d_143_43" x="942.63" y="157.182" width="34.75" height="37.8182" filterUnits="userSpaceOnUse" color-interpolation-filters="sRGB">
<feFlood flood-opacity="0" result="BackgroundImageFix"/>
<feColorMatrix in="SourceAlpha" type="matrix" values="0 0 0 0 0 0 0 0 0 0 0 0 0 0 0 0 0 0 127 0" result="hardAlpha"/>
<feOffset/>
<feGaussianBlur stdDeviation="4"/>
<feComposite in2="hardAlpha" operator="out"/>
<feColorMatrix type="matrix" values="0 0 0 0 0 0 0 0 0 0.666667 0 0 0 0 1 0 0 0 0.53 0"/>
<feBlend mode="normal" in2="BackgroundImageFix" result="effect1_dropShadow_143_43"/>
<feBlend mode="normal" in="SourceGraphic" in2="effect1_dropShadow_143_43" result="shape"/>
</filter>
<filter id="filter1_d_143_43" x="929" y="145" width="62" height="62" filterUnits="userSpaceOnUse" color-interpolation-filters="sRGB">
<feFlood flood-opacity="0" result="BackgroundImageFix"/>
<feColorMatrix in="SourceAlpha" type="matrix" values="0 0 0 0 0 0 0 0 0 0 0 0 0 0 0 0 0 0 127 0" result="hardAlpha"/>
<feOffset/>
<feGaussianBlur stdDeviation="4"/>
<feComposite in2="hardAlpha" operator="out"/>
<feColorMatrix type="matrix" values="0 0 0 0 0 0 0 0 0 0.666667 0 0 0 0 1 0 0 0 0.53 0"/>
<feBlend mode="normal" in2="BackgroundImageFix" result="effect1_dropShadow_143_43"/>
<feBlend mode="normal" in="SourceGraphic" in2="effect1_dropShadow_143_43" result="shape"/>
</filter>
<radialGradient id="paint0_radial_143_43" cx="0" cy="0" r="1" gradientUnits="userSpaceOnUse" gradientTransform="translate(960 176) rotate(90) scale(36)">
<stop stop-color="#000A0F" stop-opacity="0.6"/>
<stop offset="1" stop-color="#1D2884" stop-opacity="0"/>
</radialGradient>
<linearGradient id="paint1_linear_143_43" x1="1920" y1="0" x2="0" y2="0" gradientUnits="userSpaceOnUse">
<stop/>
<stop offset="0.210161" stop-color="white"/>
<stop offset="0.424755" stop-color="white"/>
<stop offset="0.465569"/>
<stop offset="0.53087"/>
<stop offset="0.573316" stop-color="white"/>
<stop offset="0.768689" stop-color="white"/>
<stop offset="1"/>
</linearGradient>
</defs>
</svg>
