<svg width="1560" height="1080" viewBox="0 0 1560 1080" fill="none" xmlns="http://www.w3.org/2000/svg">
<path d="M0.5 540C0.500008 451.245 15.6574 363.207 45.2569 279.668C49.9545 266.41 64.7827 259.958 77.8974 265.103L327.386 362.977C336.379 366.505 340.791 376.655 337.603 385.8C328.07 413.15 321.107 441.29 316.781 469.853L267.961 497.973C235.571 516.63 235.571 563.37 267.961 582.027L316.781 610.147C321.107 638.71 328.07 666.85 337.603 694.2C340.791 703.345 336.379 713.495 327.386 717.023L77.8974 814.897C64.7827 820.042 49.9545 813.59 45.2569 800.332C15.6574 716.793 0.499992 628.755 0.5 540Z" stroke="#A28E65" stroke-opacity="0.51"/>
<path d="M1514.74 279.833C1544.34 363.372 1559.5 451.41 1559.5 540.165C1559.5 628.919 1544.34 716.958 1514.74 800.497C1510.05 813.755 1495.22 820.206 1482.1 815.062L1232.61 717.187C1223.62 713.659 1219.21 703.51 1222.4 694.365C1231.93 667.015 1238.89 638.875 1243.22 610.312L1292.04 582.192C1324.43 563.535 1324.43 516.795 1292.04 498.138L1243.22 470.018C1238.89 441.454 1231.93 413.315 1222.4 385.965C1219.21 376.82 1223.62 366.67 1232.61 363.142L1482.1 265.268C1495.22 260.123 1510.05 266.574 1514.74 279.833Z" stroke="#A28E65" stroke-opacity="0.51"/>
<path d="M228.81 1091.19C166.051 1028.43 114.517 955.46 76.3754 875.459C70.3222 862.763 76.2455 847.716 89.1571 842.08L334.78 734.872C343.633 731.008 353.93 735.065 358.143 743.786C370.665 769.709 385.535 794.389 402.545 817.524L387.822 872.835C378.236 908.845 411.155 941.764 447.165 932.178L502.476 917.456C525.611 934.465 550.291 949.335 576.214 961.857C584.935 966.07 588.992 976.367 585.128 985.22L477.92 1230.84C472.284 1243.75 457.237 1249.68 444.541 1243.62C364.54 1205.48 291.569 1153.95 228.81 1091.19Z" stroke="#A28E65" stroke-opacity="0.51"/>
<path d="M1483.63 875.459C1445.49 955.46 1393.95 1028.43 1331.19 1091.19C1268.43 1153.95 1195.46 1205.48 1115.46 1243.62C1102.76 1249.68 1087.72 1243.75 1082.08 1230.84L974.875 985.22C971.01 976.367 975.068 966.07 983.788 961.857C1009.71 949.335 1034.39 934.465 1057.53 917.455L1112.84 932.178C1148.85 941.764 1181.77 908.845 1172.18 872.835L1157.46 817.524C1174.47 794.389 1189.34 769.709 1201.86 743.786C1206.07 735.065 1216.37 731.008 1225.22 734.872L1470.85 842.08C1483.76 847.716 1489.68 862.763 1483.63 875.459Z" stroke="#A28E65" stroke-opacity="0.51"/>
<path d="M228.81 -11.1898C291.569 -73.9489 364.54 -125.483 444.541 -163.624C457.237 -169.678 472.284 -163.754 477.92 -150.843L585.128 94.7798C588.992 103.633 584.935 113.93 576.214 118.143C550.291 130.665 525.611 145.535 502.476 162.544L447.165 147.822C411.155 138.236 378.236 171.155 387.822 207.165L402.545 262.476C385.535 285.611 370.665 310.291 358.143 336.214C353.93 344.935 343.633 348.992 334.78 345.128L89.1571 237.92C76.2455 232.284 70.3222 217.237 76.3754 204.541C114.517 124.54 166.051 51.5693 228.81 -11.1898Z" stroke="#A28E65" stroke-opacity="0.51"/>
<path d="M1115.46 -163.624C1195.46 -125.483 1268.43 -73.9489 1331.19 -11.1898C1393.95 51.5693 1445.49 124.54 1483.63 204.541C1489.68 217.237 1483.76 232.284 1470.85 237.92L1225.22 345.128C1216.37 348.992 1206.07 344.935 1201.86 336.214C1189.34 310.291 1174.47 285.611 1157.46 262.477L1172.18 207.165C1181.77 171.154 1148.85 138.236 1112.84 147.821L1057.53 162.545C1034.39 145.535 1009.71 130.665 983.788 118.143C975.068 113.93 971.01 103.633 974.875 94.7798L1082.08 -150.843C1087.72 -163.754 1102.77 -169.678 1115.46 -163.624Z" stroke="#A28E65" stroke-opacity="0.51"/>
<path d="M412.13 829.302C423.586 843.87 435.919 857.771 449.074 870.926C462.228 884.081 476.13 896.414 490.698 907.87L443.737 920.251C417.064 927.283 392.717 902.936 399.749 876.263L412.13 829.302Z" fill="#737A8C" fill-opacity="0.25"/>
<path d="M1069.3 907.871L1116.26 920.251C1142.94 927.283 1167.28 902.936 1160.25 876.263L1147.87 829.304C1136.41 843.871 1124.08 857.772 1110.93 870.926C1097.77 884.081 1083.87 896.414 1069.3 907.871Z" fill="#737A8C" fill-opacity="0.25"/>
<path d="M1147.87 250.696L1160.25 203.737C1167.28 177.064 1142.94 152.717 1116.26 159.749L1069.3 172.129C1083.87 183.586 1097.77 195.919 1110.93 209.074C1124.08 222.228 1136.41 236.129 1147.87 250.696Z" fill="#737A8C" fill-opacity="0.25"/>
<path d="M490.698 172.13C476.13 183.586 462.229 195.919 449.074 209.074C435.919 222.229 423.586 236.13 412.13 250.698L399.749 203.737C392.717 177.064 417.064 152.717 443.737 159.749L490.698 172.13Z" fill="#737A8C" fill-opacity="0.25"/>
</svg>
