<svg width="87" height="73" viewBox="0 0 87 73" fill="none" xmlns="http://www.w3.org/2000/svg">
<path d="M76 38L72 45L79 63L60 66L56 73L87 68L76 38Z" fill="#80D5FF" fill-opacity="0.4"/>
<path d="M68 51L71 58L64 59L68 51Z" fill="#80D5FF" fill-opacity="0.4"/>
<path d="M30 62L42 55V9L30 2M14 2L2 9V55L14 62" stroke="#9DDEFF" stroke-opacity="0.4" stroke-width="4"/>
<path d="M24.3203 14.0909L23.9794 39.1818H20.0249L19.6839 14.0909H24.3203ZM22.0021 49.2727C21.1612 49.2727 20.4396 48.9716 19.8374 48.3693C19.2351 47.767 18.9339 47.0455 18.9339 46.2045C18.9339 45.3636 19.2351 44.642 19.8374 44.0398C20.4396 43.4375 21.1612 43.1364 22.0021 43.1364C22.843 43.1364 23.5646 43.4375 24.1669 44.0398C24.7692 44.642 25.0703 45.3636 25.0703 46.2045C25.0703 46.7614 24.9283 47.2727 24.6442 47.7386C24.3714 48.2045 24.0021 48.5795 23.5362 48.8636C23.0817 49.1364 22.5703 49.2727 22.0021 49.2727Z" fill="#80D5FF" fill-opacity="0.4"/>
</svg>
