<svg width="65" height="41" viewBox="0 0 65 41" fill="none" xmlns="http://www.w3.org/2000/svg">
    <!-- <path
        d="M24.9961 0.769531C26.3997 0.769531 27.5885 1.25651 28.5625 2.23047C29.5365 3.20443 30.0234 4.37891 30.0234 5.75391V35.7461C30.0234 37.1211 29.5365 38.2956 28.5625 39.2695C27.5885 40.2435 26.3997 40.7305 24.9961 40.7305H1.01953C0.733073 40.7305 0.489583 40.6302 0.289062 40.4297C0.117188 40.2578 0.03125 40.0286 0.03125 39.7422V34.7578C0.03125 34.4714 0.117188 34.2422 0.289062 34.0703C0.489583 33.8698 0.733073 33.7695 1.01953 33.7695H22.0312C22.2891 33.7695 22.5182 33.6693 22.7188 33.4688C22.9193 33.2682 23.0195 33.0247 23.0195 32.7383V24.7461C23.0195 24.4596 22.9193 24.2305 22.7188 24.0586C22.5182 23.8581 22.2891 23.7578 22.0312 23.7578H5.01562C3.64062 23.7578 2.46615 23.2708 1.49219 22.2969C0.518229 21.3229 0.03125 20.1341 0.03125 18.7305V5.75391C0.03125 4.37891 0.518229 3.20443 1.49219 2.23047C2.46615 1.25651 3.64062 0.769531 5.01562 0.769531H24.9961ZM23.0195 16.7539V8.76172C23.0195 8.47526 22.9193 8.23177 22.7188 8.03125C22.5182 7.83073 22.2891 7.73047 22.0312 7.73047H8.02344C7.73698 7.73047 7.49349 7.83073 7.29297 8.03125C7.09245 8.23177 6.99219 8.47526 6.99219 8.76172V16.7539C6.99219 17.0404 7.09245 17.2839 7.29297 17.4844C7.49349 17.6562 7.73698 17.7422 8.02344 17.7422H22.0312C22.2891 17.7422 22.5182 17.6562 22.7188 17.4844C22.9193 17.2839 23.0195 17.0404 23.0195 16.7539ZM58.9844 0.769531C60.388 0.769531 61.5768 1.25651 62.5508 2.23047C63.5247 3.20443 64.0117 4.37891 64.0117 5.75391V35.7461C64.0117 37.1211 63.5247 38.2956 62.5508 39.2695C61.5768 40.2435 60.388 40.7305 58.9844 40.7305H35.0078C34.7214 40.7305 34.4779 40.6302 34.2773 40.4297C34.1055 40.2578 34.0195 40.0286 34.0195 39.7422V34.7578C34.0195 34.4714 34.1055 34.2422 34.2773 34.0703C34.4779 33.8698 34.7214 33.7695 35.0078 33.7695H56.0195C56.2773 33.7695 56.5065 33.6693 56.707 33.4688C56.9076 33.2682 57.0078 33.0247 57.0078 32.7383V24.7461C57.0078 24.4596 56.9076 24.2305 56.707 24.0586C56.5065 23.8581 56.2773 23.7578 56.0195 23.7578H39.0039C37.6289 23.7578 36.4544 23.2708 35.4805 22.2969C34.5065 21.3229 34.0195 20.1341 34.0195 18.7305V5.75391C34.0195 4.37891 34.5065 3.20443 35.4805 2.23047C36.4544 1.25651 37.6289 0.769531 39.0039 0.769531H58.9844ZM57.0078 16.7539V8.76172C57.0078 8.47526 56.9076 8.23177 56.707 8.03125C56.5065 7.83073 56.2773 7.73047 56.0195 7.73047H42.0117C41.7253 7.73047 41.4818 7.83073 41.2812 8.03125C41.0807 8.23177 40.9805 8.47526 40.9805 8.76172V16.7539C40.9805 17.0404 41.0807 17.2839 41.2812 17.4844C41.4818 17.6562 41.7253 17.7422 42.0117 17.7422H56.0195C56.2773 17.7422 56.5065 17.6562 56.707 17.4844C56.9076 17.2839 57.0078 17.0404 57.0078 16.7539Z"
        fill="#CCFFFF" /> -->
        <text x='50%' y='50%' font-size='60' dominant-baseline='central' text-anchor='middle' fill="#CCFFFF">00</text>
</svg>