<svg width="1920" height="1080" viewBox="0 0 1920 1080" fill="none" xmlns="http://www.w3.org/2000/svg">
    <path
        d="M159.21 279.807C152.907 277.759 146.128 281.209 144.169 287.54C93.277 451.995 93.277 628.004 144.169 792.459C146.128 798.79 152.907 802.24 159.21 800.192L185.117 791.774C191.42 789.726 194.86 782.957 192.906 776.624C145.351 622.462 145.351 457.537 192.906 303.375C194.86 297.042 191.42 290.273 185.117 288.225L159.21 279.807Z"
        stroke="#C2C2D6" stroke-opacity="0.4" stroke-width="3" />
    <path
        d="M1760.79 800.192C1767.09 802.24 1773.87 798.79 1775.83 792.459C1826.72 628.004 1826.72 451.995 1775.83 287.54C1773.87 281.209 1767.09 277.76 1760.79 279.808L1734.88 288.225C1728.58 290.273 1725.14 297.043 1727.1 303.376C1774.65 457.537 1774.65 622.463 1727.1 776.624C1725.14 782.957 1728.58 789.727 1734.88 791.775L1760.79 800.192Z"
        stroke="#C2C2D6" stroke-opacity="0.4" stroke-width="3" />
    <mask id="mask0_220_6" style="mask-type:alpha" maskUnits="userSpaceOnUse" x="104" y="277" width="1712" height="526">
        <path
            d="M159.21 279.807C152.907 277.759 146.128 281.209 144.169 287.54C93.277 451.995 93.277 628.004 144.169 792.459C146.128 798.79 152.907 802.24 159.21 800.192L185.117 791.774C191.42 789.726 194.86 782.957 192.906 776.624C145.351 622.462 145.351 457.537 192.906 303.375C194.86 297.042 191.42 290.273 185.117 288.225L159.21 279.807Z"
            fill="white" />
        <path
            d="M1760.79 800.192C1767.09 802.24 1773.87 798.79 1775.83 792.459C1826.72 628.004 1826.72 451.995 1775.83 287.54C1773.87 281.209 1767.09 277.76 1760.79 279.808L1734.88 288.225C1728.58 290.273 1725.14 297.043 1727.1 303.376C1774.65 457.537 1774.65 622.463 1727.1 776.624C1725.14 782.957 1728.58 789.727 1734.88 791.775L1760.79 800.192Z"
            fill="white" />
        <path
            d="M159.21 279.807C152.907 277.759 146.128 281.209 144.169 287.54C93.277 451.995 93.277 628.004 144.169 792.459C146.128 798.79 152.907 802.24 159.21 800.192L185.117 791.774C191.42 789.726 194.86 782.957 192.906 776.624C145.351 622.462 145.351 457.537 192.906 303.375C194.86 297.042 191.42 290.273 185.117 288.225L159.21 279.807Z"
            stroke="#C2C2D6" stroke-opacity="0.4" stroke-width="3" />
        <path
            d="M1760.79 800.192C1767.09 802.24 1773.87 798.79 1775.83 792.459C1826.72 628.004 1826.72 451.995 1775.83 287.54C1773.87 281.209 1767.09 277.76 1760.79 279.808L1734.88 288.225C1728.58 290.273 1725.14 297.043 1727.1 303.376C1774.65 457.537 1774.65 622.463 1727.1 776.624C1725.14 782.957 1728.58 789.727 1734.88 791.775L1760.79 800.192Z"
            stroke="#C2C2D6" stroke-opacity="0.4" stroke-width="3" />
    </mask>
    <g mask="url(#mask0_220_6)">
        <path d="M1780 538H1797V542H1780V538Z" fill="#B8D3E0" fill-opacity="0.4" />
        <path d="M1784.84 523.603L1791.84 523.481L1791.91 527.48L1784.91 527.602L1784.84 523.603Z" fill="#70A7C2"
            fill-opacity="0.3" />
        <path d="M1779.43 509.384L1796.42 508.791L1796.56 512.789L1779.57 513.382L1779.43 509.384Z" fill="#7AA3B8"
            fill-opacity="0.2" />
        <path d="M1777.86 480.806L1794.82 479.62L1795.1 483.61L1778.14 484.796L1777.86 480.806Z" fill="#7AA3B8"
            fill-opacity="0.2" />
        <path d="M1781.69 466.105L1788.66 465.495L1789.01 469.48L1782.04 470.09L1781.69 466.105Z" fill="#70A7C2"
            fill-opacity="0.3" />
        <path d="M1775.3 452.298L1792.21 450.521L1792.63 454.499L1775.72 456.276L1775.3 452.298Z" fill="#B8D3E0"
            fill-opacity="0.4" />
        <path d="M1778.61 437.473L1785.56 436.62L1786.05 440.591L1779.1 441.444L1778.61 437.473Z" fill="#70A7C2"
            fill-opacity="0.3" />
        <path d="M1771.74 423.899L1788.58 421.533L1789.13 425.494L1772.3 427.86L1771.74 423.899Z" fill="#7AA3B8"
            fill-opacity="0.2" />
        <path d="M1767.2 395.641L1783.94 392.689L1784.63 396.628L1767.89 399.58L1767.2 395.641Z" fill="#7AA3B8"
            fill-opacity="0.2" />
        <path d="M1769.46 380.621L1776.33 379.285L1777.1 383.212L1770.22 384.547L1769.46 380.621Z" fill="#70A7C2"
            fill-opacity="0.3" />
        <path d="M1761.67 367.557L1778.3 364.022L1779.13 367.935L1762.5 371.469L1761.67 367.557Z" fill="#B8D3E0"
            fill-opacity="0.4" />
        <path d="M1763.41 352.468L1770.23 350.893L1771.13 354.79L1764.31 356.365L1763.41 352.468Z" fill="#70A7C2"
            fill-opacity="0.3" />
        <path d="M1755.16 339.686L1771.65 335.573L1772.62 339.454L1756.13 343.567L1755.16 339.686Z" fill="#7AA3B8"
            fill-opacity="0.2" />
        <path d="M1747.68 312.057L1764.03 307.372L1765.13 311.217L1748.79 315.902L1747.68 312.057Z" fill="#7AA3B8"
            fill-opacity="0.2" />
        <path d="M1748.37 296.883L1755.06 294.836L1756.23 298.662L1749.54 300.708L1748.37 296.883Z" fill="#70A7C2"
            fill-opacity="0.3" />
        <path d="M1739.25 284.704L1755.42 279.451L1756.66 283.255L1740.49 288.509L1739.25 284.704Z" fill="#B8D3E0"
            fill-opacity="0.4" />
        <path d="M1739.4 269.516L1746.02 267.237L1747.33 271.019L1740.71 273.298L1739.4 269.516Z" fill="#70A7C2"
            fill-opacity="0.3" />
        <path d="M1729.86 257.666L1745.84 251.852L1747.21 255.611L1731.23 261.425L1729.86 257.666Z" fill="#7AA3B8"
            fill-opacity="0.2" />
        <path d="M1719.54 230.971L1735.3 224.603L1736.8 228.311L1721.04 234.68L1719.54 230.971Z" fill="#7AA3B8"
            fill-opacity="0.2" />
        <path d="M1718.63 215.808L1725.08 213.073L1726.64 216.755L1720.2 219.49L1718.63 215.808Z" fill="#70A7C2"
            fill-opacity="0.3" />
        <path d="M1708.3 204.649L1723.83 197.735L1725.46 201.389L1709.92 208.303L1708.3 204.649Z" fill="#B8D3E0"
            fill-opacity="0.4" />
        <path d="M1706.86 189.528L1713.21 186.57L1714.9 190.195L1708.55 193.153L1706.86 189.528Z" fill="#70A7C2"
            fill-opacity="0.3" />
        <path d="M1696.14 178.74L1711.42 171.288L1713.17 174.883L1697.89 182.336L1696.14 178.74Z" fill="#7AA3B8"
            fill-opacity="0.2" />
        <path d="M1683.08 153.27L1698.09 145.289L1699.97 148.821L1684.96 156.802L1683.08 153.27Z" fill="#7AA3B8"
            fill-opacity="0.2" />
        <path d="M1680.59 138.286L1686.72 134.892L1688.65 138.39L1682.53 141.784L1680.59 138.286Z" fill="#70A7C2"
            fill-opacity="0.3" />
        <path d="M1368.27 -171.141L1376.77 -185.863L1380.24 -183.863L1371.74 -169.141L1368.27 -171.141Z" fill="#B8D3E0"
            fill-opacity="0.4" />
        <path d="M1358.22 -182.531L1361.62 -188.653L1365.12 -186.714L1361.72 -180.591L1358.22 -182.531Z" fill="#70A7C2"
            fill-opacity="0.3" />
        <path d="M1343.2 -184.952L1351.19 -199.962L1354.72 -198.084L1346.74 -183.074L1343.2 -184.952Z" fill="#7AA3B8"
            fill-opacity="0.2" />
        <path d="M1317.67 -197.884L1325.12 -213.163L1328.72 -211.41L1321.27 -196.13L1317.67 -197.884Z" fill="#7AA3B8"
            fill-opacity="0.2" />
        <path d="M1306.85 -208.545L1309.81 -214.889L1313.43 -213.199L1310.48 -206.855L1306.85 -208.545Z" fill="#70A7C2"
            fill-opacity="0.3" />
        <path d="M1291.7 -209.92L1298.62 -225.451L1302.27 -223.824L1295.36 -208.294L1291.7 -209.92Z" fill="#B8D3E0"
            fill-opacity="0.4" />
        <path d="M1280.52 -220.198L1283.25 -226.641L1286.93 -225.079L1284.2 -218.635L1280.52 -220.198Z" fill="#70A7C2"
            fill-opacity="0.3" />
        <path d="M1265.33 -221.036L1271.7 -236.798L1275.4 -235.299L1269.04 -219.537L1265.33 -221.036Z" fill="#7AA3B8"
            fill-opacity="0.2" />
        <path d="M1238.58 -231.228L1244.4 -247.203L1248.15 -245.834L1242.34 -229.86L1238.58 -231.228Z" fill="#7AA3B8"
            fill-opacity="0.2" />
        <path d="M1226.71 -240.7L1228.99 -247.318L1232.77 -246.016L1230.49 -239.397L1226.71 -240.7Z" fill="#70A7C2"
            fill-opacity="0.3" />
        <path d="M1211.5 -240.484L1216.75 -256.652L1220.55 -255.416L1215.3 -239.248L1211.5 -240.484Z" fill="#B8D3E0"
            fill-opacity="0.4" />
        <path d="M1199.3 -249.535L1201.35 -256.23L1205.17 -255.06L1203.12 -248.366L1199.3 -249.535Z" fill="#70A7C2"
            fill-opacity="0.3" />
        <path d="M1184.1 -248.782L1188.79 -265.123L1192.64 -264.021L1187.95 -247.679L1184.1 -248.782Z" fill="#7AA3B8"
            fill-opacity="0.2" />
        <path d="M1156.44 -256.122L1160.55 -272.617L1164.43 -271.649L1160.32 -255.154L1156.44 -256.122Z" fill="#7AA3B8"
            fill-opacity="0.2" />
        <path d="M1143.64 -264.3L1145.22 -271.121L1149.11 -270.221L1147.54 -263.4L1143.64 -264.3Z" fill="#70A7C2"
            fill-opacity="0.3" />
        <path d="M1128.54 -262.495L1132.07 -279.124L1135.98 -278.292L1132.45 -261.664L1128.54 -262.495Z" fill="#B8D3E0"
            fill-opacity="0.4" />
        <path d="M1115.46 -270.222L1116.79 -277.094L1120.72 -276.33L1119.39 -269.459L1115.46 -270.222Z" fill="#70A7C2"
            fill-opacity="0.3" />
        <path d="M1100.43 -267.884L1103.38 -284.626L1107.32 -283.932L1104.37 -267.19L1100.43 -267.884Z" fill="#7AA3B8"
            fill-opacity="0.2" />
        <path d="M1072.15 -272.293L1074.51 -289.127L1078.47 -288.571L1076.11 -271.736L1072.15 -272.293Z" fill="#7AA3B8"
            fill-opacity="0.2" />
        <path d="M1058.56 -279.089L1059.42 -286.037L1063.39 -285.55L1062.53 -278.602L1058.56 -279.089Z" fill="#70A7C2"
            fill-opacity="0.3" />
        <path d="M1043.73 -275.717L1045.51 -292.624L1049.48 -292.206L1047.71 -275.299L1043.73 -275.717Z" fill="#B8D3E0"
            fill-opacity="0.4" />
        <path d="M1029.92 -282.035L1030.53 -289.008L1034.51 -288.66L1033.9 -281.686L1029.92 -282.035Z" fill="#70A7C2"
            fill-opacity="0.3" />
        <path d="M1015.21 -278.138L1016.4 -295.097L1020.39 -294.818L1019.2 -277.859L1015.21 -278.138Z" fill="#7AA3B8"
            fill-opacity="0.2" />
        <path d="M986.625 -279.566L987.218 -296.556L991.215 -296.416L990.622 -279.427L986.625 -279.566Z" fill="#7AA3B8"
            fill-opacity="0.2" />
        <path d="M972.404 -284.905L972.527 -291.904L976.526 -291.834L976.404 -284.835L972.404 -284.905Z" fill="#70A7C2"
            fill-opacity="0.3" />
        <path d="M1669.14 128.269L1683.87 119.769L1685.87 123.233L1671.14 131.733L1669.14 128.269Z" fill="#B8D3E0"
            fill-opacity="0.4" />
        <path d="M1666.14 113.38L1672.14 109.775L1674.2 113.204L1668.2 116.809L1666.14 113.38Z" fill="#70A7C2"
            fill-opacity="0.3" />
        <path d="M1654.34 103.773L1668.76 94.7647L1670.88 98.1569L1656.46 107.166L1654.34 103.773Z" fill="#7AA3B8"
            fill-opacity="0.2" />
        <path d="M1638.69 79.8075L1652.79 70.3012L1655.02 73.6173L1640.93 83.1236L1638.69 79.8075Z" fill="#7AA3B8"
            fill-opacity="0.2" />
        <path d="M1634.65 65.1647L1640.39 61.1497L1642.68 64.4263L1636.95 68.4414L1634.65 65.1647Z" fill="#70A7C2"
            fill-opacity="0.3" />
        <path d="M1622.22 56.3988L1635.98 46.4064L1638.33 49.6425L1624.57 59.6348L1622.22 56.3988Z" fill="#B8D3E0"
            fill-opacity="0.4" />
        <path d="M1617.68 41.9063L1623.27 37.6936L1625.67 40.8882L1620.08 45.1009L1617.68 41.9063Z" fill="#70A7C2"
            fill-opacity="0.3" />
        <path d="M1604.94 33.5854L1618.33 23.1191L1620.8 26.2712L1607.4 36.7374L1604.94 33.5854Z" fill="#7AA3B8"
            fill-opacity="0.2" />
        <path d="M1586.87 11.3861L1599.9 0.458717L1602.47 3.5229L1589.44 14.4503L1586.87 11.3861Z" fill="#7AA3B8"
            fill-opacity="0.2" />
        <path d="M1581.32 -2.7542L1586.61 -7.34661L1589.23 -4.32778L1583.95 0.264625L1581.32 -2.7542Z" fill="#70A7C2"
            fill-opacity="0.3" />
        <path d="M1568.04 -10.1721L1580.68 -21.5474L1583.35 -18.5748L1570.72 -7.19958L1568.04 -10.1721Z" fill="#B8D3E0"
            fill-opacity="0.4" />
        <path d="M1562.01 -24.1098L1567.13 -28.8838L1569.85 -25.9584L1564.73 -21.1844L1562.01 -24.1098Z" fill="#70A7C2"
            fill-opacity="0.3" />
        <path d="M1548.47 -31.0543L1560.7 -42.8636L1563.48 -39.9862L1551.25 -28.177L1548.47 -31.0543Z" fill="#7AA3B8"
            fill-opacity="0.2" />
        <path d="M1528.18 -51.2433L1539.99 -63.472L1542.87 -60.6934L1531.06 -48.4646L1528.18 -51.2433Z" fill="#7AA3B8"
            fill-opacity="0.2" />
        <path d="M1521.19 -64.7259L1525.96 -69.8454L1528.89 -67.1174L1524.11 -61.9979L1521.19 -64.7259Z" fill="#70A7C2"
            fill-opacity="0.3" />
        <path d="M1507.2 -70.7154L1518.58 -83.3488L1521.55 -80.6723L1510.18 -68.0389L1507.2 -70.7154Z" fill="#B8D3E0"
            fill-opacity="0.4" />
        <path d="M1499.74 -83.9454L1504.33 -89.2284L1507.35 -86.6042L1502.76 -81.3212L1499.74 -83.9454Z" fill="#70A7C2"
            fill-opacity="0.3" />
        <path d="M1485.55 -89.4372L1496.48 -102.46L1499.55 -99.8888L1488.62 -86.866L1485.55 -89.4372Z" fill="#7AA3B8"
            fill-opacity="0.2" />
        <path d="M1463.27 -107.395L1473.73 -120.791L1476.89 -118.328L1466.42 -104.932L1463.27 -107.395Z" fill="#7AA3B8"
            fill-opacity="0.2" />
        <path d="M1454.9 -120.073L1459.11 -125.663L1462.31 -123.256L1458.1 -117.666L1454.9 -120.073Z" fill="#70A7C2"
            fill-opacity="0.3" />
        <path d="M1440.37 -124.569L1450.36 -138.322L1453.6 -135.971L1443.61 -122.217L1440.37 -124.569Z" fill="#B8D3E0"
            fill-opacity="0.4" />
        <path d="M1431.57 -136.947L1435.58 -142.681L1438.86 -140.386L1434.84 -134.652L1431.57 -136.947Z" fill="#70A7C2"
            fill-opacity="0.3" />
        <path d="M1416.88 -140.925L1426.39 -155.019L1429.71 -152.782L1420.2 -138.688L1416.88 -140.925Z" fill="#7AA3B8"
            fill-opacity="0.2" />
        <path d="M1392.84 -156.455L1401.85 -170.872L1405.24 -168.752L1396.23 -154.335L1392.84 -156.455Z" fill="#7AA3B8"
            fill-opacity="0.2" />
        <path d="M1383.19 -168.189L1386.8 -174.189L1390.23 -172.129L1386.62 -166.128L1383.19 -168.189Z" fill="#70A7C2"
            fill-opacity="0.3" />
        <path d="M958.004 -279.999V-296.999H962.004V-279.999H958.004Z" fill="#B8D3E0" fill-opacity="0.4" />
        <path d="M943.607 -284.839L943.485 -291.838L947.484 -291.908L947.606 -284.909L943.607 -284.839Z" fill="#70A7C2"
            fill-opacity="0.3" />
        <path d="M929.389 -279.426L928.796 -296.416L932.793 -296.555L933.386 -279.566L929.389 -279.426Z" fill="#7AA3B8"
            fill-opacity="0.2" />
        <path d="M900.81 -277.858L899.624 -294.817L903.615 -295.096L904.8 -278.137L900.81 -277.858Z" fill="#7AA3B8"
            fill-opacity="0.2" />
        <path d="M886.11 -281.682L885.5 -288.655L889.484 -289.004L890.094 -282.03L886.11 -281.682Z" fill="#70A7C2"
            fill-opacity="0.3" />
        <path d="M872.302 -275.298L870.525 -292.205L874.503 -292.623L876.28 -275.716L872.302 -275.298Z" fill="#B8D3E0"
            fill-opacity="0.4" />
        <path d="M857.478 -278.607L856.625 -285.554L860.595 -286.042L861.448 -279.094L857.478 -278.607Z" fill="#70A7C2"
            fill-opacity="0.3" />
        <path d="M843.903 -271.736L841.537 -288.571L845.498 -289.128L847.864 -272.293L843.903 -271.736Z" fill="#7AA3B8"
            fill-opacity="0.2" />
        <path d="M815.645 -267.19L812.693 -283.932L816.632 -284.627L819.584 -267.885L815.645 -267.19Z" fill="#7AA3B8"
            fill-opacity="0.2" />
        <path d="M800.625 -269.456L799.29 -276.328L803.216 -277.091L804.552 -270.219L800.625 -269.456Z" fill="#70A7C2"
            fill-opacity="0.3" />
        <path d="M787.561 -261.664L784.027 -278.293L787.939 -279.124L791.474 -262.496L787.561 -261.664Z" fill="#B8D3E0"
            fill-opacity="0.4" />
        <path d="M772.472 -263.404L770.897 -270.225L774.795 -271.125L776.369 -264.304L772.472 -263.404Z" fill="#70A7C2"
            fill-opacity="0.3" />
        <path d="M759.69 -255.154L755.577 -271.649L759.458 -272.617L763.571 -256.122L759.69 -255.154Z" fill="#7AA3B8"
            fill-opacity="0.2" />
        <path d="M732.062 -247.679L727.376 -264.02L731.221 -265.123L735.907 -248.781L732.062 -247.679Z" fill="#7AA3B8"
            fill-opacity="0.2" />
        <path d="M716.887 -248.361L714.841 -255.056L718.666 -256.225L720.713 -249.531L716.887 -248.361Z" fill="#70A7C2"
            fill-opacity="0.3" />
        <path d="M704.709 -239.246L699.455 -255.414L703.26 -256.65L708.513 -240.482L704.709 -239.246Z" fill="#B8D3E0"
            fill-opacity="0.4" />
        <path d="M689.52 -239.399L687.242 -246.018L691.024 -247.32L693.303 -240.702L689.52 -239.399Z" fill="#70A7C2"
            fill-opacity="0.3" />
        <path d="M677.671 -229.858L671.856 -245.833L675.615 -247.201L681.429 -231.227L677.671 -229.858Z" fill="#7AA3B8"
            fill-opacity="0.2" />
        <path d="M650.975 -219.536L644.607 -235.298L648.316 -236.797L654.684 -221.035L650.975 -219.536Z" fill="#7AA3B8"
            fill-opacity="0.2" />
        <path d="M635.813 -218.63L633.078 -225.073L636.76 -226.636L639.495 -220.193L635.813 -218.63Z" fill="#70A7C2"
            fill-opacity="0.3" />
        <path d="M624.654 -208.293L617.739 -223.823L621.393 -225.45L628.308 -209.92L624.654 -208.293Z" fill="#B8D3E0"
            fill-opacity="0.4" />
        <path d="M609.532 -206.858L606.574 -213.203L610.199 -214.893L613.158 -208.549L609.532 -206.858Z" fill="#70A7C2"
            fill-opacity="0.3" />
        <path d="M598.745 -196.131L591.293 -211.41L594.888 -213.164L602.34 -197.884L598.745 -196.131Z" fill="#7AA3B8"
            fill-opacity="0.2" />
        <path d="M573.275 -183.074L565.294 -198.084L568.825 -199.962L576.806 -184.952L573.275 -183.074Z" fill="#7AA3B8"
            fill-opacity="0.2" />
        <path d="M558.29 -180.588L554.896 -186.71L558.395 -188.65L561.789 -182.527L558.29 -180.588Z" fill="#70A7C2"
            fill-opacity="0.3" />
        <path d="M248.864 131.732L234.141 123.232L236.141 119.768L250.864 128.268L248.864 131.732Z" fill="#B8D3E0"
            fill-opacity="0.4" />
        <path d="M237.474 141.781L231.351 138.387L233.291 134.889L239.413 138.282L237.474 141.781Z" fill="#70A7C2"
            fill-opacity="0.3" />
        <path d="M235.052 156.801L220.042 148.82L221.92 145.288L236.93 153.269L235.052 156.801Z" fill="#7AA3B8"
            fill-opacity="0.2" />
        <path d="M222.121 182.334L206.841 174.882L208.595 171.287L223.874 178.739L222.121 182.334Z" fill="#7AA3B8"
            fill-opacity="0.2" />
        <path d="M211.459 193.154L205.115 190.195L206.806 186.57L213.15 189.528L211.459 193.154Z" fill="#70A7C2"
            fill-opacity="0.3" />
        <path d="M210.084 208.303L194.554 201.389L196.181 197.735L211.711 204.649L210.084 208.303Z" fill="#B8D3E0"
            fill-opacity="0.4" />
        <path d="M199.807 219.487L193.363 216.752L194.926 213.07L201.369 215.805L199.807 219.487Z" fill="#70A7C2"
            fill-opacity="0.3" />
        <path d="M198.969 234.678L183.207 228.31L184.705 224.601L200.467 230.969L198.969 234.678Z" fill="#7AA3B8"
            fill-opacity="0.2" />
        <path d="M188.777 261.423L172.802 255.609L174.17 251.85L190.145 257.665L188.777 261.423Z" fill="#7AA3B8"
            fill-opacity="0.2" />
        <path d="M179.305 273.298L172.686 271.019L173.988 267.237L180.607 269.516L179.305 273.298Z" fill="#70A7C2"
            fill-opacity="0.3" />
        <path d="M179.521 288.508L163.353 283.255L164.589 279.45L180.757 284.704L179.521 288.508Z" fill="#B8D3E0"
            fill-opacity="0.4" />
        <path d="M170.469 300.705L163.775 298.659L164.944 294.834L171.639 296.88L170.469 300.705Z" fill="#70A7C2"
            fill-opacity="0.3" />
        <path d="M171.223 315.9L154.881 311.214L155.984 307.369L172.325 312.055L171.223 315.9Z" fill="#7AA3B8"
            fill-opacity="0.2" />
        <path d="M163.883 343.564L147.388 339.452L148.355 335.571L164.85 339.683L163.883 343.564Z" fill="#7AA3B8"
            fill-opacity="0.2" />
        <path d="M155.704 356.364L148.884 354.79L149.784 350.892L156.604 352.467L155.704 356.364Z" fill="#70A7C2"
            fill-opacity="0.3" />
        <path d="M157.509 371.469L140.881 367.935L141.712 364.022L158.341 367.557L157.509 371.469Z" fill="#B8D3E0"
            fill-opacity="0.4" />
        <path d="M149.782 384.546L142.911 383.21L143.674 379.284L150.545 380.619L149.782 384.546Z" fill="#70A7C2"
            fill-opacity="0.3" />
        <path d="M152.12 399.579L135.378 396.627L136.073 392.687L152.815 395.639L152.12 399.579Z" fill="#7AA3B8"
            fill-opacity="0.2" />
        <path d="M147.712 427.859L130.877 425.493L131.434 421.532L148.268 423.898L147.712 427.859Z" fill="#7AA3B8"
            fill-opacity="0.2" />
        <path d="M140.915 441.443L133.967 440.59L134.455 436.62L141.403 437.473L140.915 441.443Z" fill="#70A7C2"
            fill-opacity="0.3" />
        <path d="M144.288 456.276L127.381 454.499L127.799 450.52L144.706 452.297L144.288 456.276Z" fill="#B8D3E0"
            fill-opacity="0.4" />
        <path d="M137.969 470.088L130.996 469.478L131.345 465.493L138.318 466.103L137.969 470.088Z" fill="#70A7C2"
            fill-opacity="0.3" />
        <path d="M141.866 484.794L124.907 483.608L125.186 479.618L142.145 480.804L141.866 484.794Z" fill="#7AA3B8"
            fill-opacity="0.2" />
        <path d="M140.438 513.38L123.449 512.787L123.588 508.79L140.578 509.383L140.438 513.38Z" fill="#7AA3B8"
            fill-opacity="0.2" />
        <path d="M135.099 527.601L128.1 527.478L128.17 523.479L135.169 523.601L135.099 527.601Z" fill="#70A7C2"
            fill-opacity="0.3" />
        <path d="M548.273 -169.14L539.773 -183.862L543.237 -185.862L551.737 -171.14L548.273 -169.14Z" fill="#B8D3E0"
            fill-opacity="0.4" />
        <path d="M533.385 -166.132L529.779 -172.132L533.208 -174.193L536.813 -168.192L533.385 -166.132Z" fill="#70A7C2"
            fill-opacity="0.3" />
        <path d="M523.778 -154.336L514.769 -168.752L518.161 -170.872L527.17 -156.455L523.778 -154.336Z" fill="#7AA3B8"
            fill-opacity="0.2" />
        <path d="M499.812 -138.689L490.306 -152.782L493.622 -155.019L503.128 -140.925L499.812 -138.689Z" fill="#7AA3B8"
            fill-opacity="0.2" />
        <path d="M485.169 -134.649L481.154 -140.383L484.431 -142.678L488.446 -136.944L485.169 -134.649Z" fill="#70A7C2"
            fill-opacity="0.3" />
        <path d="M476.403 -122.217L466.411 -135.97L469.647 -138.322L479.639 -124.568L476.403 -122.217Z" fill="#B8D3E0"
            fill-opacity="0.4" />
        <path d="M461.911 -117.67L457.698 -123.261L460.893 -125.668L465.105 -120.078L461.911 -117.67Z" fill="#70A7C2"
            fill-opacity="0.3" />
        <path d="M453.59 -104.933L443.124 -118.329L446.276 -120.792L456.742 -107.396L453.59 -104.933Z" fill="#7AA3B8"
            fill-opacity="0.2" />
        <path d="M431.391 -86.8674L420.463 -99.8902L423.527 -102.461L434.455 -89.4386L431.391 -86.8674Z" fill="#7AA3B8"
            fill-opacity="0.2" />
        <path d="M417.25 -81.3196L412.658 -86.6026L415.677 -89.2268L420.269 -83.9438L417.25 -81.3196Z" fill="#70A7C2"
            fill-opacity="0.3" />
        <path d="M409.832 -68.0394L398.457 -80.6729L401.43 -83.3494L412.805 -70.716L409.832 -68.0394Z" fill="#B8D3E0"
            fill-opacity="0.4" />
        <path d="M395.895 -62.002L391.121 -67.1214L394.046 -69.8494L398.82 -64.73L395.895 -62.002Z" fill="#70A7C2"
            fill-opacity="0.3" />
        <path d="M388.95 -48.4663L377.141 -60.695L380.018 -63.4737L391.827 -51.2449L388.95 -48.4663Z" fill="#7AA3B8"
            fill-opacity="0.2" />
        <path d="M368.761 -28.1781L356.532 -39.9873L359.311 -42.8647L371.54 -31.0555L368.761 -28.1781Z" fill="#7AA3B8"
            fill-opacity="0.2" />
        <path d="M355.278 -21.1821L350.159 -25.9561L352.887 -28.8815L358.006 -24.1075L355.278 -21.1821Z" fill="#70A7C2"
            fill-opacity="0.3" />
        <path d="M349.289 -7.19875L336.656 -18.574L339.332 -21.5466L351.966 -10.1713L349.289 -7.19875Z" fill="#B8D3E0"
            fill-opacity="0.4" />
        <path d="M336.059 0.26258L330.776 -4.32983L333.4 -7.34866L338.683 -2.75625L336.059 0.26258Z" fill="#70A7C2"
            fill-opacity="0.3" />
        <path d="M330.567 14.4503L317.544 3.5229L320.116 0.458717L333.138 11.3861L330.567 14.4503Z" fill="#7AA3B8"
            fill-opacity="0.2" />
        <path d="M312.61 36.7373L299.213 26.271L301.676 23.119L315.072 33.5852L312.61 36.7373Z" fill="#7AA3B8"
            fill-opacity="0.2" />
        <path d="M299.931 45.1034L294.341 40.8907L296.748 37.6961L302.339 41.9089L299.931 45.1034Z" fill="#70A7C2"
            fill-opacity="0.3" />
        <path d="M295.436 59.635L281.683 49.6427L284.034 46.4066L297.787 56.399L295.436 59.635Z" fill="#B8D3E0"
            fill-opacity="0.4" />
        <path d="M283.058 68.4379L277.324 64.4229L279.618 61.1463L285.352 65.1613L283.058 68.4379Z" fill="#70A7C2"
            fill-opacity="0.3" />
        <path d="M279.079 83.1221L264.986 73.6158L267.222 70.2996L281.316 79.8059L279.079 83.1221Z" fill="#7AA3B8"
            fill-opacity="0.2" />
        <path d="M263.55 107.165L249.133 98.1559L251.253 94.7637L265.669 103.772L263.55 107.165Z" fill="#7AA3B8"
            fill-opacity="0.2" />
        <path d="M251.816 116.81L245.816 113.205L247.876 109.776L253.876 113.381L251.816 116.81Z" fill="#70A7C2"
            fill-opacity="0.3" />
        <path d="M140.005 542.002H123.005V538.002H140.005V542.002Z" fill="#B8D3E0" fill-opacity="0.4" />
        <path d="M135.165 556.399L128.166 556.521L128.097 552.522L135.095 552.4L135.165 556.399Z" fill="#70A7C2"
            fill-opacity="0.3" />
        <path d="M140.578 570.617L123.588 571.211L123.449 567.213L140.438 566.62L140.578 570.617Z" fill="#7AA3B8"
            fill-opacity="0.2" />
        <path d="M142.146 599.196L125.187 600.382L124.908 596.392L141.867 595.206L142.146 599.196Z" fill="#7AA3B8"
            fill-opacity="0.2" />
        <path d="M138.323 613.897L131.349 614.507L131.001 610.522L137.974 609.912L138.323 613.897Z" fill="#70A7C2"
            fill-opacity="0.3" />
        <path d="M144.706 627.704L127.799 629.481L127.381 625.503L144.288 623.726L144.706 627.704Z" fill="#B8D3E0"
            fill-opacity="0.4" />
        <path d="M141.398 642.528L134.45 643.382L133.962 639.411L140.91 638.558L141.398 642.528Z" fill="#70A7C2"
            fill-opacity="0.3" />
        <path d="M148.268 656.103L131.433 658.469L130.876 654.508L147.711 652.142L148.268 656.103Z" fill="#7AA3B8"
            fill-opacity="0.2" />
        <path d="M152.814 684.361L136.072 687.313L135.377 683.374L152.119 680.422L152.814 684.361Z" fill="#7AA3B8"
            fill-opacity="0.2" />
        <path d="M150.548 699.381L143.677 700.717L142.913 696.79L149.785 695.454L150.548 699.381Z" fill="#70A7C2"
            fill-opacity="0.3" />
        <path d="M158.34 712.445L141.711 715.98L140.88 712.067L157.508 708.533L158.34 712.445Z" fill="#B8D3E0"
            fill-opacity="0.4" />
        <path d="M156.6 727.534L149.779 729.109L148.879 725.211L155.7 723.637L156.6 727.534Z" fill="#70A7C2"
            fill-opacity="0.3" />
        <path d="M164.85 740.316L148.355 744.429L147.387 740.548L163.882 736.435L164.85 740.316Z" fill="#7AA3B8"
            fill-opacity="0.2" />
        <path d="M172.325 767.944L155.984 772.63L154.881 768.785L171.223 764.099L172.325 767.944Z" fill="#7AA3B8"
            fill-opacity="0.2" />
        <path d="M171.643 783.119L164.949 785.165L163.779 781.34L170.473 779.294L171.643 783.119Z" fill="#70A7C2"
            fill-opacity="0.3" />
        <path d="M180.758 795.297L164.59 800.551L163.354 796.747L179.522 791.493L180.758 795.297Z" fill="#B8D3E0"
            fill-opacity="0.4" />
        <path d="M180.605 810.486L173.986 812.765L172.684 808.983L179.302 806.704L180.605 810.486Z" fill="#70A7C2"
            fill-opacity="0.3" />
        <path d="M190.146 822.336L174.171 828.15L172.803 824.391L188.778 818.577L190.146 822.336Z" fill="#7AA3B8"
            fill-opacity="0.2" />
        <path d="M200.468 849.031L184.706 855.399L183.207 851.691L198.969 845.322L200.468 849.031Z" fill="#7AA3B8"
            fill-opacity="0.2" />
        <path d="M201.374 864.193L194.931 866.929L193.368 863.247L199.811 860.511L201.374 864.193Z" fill="#70A7C2"
            fill-opacity="0.3" />
        <path d="M211.711 875.353L196.181 882.267L194.554 878.613L210.084 871.698L211.711 875.353Z" fill="#B8D3E0"
            fill-opacity="0.4" />
        <path d="M213.146 890.474L206.801 893.432L205.111 889.807L211.455 886.848L213.146 890.474Z" fill="#70A7C2"
            fill-opacity="0.3" />
        <path d="M223.873 901.261L208.594 908.714L206.84 905.118L222.12 897.666L223.873 901.261Z" fill="#7AA3B8"
            fill-opacity="0.2" />
        <path d="M236.93 926.732L221.92 934.713L220.042 931.181L235.052 923.2L236.93 926.732Z" fill="#7AA3B8"
            fill-opacity="0.2" />
        <path d="M239.416 941.716L233.294 945.11L231.355 941.611L237.477 938.218L239.416 941.716Z" fill="#70A7C2"
            fill-opacity="0.3" />
        <path d="M551.736 1251.14L543.236 1265.86L539.772 1263.86L548.272 1249.14L551.736 1251.14Z" fill="#B8D3E0"
            fill-opacity="0.4" />
        <path d="M561.785 1262.53L558.391 1268.65L554.893 1266.72L558.286 1260.59L561.785 1262.53Z" fill="#70A7C2"
            fill-opacity="0.3" />
        <path d="M576.805 1264.95L568.824 1279.96L565.292 1278.09L573.273 1263.08L576.805 1264.95Z" fill="#7AA3B8"
            fill-opacity="0.2" />
        <path d="M602.338 1277.89L594.886 1293.16L591.291 1291.41L598.743 1276.13L602.338 1277.89Z" fill="#7AA3B8"
            fill-opacity="0.2" />
        <path d="M613.158 1288.55L610.199 1294.89L606.574 1293.2L609.533 1286.86L613.158 1288.55Z" fill="#70A7C2"
            fill-opacity="0.3" />
        <path d="M628.307 1289.92L621.393 1305.45L617.739 1303.83L624.653 1288.3L628.307 1289.92Z" fill="#B8D3E0"
            fill-opacity="0.4" />
        <path d="M639.491 1300.2L636.756 1306.64L633.074 1305.08L635.809 1298.64L639.491 1300.2Z" fill="#70A7C2"
            fill-opacity="0.3" />
        <path d="M654.682 1301.04L648.314 1316.8L644.605 1315.3L650.974 1299.54L654.682 1301.04Z" fill="#7AA3B8"
            fill-opacity="0.2" />
        <path d="M681.427 1311.23L675.613 1327.2L671.854 1325.84L677.669 1309.86L681.427 1311.23Z" fill="#7AA3B8"
            fill-opacity="0.2" />
        <path d="M693.302 1320.7L691.023 1327.32L687.241 1326.02L689.52 1319.4L693.302 1320.7Z" fill="#70A7C2"
            fill-opacity="0.3" />
        <path d="M708.512 1320.49L703.259 1336.65L699.455 1335.42L704.708 1319.25L708.512 1320.49Z" fill="#B8D3E0"
            fill-opacity="0.4" />
        <path d="M720.71 1329.54L718.663 1336.23L714.838 1335.06L716.884 1328.37L720.71 1329.54Z" fill="#70A7C2"
            fill-opacity="0.3" />
        <path d="M735.904 1328.78L731.218 1345.12L727.373 1344.02L732.059 1327.68L735.904 1328.78Z" fill="#7AA3B8"
            fill-opacity="0.2" />
        <path d="M763.569 1336.12L759.456 1352.62L755.575 1351.65L759.687 1335.16L763.569 1336.12Z" fill="#7AA3B8"
            fill-opacity="0.2" />
        <path d="M776.369 1344.3L774.794 1351.12L770.897 1350.22L772.471 1343.4L776.369 1344.3Z" fill="#70A7C2"
            fill-opacity="0.3" />
        <path d="M791.473 1342.5L787.939 1359.13L784.026 1358.29L787.561 1341.67L791.473 1342.5Z" fill="#B8D3E0"
            fill-opacity="0.4" />
        <path d="M804.55 1350.22L803.214 1357.1L799.288 1356.33L800.624 1349.46L804.55 1350.22Z" fill="#70A7C2"
            fill-opacity="0.3" />
        <path d="M819.583 1347.89L816.631 1364.63L812.692 1363.93L815.644 1347.19L819.583 1347.89Z" fill="#7AA3B8"
            fill-opacity="0.2" />
        <path d="M847.863 1352.29L845.497 1369.13L841.536 1368.57L843.902 1351.74L847.863 1352.29Z" fill="#7AA3B8"
            fill-opacity="0.2" />
        <path d="M861.447 1359.09L860.594 1366.04L856.624 1365.55L857.477 1358.6L861.447 1359.09Z" fill="#70A7C2"
            fill-opacity="0.3" />
        <path d="M876.28 1355.72L874.503 1372.63L870.525 1372.21L872.302 1355.3L876.28 1355.72Z" fill="#B8D3E0"
            fill-opacity="0.4" />
        <path d="M890.092 1362.04L889.482 1369.01L885.497 1368.66L886.107 1361.69L890.092 1362.04Z" fill="#70A7C2"
            fill-opacity="0.3" />
        <path d="M904.798 1358.14L903.612 1375.1L899.622 1374.82L900.808 1357.86L904.798 1358.14Z" fill="#7AA3B8"
            fill-opacity="0.2" />
        <path d="M933.384 1359.57L932.791 1376.56L928.794 1376.42L929.387 1359.43L933.384 1359.57Z" fill="#7AA3B8"
            fill-opacity="0.2" />
        <path d="M947.605 1364.91L947.483 1371.91L943.483 1371.84L943.605 1364.84L947.605 1364.91Z" fill="#70A7C2"
            fill-opacity="0.3" />
        <path d="M250.864 951.733L236.142 960.233L234.142 956.769L248.864 948.269L250.864 951.733Z" fill="#B8D3E0"
            fill-opacity="0.4" />
        <path d="M253.872 966.622L247.872 970.227L245.811 966.798L251.812 963.193L253.872 966.622Z" fill="#70A7C2"
            fill-opacity="0.3" />
        <path d="M265.668 976.228L251.252 985.237L249.132 981.845L263.549 972.836L265.668 976.228Z" fill="#7AA3B8"
            fill-opacity="0.2" />
        <path d="M281.316 1000.19L267.222 1009.7L264.985 1006.38L279.079 996.878L281.316 1000.19Z" fill="#7AA3B8"
            fill-opacity="0.2" />
        <path d="M285.355 1014.84L279.621 1018.85L277.326 1015.58L283.06 1011.56L285.355 1014.84Z" fill="#70A7C2"
            fill-opacity="0.3" />
        <path d="M297.787 1023.6L284.034 1033.6L281.683 1030.36L295.436 1020.37L297.787 1023.6Z" fill="#B8D3E0"
            fill-opacity="0.4" />
        <path d="M302.334 1038.1L296.743 1042.31L294.336 1039.11L299.927 1034.9L302.334 1038.1Z" fill="#70A7C2"
            fill-opacity="0.3" />
        <path d="M315.071 1046.42L301.675 1056.88L299.212 1053.73L312.608 1043.26L315.071 1046.42Z" fill="#7AA3B8"
            fill-opacity="0.2" />
        <path d="M333.137 1068.62L320.114 1079.54L317.543 1076.48L330.566 1065.55L333.137 1068.62Z" fill="#7AA3B8"
            fill-opacity="0.2" />
        <path d="M338.685 1082.76L333.402 1087.35L330.777 1084.33L336.06 1079.74L338.685 1082.76Z" fill="#70A7C2"
            fill-opacity="0.3" />
        <path d="M351.965 1090.17L339.331 1101.55L336.655 1098.58L349.288 1087.2L351.965 1090.17Z" fill="#B8D3E0"
            fill-opacity="0.4" />
        <path d="M358.002 1104.11L352.883 1108.89L350.155 1105.96L355.274 1101.19L358.002 1104.11Z" fill="#70A7C2"
            fill-opacity="0.3" />
        <path d="M371.538 1111.06L359.309 1122.87L356.53 1119.99L368.759 1108.18L371.538 1111.06Z" fill="#7AA3B8"
            fill-opacity="0.2" />
        <path d="M391.826 1131.25L380.017 1143.47L377.139 1140.7L388.949 1128.47L391.826 1131.25Z" fill="#7AA3B8"
            fill-opacity="0.2" />
        <path d="M398.822 1144.73L394.048 1149.85L391.123 1147.12L395.897 1142L398.822 1144.73Z" fill="#70A7C2"
            fill-opacity="0.3" />
        <path d="M412.805 1150.72L401.43 1163.35L398.458 1160.67L409.833 1148.04L412.805 1150.72Z" fill="#B8D3E0"
            fill-opacity="0.4" />
        <path d="M420.267 1163.95L415.674 1169.23L412.655 1166.61L417.248 1161.32L420.267 1163.95Z" fill="#70A7C2"
            fill-opacity="0.3" />
        <path d="M434.454 1169.44L423.527 1182.46L420.463 1179.89L431.39 1166.87L434.454 1169.44Z" fill="#7AA3B8"
            fill-opacity="0.2" />
        <path d="M456.741 1187.4L446.275 1200.79L443.123 1198.33L453.589 1184.93L456.741 1187.4Z" fill="#7AA3B8"
            fill-opacity="0.2" />
        <path d="M465.108 1200.07L460.895 1205.67L457.7 1203.26L461.913 1197.67L465.108 1200.07Z" fill="#70A7C2"
            fill-opacity="0.3" />
        <path d="M479.639 1204.57L469.647 1218.32L466.411 1215.97L476.403 1202.22L479.639 1204.57Z" fill="#B8D3E0"
            fill-opacity="0.4" />
        <path d="M488.442 1216.95L484.427 1222.68L481.15 1220.39L485.165 1214.65L488.442 1216.95Z" fill="#70A7C2"
            fill-opacity="0.3" />
        <path d="M503.126 1220.93L493.62 1235.02L490.304 1232.78L499.81 1218.69L503.126 1220.93Z" fill="#7AA3B8"
            fill-opacity="0.2" />
        <path d="M527.169 1236.46L518.16 1250.87L514.768 1248.75L523.776 1234.34L527.169 1236.46Z" fill="#7AA3B8"
            fill-opacity="0.2" />
        <path d="M536.814 1248.19L533.209 1254.19L529.78 1252.13L533.386 1246.13L536.814 1248.19Z" fill="#70A7C2"
            fill-opacity="0.3" />
        <path d="M962.004 1360V1377H958.004V1360H962.004Z" fill="#B8D3E0" fill-opacity="0.4" />
        <path d="M976.401 1364.84L976.523 1371.84L972.524 1371.91L972.402 1364.91L976.401 1364.84Z" fill="#70A7C2"
            fill-opacity="0.3" />
        <path d="M990.619 1359.43L991.213 1376.42L987.215 1376.56L986.622 1359.57L990.619 1359.43Z" fill="#7AA3B8"
            fill-opacity="0.2" />
        <path d="M1019.2 1357.86L1020.38 1374.82L1016.39 1375.1L1015.21 1358.14L1019.2 1357.86Z" fill="#7AA3B8"
            fill-opacity="0.2" />
        <path d="M1033.9 1361.69L1034.51 1368.66L1030.52 1369.01L1029.91 1362.03L1033.9 1361.69Z" fill="#70A7C2"
            fill-opacity="0.3" />
        <path d="M1047.71 1355.3L1049.48 1372.21L1045.5 1372.63L1043.73 1355.72L1047.71 1355.3Z" fill="#B8D3E0"
            fill-opacity="0.4" />
        <path d="M1062.53 1358.61L1063.38 1365.56L1059.41 1366.05L1058.56 1359.1L1062.53 1358.61Z" fill="#70A7C2"
            fill-opacity="0.3" />
        <path d="M1076.1 1351.74L1078.47 1368.57L1074.51 1369.13L1072.14 1352.3L1076.1 1351.74Z" fill="#7AA3B8"
            fill-opacity="0.2" />
        <path d="M1104.36 1347.19L1107.32 1363.94L1103.38 1364.63L1100.42 1347.89L1104.36 1347.19Z" fill="#7AA3B8"
            fill-opacity="0.2" />
        <path d="M1119.38 1349.46L1120.72 1356.33L1116.79 1357.09L1115.46 1350.22L1119.38 1349.46Z" fill="#70A7C2"
            fill-opacity="0.3" />
        <path d="M1132.45 1341.67L1135.98 1358.3L1132.07 1359.13L1128.53 1342.5L1132.45 1341.67Z" fill="#B8D3E0"
            fill-opacity="0.4" />
        <path d="M1147.54 1343.41L1149.11 1350.23L1145.21 1351.13L1143.64 1344.31L1147.54 1343.41Z" fill="#70A7C2"
            fill-opacity="0.3" />
        <path d="M1160.32 1335.16L1164.43 1351.65L1160.55 1352.62L1156.44 1336.13L1160.32 1335.16Z" fill="#7AA3B8"
            fill-opacity="0.2" />
        <path d="M1187.95 1327.68L1192.63 1344.02L1188.79 1345.13L1184.1 1328.78L1187.95 1327.68Z" fill="#7AA3B8"
            fill-opacity="0.2" />
        <path d="M1203.12 1328.36L1205.17 1335.06L1201.34 1336.23L1199.3 1329.53L1203.12 1328.36Z" fill="#70A7C2"
            fill-opacity="0.3" />
        <path d="M1215.3 1319.25L1220.55 1335.42L1216.75 1336.65L1211.5 1320.49L1215.3 1319.25Z" fill="#B8D3E0"
            fill-opacity="0.4" />
        <path d="M1230.49 1319.4L1232.77 1326.02L1228.98 1327.32L1226.71 1320.71L1230.49 1319.4Z" fill="#70A7C2"
            fill-opacity="0.3" />
        <path d="M1242.34 1309.86L1248.15 1325.84L1244.39 1327.2L1238.58 1311.23L1242.34 1309.86Z" fill="#7AA3B8"
            fill-opacity="0.2" />
        <path d="M1269.03 1299.54L1275.4 1315.3L1271.69 1316.8L1265.32 1301.04L1269.03 1299.54Z" fill="#7AA3B8"
            fill-opacity="0.2" />
        <path d="M1284.2 1298.63L1286.93 1305.08L1283.25 1306.64L1280.51 1300.2L1284.2 1298.63Z" fill="#70A7C2"
            fill-opacity="0.3" />
        <path d="M1295.35 1288.3L1302.27 1303.83L1298.61 1305.45L1291.7 1289.92L1295.35 1288.3Z" fill="#B8D3E0"
            fill-opacity="0.4" />
        <path d="M1310.48 1286.86L1313.43 1293.21L1309.81 1294.9L1306.85 1288.55L1310.48 1286.86Z" fill="#70A7C2"
            fill-opacity="0.3" />
        <path d="M1321.26 1276.13L1328.72 1291.41L1325.12 1293.17L1317.67 1277.89L1321.26 1276.13Z" fill="#7AA3B8"
            fill-opacity="0.2" />
        <path d="M1346.73 1263.08L1354.71 1278.09L1351.18 1279.97L1343.2 1264.96L1346.73 1263.08Z" fill="#7AA3B8"
            fill-opacity="0.2" />
        <path d="M1361.72 1260.59L1365.11 1266.71L1361.61 1268.65L1358.22 1262.53L1361.72 1260.59Z" fill="#70A7C2"
            fill-opacity="0.3" />
        <path d="M1671.14 948.271L1685.87 956.771L1683.87 960.235L1669.14 951.735L1671.14 948.271Z" fill="#B8D3E0"
            fill-opacity="0.4" />
        <path d="M1682.53 938.223L1688.66 941.616L1686.72 945.115L1680.59 941.721L1682.53 938.223Z" fill="#70A7C2"
            fill-opacity="0.3" />
        <path d="M1684.96 923.203L1699.97 931.184L1698.09 934.716L1683.08 926.735L1684.96 923.203Z" fill="#7AA3B8"
            fill-opacity="0.2" />
        <path d="M1697.89 897.669L1713.17 905.122L1711.41 908.717L1696.13 901.264L1697.89 897.669Z" fill="#7AA3B8"
            fill-opacity="0.2" />
        <path d="M1708.55 886.85L1714.89 889.808L1713.2 893.433L1706.86 890.475L1708.55 886.85Z" fill="#70A7C2"
            fill-opacity="0.3" />
        <path d="M1709.92 871.7L1725.45 878.615L1723.83 882.269L1708.3 875.354L1709.92 871.7Z" fill="#B8D3E0"
            fill-opacity="0.4" />
        <path d="M1720.2 860.516L1726.65 863.252L1725.08 866.934L1718.64 864.198L1720.2 860.516Z" fill="#70A7C2"
            fill-opacity="0.3" />
        <path d="M1721.04 845.325L1736.8 851.694L1735.3 855.402L1719.54 849.034L1721.04 845.325Z" fill="#7AA3B8"
            fill-opacity="0.2" />
        <path d="M1731.23 818.58L1747.21 824.394L1745.84 828.153L1729.86 822.339L1731.23 818.58Z" fill="#7AA3B8"
            fill-opacity="0.2" />
        <path d="M1740.7 806.705L1747.32 808.984L1746.02 812.766L1739.4 810.487L1740.7 806.705Z" fill="#70A7C2"
            fill-opacity="0.3" />
        <path d="M1740.49 791.496L1756.66 796.749L1755.42 800.553L1739.25 795.3L1740.49 791.496Z" fill="#B8D3E0"
            fill-opacity="0.4" />
        <path d="M1749.54 779.298L1756.23 781.345L1755.06 785.17L1748.37 783.123L1749.54 779.298Z" fill="#70A7C2"
            fill-opacity="0.3" />
        <path d="M1748.79 764.104L1765.13 768.789L1764.02 772.634L1747.68 767.949L1748.79 764.104Z" fill="#7AA3B8"
            fill-opacity="0.2" />
        <path d="M1756.13 736.439L1772.62 740.552L1771.65 744.433L1755.16 740.32L1756.13 736.439Z" fill="#7AA3B8"
            fill-opacity="0.2" />
        <path d="M1764.3 723.639L1771.12 725.214L1770.22 729.111L1763.4 727.536L1764.3 723.639Z" fill="#70A7C2"
            fill-opacity="0.3" />
        <path d="M1762.5 708.534L1779.13 712.069L1778.3 715.981L1761.67 712.447L1762.5 708.534Z" fill="#B8D3E0"
            fill-opacity="0.4" />
        <path d="M1770.23 695.458L1777.1 696.793L1776.33 700.72L1769.46 699.384L1770.23 695.458Z" fill="#70A7C2"
            fill-opacity="0.3" />
        <path d="M1767.89 680.425L1784.63 683.377L1783.94 687.316L1767.19 684.364L1767.89 680.425Z" fill="#7AA3B8"
            fill-opacity="0.2" />
        <path d="M1772.3 652.145L1789.13 654.511L1788.57 658.472L1771.74 656.106L1772.3 652.145Z" fill="#7AA3B8"
            fill-opacity="0.2" />
        <path d="M1779.09 638.561L1786.04 639.414L1785.55 643.384L1778.61 642.531L1779.09 638.561Z" fill="#70A7C2"
            fill-opacity="0.3" />
        <path d="M1775.72 623.728L1792.63 625.505L1792.21 629.483L1775.3 627.706L1775.72 623.728Z" fill="#B8D3E0"
            fill-opacity="0.4" />
        <path d="M1782.04 609.915L1789.01 610.526L1788.66 614.51L1781.69 613.9L1782.04 609.915Z" fill="#70A7C2"
            fill-opacity="0.3" />
        <path d="M1778.14 595.209L1795.1 596.395L1794.82 600.385L1777.86 599.2L1778.14 595.209Z" fill="#7AA3B8"
            fill-opacity="0.2" />
        <path d="M1779.57 566.623L1796.56 567.216L1796.42 571.214L1779.43 570.621L1779.57 566.623Z" fill="#7AA3B8"
            fill-opacity="0.2" />
        <path d="M1784.91 552.403L1791.91 552.525L1791.84 556.524L1784.84 556.402L1784.91 552.403Z" fill="#70A7C2"
            fill-opacity="0.3" />
        <path d="M1371.74 1249.14L1380.24 1263.87L1376.77 1265.87L1368.27 1251.14L1371.74 1249.14Z" fill="#B8D3E0"
            fill-opacity="0.4" />
        <path d="M1386.62 1246.14L1390.23 1252.14L1386.8 1254.2L1383.19 1248.2L1386.62 1246.14Z" fill="#70A7C2"
            fill-opacity="0.3" />
        <path d="M1396.23 1234.34L1405.24 1248.76L1401.85 1250.88L1392.84 1236.46L1396.23 1234.34Z" fill="#7AA3B8"
            fill-opacity="0.2" />
        <path d="M1420.2 1218.69L1429.7 1232.79L1426.39 1235.02L1416.88 1220.93L1420.2 1218.69Z" fill="#7AA3B8"
            fill-opacity="0.2" />
        <path d="M1434.84 1214.65L1438.85 1220.39L1435.58 1222.68L1431.56 1216.95L1434.84 1214.65Z" fill="#70A7C2"
            fill-opacity="0.3" />
        <path d="M1443.6 1202.22L1453.6 1215.97L1450.36 1218.33L1440.37 1204.57L1443.6 1202.22Z" fill="#B8D3E0"
            fill-opacity="0.4" />
        <path d="M1458.1 1197.67L1462.31 1203.26L1459.12 1205.67L1454.9 1200.08L1458.1 1197.67Z" fill="#70A7C2"
            fill-opacity="0.3" />
        <path d="M1466.42 1184.94L1476.88 1198.33L1473.73 1200.8L1463.27 1187.4L1466.42 1184.94Z" fill="#7AA3B8"
            fill-opacity="0.2" />
        <path d="M1488.62 1166.87L1499.54 1179.89L1496.48 1182.46L1485.55 1169.44L1488.62 1166.87Z" fill="#7AA3B8"
            fill-opacity="0.2" />
        <path d="M1502.76 1161.32L1507.35 1166.61L1504.33 1169.23L1499.74 1163.95L1502.76 1161.32Z" fill="#70A7C2"
            fill-opacity="0.3" />
        <path d="M1510.18 1148.04L1521.55 1160.68L1518.58 1163.35L1507.2 1150.72L1510.18 1148.04Z" fill="#B8D3E0"
            fill-opacity="0.4" />
        <path d="M1524.11 1142.01L1528.89 1147.12L1525.96 1149.85L1521.19 1144.73L1524.11 1142.01Z" fill="#70A7C2"
            fill-opacity="0.3" />
        <path d="M1531.06 1128.47L1542.87 1140.7L1539.99 1143.48L1528.18 1131.25L1531.06 1128.47Z" fill="#7AA3B8"
            fill-opacity="0.2" />
        <path d="M1551.25 1108.18L1563.48 1119.99L1560.7 1122.87L1548.47 1111.06L1551.25 1108.18Z" fill="#7AA3B8"
            fill-opacity="0.2" />
        <path d="M1564.73 1101.19L1569.85 1105.96L1567.12 1108.88L1562 1104.11L1564.73 1101.19Z" fill="#70A7C2"
            fill-opacity="0.3" />
        <path d="M1570.72 1087.2L1583.35 1098.58L1580.68 1101.55L1568.04 1090.17L1570.72 1087.2Z" fill="#B8D3E0"
            fill-opacity="0.4" />
        <path d="M1583.95 1079.74L1589.23 1084.33L1586.61 1087.35L1581.32 1082.76L1583.95 1079.74Z" fill="#70A7C2"
            fill-opacity="0.3" />
        <path d="M1589.44 1065.55L1602.46 1076.48L1599.89 1079.54L1586.87 1068.62L1589.44 1065.55Z" fill="#7AA3B8"
            fill-opacity="0.2" />
        <path d="M1607.4 1043.27L1620.79 1053.73L1618.33 1056.88L1604.94 1046.42L1607.4 1043.27Z" fill="#7AA3B8"
            fill-opacity="0.2" />
        <path d="M1620.08 1034.9L1625.67 1039.11L1623.26 1042.31L1617.67 1038.09L1620.08 1034.9Z" fill="#70A7C2"
            fill-opacity="0.3" />
        <path d="M1624.57 1020.37L1638.33 1030.36L1635.97 1033.6L1622.22 1023.6L1624.57 1020.37Z" fill="#B8D3E0"
            fill-opacity="0.4" />
        <path d="M1636.95 1011.57L1642.68 1015.58L1640.39 1018.86L1634.66 1014.84L1636.95 1011.57Z" fill="#70A7C2"
            fill-opacity="0.3" />
        <path d="M1640.93 996.881L1655.02 1006.39L1652.79 1009.7L1638.69 1000.2L1640.93 996.881Z" fill="#7AA3B8"
            fill-opacity="0.2" />
        <path d="M1656.46 972.839L1670.88 981.848L1668.76 985.24L1654.34 976.231L1656.46 972.839Z" fill="#7AA3B8"
            fill-opacity="0.2" />
        <path d="M1668.19 963.193L1674.19 966.799L1672.13 970.227L1666.13 966.622L1668.19 963.193Z" fill="#70A7C2"
            fill-opacity="0.3" />
    </g>
</svg>