<svg width="90" height="108" viewBox="0 0 90 108" fill="none" xmlns="http://www.w3.org/2000/svg">
    <path d="M2 54L88 54" stroke="#A3E7F5" stroke-opacity="0.9" stroke-width="3" />
    <g filter="url(#filter0_d_520_48)">
        <path
            d="M25.3652 9.90234C26.5137 9.90234 27.4863 10.3008 28.2832 11.0977C29.0801 11.8945 29.4785 12.8555 29.4785 13.9805V38.5195C29.4785 39.6445 29.0801 40.6055 28.2832 41.4023C27.4863 42.1992 26.5137 42.5977 25.3652 42.5977H9.01758C7.89258 42.5977 6.93164 42.1992 6.13477 41.4023C5.33789 40.6055 4.93945 39.6445 4.93945 38.5195V13.9805C4.93945 12.8555 5.33789 11.8945 6.13477 11.0977C6.93164 10.3008 7.89258 9.90234 9.01758 9.90234H25.3652ZM10.6348 16.4414V36.0586C10.6348 36.293 10.7168 36.4922 10.8809 36.6562C11.0449 36.8203 11.2441 36.9023 11.4785 36.9023H22.9395C23.1504 36.9023 23.3379 36.8203 23.502 36.6562C23.666 36.4922 23.748 36.293 23.748 36.0586V16.4414C23.748 16.207 23.666 16.0078 23.502 15.8438C23.3379 15.6797 23.1504 15.5977 22.9395 15.5977H11.4785C11.2441 15.5977 11.0449 15.6797 10.8809 15.8438C10.7168 16.0078 10.6348 16.207 10.6348 16.4414ZM57.2871 37.7109V41.7891C57.2871 42.0234 57.2051 42.2109 57.041 42.3516C56.877 42.5156 56.6777 42.5977 56.4434 42.5977H33.5566C33.3223 42.5977 33.123 42.5156 32.959 42.3516C32.8184 42.2109 32.748 42.0234 32.748 41.7891V27.9023C32.748 26.7539 33.1465 25.7812 33.9434 24.9844C34.7402 24.1875 35.7012 23.7891 36.8262 23.7891H50.748C50.959 23.7891 51.1465 23.7188 51.3105 23.5781C51.4746 23.4141 51.5566 23.2148 51.5566 22.9805V16.4414C51.5566 16.207 51.4746 16.0078 51.3105 15.8438C51.1465 15.6797 50.959 15.5977 50.748 15.5977H33.5566C33.3223 15.5977 33.123 15.5273 32.959 15.3867C32.8184 15.2227 32.748 15.0234 32.748 14.7891V10.7109C32.748 10.4766 32.8184 10.2891 32.959 10.1484C33.123 9.98438 33.3223 9.90234 33.5566 9.90234H53.1738C54.3223 9.90234 55.2949 10.3008 56.0918 11.0977C56.8887 11.8945 57.2871 12.8555 57.2871 13.9805V24.5977C57.2871 25.7461 56.8887 26.7188 56.0918 27.5156C55.2949 28.3125 54.3223 28.7109 53.1738 28.7109H39.2871C39.0527 28.7109 38.8535 28.793 38.6895 28.957C38.5254 29.0977 38.4434 29.2852 38.4434 29.5195V36.0586C38.4434 36.293 38.5254 36.4922 38.6895 36.6562C38.8535 36.8203 39.0527 36.9023 39.2871 36.9023H56.4434C56.6777 36.9023 56.877 36.9844 57.041 37.1484C57.2051 37.2891 57.2871 37.4766 57.2871 37.7109ZM80.9824 9.90234C82.1309 9.90234 83.1035 10.3008 83.9004 11.0977C84.6973 11.8945 85.0957 12.8555 85.0957 13.9805V38.5195C85.0957 39.6445 84.6973 40.6055 83.9004 41.4023C83.1035 42.1992 82.1309 42.5977 80.9824 42.5977H61.3652C61.1309 42.5977 60.9316 42.5156 60.7676 42.3516C60.627 42.2109 60.5566 42.0234 60.5566 41.7891V37.7109C60.5566 37.4766 60.627 37.2891 60.7676 37.1484C60.9316 36.9844 61.1309 36.9023 61.3652 36.9023H78.5566C78.7676 36.9023 78.9551 36.8203 79.1191 36.6562C79.2832 36.4922 79.3652 36.293 79.3652 36.0586V29.5195C79.3652 29.2852 79.2832 29.0977 79.1191 28.957C78.9551 28.793 78.7676 28.7109 78.5566 28.7109H64.6348C63.5098 28.7109 62.5488 28.3125 61.752 27.5156C60.9551 26.7188 60.5566 25.7461 60.5566 24.5977V13.9805C60.5566 12.8555 60.9551 11.8945 61.752 11.0977C62.5488 10.3008 63.5098 9.90234 64.6348 9.90234H80.9824ZM79.3652 22.9805V16.4414C79.3652 16.207 79.2832 16.0078 79.1191 15.8438C78.9551 15.6797 78.7676 15.5977 78.5566 15.5977H67.0957C66.8613 15.5977 66.6621 15.6797 66.498 15.8438C66.334 16.0078 66.252 16.207 66.252 16.4414V22.9805C66.252 23.2148 66.334 23.4141 66.498 23.5781C66.6621 23.7188 66.8613 23.7891 67.0957 23.7891H78.5566C78.7676 23.7891 78.9551 23.7188 79.1191 23.5781C79.2832 23.4141 79.3652 23.2148 79.3652 22.9805Z"
            fill="#A3E7F5" fill-opacity="0.9" shape-rendering="crispEdges" />
    </g>
    <g filter="url(#filter1_d_520_48)">
        <path
            d="M25.3652 65.9023C26.5137 65.9023 27.4863 66.3008 28.2832 67.0977C29.0801 67.8945 29.4785 68.8555 29.4785 69.9805V94.5195C29.4785 95.6445 29.0801 96.6055 28.2832 97.4023C27.4863 98.1992 26.5137 98.5977 25.3652 98.5977H9.01758C7.89258 98.5977 6.93164 98.1992 6.13477 97.4023C5.33789 96.6055 4.93945 95.6445 4.93945 94.5195V69.9805C4.93945 68.8555 5.33789 67.8945 6.13477 67.0977C6.93164 66.3008 7.89258 65.9023 9.01758 65.9023H25.3652ZM10.6348 72.4414V92.0586C10.6348 92.293 10.7168 92.4922 10.8809 92.6562C11.0449 92.8203 11.2441 92.9023 11.4785 92.9023H22.9395C23.1504 92.9023 23.3379 92.8203 23.502 92.6562C23.666 92.4922 23.748 92.293 23.748 92.0586V72.4414C23.748 72.207 23.666 72.0078 23.502 71.8438C23.3379 71.6797 23.1504 71.5977 22.9395 71.5977H11.4785C11.2441 71.5977 11.0449 71.6797 10.8809 71.8438C10.7168 72.0078 10.6348 72.207 10.6348 72.4414ZM57.2871 93.7109V97.7891C57.2871 98.0234 57.2051 98.2109 57.041 98.3516C56.877 98.5156 56.6777 98.5977 56.4434 98.5977H33.5566C33.3223 98.5977 33.123 98.5156 32.959 98.3516C32.8184 98.2109 32.748 98.0234 32.748 97.7891V83.9023C32.748 82.7539 33.1465 81.7812 33.9434 80.9844C34.7402 80.1875 35.7012 79.7891 36.8262 79.7891H50.748C50.959 79.7891 51.1465 79.7188 51.3105 79.5781C51.4746 79.4141 51.5566 79.2148 51.5566 78.9805V72.4414C51.5566 72.207 51.4746 72.0078 51.3105 71.8438C51.1465 71.6797 50.959 71.5977 50.748 71.5977H33.5566C33.3223 71.5977 33.123 71.5273 32.959 71.3867C32.8184 71.2227 32.748 71.0234 32.748 70.7891V66.7109C32.748 66.4766 32.8184 66.2891 32.959 66.1484C33.123 65.9844 33.3223 65.9023 33.5566 65.9023H53.1738C54.3223 65.9023 55.2949 66.3008 56.0918 67.0977C56.8887 67.8945 57.2871 68.8555 57.2871 69.9805V80.5977C57.2871 81.7461 56.8887 82.7188 56.0918 83.5156C55.2949 84.3125 54.3223 84.7109 53.1738 84.7109H39.2871C39.0527 84.7109 38.8535 84.793 38.6895 84.957C38.5254 85.0977 38.4434 85.2852 38.4434 85.5195V92.0586C38.4434 92.293 38.5254 92.4922 38.6895 92.6562C38.8535 92.8203 39.0527 92.9023 39.2871 92.9023H56.4434C56.6777 92.9023 56.877 92.9844 57.041 93.1484C57.2051 93.2891 57.2871 93.4766 57.2871 93.7109ZM80.9824 65.9023C82.1309 65.9023 83.1035 66.3008 83.9004 67.0977C84.6973 67.8945 85.0957 68.8555 85.0957 69.9805V94.5195C85.0957 95.6445 84.6973 96.6055 83.9004 97.4023C83.1035 98.1992 82.1309 98.5977 80.9824 98.5977H61.3652C61.1309 98.5977 60.9316 98.5156 60.7676 98.3516C60.627 98.2109 60.5566 98.0234 60.5566 97.7891V93.7109C60.5566 93.4766 60.627 93.2891 60.7676 93.1484C60.9316 92.9844 61.1309 92.9023 61.3652 92.9023H78.5566C78.7676 92.9023 78.9551 92.8203 79.1191 92.6562C79.2832 92.4922 79.3652 92.293 79.3652 92.0586V85.5195C79.3652 85.2852 79.2832 85.0977 79.1191 84.957C78.9551 84.793 78.7676 84.7109 78.5566 84.7109H64.6348C63.5098 84.7109 62.5488 84.3125 61.752 83.5156C60.9551 82.7188 60.5566 81.7461 60.5566 80.5977V69.9805C60.5566 68.8555 60.9551 67.8945 61.752 67.0977C62.5488 66.3008 63.5098 65.9023 64.6348 65.9023H80.9824ZM79.3652 78.9805V72.4414C79.3652 72.207 79.2832 72.0078 79.1191 71.8438C78.9551 71.6797 78.7676 71.5977 78.5566 71.5977H67.0957C66.8613 71.5977 66.6621 71.6797 66.498 71.8438C66.334 72.0078 66.252 72.207 66.252 72.4414V78.9805C66.252 79.2148 66.334 79.4141 66.498 79.5781C66.6621 79.7188 66.8613 79.7891 67.0957 79.7891H78.5566C78.7676 79.7891 78.9551 79.7188 79.1191 79.5781C79.2832 79.4141 79.3652 79.2148 79.3652 78.9805Z"
            fill="#A3E7F5" fill-opacity="0.9" shape-rendering="crispEdges" />
    </g>
    <defs>
        <filter id="filter0_d_520_48" x="0.939453" y="5.90234" width="88.1562" height="40.6953"
            filterUnits="userSpaceOnUse" color-interpolation-filters="sRGB">
            <feFlood flood-opacity="0" result="BackgroundImageFix" />
            <feColorMatrix in="SourceAlpha" type="matrix" values="0 0 0 0 0 0 0 0 0 0 0 0 0 0 0 0 0 0 127 0"
                result="hardAlpha" />
            <feOffset />
            <feGaussianBlur stdDeviation="2" />
            <feComposite in2="hardAlpha" operator="out" />
            <feColorMatrix type="matrix" values="0 0 0 0 0 0 0 0 0 0.4 0 0 0 0 0.6 0 0 0 1 0" />
            <feBlend mode="normal" in2="BackgroundImageFix" result="effect1_dropShadow_520_48" />
            <feBlend mode="normal" in="SourceGraphic" in2="effect1_dropShadow_520_48" result="shape" />
        </filter>
        <filter id="filter1_d_520_48" x="0.939453" y="61.9023" width="88.1562" height="40.6953"
            filterUnits="userSpaceOnUse" color-interpolation-filters="sRGB">
            <feFlood flood-opacity="0" result="BackgroundImageFix" />
            <feColorMatrix in="SourceAlpha" type="matrix" values="0 0 0 0 0 0 0 0 0 0 0 0 0 0 0 0 0 0 127 0"
                result="hardAlpha" />
            <feOffset />
            <feGaussianBlur stdDeviation="2" />
            <feComposite in2="hardAlpha" operator="out" />
            <feColorMatrix type="matrix" values="0 0 0 0 0 0 0 0 0 0.4 0 0 0 0 0.6 0 0 0 1 0" />
            <feBlend mode="normal" in2="BackgroundImageFix" result="effect1_dropShadow_520_48" />
            <feBlend mode="normal" in="SourceGraphic" in2="effect1_dropShadow_520_48" result="shape" />
        </filter>
    </defs>
</svg>