<svg width="1720" height="540" viewBox="0 0 1720 540" fill="none" xmlns="http://www.w3.org/2000/svg">
    <path
        d="M59.2105 9.70825C52.9074 7.66026 46.1282 11.1099 44.169 17.4411C-6.72297 181.896 -6.723 357.905 44.1689 522.36C46.1281 528.691 52.9073 532.141 59.2104 530.093L85.1172 521.675C91.4202 519.627 94.8598 512.858 92.9063 506.525C45.3512 352.363 45.3512 187.438 92.9064 33.2764C94.86 26.9434 91.4203 20.1739 85.1172 18.1259L59.2105 9.70825Z"
        stroke="#C2C2D6" stroke-opacity="0.4" stroke-width="3" />
    <path
        d="M1660.79 530.093C1667.09 532.141 1673.87 528.691 1675.83 522.36C1726.72 357.905 1726.72 181.896 1675.83 17.4414C1673.87 11.1102 1667.09 7.6605 1660.79 9.70849L1634.88 18.1261C1628.58 20.1741 1625.14 26.9437 1627.1 33.2766C1674.65 187.438 1674.65 352.364 1627.1 506.525C1625.14 512.858 1628.58 519.628 1634.88 521.676L1660.79 530.093Z"
        stroke="#C2C2D6" stroke-opacity="0.4" stroke-width="3" />
</svg>