<svg width="540" height="540" viewBox="0 0 540 540" fill="none" xmlns="http://www.w3.org/2000/svg">
    <path d="M263 102V95H277V102H273L271 105H270H269L267 102H263Z" fill="#477085" fill-opacity="0.75" />

    <path d="M267 108H270H273L275 105H280L270 122L260 105H265L267 108Z" stroke="#ADD6EB" stroke-opacity="0.8"
        stroke-width="2" stroke-linejoin="round" />
    <path
        d="M128.008 360.062L121.946 363.562L114.946 351.438L121.008 347.938L123.008 351.402L126.606 351.634L127.106 352.5L127.606 353.366L126.008 356.598L128.008 360.062Z"
        fill="#477085" fill-opacity="0.75" />
    <path
        d="M131.204 353.598L129.704 351L128.204 348.402L124.606 348.17L122.106 343.84L141.828 344L132.106 361.16L129.606 356.83L131.204 353.598Z"
        stroke="#ADD6EB" stroke-opacity="0.8" stroke-width="2" stroke-linejoin="round" />
    <path
        d="M419.007 347.942L425.069 351.442L418.069 363.566L412.007 360.066L414.007 356.602L412.409 353.37L412.909 352.504L413.409 351.638L417.007 351.406L419.007 347.942Z"
        fill="#477085" fill-opacity="0.75" />
    <path
        d="M411.811 348.406L410.311 351.004L408.811 353.602L410.409 356.834L407.909 361.164L398.186 344.004L417.909 343.844L415.409 348.174L411.811 348.406Z"
        stroke="#ADD6EB" stroke-opacity="0.8" stroke-width="2" stroke-linejoin="round" />
</svg>