<svg width="297" height="409" viewBox="0 0 297 409" fill="none" xmlns="http://www.w3.org/2000/svg">
<path d="M76 374L72 381L79 399L60 402L56 409L87 404L76 374Z" fill="#80D5FF" fill-opacity="0.4"/>
<path d="M68 387L71 394L64 395L68 387Z" fill="#80D5FF" fill-opacity="0.4"/>
<path d="M270 38L266 45L273 63L254 66L250 73L281 68L270 38Z" fill="#80D5FF" fill-opacity="0.4"/>
<path d="M262 51L265 58L258 59L262 51Z" fill="#80D5FF" fill-opacity="0.4"/>
<path d="M288 68H297L103 404H94L288 68Z" fill="#80D5FF" fill-opacity="0.4"/>
<path d="M30 398L42 391V345L30 338M14 338L2 345V391L14 398" stroke="#9DDEFF" stroke-opacity="0.4" stroke-width="4"/>
<path d="M24.3203 350.091L23.9794 375.182H20.0249L19.6839 350.091H24.3203ZM22.0021 385.273C21.1612 385.273 20.4396 384.972 19.8374 384.369C19.2351 383.767 18.9339 383.045 18.9339 382.205C18.9339 381.364 19.2351 380.642 19.8374 380.04C20.4396 379.437 21.1612 379.136 22.0021 379.136C22.843 379.136 23.5646 379.437 24.1669 380.04C24.7692 380.642 25.0703 381.364 25.0703 382.205C25.0703 382.761 24.9283 383.273 24.6442 383.739C24.3714 384.205 24.0021 384.58 23.5362 384.864C23.0817 385.136 22.5703 385.273 22.0021 385.273Z" fill="#80D5FF" fill-opacity="0.4"/>
<path d="M224 62L236 55V9L224 2M208 2L196 9V55L208 62" stroke="#9DDEFF" stroke-opacity="0.4" stroke-width="4"/>
<path d="M218.32 14.0909L217.979 39.1818H214.025L213.684 14.0909H218.32ZM216.002 49.2727C215.161 49.2727 214.44 48.9716 213.837 48.3693C213.235 47.767 212.934 47.0455 212.934 46.2045C212.934 45.3636 213.235 44.642 213.837 44.0398C214.44 43.4375 215.161 43.1364 216.002 43.1364C216.843 43.1364 217.565 43.4375 218.167 44.0398C218.769 44.642 219.07 45.3636 219.07 46.2045C219.07 46.7614 218.928 47.2727 218.644 47.7386C218.371 48.2045 218.002 48.5795 217.536 48.8636C217.082 49.1364 216.57 49.2727 216.002 49.2727Z" fill="#80D5FF" fill-opacity="0.4"/>
</svg>
