<svg width="223" height="114" viewBox="0 0 223 114" fill="none" xmlns="http://www.w3.org/2000/svg">
<path d="M11 47L15 54L8 72L27 75L31 82L0 77L11 47Z" fill="#80D5FF" fill-opacity="0.4"/>
<path d="M19 60L16 67L23 68L19 60Z" fill="#80D5FF" fill-opacity="0.4"/>
<path d="M66 26C61.0294 26 57 30.0294 57 35V44H75V35C75 30.0294 70.9706 26 66 26Z" fill="#80D5FF" fill-opacity="0.4"/>
<path d="M58 47V61H74V47H58Z" fill="#80D5FF" fill-opacity="0.4"/>
<path d="M45 75V80H53V67L45 75Z" fill="#80D5FF" fill-opacity="0.4"/>
<path d="M87 75V80H79V67L87 75Z" fill="#80D5FF" fill-opacity="0.4"/>
<path d="M56 64V80H64V68H68V80H76V64H56Z" fill="#80D5FF" fill-opacity="0.4"/>
<path d="M137 57L223 57" stroke="white" stroke-width="3"/>
<path d="M152.336 42.4474C149.929 42.4474 147.878 41.7923 146.184 40.4819C144.49 39.1609 143.196 37.2486 142.301 34.745C141.406 32.2308 140.959 29.1946 140.959 25.6364C140.959 22.0994 141.406 19.0792 142.301 16.5756C143.206 14.0614 144.506 12.1438 146.2 10.8228C147.905 9.49112 149.95 8.82528 152.336 8.82528C154.723 8.82528 156.763 9.49112 158.457 10.8228C160.161 12.1438 161.461 14.0614 162.356 16.5756C163.261 19.0792 163.714 22.0994 163.714 25.6364C163.714 29.1946 163.267 32.2308 162.372 34.745C161.477 37.2486 160.183 39.1609 158.489 40.4819C156.795 41.7923 154.744 42.4474 152.336 42.4474ZM152.336 38.9318C154.723 38.9318 156.576 37.7812 157.898 35.4801C159.219 33.179 159.879 29.8977 159.879 25.6364C159.879 22.8026 159.575 20.3896 158.968 18.3974C158.372 16.4052 157.509 14.8871 156.379 13.843C155.261 12.799 153.913 12.277 152.336 12.277C149.971 12.277 148.123 13.4435 146.791 15.7766C145.46 18.0991 144.794 21.3857 144.794 25.6364C144.794 28.4702 145.092 30.8778 145.689 32.8594C146.285 34.8409 147.143 36.3484 148.261 37.3817C149.391 38.4151 150.749 38.9318 152.336 38.9318ZM169.787 42V39.1236L180.589 27.2983C181.857 25.9134 182.901 24.7095 183.721 23.6868C184.542 22.6534 185.149 21.6839 185.543 20.7784C185.948 19.8622 186.15 18.9034 186.15 17.902C186.15 16.7514 185.873 15.7553 185.319 14.9137C184.776 14.0721 184.03 13.4222 183.082 12.9641C182.134 12.506 181.069 12.277 179.886 12.277C178.629 12.277 177.532 12.538 176.594 13.06C175.667 13.5714 174.948 14.2905 174.437 15.2173C173.936 16.1442 173.686 17.2308 173.686 18.4773H169.915C169.915 16.5597 170.357 14.8764 171.241 13.4276C172.125 11.9787 173.329 10.8494 174.852 10.0398C176.386 9.23011 178.107 8.82528 180.014 8.82528C181.932 8.82528 183.631 9.23011 185.112 10.0398C186.592 10.8494 187.754 11.9414 188.595 13.3157C189.437 14.69 189.858 16.2188 189.858 17.902C189.858 19.1058 189.639 20.283 189.203 21.4336C188.776 22.5735 188.031 23.8466 186.965 25.2528C185.911 26.6484 184.446 28.353 182.571 30.3665L175.22 38.2287V38.4844H190.433V42H169.787ZM207.452 8.82528C208.794 8.83594 210.136 9.09162 211.479 9.59233C212.821 10.093 214.046 10.924 215.154 12.0852C216.262 13.2358 217.152 14.8072 217.823 16.7994C218.494 18.7915 218.83 21.2898 218.83 24.294C218.83 27.2024 218.553 29.7859 217.999 32.0444C217.455 34.2923 216.667 36.1886 215.634 37.7333C214.611 39.2781 213.364 40.4499 211.894 41.2489C210.435 42.0479 208.784 42.4474 206.94 42.4474C205.108 42.4474 203.473 42.0852 202.035 41.3608C200.607 40.6257 199.435 39.6083 198.519 38.3086C197.613 36.9982 197.033 35.4801 196.777 33.7543H200.676C201.028 35.2564 201.726 36.4975 202.77 37.4776C203.824 38.4471 205.215 38.9318 206.94 38.9318C209.465 38.9318 211.458 37.8292 212.917 35.6239C214.387 33.4187 215.122 30.3026 215.122 26.2756H214.867C214.27 27.1705 213.562 27.9428 212.741 28.5927C211.921 29.2425 211.01 29.7433 210.009 30.0948C209.007 30.4464 207.942 30.6222 206.813 30.6222C204.938 30.6222 203.217 30.1587 201.651 29.2319C200.096 28.2944 198.849 27.0107 197.912 25.3807C196.985 23.7401 196.521 21.8651 196.521 19.7557C196.521 17.7528 196.969 15.9205 197.864 14.2585C198.769 12.5859 200.037 11.2543 201.667 10.2635C203.308 9.27273 205.236 8.79332 207.452 8.82528ZM207.452 12.3409C206.11 12.3409 204.9 12.6765 203.824 13.3477C202.759 14.0082 201.912 14.9031 201.284 16.0323C200.666 17.1509 200.357 18.392 200.357 19.7557C200.357 21.1193 200.655 22.3604 201.252 23.479C201.859 24.587 202.684 25.4712 203.728 26.1317C204.783 26.7816 205.982 27.1065 207.324 27.1065C208.336 27.1065 209.279 26.9094 210.152 26.5153C211.026 26.1104 211.788 25.5618 212.438 24.8693C213.098 24.1662 213.615 23.3725 213.988 22.4883C214.361 21.5934 214.547 20.6612 214.547 19.6918C214.547 18.4134 214.238 17.2148 213.62 16.0962C213.013 14.9776 212.171 14.0721 211.095 13.3796C210.03 12.6871 208.815 12.3409 207.452 12.3409Z" fill="white"/>
<path d="M152.336 104.447C149.929 104.447 147.878 103.792 146.184 102.482C144.49 101.161 143.196 99.2486 142.301 96.745C141.406 94.2308 140.959 91.1946 140.959 87.6364C140.959 84.0994 141.406 81.0792 142.301 78.5756C143.206 76.0614 144.506 74.1438 146.2 72.8228C147.905 71.4911 149.95 70.8253 152.336 70.8253C154.723 70.8253 156.763 71.4911 158.457 72.8228C160.161 74.1438 161.461 76.0614 162.356 78.5756C163.261 81.0792 163.714 84.0994 163.714 87.6364C163.714 91.1946 163.267 94.2308 162.372 96.745C161.477 99.2486 160.183 101.161 158.489 102.482C156.795 103.792 154.744 104.447 152.336 104.447ZM152.336 100.932C154.723 100.932 156.576 99.7812 157.898 97.4801C159.219 95.179 159.879 91.8977 159.879 87.6364C159.879 84.8026 159.575 82.3896 158.968 80.3974C158.372 78.4052 157.509 76.8871 156.379 75.843C155.261 74.799 153.913 74.277 152.336 74.277C149.971 74.277 148.123 75.4435 146.791 77.7766C145.46 80.0991 144.794 83.3857 144.794 87.6364C144.794 90.4702 145.092 92.8778 145.689 94.8594C146.285 96.8409 147.143 98.3484 148.261 99.3817C149.391 100.415 150.749 100.932 152.336 100.932ZM169.787 104V101.124L180.589 89.2983C181.857 87.9134 182.901 86.7095 183.721 85.6868C184.542 84.6534 185.149 83.6839 185.543 82.7784C185.948 81.8622 186.15 80.9034 186.15 79.902C186.15 78.7514 185.873 77.7553 185.319 76.9137C184.776 76.0721 184.03 75.4222 183.082 74.9641C182.134 74.506 181.069 74.277 179.886 74.277C178.629 74.277 177.532 74.538 176.594 75.06C175.667 75.5714 174.948 76.2905 174.437 77.2173C173.936 78.1442 173.686 79.2308 173.686 80.4773H169.915C169.915 78.5597 170.357 76.8764 171.241 75.4276C172.125 73.9787 173.329 72.8494 174.852 72.0398C176.386 71.2301 178.107 70.8253 180.014 70.8253C181.932 70.8253 183.631 71.2301 185.112 72.0398C186.592 72.8494 187.754 73.9414 188.595 75.3157C189.437 76.69 189.858 78.2188 189.858 79.902C189.858 81.1058 189.639 82.283 189.203 83.4336C188.776 84.5735 188.031 85.8466 186.965 87.2528C185.911 88.6484 184.446 90.353 182.571 92.3665L175.22 100.229V100.484H190.433V104H169.787ZM207.452 70.8253C208.794 70.8359 210.136 71.0916 211.479 71.5923C212.821 72.093 214.046 72.924 215.154 74.0852C216.262 75.2358 217.152 76.8072 217.823 78.7994C218.494 80.7915 218.83 83.2898 218.83 86.294C218.83 89.2024 218.553 91.7859 217.999 94.0444C217.455 96.2923 216.667 98.1886 215.634 99.7333C214.611 101.278 213.364 102.45 211.894 103.249C210.435 104.048 208.784 104.447 206.94 104.447C205.108 104.447 203.473 104.085 202.035 103.361C200.607 102.626 199.435 101.608 198.519 100.309C197.613 98.9982 197.033 97.4801 196.777 95.7543H200.676C201.028 97.2564 201.726 98.4975 202.77 99.4776C203.824 100.447 205.215 100.932 206.94 100.932C209.465 100.932 211.458 99.8292 212.917 97.6239C214.387 95.4187 215.122 92.3026 215.122 88.2756H214.867C214.27 89.1705 213.562 89.9428 212.741 90.5927C211.921 91.2425 211.01 91.7433 210.009 92.0948C209.007 92.4464 207.942 92.6222 206.813 92.6222C204.938 92.6222 203.217 92.1587 201.651 91.2319C200.096 90.2944 198.849 89.0107 197.912 87.3807C196.985 85.7401 196.521 83.8651 196.521 81.7557C196.521 79.7528 196.969 77.9205 197.864 76.2585C198.769 74.5859 200.037 73.2543 201.667 72.2635C203.308 71.2727 205.236 70.7933 207.452 70.8253ZM207.452 74.3409C206.11 74.3409 204.9 74.6765 203.824 75.3477C202.759 76.0082 201.912 76.9031 201.284 78.0323C200.666 79.1509 200.357 80.392 200.357 81.7557C200.357 83.1193 200.655 84.3604 201.252 85.479C201.859 86.587 202.684 87.4712 203.728 88.1317C204.783 88.7816 205.982 89.1065 207.324 89.1065C208.336 89.1065 209.279 88.9094 210.152 88.5153C211.026 88.1104 211.788 87.5618 212.438 86.8693C213.098 86.1662 213.615 85.3725 213.988 84.4883C214.361 83.5934 214.547 82.6612 214.547 81.6918C214.547 80.4134 214.238 79.2148 213.62 78.0962C213.013 76.9776 212.171 76.0721 211.095 75.3796C210.03 74.6871 208.815 74.3409 207.452 74.3409Z" fill="white"/>
</svg>
