<svg width="1488" height="1080" viewBox="0 0 1488 1080" fill="none" xmlns="http://www.w3.org/2000/svg">
    <path
        d="M54 540C54 630.612 71.8474 720.337 106.523 804.052C141.199 887.766 192.024 963.831 256.096 1027.9C320.169 1091.98 396.234 1142.8 479.948 1177.48C563.663 1212.15 653.388 1230 744 1230C834.612 1230 924.337 1212.15 1008.05 1177.48C1091.77 1142.8 1167.83 1091.98 1231.9 1027.9C1295.98 963.831 1346.8 887.766 1381.48 804.052C1416.15 720.337 1434 630.612 1434 540"
        stroke="#3C4761" stroke-opacity="0.44" stroke-width="48" stroke-dasharray="6 32" />
    <path
        d="M27 540C27 730.16 102.541 912.532 237.004 1047C371.468 1181.46 553.84 1257 744 1257C934.16 1257 1116.53 1181.46 1251 1047C1385.46 912.532 1461 730.16 1461 540"
        stroke="#3C4761" stroke-opacity="0.44" stroke-width="6" />
    <path
        d="M1438.48 392.383C1407.31 245.722 1330.51 112.695 1219.08 12.3672C1107.66 -87.9604 967.331 -150.438 818.215 -166.111L814.504 -130.805C956.164 -115.916 1089.47 -56.5624 1195.33 38.7488C1301.18 134.06 1374.15 260.436 1403.76 399.764L1438.48 392.383Z"
        fill="#3C4761" fill-opacity="0.44" />
    <path
        d="M49.5151 392.383C80.6889 245.722 157.492 112.695 268.917 12.3672C380.342 -87.9604 520.669 -150.438 669.785 -166.111L673.496 -130.805C531.835 -115.916 398.525 -56.5624 292.671 38.7488C186.818 134.06 113.854 260.436 84.2394 399.764L49.5151 392.383Z"
        fill="#3C4761" fill-opacity="0.44" />
    <path
        d="M130.569 340.684C88.4772 470.228 88.4771 609.772 130.569 739.316M1357.43 340.684C1399.52 470.228 1399.52 609.772 1357.43 739.316M451.176 -34.6992C329.812 27.1392 231.139 125.812 169.301 247.176M1036.82 -34.6992C1158.19 27.1392 1256.86 125.812 1318.7 247.176M169.301 832.824C231.139 954.188 329.811 1052.86 451.176 1114.7M1318.7 832.824C1256.86 954.188 1158.19 1052.86 1036.82 1114.7M1485 540C1485 949.243 1153.24 1281 744 1281C334.757 1281 3 949.243 3 540C3 130.757 334.757 -201 744 -201C1153.24 -201 1485 130.757 1485 540Z"
        stroke="#3C4761" stroke-opacity="0.44" stroke-width="5" />
</svg>