<svg width="80" height="80" viewBox="0 0 80 80" fill="none" xmlns="http://www.w3.org/2000/svg">
<path fill-rule="evenodd" clip-rule="evenodd" d="M9 1H71L79 9V71L71 79H9L1 71V9L9 1ZM59.7742 13H12.2258L5 20V68L12.2258 75H59.7742L67 68V20L59.7742 13Z" fill="#33B3CC" fill-opacity="0.5"/>
<path d="M12.2258 13H59.7742L67 20V68L59.7742 75H12.2258L5 68V20L12.2258 13Z" fill="#33B3CC" fill-opacity="0.5"/>
<path d="M71 1H9M71 1L79 9M71 1L59.7742 13M9 1L1 9M9 1L12.2258 13M1 71V9M1 71L9 79M1 71L5 68M79 71V9M79 71L71 79M79 71L67 68M79 9L67 20M1 9L5 20M71 79H9M71 79L59.7742 75M9 79L12.2258 75M59.7742 13H12.2258M59.7742 13L67 20M12.2258 13L5 20M5 68V20M5 68L12.2258 75M67 68V20M67 68L59.7742 75M59.7742 75H12.2258" stroke="#33B3CC" stroke-opacity="0.75" stroke-width="2"/>
</svg>
