<svg width="144" height="84" viewBox="0 0 144 84" fill="none" xmlns="http://www.w3.org/2000/svg">
<path d="M0.871872 31.6875C0.663539 31.6875 0.481247 31.6224 0.324997 31.4922C0.194789 31.3359 0.129684 31.1536 0.129684 30.9453V1.49219C0.129684 1.28385 0.194789 1.11458 0.324997 0.984375C0.481247 0.828125 0.663539 0.75 0.871872 0.75H18.9969C20.0385 0.75 20.924 1.1276 21.6531 1.88281C22.4083 2.61198 22.7859 3.4974 22.7859 4.53906V12.8203C22.7859 13.862 22.4083 14.7604 21.6531 15.5156C20.924 16.2448 20.0385 16.6094 18.9969 16.6094H6.18437C5.97604 16.6094 5.79375 16.6875 5.6375 16.8438C5.48125 16.974 5.40312 17.1432 5.40312 17.3516V30.9453C5.40312 31.1536 5.325 31.3359 5.16875 31.4922C5.03854 31.6224 4.86927 31.6875 4.66093 31.6875H0.871872ZM17.4734 6.80469C17.4734 6.59635 17.3953 6.41406 17.2391 6.25781C17.1089 6.10156 16.9396 6.02344 16.7312 6.02344H6.18437C5.97604 6.02344 5.79375 6.10156 5.6375 6.25781C5.48125 6.41406 5.40312 6.59635 5.40312 6.80469V10.5547C5.40312 10.763 5.48125 10.9453 5.6375 11.1016C5.79375 11.2318 5.97604 11.2969 6.18437 11.2969H16.7312C16.9396 11.2969 17.1089 11.2318 17.2391 11.1016C17.3953 10.9453 17.4734 10.763 17.4734 10.5547V6.80469ZM47.3531 8.28906C48.3948 8.28906 49.2802 8.66667 50.0094 9.42188C50.7646 10.151 51.1422 11.0365 51.1422 12.0781V27.9375C51.1422 28.9792 50.7646 29.8646 50.0094 30.5938C49.2802 31.3229 48.3948 31.6875 47.3531 31.6875H32.275C31.2333 31.6875 30.3349 31.3229 29.5797 30.5938C28.8505 29.8646 28.4859 28.9792 28.4859 27.9375V12.0781C28.4859 11.0365 28.8505 10.151 29.5797 9.42188C30.3349 8.66667 31.2333 8.28906 32.275 8.28906H47.3531ZM33.7594 25.6719C33.7594 25.8802 33.8375 26.0625 33.9937 26.2188C34.15 26.349 34.3323 26.4141 34.5406 26.4141H45.0875C45.2958 26.4141 45.4651 26.349 45.5953 26.2188C45.7516 26.0625 45.8297 25.8802 45.8297 25.6719V14.3438C45.8297 14.1354 45.7516 13.9531 45.5953 13.7969C45.4651 13.6406 45.2958 13.5625 45.0875 13.5625H34.5406C34.3323 13.5625 34.15 13.6406 33.9937 13.7969C33.8375 13.9531 33.7594 14.1354 33.7594 14.3438V25.6719ZM87.0375 27.9375C87.0375 28.9792 86.6599 29.8646 85.9047 30.5938C85.1755 31.3229 84.2901 31.6875 83.2484 31.6875H60.6313C59.5896 31.6875 58.6912 31.3229 57.9359 30.5938C57.2068 29.8646 56.8422 28.9792 56.8422 27.9375V9.07031C56.8422 8.86198 56.9073 8.67969 57.0375 8.52344C57.1938 8.36719 57.376 8.28906 57.5844 8.28906H61.3734C61.5818 8.28906 61.751 8.36719 61.8813 8.52344C62.0375 8.67969 62.1156 8.86198 62.1156 9.07031V25.6719C62.1156 25.8802 62.1938 26.0625 62.35 26.2188C62.5063 26.349 62.6885 26.4141 62.8969 26.4141H68.9125C69.1208 26.4141 69.2901 26.349 69.4203 26.2188C69.5766 26.0625 69.6547 25.8802 69.6547 25.6719V9.07031C69.6547 8.86198 69.7328 8.67969 69.8891 8.52344C70.0453 8.36719 70.2276 8.28906 70.4359 8.28906H73.4438C73.6521 8.28906 73.8214 8.36719 73.9516 8.52344C74.1078 8.67969 74.1859 8.86198 74.1859 9.07031V25.6719C74.1859 25.8802 74.2641 26.0625 74.4203 26.2188C74.5766 26.349 74.7589 26.4141 74.9672 26.4141H80.9828C81.1912 26.4141 81.3734 26.349 81.5297 26.2188C81.6859 26.0625 81.7641 25.8802 81.7641 25.6719V9.07031C81.7641 8.86198 81.8292 8.67969 81.9594 8.52344C82.1156 8.36719 82.2979 8.28906 82.5063 8.28906H86.2953C86.5037 8.28906 86.6729 8.36719 86.8031 8.52344C86.9594 8.67969 87.0375 8.86198 87.0375 9.07031V27.9375ZM96.5266 31.6875C95.4849 31.6875 94.5864 31.3229 93.8312 30.5938C93.1021 29.8646 92.7375 28.9792 92.7375 27.9375V12.0781C92.7375 11.0365 93.1021 10.151 93.8312 9.42188C94.5864 8.66667 95.4849 8.28906 96.5266 8.28906H111.605C112.646 8.28906 113.532 8.66667 114.261 9.42188C115.016 10.151 115.394 11.0365 115.394 12.0781V18.875C115.394 19.9167 115.016 20.8021 114.261 21.5312C113.532 22.2604 112.646 22.625 111.605 22.625H98.7922C98.5838 22.625 98.4016 22.7031 98.2453 22.8594C98.0891 23.0156 98.0109 23.1979 98.0109 23.4062V25.6719C98.0109 25.8802 98.0891 26.0625 98.2453 26.2188C98.4016 26.349 98.5838 26.4141 98.7922 26.4141H114.612C114.821 26.4141 115.003 26.4922 115.159 26.6484C115.316 26.7786 115.394 26.9479 115.394 27.1562V30.9453C115.394 31.1536 115.316 31.3359 115.159 31.4922C115.003 31.6224 114.821 31.6875 114.612 31.6875H96.5266ZM110.081 14.3438C110.081 14.1354 110.003 13.9531 109.847 13.7969C109.717 13.6406 109.547 13.5625 109.339 13.5625H98.7922C98.5838 13.5625 98.4016 13.6406 98.2453 13.7969C98.0891 13.9531 98.0109 14.1354 98.0109 14.3438V16.6094C98.0109 16.8177 98.0891 17 98.2453 17.1562C98.4016 17.2865 98.5838 17.3516 98.7922 17.3516H109.339C109.547 17.3516 109.717 17.2865 109.847 17.1562C110.003 17 110.081 16.8177 110.081 16.6094V14.3438ZM127.148 13.5625C126.94 13.5625 126.758 13.6406 126.602 13.7969C126.445 13.9531 126.367 14.1354 126.367 14.3438V30.9453C126.367 31.1536 126.289 31.3359 126.133 31.4922C126.003 31.6224 125.833 31.6875 125.625 31.6875H121.836C121.628 31.6875 121.445 31.6224 121.289 31.4922C121.159 31.3359 121.094 31.1536 121.094 30.9453V9.07031C121.094 8.86198 121.159 8.67969 121.289 8.52344C121.445 8.36719 121.628 8.28906 121.836 8.28906H139.961C141.003 8.28906 141.888 8.66667 142.617 9.42188C143.372 10.151 143.75 11.0365 143.75 12.0781V15.8281C143.75 16.0365 143.672 16.2188 143.516 16.375C143.359 16.5312 143.177 16.6094 142.969 16.6094H139.219C139.01 16.6094 138.828 16.5312 138.672 16.375C138.516 16.2188 138.438 16.0365 138.438 15.8281V14.3438C138.438 14.1354 138.359 13.9531 138.203 13.7969C138.073 13.6406 137.904 13.5625 137.695 13.5625H127.148ZM47.3531 52.75C48.3948 52.75 49.2802 53.1276 50.0094 53.8828C50.7646 54.612 51.1422 55.4974 51.1422 56.5391V66.8516C51.1422 67.0339 51.1031 67.2292 51.025 67.4375C50.9469 67.6198 50.8297 67.776 50.6734 67.9062L50.3609 68.2188L50.6734 68.5312C50.8297 68.6875 50.9469 68.8568 51.025 69.0391C51.1031 69.2214 51.1422 69.4036 51.1422 69.5859V79.9375C51.1422 80.9792 50.7646 81.8646 50.0094 82.5938C49.2802 83.3229 48.3948 83.6875 47.3531 83.6875H29.2281C29.0198 83.6875 28.8375 83.6224 28.6812 83.4922C28.551 83.3359 28.4859 83.1536 28.4859 82.9453V53.4922C28.4859 53.2839 28.551 53.1146 28.6812 52.9844C28.8375 52.8281 29.0198 52.75 29.2281 52.75H47.3531ZM45.8297 64.8203V58.8047C45.8297 58.5964 45.7516 58.4141 45.5953 58.2578C45.4651 58.1016 45.2958 58.0234 45.0875 58.0234H34.5406C34.3323 58.0234 34.15 58.1016 33.9937 58.2578C33.8375 58.4141 33.7594 58.5964 33.7594 58.8047V64.8203C33.7594 65.0286 33.8375 65.2109 33.9937 65.3672C34.15 65.4974 34.3323 65.5625 34.5406 65.5625H45.0875C45.2958 65.5625 45.4651 65.4974 45.5953 65.3672C45.7516 65.2109 45.8297 65.0286 45.8297 64.8203ZM45.8297 71.6172C45.8297 71.4089 45.7516 71.2396 45.5953 71.1094C45.4651 70.9531 45.2958 70.875 45.0875 70.875H34.5406C34.3323 70.875 34.15 70.9531 33.9937 71.1094C33.8375 71.2396 33.7594 71.4089 33.7594 71.6172V77.6719C33.7594 77.8802 33.8375 78.0625 33.9937 78.2188C34.15 78.349 34.3323 78.4141 34.5406 78.4141H45.0875C45.2958 78.4141 45.4651 78.349 45.5953 78.2188C45.7516 78.0625 45.8297 77.8802 45.8297 77.6719V71.6172ZM60.6312 83.6875C59.5896 83.6875 58.6911 83.3229 57.9359 82.5938C57.2068 81.8646 56.8422 80.9792 56.8422 79.9375V64.0781C56.8422 63.0365 57.2068 62.151 57.9359 61.4219C58.6911 60.6667 59.5896 60.2891 60.6312 60.2891H75.7094C76.751 60.2891 77.6364 60.6667 78.3656 61.4219C79.1208 62.151 79.4984 63.0365 79.4984 64.0781V70.875C79.4984 71.9167 79.1208 72.8021 78.3656 73.5312C77.6364 74.2604 76.751 74.625 75.7094 74.625H62.8969C62.6885 74.625 62.5062 74.7031 62.35 74.8594C62.1937 75.0156 62.1156 75.1979 62.1156 75.4062V77.6719C62.1156 77.8802 62.1937 78.0625 62.35 78.2188C62.5062 78.349 62.6885 78.4141 62.8969 78.4141H78.7172C78.9255 78.4141 79.1078 78.4922 79.2641 78.6484C79.4203 78.7786 79.4984 78.9479 79.4984 79.1562V82.9453C79.4984 83.1536 79.4203 83.3359 79.2641 83.4922C79.1078 83.6224 78.9255 83.6875 78.7172 83.6875H60.6312ZM74.1859 66.3438C74.1859 66.1354 74.1078 65.9531 73.9516 65.7969C73.8213 65.6406 73.6521 65.5625 73.4437 65.5625H62.8969C62.6885 65.5625 62.5062 65.6406 62.35 65.7969C62.1937 65.9531 62.1156 66.1354 62.1156 66.3438V68.6094C62.1156 68.8177 62.1937 69 62.35 69.1562C62.5062 69.2865 62.6885 69.3516 62.8969 69.3516H73.4437C73.6521 69.3516 73.8213 69.2865 73.9516 69.1562C74.1078 69 74.1859 68.8177 74.1859 68.6094V66.3438ZM104.066 60.2891C105.107 60.2891 105.993 60.6667 106.722 61.4219C107.477 62.151 107.855 63.0365 107.855 64.0781V82.9453C107.855 83.1536 107.777 83.3359 107.62 83.4922C107.464 83.6224 107.282 83.6875 107.073 83.6875H88.9875C87.9458 83.6875 87.0474 83.3229 86.2922 82.5938C85.563 81.8646 85.1984 80.9792 85.1984 79.9375V73.1406C85.1984 72.099 85.563 71.2135 86.2922 70.4844C87.0474 69.7292 87.9458 69.3516 88.9875 69.3516H101.8C102.008 69.3516 102.178 69.2865 102.308 69.1562C102.464 69 102.542 68.8177 102.542 68.6094V66.3438C102.542 66.1354 102.464 65.9531 102.308 65.7969C102.178 65.6406 102.008 65.5625 101.8 65.5625H87.4641C87.2557 65.5625 87.0734 65.4974 86.9172 65.3672C86.787 65.2109 86.7219 65.0286 86.7219 64.8203V61.0703C86.7219 60.862 86.787 60.6797 86.9172 60.5234C87.0734 60.3672 87.2557 60.2891 87.4641 60.2891H104.066ZM90.4719 77.6719C90.4719 77.8802 90.55 78.0625 90.7062 78.2188C90.8625 78.349 91.0448 78.4141 91.2531 78.4141H101.8C102.008 78.4141 102.178 78.349 102.308 78.2188C102.464 78.0625 102.542 77.8802 102.542 77.6719V75.4062C102.542 75.1979 102.464 75.0156 102.308 74.8594C102.178 74.7031 102.008 74.625 101.8 74.625H91.2531C91.0448 74.625 90.8625 74.7031 90.7062 74.8594C90.55 75.0156 90.4719 75.1979 90.4719 75.4062V77.6719ZM113.555 64.0781C113.555 63.0365 113.919 62.151 114.648 61.4219C115.404 60.6667 116.302 60.2891 117.344 60.2891H139.961C141.003 60.2891 141.888 60.6667 142.617 61.4219C143.372 62.151 143.75 63.0365 143.75 64.0781V82.9453C143.75 83.1536 143.672 83.3359 143.516 83.4922C143.385 83.6224 143.216 83.6875 143.008 83.6875H139.219C139.01 83.6875 138.828 83.6224 138.672 83.4922C138.542 83.3359 138.477 83.1536 138.477 82.9453V66.3438C138.477 66.1354 138.398 65.9531 138.242 65.7969C138.086 65.6406 137.904 65.5625 137.695 65.5625H131.68C131.471 65.5625 131.289 65.6406 131.133 65.7969C130.977 65.9531 130.898 66.1354 130.898 66.3438V82.9453C130.898 83.1536 130.82 83.3359 130.664 83.4922C130.534 83.6224 130.365 83.6875 130.156 83.6875H127.148C126.94 83.6875 126.758 83.6224 126.602 83.4922C126.445 83.3359 126.367 83.1536 126.367 82.9453V66.3438C126.367 66.1354 126.289 65.9531 126.133 65.7969C126.003 65.6406 125.833 65.5625 125.625 65.5625H119.609C119.401 65.5625 119.219 65.6406 119.062 65.7969C118.906 65.9531 118.828 66.1354 118.828 66.3438V82.9453C118.828 83.1536 118.75 83.3359 118.594 83.4922C118.464 83.6224 118.294 83.6875 118.086 83.6875H114.297C114.089 83.6875 113.906 83.6224 113.75 83.4922C113.62 83.3359 113.555 83.1536 113.555 82.9453V64.0781Z" fill="#CCFFFF"/>
<path d="M0.324997 31.4922L-1.21145 32.7726L-1.09505 32.9122L-0.955372 33.0286L0.324997 31.4922ZM0.324997 0.984375L-1.08922 -0.429839L0.324997 0.984375ZM21.6531 1.88281L20.2143 3.272L20.2387 3.29724L20.2639 3.32162L21.6531 1.88281ZM21.6531 15.5156L20.2389 14.1014L21.6531 15.5156ZM5.6375 16.8438L6.91787 18.3802L6.98756 18.3221L7.05171 18.258L5.6375 16.8438ZM5.16875 31.4922L6.58296 32.9064L5.16875 31.4922ZM17.2391 6.25781L15.7026 7.53818L15.7607 7.60788L15.8248 7.67203L17.2391 6.25781ZM5.6375 11.1016L4.22328 12.5158L4.28743 12.5799L4.35713 12.638L5.6375 11.1016ZM17.2391 11.1016L15.8248 9.68735L17.2391 11.1016ZM0.871872 29.6875C0.979412 29.6875 1.11091 29.705 1.25158 29.7552C1.39289 29.8057 1.51216 29.8781 1.60537 29.9557L-0.955372 33.0286C-0.430282 33.4662 0.208063 33.6875 0.871872 33.6875V29.6875ZM1.86144 30.2118C1.93911 30.305 2.01153 30.4243 2.062 30.5656C2.11223 30.7063 2.12968 30.8378 2.12968 30.9453H-1.87032C-1.87032 31.6091 -1.64902 32.2475 -1.21145 32.7726L1.86144 30.2118ZM2.12968 30.9453V1.49219H-1.87032V30.9453H2.12968ZM2.12968 1.49219C2.12968 1.59743 2.11285 1.75106 2.0452 1.92694C1.97573 2.10759 1.86885 2.26895 1.73921 2.39859L-1.08922 -0.429839C-1.64498 0.125928 -1.87032 0.829359 -1.87032 1.49219H2.12968ZM1.73921 2.39859C1.65793 2.47987 1.53472 2.57489 1.36674 2.64688C1.19645 2.71986 1.02464 2.75 0.871872 2.75V-1.25C0.0984317 -1.25 -0.583145 -0.935911 -1.08922 -0.429839L1.73921 2.39859ZM0.871872 2.75H18.9969V-1.25H0.871872V2.75ZM18.9969 2.75C19.4912 2.75 19.8587 2.90371 20.2143 3.272L23.0919 0.493623C21.9892 -0.648497 20.5859 -1.25 18.9969 -1.25V2.75ZM20.2639 3.32162C20.6322 3.67721 20.7859 4.04475 20.7859 4.53906H24.7859C24.7859 2.95004 24.1844 1.54675 23.0423 0.44401L20.2639 3.32162ZM20.7859 4.53906V12.8203H24.7859V4.53906H20.7859ZM20.7859 12.8203C20.7859 13.3167 20.6297 13.7106 20.2389 14.1014L23.0673 16.9298C24.187 15.8102 24.7859 14.4073 24.7859 12.8203H20.7859ZM20.2389 14.1014C19.8891 14.4512 19.5142 14.6094 18.9969 14.6094V18.6094C20.5629 18.6094 21.9588 18.0383 23.0673 16.9298L20.2389 14.1014ZM18.9969 14.6094H6.18437V18.6094H18.9969V14.6094ZM6.18437 14.6094C5.41093 14.6094 4.72936 14.9235 4.22328 15.4295L7.05171 18.258C6.97043 18.3392 6.84722 18.4343 6.67924 18.5063C6.50895 18.5792 6.33714 18.6094 6.18437 18.6094V14.6094ZM4.35713 15.3073C3.73225 15.828 3.40312 16.5663 3.40312 17.3516H7.40312C7.40312 17.5026 7.3734 17.699 7.27763 17.9065C7.18125 18.1153 7.04684 18.2727 6.91787 18.3802L4.35713 15.3073ZM3.40312 17.3516V30.9453H7.40312V17.3516H3.40312ZM3.40312 30.9453C3.40312 30.7925 3.43326 30.6207 3.50624 30.4504C3.57823 30.2825 3.67325 30.1593 3.75453 30.078L6.58296 32.9064C7.08903 32.4003 7.40312 31.7188 7.40312 30.9453H3.40312ZM3.75453 30.078C3.88418 29.9483 4.04553 29.8415 4.22618 29.772C4.40206 29.7043 4.55569 29.6875 4.66093 29.6875V33.6875C5.32376 33.6875 6.02719 33.4622 6.58296 32.9064L3.75453 30.078ZM4.66093 29.6875H0.871872V33.6875H4.66093V29.6875ZM19.4734 6.80469C19.4734 6.03125 19.1593 5.34967 18.6533 4.8436L15.8248 7.67203C15.7436 7.59074 15.6485 7.46753 15.5766 7.29956C15.5036 7.12927 15.4734 6.95746 15.4734 6.80469H19.4734ZM18.7755 4.97744C18.2548 4.35257 17.5165 4.02344 16.7312 4.02344V8.02344C16.5802 8.02344 16.3838 7.99372 16.1763 7.89795C15.9675 7.80156 15.8101 7.66715 15.7026 7.53818L18.7755 4.97744ZM16.7312 4.02344H6.18437V8.02344H16.7312V4.02344ZM6.18437 4.02344C5.41093 4.02344 4.72936 4.33753 4.22328 4.8436L7.05171 7.67203C6.97043 7.75331 6.84722 7.84833 6.67924 7.92032C6.50895 7.9933 6.33714 8.02344 6.18437 8.02344V4.02344ZM4.22328 4.8436C3.71721 5.34967 3.40312 6.03125 3.40312 6.80469H7.40312C7.40312 6.95746 7.37299 7.12927 7.30001 7.29956C7.22802 7.46753 7.13299 7.59074 7.05171 7.67203L4.22328 4.8436ZM3.40312 6.80469V10.5547H7.40312V6.80469H3.40312ZM3.40312 10.5547C3.40312 11.3281 3.71721 12.0097 4.22328 12.5158L7.05171 9.68735C7.13299 9.76863 7.22802 9.89184 7.30001 10.0598C7.37299 10.2301 7.40312 10.4019 7.40312 10.5547H3.40312ZM4.35713 12.638C4.88222 13.0756 5.52056 13.2969 6.18437 13.2969V9.29688C6.29191 9.29688 6.42341 9.31433 6.56408 9.36456C6.70539 9.41503 6.82466 9.48745 6.91787 9.56512L4.35713 12.638ZM6.18437 13.2969H16.7312V9.29688H6.18437V13.2969ZM16.7312 13.2969C17.3941 13.2969 18.0975 13.0715 18.6533 12.5158L15.8248 9.68735C15.9545 9.55771 16.1158 9.45083 16.2965 9.38136C16.4724 9.31371 16.626 9.29688 16.7312 9.29688V13.2969ZM18.6533 12.5158C19.1593 12.0097 19.4734 11.3281 19.4734 10.5547H15.4734C15.4734 10.4019 15.5036 10.2301 15.5766 10.0598C15.6485 9.89184 15.7436 9.76863 15.8248 9.68735L18.6533 12.5158ZM19.4734 10.5547V6.80469H15.4734V10.5547H19.4734ZM50.0094 9.42188L48.5706 10.8111L48.5949 10.8363L48.6202 10.8607L50.0094 9.42188ZM50.0094 30.5938L48.6202 29.1549L48.6076 29.1671L48.5952 29.1795L50.0094 30.5938ZM29.5797 30.5938L28.1655 32.008L28.1779 32.0204L28.1905 32.0326L29.5797 30.5938ZM29.5797 9.42188L30.9939 10.8361L29.5797 9.42188ZM33.9937 26.2188L32.5795 27.633L32.6437 27.6971L32.7134 27.7552L33.9937 26.2188ZM45.5953 26.2188L44.1811 24.8045L45.5953 26.2188ZM45.5953 13.7969L44.0589 15.0772L44.1169 15.1469L44.1811 15.2111L45.5953 13.7969ZM47.3531 10.2891C47.8474 10.2891 48.215 10.4428 48.5706 10.8111L51.4482 8.03269C50.3454 6.89057 48.9421 6.28906 47.3531 6.28906V10.2891ZM48.6202 10.8607C48.9885 11.2163 49.1422 11.5838 49.1422 12.0781H53.1422C53.1422 10.4891 52.5407 9.08581 51.3986 7.98307L48.6202 10.8607ZM49.1422 12.0781V27.9375H53.1422V12.0781H49.1422ZM49.1422 27.9375C49.1422 28.4318 48.9885 28.7994 48.6202 29.1549L51.3986 32.0326C52.5407 30.9298 53.1422 29.5265 53.1422 27.9375H49.1422ZM48.5952 29.1795C48.2453 29.5294 47.8704 29.6875 47.3531 29.6875V33.6875C48.9192 33.6875 50.3151 33.1165 51.4236 32.008L48.5952 29.1795ZM47.3531 29.6875H32.275V33.6875H47.3531V29.6875ZM32.275 29.6875C31.7561 29.6875 31.3545 29.5272 30.9689 29.1549L28.1905 32.0326C29.3153 33.1186 30.7105 33.6875 32.275 33.6875V29.6875ZM30.9939 29.1795C30.6441 28.8297 30.4859 28.4548 30.4859 27.9375H26.4859C26.4859 29.5035 27.057 30.8995 28.1655 32.008L30.9939 29.1795ZM30.4859 27.9375V12.0781H26.4859V27.9375H30.4859ZM30.4859 12.0781C30.4859 11.5608 30.6441 11.1859 30.9939 10.8361L28.1655 8.00766C27.057 9.11616 26.4859 10.5121 26.4859 12.0781H30.4859ZM30.9939 10.8361C31.3847 10.4453 31.7786 10.2891 32.275 10.2891V6.28906C30.688 6.28906 29.2851 6.88801 28.1655 8.00766L30.9939 10.8361ZM32.275 10.2891H47.3531V6.28906H32.275V10.2891ZM31.7594 25.6719C31.7594 26.4453 32.0735 27.1269 32.5795 27.633L35.408 24.8045C35.4892 24.8858 35.5843 25.009 35.6563 25.177C35.7292 25.3473 35.7594 25.5191 35.7594 25.6719H31.7594ZM32.7134 27.7552C33.2385 28.1928 33.8768 28.4141 34.5406 28.4141V24.4141C34.6482 24.4141 34.7797 24.4315 34.9203 24.4818C35.0616 24.5322 35.1809 24.6046 35.2741 24.6823L32.7134 27.7552ZM34.5406 28.4141H45.0875V24.4141H34.5406V28.4141ZM45.0875 28.4141C45.7503 28.4141 46.4538 28.1887 47.0095 27.633L44.1811 24.8045C44.3107 24.6749 44.4721 24.568 44.6527 24.4985C44.8286 24.4309 44.9823 24.4141 45.0875 24.4141V28.4141ZM47.0095 27.633C47.5156 27.1269 47.8297 26.4453 47.8297 25.6719H43.8297C43.8297 25.5191 43.8598 25.3473 43.9328 25.177C44.0048 25.009 44.0998 24.8858 44.1811 24.8045L47.0095 27.633ZM47.8297 25.6719V14.3438H43.8297V25.6719H47.8297ZM47.8297 14.3438C47.8297 13.5703 47.5156 12.8887 47.0095 12.3827L44.1811 15.2111C44.0998 15.1298 44.0048 15.0066 43.9328 14.8386C43.8598 14.6683 43.8297 14.4965 43.8297 14.3438H47.8297ZM47.1317 12.5165C46.611 11.8916 45.8727 11.5625 45.0875 11.5625V15.5625C44.9365 15.5625 44.7401 15.5328 44.5326 15.437C44.3237 15.3406 44.1663 15.2062 44.0589 15.0772L47.1317 12.5165ZM45.0875 11.5625H34.5406V15.5625H45.0875V11.5625ZM34.5406 11.5625C33.7672 11.5625 33.0856 11.8766 32.5795 12.3827L35.408 15.2111C35.3267 15.2924 35.2035 15.3874 35.0355 15.4594C34.8652 15.5324 34.6934 15.5625 34.5406 15.5625V11.5625ZM32.5795 12.3827C32.0735 12.8887 31.7594 13.5703 31.7594 14.3438H35.7594C35.7594 14.4965 35.7292 14.6683 35.6563 14.8386C35.5843 15.0066 35.4892 15.1298 35.408 15.2111L32.5795 12.3827ZM31.7594 14.3438V25.6719H35.7594V14.3438H31.7594ZM85.9047 30.5938L84.5155 29.1549L84.5029 29.1671L84.4905 29.1795L85.9047 30.5938ZM57.9359 30.5938L56.5217 32.008L56.5341 32.0204L56.5468 32.0326L57.9359 30.5938ZM57.0375 8.52344L55.6233 7.10922L55.5591 7.17337L55.5011 7.24307L57.0375 8.52344ZM61.8813 8.52344L60.3448 9.80381L60.4029 9.8735L60.467 9.93765L61.8813 8.52344ZM62.35 26.2188L60.9358 27.633L60.9999 27.6971L61.0696 27.7552L62.35 26.2188ZM69.4203 26.2188L68.0061 24.8045L69.4203 26.2188ZM73.9516 8.52344L72.4151 9.80381L72.4732 9.8735L72.5374 9.93765L73.9516 8.52344ZM74.4203 26.2188L73.0061 27.633L73.0703 27.6971L73.1399 27.7552L74.4203 26.2188ZM81.5297 26.2188L82.8101 27.7552L82.8798 27.6971L82.9439 27.633L81.5297 26.2188ZM81.9594 8.52344L80.5452 7.10922L80.481 7.17337L80.4229 7.24307L81.9594 8.52344ZM86.8031 8.52344L85.2667 9.80381L85.3248 9.8735L85.3889 9.93765L86.8031 8.52344ZM85.0375 27.9375C85.0375 28.4318 84.8838 28.7994 84.5155 29.1549L87.2939 32.0326C88.436 30.9298 89.0375 29.5265 89.0375 27.9375H85.0375ZM84.4905 29.1795C84.1406 29.5294 83.7657 29.6875 83.2484 29.6875V33.6875C84.8145 33.6875 86.2104 33.1165 87.3189 32.008L84.4905 29.1795ZM83.2484 29.6875H60.6313V33.6875H83.2484V29.6875ZM60.6313 29.6875C60.1124 29.6875 59.7107 29.5272 59.3251 29.1549L56.5468 32.0326C57.6716 33.1186 59.0668 33.6875 60.6313 33.6875V29.6875ZM59.3502 29.1795C59.0003 28.8297 58.8422 28.4548 58.8422 27.9375H54.8422C54.8422 29.5035 55.4132 30.8995 56.5217 32.008L59.3502 29.1795ZM58.8422 27.9375V9.07031H54.8422V27.9375H58.8422ZM58.8422 9.07031C58.8422 9.17785 58.8247 9.30935 58.7745 9.45002C58.724 9.59133 58.6516 9.7106 58.5739 9.80381L55.5011 7.24307C55.0635 7.76816 54.8422 8.4065 54.8422 9.07031H58.8422ZM58.4517 9.93765C58.3704 10.0189 58.2472 10.114 58.0793 10.1859C57.909 10.2589 57.7372 10.2891 57.5844 10.2891V6.28906C56.8109 6.28906 56.1294 6.60315 55.6233 7.10922L58.4517 9.93765ZM57.5844 10.2891H61.3734V6.28906H57.5844V10.2891ZM61.3734 10.2891C61.2224 10.2891 61.026 10.2593 60.8185 10.1636C60.6097 10.0672 60.4523 9.93278 60.3448 9.80381L63.4177 7.24307C62.897 6.61819 62.1587 6.28906 61.3734 6.28906V10.2891ZM60.467 9.93765C60.3858 9.85637 60.2907 9.73316 60.2187 9.56518C60.1458 9.39489 60.1156 9.22308 60.1156 9.07031H64.1156C64.1156 8.29687 63.8015 7.6153 63.2955 7.10922L60.467 9.93765ZM60.1156 9.07031V25.6719H64.1156V9.07031H60.1156ZM60.1156 25.6719C60.1156 26.4453 60.4297 27.1269 60.9358 27.633L63.7642 24.8045C63.8455 24.8858 63.9405 25.009 64.0125 25.177C64.0855 25.3473 64.1156 25.5191 64.1156 25.6719H60.1156ZM61.0696 27.7552C61.5947 28.1928 62.2331 28.4141 62.8969 28.4141V24.4141C63.0044 24.4141 63.1359 24.4315 63.2766 24.4818C63.4179 24.5322 63.5372 24.6046 63.6304 24.6823L61.0696 27.7552ZM62.8969 28.4141H68.9125V24.4141H62.8969V28.4141ZM68.9125 28.4141C69.5753 28.4141 70.2788 28.1887 70.8345 27.633L68.0061 24.8045C68.1357 24.6749 68.2971 24.568 68.4778 24.4985C68.6536 24.4309 68.8073 24.4141 68.9125 24.4141V28.4141ZM70.8345 27.633C71.3406 27.1269 71.6547 26.4453 71.6547 25.6719H67.6547C67.6547 25.5191 67.6848 25.3473 67.7578 25.177C67.8298 25.009 67.9248 24.8858 68.0061 24.8045L70.8345 27.633ZM71.6547 25.6719V9.07031H67.6547V25.6719H71.6547ZM71.6547 9.07031C71.6547 9.22308 71.6246 9.39489 71.5516 9.56518C71.4796 9.73316 71.3846 9.85637 71.3033 9.93765L68.4749 7.10922C67.9688 7.6153 67.6547 8.29687 67.6547 9.07031H71.6547ZM71.3033 9.93765C71.222 10.0189 71.0988 10.114 70.9308 10.1859C70.7605 10.2589 70.5887 10.2891 70.4359 10.2891V6.28906C69.6625 6.28906 68.9809 6.60315 68.4749 7.10922L71.3033 9.93765ZM70.4359 10.2891H73.4438V6.28906H70.4359V10.2891ZM73.4438 10.2891C73.2927 10.2891 73.0963 10.2593 72.8888 10.1636C72.68 10.0672 72.5226 9.93278 72.4151 9.80381L75.488 7.24307C74.9673 6.61819 74.229 6.28906 73.4438 6.28906V10.2891ZM72.5374 9.93765C72.4561 9.85637 72.3611 9.73316 72.2891 9.56518C72.2161 9.39489 72.1859 9.22308 72.1859 9.07031H76.1859C76.1859 8.29687 75.8719 7.6153 75.3658 7.10922L72.5374 9.93765ZM72.1859 9.07031V25.6719H76.1859V9.07031H72.1859ZM72.1859 25.6719C72.1859 26.4453 72.5 27.1269 73.0061 27.633L75.8345 24.8045C75.9158 24.8858 76.0108 25.009 76.0828 25.177C76.1558 25.3473 76.1859 25.5191 76.1859 25.6719H72.1859ZM73.1399 27.7552C73.665 28.1928 74.3034 28.4141 74.9672 28.4141V24.4141C75.0747 24.4141 75.2062 24.4315 75.3469 24.4818C75.4882 24.5322 75.6075 24.6046 75.7007 24.6823L73.1399 27.7552ZM74.9672 28.4141H80.9828V24.4141H74.9672V28.4141ZM80.9828 28.4141C81.6466 28.4141 82.285 28.1928 82.8101 27.7552L80.2493 24.6823C80.3425 24.6046 80.4618 24.5322 80.6031 24.4818C80.7438 24.4315 80.8753 24.4141 80.9828 24.4141V28.4141ZM82.9439 27.633C83.45 27.1269 83.7641 26.4453 83.7641 25.6719H79.7641C79.7641 25.5191 79.7942 25.3473 79.8672 25.177C79.9392 25.009 80.0342 24.8858 80.1155 24.8045L82.9439 27.633ZM83.7641 25.6719V9.07031H79.7641V25.6719H83.7641ZM83.7641 9.07031C83.7641 9.17785 83.7466 9.30935 83.6964 9.45002C83.6459 9.59133 83.5735 9.7106 83.4958 9.80381L80.4229 7.24307C79.9854 7.76816 79.7641 8.4065 79.7641 9.07031H83.7641ZM83.3736 9.93765C83.2923 10.0189 83.1691 10.114 83.0011 10.1859C82.8308 10.2589 82.659 10.2891 82.5063 10.2891V6.28906C81.7328 6.28906 81.0512 6.60315 80.5452 7.10922L83.3736 9.93765ZM82.5063 10.2891H86.2953V6.28906H82.5063V10.2891ZM86.2953 10.2891C86.1443 10.2891 85.9479 10.2593 85.7404 10.1636C85.5316 10.0672 85.3742 9.93278 85.2667 9.80381L88.3396 7.24307C87.8188 6.61819 87.0806 6.28906 86.2953 6.28906V10.2891ZM85.3889 9.93765C85.3076 9.85637 85.2126 9.73316 85.1406 9.56518C85.0676 9.39489 85.0375 9.22308 85.0375 9.07031H89.0375C89.0375 8.29687 88.7234 7.6153 88.2173 7.10922L85.3889 9.93765ZM85.0375 9.07031V27.9375H89.0375V9.07031H85.0375ZM93.8312 30.5938L92.417 32.008L92.4294 32.0204L92.442 32.0326L93.8312 30.5938ZM93.8312 9.42188L95.2455 10.8361L93.8312 9.42188ZM114.261 9.42188L112.822 10.8111L112.846 10.8363L112.872 10.8607L114.261 9.42188ZM114.261 21.5312L112.872 20.0924L112.859 20.1046L112.847 20.117L114.261 21.5312ZM98.2453 26.2188L96.8311 27.633L96.8952 27.6971L96.9649 27.7552L98.2453 26.2188ZM115.159 26.6484L113.745 28.0627L113.809 28.1268L113.879 28.1849L115.159 26.6484ZM115.159 31.4922L116.44 33.0286L116.509 32.9706L116.574 32.9064L115.159 31.4922ZM109.847 13.7969L108.31 15.0772L108.368 15.1469L108.433 15.2111L109.847 13.7969ZM98.2453 17.1562L96.8311 18.5705L96.8952 18.6346L96.9649 18.6927L98.2453 17.1562ZM96.5266 29.6875C96.0077 29.6875 95.606 29.5272 95.2204 29.1549L92.442 32.0326C93.5669 33.1186 94.9621 33.6875 96.5266 33.6875V29.6875ZM95.2455 29.1795C94.8956 28.8297 94.7375 28.4548 94.7375 27.9375H90.7375C90.7375 29.5035 91.3085 30.8995 92.417 32.008L95.2455 29.1795ZM94.7375 27.9375V12.0781H90.7375V27.9375H94.7375ZM94.7375 12.0781C94.7375 11.5608 94.8956 11.1859 95.2455 10.8361L92.417 8.00766C91.3085 9.11616 90.7375 10.5121 90.7375 12.0781H94.7375ZM95.2455 10.8361C95.6362 10.4453 96.0302 10.2891 96.5266 10.2891V6.28906C94.9396 6.28906 93.5367 6.88801 92.417 8.00766L95.2455 10.8361ZM96.5266 10.2891H111.605V6.28906H96.5266V10.2891ZM111.605 10.2891C112.099 10.2891 112.467 10.4428 112.822 10.8111L115.7 8.03269C114.597 6.89057 113.194 6.28906 111.605 6.28906V10.2891ZM112.872 10.8607C113.24 11.2163 113.394 11.5838 113.394 12.0781H117.394C117.394 10.4891 116.792 9.08581 115.65 7.98307L112.872 10.8607ZM113.394 12.0781V18.875H117.394V12.0781H113.394ZM113.394 18.875C113.394 19.3693 113.24 19.7369 112.872 20.0924L115.65 22.9701C116.792 21.8673 117.394 20.464 117.394 18.875H113.394ZM112.847 20.117C112.497 20.4669 112.122 20.625 111.605 20.625V24.625C113.171 24.625 114.567 24.054 115.675 22.9455L112.847 20.117ZM111.605 20.625H98.7922V24.625H111.605V20.625ZM98.7922 20.625C98.0187 20.625 97.3372 20.9391 96.8311 21.4452L99.6595 24.2736C99.5782 24.3549 99.455 24.4499 99.287 24.5219C99.1168 24.5949 98.9449 24.625 98.7922 24.625V20.625ZM96.8311 21.4452C96.325 21.9512 96.0109 22.6328 96.0109 23.4062H100.011C100.011 23.559 99.9808 23.7308 99.9078 23.9011C99.8358 24.0691 99.7408 24.1923 99.6595 24.2736L96.8311 21.4452ZM96.0109 23.4062V25.6719H100.011V23.4062H96.0109ZM96.0109 25.6719C96.0109 26.4453 96.325 27.1269 96.8311 27.633L99.6595 24.8045C99.7408 24.8858 99.8358 25.009 99.9078 25.177C99.9808 25.3473 100.011 25.5191 100.011 25.6719H96.0109ZM96.9649 27.7552C97.49 28.1928 98.1284 28.4141 98.7922 28.4141V24.4141C98.8997 24.4141 99.0312 24.4315 99.1719 24.4818C99.3132 24.5322 99.4325 24.6046 99.5257 24.6823L96.9649 27.7552ZM98.7922 28.4141H114.612V24.4141H98.7922V28.4141ZM114.612 28.4141C114.46 28.4141 114.288 28.3839 114.118 28.3109C113.95 28.239 113.826 28.1439 113.745 28.0627L116.574 25.2342C116.068 24.7282 115.386 24.4141 114.612 24.4141V28.4141ZM113.879 28.1849C113.75 28.0774 113.616 27.92 113.519 27.7112C113.423 27.5037 113.394 27.3073 113.394 27.1562H117.394C117.394 26.371 117.065 25.6327 116.44 25.112L113.879 28.1849ZM113.394 27.1562V30.9453H117.394V27.1562H113.394ZM113.394 30.9453C113.394 30.7925 113.424 30.6207 113.497 30.4504C113.569 30.2825 113.664 30.1593 113.745 30.078L116.574 32.9064C117.08 32.4003 117.394 31.7188 117.394 30.9453H113.394ZM113.879 29.9557C113.972 29.8781 114.091 29.8057 114.233 29.7552C114.373 29.705 114.505 29.6875 114.612 29.6875V33.6875C115.276 33.6875 115.915 33.4662 116.44 33.0286L113.879 29.9557ZM114.612 29.6875H96.5266V33.6875H114.612V29.6875ZM112.081 14.3438C112.081 13.5703 111.767 12.8887 111.261 12.3827L108.433 15.2111C108.351 15.1298 108.256 15.0066 108.184 14.8386C108.111 14.6683 108.081 14.4965 108.081 14.3438H112.081ZM111.383 12.5165C110.863 11.8916 110.124 11.5625 109.339 11.5625V15.5625C109.188 15.5625 108.992 15.5328 108.784 15.437C108.575 15.3406 108.418 15.2062 108.31 15.0772L111.383 12.5165ZM109.339 11.5625H98.7922V15.5625H109.339V11.5625ZM98.7922 11.5625C98.0187 11.5625 97.3372 11.8766 96.8311 12.3827L99.6595 15.2111C99.5782 15.2924 99.455 15.3874 99.287 15.4594C99.1168 15.5324 98.9449 15.5625 98.7922 15.5625V11.5625ZM96.8311 12.3827C96.325 12.8887 96.0109 13.5703 96.0109 14.3438H100.011C100.011 14.4965 99.9808 14.6683 99.9078 14.8386C99.8358 15.0066 99.7408 15.1298 99.6595 15.2111L96.8311 12.3827ZM96.0109 14.3438V16.6094H100.011V14.3438H96.0109ZM96.0109 16.6094C96.0109 17.3828 96.325 18.0644 96.8311 18.5705L99.6595 15.742C99.7408 15.8233 99.8358 15.9465 99.9078 16.1145C99.9808 16.2848 100.011 16.4566 100.011 16.6094H96.0109ZM96.9649 18.6927C97.49 19.1303 98.1284 19.3516 98.7922 19.3516V15.3516C98.8997 15.3516 99.0312 15.369 99.1719 15.4193C99.3132 15.4697 99.4325 15.5421 99.5257 15.6198L96.9649 18.6927ZM98.7922 19.3516H109.339V15.3516H98.7922V19.3516ZM109.339 19.3516C110.002 19.3516 110.705 19.1262 111.261 18.5705L108.433 15.742C108.562 15.6124 108.724 15.5055 108.904 15.436C109.08 15.3684 109.234 15.3516 109.339 15.3516V19.3516ZM111.261 18.5705C111.767 18.0644 112.081 17.3828 112.081 16.6094H108.081C108.081 16.4566 108.111 16.2848 108.184 16.1145C108.256 15.9465 108.351 15.8233 108.433 15.742L111.261 18.5705ZM112.081 16.6094V14.3438H108.081V16.6094H112.081ZM126.133 31.4922L127.547 32.9064L126.133 31.4922ZM121.289 31.4922L119.753 32.7726L119.869 32.9122L120.009 33.0286L121.289 31.4922ZM121.289 8.52344L119.875 7.10922L119.811 7.17337L119.753 7.24307L121.289 8.52344ZM142.617 9.42188L141.178 10.8111L141.203 10.8363L141.228 10.8607L142.617 9.42188ZM138.203 13.7969L136.667 15.0772L136.725 15.1469L136.789 15.2111L138.203 13.7969ZM127.148 11.5625C126.375 11.5625 125.693 11.8766 125.187 12.3827L128.016 15.2111C127.934 15.2924 127.811 15.3874 127.643 15.4594C127.473 15.5324 127.301 15.5625 127.148 15.5625V11.5625ZM125.187 12.3827C124.681 12.8887 124.367 13.5703 124.367 14.3438H128.367C128.367 14.4965 128.337 14.6683 128.264 14.8386C128.192 15.0066 128.097 15.1298 128.016 15.2111L125.187 12.3827ZM124.367 14.3438V30.9453H128.367V14.3438H124.367ZM124.367 30.9453C124.367 30.7925 124.397 30.6207 124.47 30.4504C124.542 30.2825 124.637 30.1593 124.719 30.078L127.547 32.9064C128.053 32.4003 128.367 31.7188 128.367 30.9453H124.367ZM124.719 30.078C124.848 29.9483 125.01 29.8415 125.19 29.772C125.366 29.7043 125.52 29.6875 125.625 29.6875V33.6875C126.288 33.6875 126.991 33.4622 127.547 32.9064L124.719 30.078ZM125.625 29.6875H121.836V33.6875H125.625V29.6875ZM121.836 29.6875C121.943 29.6875 122.075 29.705 122.216 29.7552C122.357 29.8057 122.476 29.8781 122.569 29.9557L120.009 33.0286C120.534 33.4662 121.172 33.6875 121.836 33.6875V29.6875ZM122.826 30.2118C122.903 30.305 122.976 30.4243 123.026 30.5656C123.076 30.7063 123.094 30.8378 123.094 30.9453H119.094C119.094 31.6091 119.315 32.2475 119.753 32.7726L122.826 30.2118ZM123.094 30.9453V9.07031H119.094V30.9453H123.094ZM123.094 9.07031C123.094 9.17785 123.076 9.30935 123.026 9.45002C122.976 9.59133 122.903 9.7106 122.826 9.80381L119.753 7.24307C119.315 7.76816 119.094 8.4065 119.094 9.07031H123.094ZM122.703 9.93765C122.622 10.0189 122.499 10.114 122.331 10.1859C122.161 10.2589 121.989 10.2891 121.836 10.2891V6.28906C121.062 6.28906 120.381 6.60315 119.875 7.10922L122.703 9.93765ZM121.836 10.2891H139.961V6.28906H121.836V10.2891ZM139.961 10.2891C140.455 10.2891 140.823 10.4428 141.178 10.8111L144.056 8.03269C142.953 6.89057 141.55 6.28906 139.961 6.28906V10.2891ZM141.228 10.8607C141.596 11.2163 141.75 11.5838 141.75 12.0781H145.75C145.75 10.4891 145.148 9.08581 144.006 7.98307L141.228 10.8607ZM141.75 12.0781V15.8281H145.75V12.0781H141.75ZM141.75 15.8281C141.75 15.6754 141.78 15.5035 141.853 15.3333C141.925 15.1653 142.02 15.0421 142.101 14.9608L144.93 17.7892C145.436 17.2831 145.75 16.6016 145.75 15.8281H141.75ZM142.101 14.9608C142.183 14.8795 142.306 14.7845 142.474 14.7125C142.644 14.6395 142.816 14.6094 142.969 14.6094V18.6094C143.742 18.6094 144.424 18.2953 144.93 17.7892L142.101 14.9608ZM142.969 14.6094H139.219V18.6094H142.969V14.6094ZM139.219 14.6094C139.372 14.6094 139.543 14.6395 139.714 14.7125C139.882 14.7845 140.005 14.8795 140.086 14.9608L137.258 17.7892C137.764 18.2953 138.445 18.6094 139.219 18.6094V14.6094ZM140.086 14.9608C140.167 15.0421 140.262 15.1653 140.334 15.3333C140.407 15.5035 140.438 15.6754 140.438 15.8281H136.438C136.438 16.6016 136.752 17.2831 137.258 17.7892L140.086 14.9608ZM140.438 15.8281V14.3438H136.438V15.8281H140.438ZM140.438 14.3438C140.438 13.5703 140.123 12.8887 139.617 12.3827L136.789 15.2111C136.708 15.1298 136.613 15.0066 136.541 14.8386C136.468 14.6683 136.438 14.4965 136.438 14.3438H140.438ZM139.74 12.5165C139.219 11.8916 138.481 11.5625 137.695 11.5625V15.5625C137.544 15.5625 137.348 15.5328 137.14 15.437C136.932 15.3406 136.774 15.2062 136.667 15.0772L139.74 12.5165ZM137.695 11.5625H127.148V15.5625H137.695V11.5625ZM50.0094 53.8828L48.5706 55.272L48.5949 55.2972L48.6202 55.3216L50.0094 53.8828ZM51.025 67.4375L52.8633 68.2253L52.8815 68.1829L52.8977 68.1397L51.025 67.4375ZM50.6734 67.9062L49.3931 66.3698L49.3234 66.4279L49.2592 66.492L50.6734 67.9062ZM50.3609 68.2188L48.9467 66.8045L47.5325 68.2188L48.9467 69.633L50.3609 68.2188ZM50.0094 82.5938L48.6202 81.1549L48.6076 81.1671L48.5952 81.1795L50.0094 82.5938ZM28.6812 83.4922L27.1448 84.7726L27.2612 84.9122L27.4009 85.0286L28.6812 83.4922ZM28.6812 52.9844L27.267 51.5702L28.6812 52.9844ZM45.5953 58.2578L44.0589 59.5382L44.1169 59.6079L44.1811 59.672L45.5953 58.2578ZM33.9937 65.3672L32.5795 66.7814L32.6437 66.8456L32.7134 66.9036L33.9937 65.3672ZM45.5953 71.1094L44.0589 72.3897L44.1753 72.5294L44.3149 72.6458L45.5953 71.1094ZM33.9937 71.1094L35.2741 72.6458L35.3438 72.5877L35.408 72.5236L33.9937 71.1094ZM33.9937 78.2188L32.5795 79.633L32.6437 79.6971L32.7134 79.7552L33.9937 78.2188ZM45.5953 78.2188L44.1811 76.8045L45.5953 78.2188ZM47.3531 54.75C47.8474 54.75 48.215 54.9037 48.5706 55.272L51.4482 52.4936C50.3454 51.3515 48.9421 50.75 47.3531 50.75V54.75ZM48.6202 55.3216C48.9885 55.6772 49.1422 56.0448 49.1422 56.5391H53.1422C53.1422 54.95 52.5407 53.5467 51.3986 52.444L48.6202 55.3216ZM49.1422 56.5391V66.8516H53.1422V56.5391H49.1422ZM49.1422 66.8516C49.1422 66.7476 49.1642 66.7035 49.1523 66.7353L52.8977 68.1397C53.042 67.7548 53.1422 67.3201 53.1422 66.8516H49.1422ZM49.1867 66.6497C49.2361 66.5343 49.3133 66.4363 49.3931 66.3698L51.9538 69.4427C52.3461 69.1158 52.6576 68.7053 52.8633 68.2253L49.1867 66.6497ZM49.2592 66.492L48.9467 66.8045L51.7751 69.633L52.0876 69.3205L49.2592 66.492ZM48.9467 69.633L49.2592 69.9455L52.0876 67.117L51.7751 66.8045L48.9467 69.633ZM49.2592 69.9455C49.2561 69.9423 49.2196 69.9037 49.1867 69.8269L52.8633 68.2512C52.6741 67.8098 52.4033 67.4327 52.0876 67.117L49.2592 69.9455ZM49.1867 69.8269C49.1676 69.7823 49.1422 69.6975 49.1422 69.5859H53.1422C53.1422 69.1097 53.0386 68.6604 52.8633 68.2512L49.1867 69.8269ZM49.1422 69.5859V79.9375H53.1422V69.5859H49.1422ZM49.1422 79.9375C49.1422 80.4318 48.9885 80.7994 48.6202 81.1549L51.3986 84.0326C52.5407 82.9298 53.1422 81.5265 53.1422 79.9375H49.1422ZM48.5952 81.1795C48.2453 81.5294 47.8704 81.6875 47.3531 81.6875V85.6875C48.9192 85.6875 50.3151 85.1165 51.4236 84.008L48.5952 81.1795ZM47.3531 81.6875H29.2281V85.6875H47.3531V81.6875ZM29.2281 81.6875C29.3357 81.6875 29.4672 81.705 29.6078 81.7552C29.7491 81.8057 29.8684 81.8781 29.9616 81.9557L27.4009 85.0286C27.926 85.4662 28.5643 85.6875 29.2281 85.6875V81.6875ZM30.2177 82.2118C30.2954 82.305 30.3678 82.4243 30.4182 82.5656C30.4685 82.7063 30.4859 82.8378 30.4859 82.9453H26.4859C26.4859 83.6091 26.7072 84.2475 27.1448 84.7726L30.2177 82.2118ZM30.4859 82.9453V53.4922H26.4859V82.9453H30.4859ZM30.4859 53.4922C30.4859 53.5974 30.4691 53.7511 30.4015 53.9269C30.332 54.1076 30.2251 54.2689 30.0955 54.3986L27.267 51.5702C26.7113 52.1259 26.4859 52.8294 26.4859 53.4922H30.4859ZM30.0955 54.3986C30.0142 54.4799 29.891 54.5749 29.723 54.6469C29.5527 54.7199 29.3809 54.75 29.2281 54.75V50.75C28.4547 50.75 27.7731 51.0641 27.267 51.5702L30.0955 54.3986ZM29.2281 54.75H47.3531V50.75H29.2281V54.75ZM47.8297 64.8203V58.8047H43.8297V64.8203H47.8297ZM47.8297 58.8047C47.8297 58.0312 47.5156 57.3497 47.0095 56.8436L44.1811 59.672C44.0998 59.5907 44.0048 59.4675 43.9328 59.2996C43.8598 59.1293 43.8297 58.9575 43.8297 58.8047H47.8297ZM47.1317 56.9774C46.611 56.3526 45.8727 56.0234 45.0875 56.0234V60.0234C44.9365 60.0234 44.7401 59.9937 44.5326 59.898C44.3237 59.8016 44.1663 59.6672 44.0589 59.5382L47.1317 56.9774ZM45.0875 56.0234H34.5406V60.0234H45.0875V56.0234ZM34.5406 56.0234C33.7672 56.0234 33.0856 56.3375 32.5795 56.8436L35.408 59.672C35.3267 59.7533 35.2035 59.8483 35.0355 59.9203C34.8652 59.9933 34.6934 60.0234 34.5406 60.0234V56.0234ZM32.5795 56.8436C32.0735 57.3497 31.7594 58.0312 31.7594 58.8047H35.7594C35.7594 58.9575 35.7292 59.1293 35.6563 59.2996C35.5843 59.4675 35.4892 59.5907 35.408 59.672L32.5795 56.8436ZM31.7594 58.8047V64.8203H35.7594V58.8047H31.7594ZM31.7594 64.8203C31.7594 65.5938 32.0735 66.2753 32.5795 66.7814L35.408 63.953C35.4892 64.0343 35.5843 64.1575 35.6563 64.3254C35.7292 64.4957 35.7594 64.6675 35.7594 64.8203H31.7594ZM32.7134 66.9036C33.2385 67.3412 33.8768 67.5625 34.5406 67.5625V63.5625C34.6482 63.5625 34.7797 63.58 34.9203 63.6302C35.0616 63.6807 35.1809 63.7531 35.2741 63.8307L32.7134 66.9036ZM34.5406 67.5625H45.0875V63.5625H34.5406V67.5625ZM45.0875 67.5625C45.7503 67.5625 46.4538 67.3372 47.0095 66.7814L44.1811 63.953C44.3107 63.8233 44.4721 63.7165 44.6527 63.647C44.8286 63.5793 44.9823 63.5625 45.0875 63.5625V67.5625ZM47.0095 66.7814C47.5156 66.2753 47.8297 65.5938 47.8297 64.8203H43.8297C43.8297 64.6675 43.8598 64.4957 43.9328 64.3254C44.0048 64.1575 44.0998 64.0343 44.1811 63.953L47.0095 66.7814ZM47.8297 71.6172C47.8297 70.8319 47.5006 70.0937 46.8757 69.5729L44.3149 72.6458C44.186 72.5383 44.0516 72.3809 43.9552 72.1721C43.8594 71.9646 43.8297 71.7682 43.8297 71.6172H47.8297ZM47.1317 69.829C46.611 69.2041 45.8727 68.875 45.0875 68.875V72.875C44.9365 72.875 44.7401 72.8453 44.5326 72.7495C44.3237 72.6531 44.1663 72.5187 44.0589 72.3897L47.1317 69.829ZM45.0875 68.875H34.5406V72.875H45.0875V68.875ZM34.5406 68.875C33.7672 68.875 33.0856 69.1891 32.5795 69.6952L35.408 72.5236C35.3267 72.6049 35.2035 72.6999 35.0355 72.7719C34.8652 72.8449 34.6934 72.875 34.5406 72.875V68.875ZM32.7134 69.5729C32.0885 70.0937 31.7594 70.8319 31.7594 71.6172H35.7594C35.7594 71.7682 35.7296 71.9646 35.6339 72.1721C35.5375 72.3809 35.4031 72.5383 35.2741 72.6458L32.7134 69.5729ZM31.7594 71.6172V77.6719H35.7594V71.6172H31.7594ZM31.7594 77.6719C31.7594 78.4453 32.0735 79.1269 32.5795 79.633L35.408 76.8045C35.4892 76.8858 35.5843 77.009 35.6563 77.177C35.7292 77.3473 35.7594 77.5191 35.7594 77.6719H31.7594ZM32.7134 79.7552C33.2385 80.1928 33.8768 80.4141 34.5406 80.4141V76.4141C34.6482 76.4141 34.7797 76.4315 34.9203 76.4818C35.0616 76.5322 35.1809 76.6046 35.2741 76.6823L32.7134 79.7552ZM34.5406 80.4141H45.0875V76.4141H34.5406V80.4141ZM45.0875 80.4141C45.7503 80.4141 46.4538 80.1887 47.0095 79.633L44.1811 76.8045C44.3107 76.6749 44.4721 76.568 44.6527 76.4985C44.8286 76.4309 44.9823 76.4141 45.0875 76.4141V80.4141ZM47.0095 79.633C47.5156 79.1269 47.8297 78.4453 47.8297 77.6719H43.8297C43.8297 77.5191 43.8598 77.3473 43.9328 77.177C44.0048 77.009 44.0998 76.8858 44.1811 76.8045L47.0095 79.633ZM47.8297 77.6719V71.6172H43.8297V77.6719H47.8297ZM57.9359 82.5938L56.5217 84.008L56.5341 84.0204L56.5467 84.0326L57.9359 82.5938ZM57.9359 61.4219L59.3501 62.8361L57.9359 61.4219ZM78.3656 61.4219L76.9268 62.8111L76.9512 62.8363L76.9764 62.8607L78.3656 61.4219ZM78.3656 73.5312L76.9764 72.0924L76.9638 72.1046L76.9514 72.117L78.3656 73.5312ZM62.35 78.2188L60.9358 79.633L60.9999 79.6971L61.0696 79.7552L62.35 78.2188ZM79.2641 78.6484L77.8498 80.0627L77.914 80.1268L77.9837 80.1849L79.2641 78.6484ZM79.2641 83.4922L80.5444 85.0286L80.6141 84.9706L80.6783 84.9064L79.2641 83.4922ZM73.9516 65.7969L72.4151 67.0772L72.4732 67.1469L72.5373 67.2111L73.9516 65.7969ZM62.35 69.1562L60.9358 70.5705L60.9999 70.6346L61.0696 70.6927L62.35 69.1562ZM60.6312 81.6875C60.1124 81.6875 59.7107 81.5272 59.3251 81.1549L56.5467 84.0326C57.6716 85.1186 59.0668 85.6875 60.6312 85.6875V81.6875ZM59.3501 81.1795C59.0003 80.8297 58.8422 80.4548 58.8422 79.9375H54.8422C54.8422 81.5035 55.4132 82.8995 56.5217 84.008L59.3501 81.1795ZM58.8422 79.9375V64.0781H54.8422V79.9375H58.8422ZM58.8422 64.0781C58.8422 63.5608 59.0003 63.1859 59.3501 62.8361L56.5217 60.0077C55.4132 61.1162 54.8422 62.5121 54.8422 64.0781H58.8422ZM59.3501 62.8361C59.7409 62.4453 60.1349 62.2891 60.6312 62.2891V58.2891C59.0443 58.2891 57.6414 58.888 56.5217 60.0077L59.3501 62.8361ZM60.6312 62.2891H75.7094V58.2891H60.6312V62.2891ZM75.7094 62.2891C76.2037 62.2891 76.5712 62.4428 76.9268 62.8111L79.8044 60.0327C78.7017 58.8906 77.2984 58.2891 75.7094 58.2891V62.2891ZM76.9764 62.8607C77.3447 63.2163 77.4984 63.5838 77.4984 64.0781H81.4984C81.4984 62.4891 80.8969 61.0858 79.7548 59.9831L76.9764 62.8607ZM77.4984 64.0781V70.875H81.4984V64.0781H77.4984ZM77.4984 70.875C77.4984 71.3693 77.3447 71.7369 76.9764 72.0924L79.7548 74.9701C80.8969 73.8673 81.4984 72.464 81.4984 70.875H77.4984ZM76.9514 72.117C76.6016 72.4669 76.2267 72.625 75.7094 72.625V76.625C77.2754 76.625 78.6713 76.054 79.7798 74.9455L76.9514 72.117ZM75.7094 72.625H62.8969V76.625H75.7094V72.625ZM62.8969 72.625C62.1234 72.625 61.4418 72.9391 60.9358 73.4452L63.7642 76.2736C63.6829 76.3549 63.5597 76.4499 63.3917 76.5219C63.2214 76.5949 63.0496 76.625 62.8969 76.625V72.625ZM60.9358 73.4452C60.4297 73.9512 60.1156 74.6328 60.1156 75.4062H64.1156C64.1156 75.559 64.0855 75.7308 64.0125 75.9011C63.9405 76.0691 63.8455 76.1923 63.7642 76.2736L60.9358 73.4452ZM60.1156 75.4062V77.6719H64.1156V75.4062H60.1156ZM60.1156 77.6719C60.1156 78.4453 60.4297 79.1269 60.9358 79.633L63.7642 76.8045C63.8455 76.8858 63.9405 77.009 64.0125 77.177C64.0855 77.3473 64.1156 77.5191 64.1156 77.6719H60.1156ZM61.0696 79.7552C61.5947 80.1928 62.2331 80.4141 62.8969 80.4141V76.4141C63.0044 76.4141 63.1359 76.4315 63.2766 76.4818C63.4179 76.5322 63.5372 76.6046 63.6304 76.6823L61.0696 79.7552ZM62.8969 80.4141H78.7172V76.4141H62.8969V80.4141ZM78.7172 80.4141C78.5644 80.4141 78.3926 80.3839 78.2223 80.3109C78.0543 80.239 77.9311 80.1439 77.8498 80.0627L80.6783 77.2342C80.1722 76.7282 79.4906 76.4141 78.7172 76.4141V80.4141ZM77.9837 80.1849C77.8547 80.0774 77.7203 79.92 77.6239 79.7112C77.5281 79.5037 77.4984 79.3073 77.4984 79.1562H81.4984C81.4984 78.371 81.1693 77.6327 80.5444 77.112L77.9837 80.1849ZM77.4984 79.1562V82.9453H81.4984V79.1562H77.4984ZM77.4984 82.9453C77.4984 82.7925 77.5286 82.6207 77.6015 82.4504C77.6735 82.2825 77.7686 82.1593 77.8498 82.078L80.6783 84.9064C81.1843 84.4003 81.4984 83.7188 81.4984 82.9453H77.4984ZM77.9837 81.9557C78.0769 81.8781 78.1962 81.8057 78.3375 81.7552C78.4781 81.705 78.6096 81.6875 78.7172 81.6875V85.6875C79.381 85.6875 80.0193 85.4662 80.5444 85.0286L77.9837 81.9557ZM78.7172 81.6875H60.6312V85.6875H78.7172V81.6875ZM76.1859 66.3438C76.1859 65.5703 75.8718 64.8887 75.3658 64.3827L72.5373 67.2111C72.4561 67.1298 72.361 67.0066 72.289 66.8386C72.2161 66.6683 72.1859 66.4965 72.1859 66.3438H76.1859ZM75.488 64.5165C74.9673 63.8916 74.229 63.5625 73.4437 63.5625V67.5625C73.2927 67.5625 73.0963 67.5328 72.8888 67.437C72.68 67.3406 72.5226 67.2062 72.4151 67.0772L75.488 64.5165ZM73.4437 63.5625H62.8969V67.5625H73.4437V63.5625ZM62.8969 63.5625C62.1234 63.5625 61.4418 63.8766 60.9358 64.3827L63.7642 67.2111C63.6829 67.2924 63.5597 67.3874 63.3917 67.4594C63.2214 67.5324 63.0496 67.5625 62.8969 67.5625V63.5625ZM60.9358 64.3827C60.4297 64.8887 60.1156 65.5703 60.1156 66.3438H64.1156C64.1156 66.4965 64.0855 66.6683 64.0125 66.8386C63.9405 67.0066 63.8455 67.1298 63.7642 67.2111L60.9358 64.3827ZM60.1156 66.3438V68.6094H64.1156V66.3438H60.1156ZM60.1156 68.6094C60.1156 69.3828 60.4297 70.0644 60.9358 70.5705L63.7642 67.742C63.8455 67.8233 63.9405 67.9465 64.0125 68.1145C64.0855 68.2848 64.1156 68.4566 64.1156 68.6094H60.1156ZM61.0696 70.6927C61.5947 71.1303 62.2331 71.3516 62.8969 71.3516V67.3516C63.0044 67.3516 63.1359 67.369 63.2766 67.4193C63.4179 67.4697 63.5372 67.5421 63.6304 67.6198L61.0696 70.6927ZM62.8969 71.3516H73.4437V67.3516H62.8969V71.3516ZM73.4437 71.3516C74.1066 71.3516 74.81 71.1262 75.3658 70.5705L72.5373 67.742C72.667 67.6124 72.8283 67.5055 73.009 67.436C73.1849 67.3684 73.3385 67.3516 73.4437 67.3516V71.3516ZM75.3658 70.5705C75.8718 70.0644 76.1859 69.3828 76.1859 68.6094H72.1859C72.1859 68.4566 72.2161 68.2848 72.289 68.1145C72.361 67.9465 72.4561 67.8233 72.5373 67.742L75.3658 70.5705ZM76.1859 68.6094V66.3438H72.1859V68.6094H76.1859ZM106.722 61.4219L105.283 62.8111L105.307 62.8363L105.333 62.8607L106.722 61.4219ZM107.62 83.4922L108.901 85.0286L108.97 84.9706L109.035 84.9064L107.62 83.4922ZM86.2922 82.5938L84.878 84.008L84.8904 84.0204L84.903 84.0326L86.2922 82.5938ZM86.2922 70.4844L84.878 69.0702L86.2922 70.4844ZM102.308 65.7969L100.771 67.0772L100.829 67.1469L100.894 67.2111L102.308 65.7969ZM86.9172 65.3672L85.3807 66.6476L85.4971 66.7872L85.6368 66.9036L86.9172 65.3672ZM86.9172 60.5234L85.503 59.1092L85.4388 59.1734L85.3807 59.2431L86.9172 60.5234ZM90.7062 78.2188L89.292 79.633L89.3562 79.6971L89.4259 79.7552L90.7062 78.2188ZM102.308 78.2188L100.894 76.8045L102.308 78.2188ZM102.308 74.8594L100.771 76.1397L100.829 76.2094L100.894 76.2736L102.308 74.8594ZM104.066 62.2891C104.56 62.2891 104.927 62.4428 105.283 62.8111L108.161 60.0327C107.058 58.8906 105.655 58.2891 104.066 58.2891V62.2891ZM105.333 62.8607C105.701 63.2163 105.855 63.5838 105.855 64.0781H109.855C109.855 62.4891 109.253 61.0858 108.111 59.9831L105.333 62.8607ZM105.855 64.0781V82.9453H109.855V64.0781H105.855ZM105.855 82.9453C105.855 82.7925 105.885 82.6207 105.958 82.4504C106.03 82.2825 106.125 82.1593 106.206 82.078L109.035 84.9064C109.541 84.4003 109.855 83.7188 109.855 82.9453H105.855ZM106.34 81.9557C106.433 81.8781 106.552 81.8057 106.694 81.7552C106.834 81.705 106.966 81.6875 107.073 81.6875V85.6875C107.737 85.6875 108.376 85.4662 108.901 85.0286L106.34 81.9557ZM107.073 81.6875H88.9875V85.6875H107.073V81.6875ZM88.9875 81.6875C88.4686 81.6875 88.067 81.5272 87.6814 81.1549L84.903 84.0326C86.0278 85.1186 87.423 85.6875 88.9875 85.6875V81.6875ZM87.7064 81.1795C87.3566 80.8297 87.1984 80.4548 87.1984 79.9375H83.1984C83.1984 81.5035 83.7695 82.8995 84.878 84.008L87.7064 81.1795ZM87.1984 79.9375V73.1406H83.1984V79.9375H87.1984ZM87.1984 73.1406C87.1984 72.6233 87.3566 72.2484 87.7064 71.8986L84.878 69.0702C83.7695 70.1787 83.1984 71.5746 83.1984 73.1406H87.1984ZM87.7064 71.8986C88.0972 71.5078 88.4911 71.3516 88.9875 71.3516V67.3516C87.4005 67.3516 85.9976 67.9505 84.878 69.0702L87.7064 71.8986ZM88.9875 71.3516H101.8V67.3516H88.9875V71.3516ZM101.8 71.3516C102.463 71.3516 103.166 71.1262 103.722 70.5705L100.894 67.742C101.023 67.6124 101.185 67.5055 101.365 67.436C101.541 67.3684 101.695 67.3516 101.8 67.3516V71.3516ZM103.722 70.5705C104.228 70.0644 104.542 69.3828 104.542 68.6094H100.542C100.542 68.4566 100.572 68.2848 100.645 68.1145C100.717 67.9465 100.812 67.8233 100.894 67.742L103.722 70.5705ZM104.542 68.6094V66.3438H100.542V68.6094H104.542ZM104.542 66.3438C104.542 65.5703 104.228 64.8887 103.722 64.3827L100.894 67.2111C100.812 67.1298 100.717 67.0066 100.645 66.8386C100.572 66.6683 100.542 66.4965 100.542 66.3438H104.542ZM103.844 64.5165C103.324 63.8916 102.585 63.5625 101.8 63.5625V67.5625C101.649 67.5625 101.453 67.5328 101.245 67.437C101.036 67.3406 100.879 67.2062 100.771 67.0772L103.844 64.5165ZM101.8 63.5625H87.4641V67.5625H101.8V63.5625ZM87.4641 63.5625C87.5716 63.5625 87.7031 63.58 87.8438 63.6302C87.9851 63.6807 88.1043 63.7531 88.1975 63.8307L85.6368 66.9036C86.1619 67.3412 86.8002 67.5625 87.4641 67.5625V63.5625ZM88.4536 64.0868C88.5313 64.18 88.6037 64.2993 88.6542 64.4406C88.7044 64.5813 88.7219 64.7128 88.7219 64.8203H84.7219C84.7219 65.4841 84.9432 66.1225 85.3807 66.6476L88.4536 64.0868ZM88.7219 64.8203V61.0703H84.7219V64.8203H88.7219ZM88.7219 61.0703C88.7219 61.1779 88.7044 61.3094 88.6542 61.45C88.6037 61.5913 88.5313 61.7106 88.4536 61.8038L85.3807 59.2431C84.9432 59.7682 84.7219 60.4065 84.7219 61.0703H88.7219ZM88.3314 61.9377C88.2501 62.0189 88.1269 62.114 87.9589 62.1859C87.7886 62.2589 87.6168 62.2891 87.4641 62.2891V58.2891C86.6906 58.2891 86.009 58.6032 85.503 59.1092L88.3314 61.9377ZM87.4641 62.2891H104.066V58.2891H87.4641V62.2891ZM88.4719 77.6719C88.4719 78.4453 88.786 79.1269 89.292 79.633L92.1205 76.8045C92.2017 76.8858 92.2968 77.009 92.3687 77.177C92.4417 77.3473 92.4719 77.5191 92.4719 77.6719H88.4719ZM89.4259 79.7552C89.951 80.1928 90.5893 80.4141 91.2531 80.4141V76.4141C91.3607 76.4141 91.4922 76.4315 91.6328 76.4818C91.7741 76.5322 91.8934 76.6046 91.9866 76.6823L89.4259 79.7552ZM91.2531 80.4141H101.8V76.4141H91.2531V80.4141ZM101.8 80.4141C102.463 80.4141 103.166 80.1887 103.722 79.633L100.894 76.8045C101.023 76.6749 101.185 76.568 101.365 76.4985C101.541 76.4309 101.695 76.4141 101.8 76.4141V80.4141ZM103.722 79.633C104.228 79.1269 104.542 78.4453 104.542 77.6719H100.542C100.542 77.5191 100.572 77.3473 100.645 77.177C100.717 77.009 100.812 76.8858 100.894 76.8045L103.722 79.633ZM104.542 77.6719V75.4062H100.542V77.6719H104.542ZM104.542 75.4062C104.542 74.6328 104.228 73.9512 103.722 73.4452L100.894 76.2736C100.812 76.1923 100.717 76.0691 100.645 75.9011C100.572 75.7308 100.542 75.559 100.542 75.4062H104.542ZM103.844 73.579C103.324 72.9541 102.585 72.625 101.8 72.625V76.625C101.649 76.625 101.453 76.5953 101.245 76.4995C101.036 76.4031 100.879 76.2687 100.771 76.1397L103.844 73.579ZM101.8 72.625H91.2531V76.625H101.8V72.625ZM91.2531 72.625C90.4797 72.625 89.7981 72.9391 89.292 73.4452L92.1205 76.2736C92.0392 76.3549 91.916 76.4499 91.748 76.5219C91.5777 76.5949 91.4059 76.625 91.2531 76.625V72.625ZM89.292 73.4452C88.786 73.9512 88.4719 74.6328 88.4719 75.4062H92.4719C92.4719 75.559 92.4417 75.7308 92.3687 75.9011C92.2968 76.0691 92.2017 76.1923 92.1205 76.2736L89.292 73.4452ZM88.4719 75.4062V77.6719H92.4719V75.4062H88.4719ZM114.648 61.4219L116.063 62.8361L114.648 61.4219ZM142.617 61.4219L141.178 62.8111L141.203 62.8363L141.228 62.8607L142.617 61.4219ZM143.516 83.4922L144.93 84.9064L143.516 83.4922ZM138.672 83.4922L137.135 84.7726L137.252 84.9122L137.392 85.0286L138.672 83.4922ZM130.664 83.4922L129.25 82.078L130.664 83.4922ZM126.602 83.4922L125.187 84.9064L125.251 84.9706L125.321 85.0286L126.602 83.4922ZM126.133 65.7969L124.596 67.0772L124.654 67.1469L124.719 67.2111L126.133 65.7969ZM118.594 83.4922L120.008 84.9064L118.594 83.4922ZM113.75 83.4922L112.214 84.7726L112.33 84.9122L112.47 85.0286L113.75 83.4922ZM115.555 64.0781C115.555 63.5608 115.713 63.1859 116.063 62.8361L113.234 60.0077C112.126 61.1162 111.555 62.5121 111.555 64.0781H115.555ZM116.063 62.8361C116.453 62.4453 116.847 62.2891 117.344 62.2891V58.2891C115.757 58.2891 114.354 58.888 113.234 60.0077L116.063 62.8361ZM117.344 62.2891H139.961V58.2891H117.344V62.2891ZM139.961 62.2891C140.455 62.2891 140.823 62.4428 141.178 62.8111L144.056 60.0327C142.953 58.8906 141.55 58.2891 139.961 58.2891V62.2891ZM141.228 62.8607C141.596 63.2163 141.75 63.5838 141.75 64.0781H145.75C145.75 62.4891 145.148 61.0858 144.006 59.9831L141.228 62.8607ZM141.75 64.0781V82.9453H145.75V64.0781H141.75ZM141.75 82.9453C141.75 82.7925 141.78 82.6207 141.853 82.4504C141.925 82.2825 142.02 82.1593 142.101 82.078L144.93 84.9064C145.436 84.4003 145.75 83.7188 145.75 82.9453H141.75ZM142.101 82.078C142.231 81.9483 142.392 81.8415 142.573 81.772C142.749 81.7043 142.903 81.6875 143.008 81.6875V85.6875C143.671 85.6875 144.374 85.4622 144.93 84.9064L142.101 82.078ZM143.008 81.6875H139.219V85.6875H143.008V81.6875ZM139.219 81.6875C139.326 81.6875 139.458 81.705 139.598 81.7552C139.74 81.8057 139.859 81.8781 139.952 81.9557L137.392 85.0286C137.917 85.4662 138.555 85.6875 139.219 85.6875V81.6875ZM140.208 82.2118C140.286 82.305 140.358 82.4243 140.409 82.5656C140.459 82.7063 140.477 82.8378 140.477 82.9453H136.477C136.477 83.6091 136.698 84.2475 137.135 84.7726L140.208 82.2118ZM140.477 82.9453V66.3438H136.477V82.9453H140.477ZM140.477 66.3438C140.477 65.5703 140.162 64.8887 139.656 64.3827L136.828 67.2111C136.747 67.1298 136.652 67.0066 136.58 66.8386C136.507 66.6683 136.477 66.4965 136.477 66.3438H140.477ZM139.656 64.3827C139.15 63.8766 138.469 63.5625 137.695 63.5625V67.5625C137.543 67.5625 137.371 67.5324 137.2 67.4594C137.032 67.3874 136.909 67.2924 136.828 67.2111L139.656 64.3827ZM137.695 63.5625H131.68V67.5625H137.695V63.5625ZM131.68 63.5625C130.906 63.5625 130.225 63.8766 129.719 64.3827L132.547 67.2111C132.466 67.2924 132.343 67.3874 132.175 67.4594C132.004 67.5324 131.832 67.5625 131.68 67.5625V63.5625ZM129.719 64.3827C129.213 64.8887 128.898 65.5703 128.898 66.3438H132.898C132.898 66.4965 132.868 66.6683 132.795 66.8386C132.723 67.0066 132.628 67.1298 132.547 67.2111L129.719 64.3827ZM128.898 66.3438V82.9453H132.898V66.3438H128.898ZM128.898 82.9453C128.898 82.7925 128.929 82.6207 129.002 82.4504C129.074 82.2825 129.169 82.1593 129.25 82.078L132.078 84.9064C132.584 84.4003 132.898 83.7188 132.898 82.9453H128.898ZM129.25 82.078C129.379 81.9483 129.541 81.8415 129.721 81.772C129.897 81.7043 130.051 81.6875 130.156 81.6875V85.6875C130.819 85.6875 131.523 85.4622 132.078 84.9064L129.25 82.078ZM130.156 81.6875H127.148V85.6875H130.156V81.6875ZM127.148 81.6875C127.256 81.6875 127.387 81.705 127.528 81.7552C127.669 81.8057 127.789 81.8781 127.882 81.9557L125.321 85.0286C125.846 85.4662 126.485 85.6875 127.148 85.6875V81.6875ZM128.016 82.078C128.097 82.1593 128.192 82.2825 128.264 82.4504C128.337 82.6207 128.367 82.7925 128.367 82.9453H124.367C124.367 83.7188 124.681 84.4003 125.187 84.9064L128.016 82.078ZM128.367 82.9453V66.3438H124.367V82.9453H128.367ZM128.367 66.3438C128.367 65.5703 128.053 64.8887 127.547 64.3827L124.719 67.2111C124.637 67.1298 124.542 67.0066 124.47 66.8386C124.397 66.6683 124.367 66.4965 124.367 66.3438H128.367ZM127.669 64.5165C127.149 63.8916 126.41 63.5625 125.625 63.5625V67.5625C125.474 67.5625 125.278 67.5328 125.07 67.437C124.861 67.3406 124.704 67.2062 124.596 67.0772L127.669 64.5165ZM125.625 63.5625H119.609V67.5625H125.625V63.5625ZM119.609 63.5625C118.836 63.5625 118.154 63.8766 117.648 64.3827L120.477 67.2111C120.395 67.2924 120.272 67.3874 120.104 67.4594C119.934 67.5324 119.762 67.5625 119.609 67.5625V63.5625ZM117.648 64.3827C117.142 64.8887 116.828 65.5703 116.828 66.3438H120.828C120.828 66.4965 120.798 66.6683 120.725 66.8386C120.653 67.0066 120.558 67.1298 120.477 67.2111L117.648 64.3827ZM116.828 66.3438V82.9453H120.828V66.3438H116.828ZM116.828 82.9453C116.828 82.7925 116.858 82.6207 116.931 82.4504C117.003 82.2825 117.098 82.1593 117.18 82.078L120.008 84.9064C120.514 84.4003 120.828 83.7188 120.828 82.9453H116.828ZM117.18 82.078C117.309 81.9483 117.471 81.8415 117.651 81.772C117.827 81.7043 117.981 81.6875 118.086 81.6875V85.6875C118.749 85.6875 119.452 85.4622 120.008 84.9064L117.18 82.078ZM118.086 81.6875H114.297V85.6875H118.086V81.6875ZM114.297 81.6875C114.404 81.6875 114.536 81.705 114.677 81.7552C114.818 81.8057 114.937 81.8781 115.03 81.9557L112.47 85.0286C112.995 85.4662 113.633 85.6875 114.297 85.6875V81.6875ZM115.286 82.2118C115.364 82.305 115.437 82.4243 115.487 82.5656C115.537 82.7063 115.555 82.8378 115.555 82.9453H111.555C111.555 83.6091 111.776 84.2475 112.214 84.7726L115.286 82.2118ZM115.555 82.9453V64.0781H111.555V82.9453H115.555Z" fill="#0F618A" fill-opacity="0.6"/>
</svg>
