<svg width="1920" height="540" viewBox="0 0 1920 540" fill="none" xmlns="http://www.w3.org/2000/svg">
<path d="M390 421L397 414L405 423L400 428V472L390 478V421Z" fill="#29363D" fill-opacity="0.5"/>
<path d="M399.293 427.293L399 427.586V428V471.434L391 476.234V421.414L396.957 415.457L403.626 422.96L399.293 427.293Z" stroke="#C2CFD6" stroke-opacity="0.5" stroke-width="2"/>
<path d="M1530 421L1523 414L1515 423L1520 428V472L1530 478V421Z" fill="#29363D" fill-opacity="0.5"/>
<path d="M1520.71 427.293L1521 427.586V428V471.434L1529 476.234V421.414L1523.04 415.457L1516.37 422.96L1520.71 427.293Z" stroke="#C2CFD6" stroke-opacity="0.5" stroke-width="2"/>
<path d="M416 412L411 417L402 409L409 402H880L894 388H1026L1040 402H1511L1518 409L1509 417L1504 412H416Z" fill="#29363D" fill-opacity="0.5"/>
<path d="M416 411H415.586L415.293 411.293L410.96 415.626L403.457 408.957L409.414 403H880H880.414L880.707 402.707L894.414 389H1025.59L1039.29 402.707L1039.59 403H1040H1510.59L1516.54 408.957L1509.04 415.626L1504.71 411.293L1504.41 411H1504H416Z" stroke="#C2CFD6" stroke-opacity="0.5" stroke-width="2"/>
<path d="M410.56 408.708L405.51 413.825L396.42 405.637L403.49 398.473H879.2L893.34 384.144H1026.66L1040.8 398.473H1516.51L1523.58 405.637L1514.49 413.825L1509.44 408.708H410.56Z" fill="#477085" fill-opacity="0.75"/>
<path d="M410.56 407.708H410.142L409.848 408.005L405.469 412.443L397.867 405.595L403.908 399.473H879.2H879.618L879.912 399.175L893.758 385.144H1026.24L1040.09 399.175L1040.38 399.473H1040.8H1516.09L1522.13 405.595L1514.53 412.443L1510.15 408.005L1509.86 407.708H1509.44H410.56Z" stroke="#B8D3E0" stroke-opacity="0.6" stroke-width="2"/>
<path d="M384.3 417.919L391.37 410.755L399.45 419.966L394.4 425.084V470.118L384.3 476.259V417.919Z" fill="#477085" fill-opacity="0.75"/>
<path d="M393.688 424.381L393.4 424.673V425.084V469.555L385.3 474.48V418.329L391.327 412.222L398.084 419.926L393.688 424.381Z" stroke="#B8D3E0" stroke-opacity="0.6" stroke-width="2"/>
<path d="M1535.7 417.919L1528.63 410.755L1520.55 419.966L1525.6 425.084V470.118L1535.7 476.259V417.919Z" fill="#477085" fill-opacity="0.75"/>
<path d="M1526.31 424.381L1526.6 424.673V425.084V469.555L1534.7 474.48V418.329L1528.67 412.222L1521.91 419.926L1526.31 424.381Z" stroke="#B8D3E0" stroke-opacity="0.6" stroke-width="2"/>
<path d="M877 394H737L767.485 363.515C769.736 361.264 772.788 360 775.971 360H887.74C890.439 360 892.999 361.199 894.727 363.273C899.336 368.803 906.162 372 913.36 372H1006.64C1013.84 372 1020.66 368.803 1025.27 363.273C1027 361.199 1029.56 360 1032.26 360H1144.03C1147.21 360 1150.26 361.264 1152.51 363.515L1183 394H1043L1029 380H891L877 394Z" fill="#29363D" fill-opacity="0.5"/>
<mask id="mask0_143_42" style="mask-type:alpha" maskUnits="userSpaceOnUse" x="0" y="339" width="1920" height="126">
<path d="M0 464H346C359.255 464 370 453.255 370 440V422.941C370 416.576 372.529 410.471 377.029 405.971L393.971 389.029C398.471 384.529 404.576 382 410.941 382H710.059C716.424 382 722.529 379.471 727.029 374.971L754.971 347.029C759.471 342.529 765.576 340 771.941 340H888.78C894.73 340 900.483 342.128 905 346V346C909.517 349.872 915.27 352 921.22 352H998.78C1004.73 352 1010.48 349.872 1015 346V346C1019.52 342.128 1025.27 340 1031.22 340H1148.06C1154.42 340 1160.53 342.529 1165.03 347.029L1192.97 374.971C1197.47 379.471 1203.58 382 1209.94 382H1509.06C1515.42 382 1521.53 384.529 1526.03 389.029L1542.97 405.971C1547.47 410.471 1550 416.576 1550 422.941V440C1550 453.255 1560.75 464 1574 464H1920" stroke="white" stroke-opacity="0.5"/>
</mask>
<g mask="url(#mask0_143_42)">
<rect width="1920" height="540" fill="url(#paint0_linear_143_42)"/>
</g>
<rect x="0.5" y="0.5" width="1919" height="539" stroke="#EE0000"/>
<defs>
<linearGradient id="paint0_linear_143_42" x1="1920" y1="0" x2="0" y2="0" gradientUnits="userSpaceOnUse">
<stop/>
<stop offset="0.210161" stop-color="white"/>
<stop offset="0.768689" stop-color="white"/>
<stop offset="1"/>
</linearGradient>
</defs>
</svg>
