<svg width="1080" height="1080" viewBox="0 0 1080 1080" fill="none" xmlns="http://www.w3.org/2000/svg">
<path d="M990 520V527.686L974.62 540L990 552.312V560L965 540L990 520Z" fill="#80D5FF" fill-opacity="0.4"/>
<path d="M990 535.372L984.22 540L990 544.628V535.372Z" fill="#80D5FF" fill-opacity="0.4"/>
<path d="M965 540C965 477.439 951.189 415.65 924.552 359.044" stroke="#C10000"/>
<path d="M965 540C965 477.439 951.189 415.65 924.552 359.044" stroke="#C10000"/>
<!-- <path d="M965 540C965 484.188 954.007 428.923 932.649 377.36C911.291 325.796 879.985 278.945 840.52 239.48C801.055 200.015 754.204 168.709 702.64 147.351C651.077 125.993 595.812 115 540 115" stroke="#C800B4"/> -->
<!-- <path d="M965 540C965 484.188 954.007 428.923 932.649 377.36C911.291 325.796 879.985 278.945 840.52 239.48C801.055 200.015 754.204 168.709 702.64 147.351C651.077 125.993 595.812 115 540 115" stroke="#C800B4"/> -->
<!-- <path d="M965 540C965 484.188 954.007 428.923 932.649 377.36C911.291 325.796 879.985 278.945 840.52 239.48C801.055 200.015 754.204 168.709 702.64 147.351C651.077 125.993 595.812 115 540 115" stroke="#C800B4"/> -->
<path d="M965 540C965 484.188 954.007 428.923 932.649 377.36C911.291 325.796 879.985 278.945 840.52 239.48C801.055 200.015 754.204 168.709 702.64 147.351C651.077 125.993 595.812 115 540 115" stroke="#C800B4"/>
</svg>
