<svg width="1080" height="1080" viewBox="0 0 1080 1080" fill="none" xmlns="http://www.w3.org/2000/svg">
<path d="M90 520V527.686L105.38 540L90 552.312V560L115 540L90 520Z" fill="#80D5FF" fill-opacity="0.4"/>
<path d="M90 535.372L95.78 540L90 544.628V535.372Z" fill="#80D5FF" fill-opacity="0.4"/>
<path d="M135.711 681.14C136.487 680.838 137.257 680.862 138.02 681.214C138.775 681.545 139.304 682.1 139.606 682.876L148.144 704.804C148.447 705.58 148.436 706.356 148.111 707.131C147.78 707.886 147.225 708.415 146.449 708.717L126.734 716.394C126.579 716.454 126.434 716.455 126.299 716.395C126.137 716.324 126.026 716.211 125.966 716.056L124.866 713.231C124.805 713.076 124.814 712.927 124.893 712.784C124.945 712.63 125.048 712.523 125.204 712.462L143.229 705.443C143.384 705.383 143.498 705.272 143.569 705.11C143.62 704.956 143.616 704.801 143.556 704.646L140.925 697.89C140.864 697.734 140.767 697.627 140.632 697.568C140.47 697.497 140.311 697.491 140.156 697.552L122.131 704.571C121.975 704.631 121.827 704.622 121.684 704.543C121.522 704.472 121.411 704.359 121.351 704.204L120.239 701.35C120.179 701.195 120.188 701.046 120.267 700.903C120.318 700.749 120.422 700.642 120.577 700.581L138.603 693.562C138.758 693.502 138.875 693.4 138.954 693.258C139.005 693.104 139.001 692.949 138.941 692.794L136.333 686.096C136.272 685.941 136.174 685.833 136.039 685.774C135.878 685.703 135.719 685.698 135.564 685.758L117.538 692.777C117.383 692.838 117.234 692.828 117.092 692.75C116.93 692.679 116.819 692.565 116.758 692.41L115.67 689.615C115.609 689.459 115.615 689.301 115.686 689.139C115.737 688.985 115.841 688.877 115.996 688.817L135.711 681.14Z" fill="#E5631A" fill-opacity="0.8"/>
<path d="M138.02 681.214L137.81 681.668L137.818 681.671L138.02 681.214ZM148.111 707.131L148.569 707.332L148.573 707.324L148.111 707.131ZM126.299 716.395L126.098 716.853L126.299 716.395ZM124.893 712.784L125.331 713.026L125.353 712.986L125.367 712.943L124.893 712.784ZM143.569 705.11L144.026 705.311L144.036 705.29L144.043 705.269L143.569 705.11ZM140.632 697.568L140.431 698.026L140.632 697.568ZM121.684 704.543L121.926 704.106L121.906 704.095L121.885 704.086L121.684 704.543ZM120.267 700.903L120.704 701.145L120.726 701.105L120.741 701.062L120.267 700.903ZM138.954 693.258L139.391 693.5L139.413 693.46L139.428 693.417L138.954 693.258ZM136.039 685.774L136.241 685.316L136.039 685.774ZM117.092 692.75L117.334 692.312L117.314 692.301L117.293 692.292L117.092 692.75ZM115.686 689.139L116.143 689.34L116.153 689.319L116.16 689.298L115.686 689.139ZM135.892 681.606C136.541 681.353 137.17 681.373 137.81 681.668L138.229 680.759C137.344 680.352 136.433 680.322 135.529 680.674L135.892 681.606ZM137.818 681.671C138.451 681.949 138.885 682.403 139.14 683.058L140.072 682.695C139.722 681.796 139.099 681.142 138.221 680.756L137.818 681.671ZM139.14 683.058L147.679 704.985L148.61 704.622L140.072 682.695L139.14 683.058ZM147.679 704.985C147.933 705.64 147.925 706.281 147.65 706.937L148.573 707.324C148.947 706.431 148.96 705.521 148.61 704.622L147.679 704.985ZM147.654 706.929C147.376 707.562 146.922 707.996 146.267 708.251L146.63 709.183C147.529 708.833 148.183 708.21 148.569 707.332L147.654 706.929ZM146.267 708.251L126.553 715.928L126.916 716.86L146.63 709.183L146.267 708.251ZM126.553 715.928C126.524 715.939 126.51 715.939 126.507 715.939C126.505 715.939 126.505 715.939 126.505 715.939C126.505 715.939 126.503 715.939 126.5 715.938L126.098 716.853C126.371 716.973 126.655 716.961 126.916 716.86L126.553 715.928ZM126.5 715.938C126.452 715.916 126.441 715.898 126.432 715.874L125.5 716.237C125.612 716.524 125.823 716.732 126.098 716.853L126.5 715.938ZM126.432 715.874L125.332 713.05L124.4 713.413L125.5 716.237L126.432 715.874ZM125.332 713.05C125.328 713.04 125.327 713.034 125.327 713.033C125.326 713.031 125.326 713.031 125.326 713.033C125.326 713.036 125.326 713.037 125.326 713.037C125.326 713.037 125.327 713.033 125.331 713.026L124.455 712.543C124.303 712.819 124.287 713.123 124.4 713.413L125.332 713.05ZM125.367 712.943C125.37 712.936 125.371 712.933 125.372 712.933C125.372 712.933 125.371 712.934 125.37 712.935C125.368 712.937 125.367 712.937 125.369 712.936C125.371 712.935 125.375 712.932 125.385 712.928L125.022 711.996C124.733 712.109 124.519 712.327 124.419 712.626L125.367 712.943ZM125.385 712.928L143.41 705.909L143.048 704.977L125.022 711.996L125.385 712.928ZM143.41 705.909C143.697 705.798 143.906 705.586 144.026 705.311L143.111 704.909C143.09 704.957 143.071 704.968 143.048 704.977L143.41 705.909ZM144.043 705.269C144.133 705.001 144.123 704.726 144.021 704.464L143.09 704.827C143.109 704.876 143.108 704.911 143.095 704.951L144.043 705.269ZM144.021 704.464L141.391 697.708L140.459 698.071L143.09 704.827L144.021 704.464ZM141.391 697.708C141.289 697.447 141.106 697.23 140.833 697.11L140.431 698.026C140.434 698.027 140.435 698.028 140.435 698.028C140.435 698.028 140.435 698.028 140.437 698.029C140.438 698.031 140.448 698.042 140.459 698.071L141.391 697.708ZM140.833 697.11C140.558 696.989 140.262 696.974 139.975 697.086L140.338 698.018C140.361 698.009 140.382 698.004 140.431 698.026L140.833 697.11ZM139.975 697.086L121.949 704.105L122.312 705.037L140.338 698.018L139.975 697.086ZM121.949 704.105C121.94 704.109 121.934 704.11 121.932 704.11C121.93 704.11 121.931 704.11 121.933 704.11C121.935 704.11 121.937 704.111 121.936 704.111C121.936 704.111 121.933 704.11 121.926 704.106L121.442 704.981C121.718 705.134 122.022 705.15 122.312 705.037L121.949 704.105ZM121.885 704.086C121.837 704.064 121.826 704.046 121.817 704.022L120.885 704.385C120.996 704.672 121.208 704.88 121.483 705.001L121.885 704.086ZM121.817 704.022L120.705 701.169L119.774 701.531L120.885 704.385L121.817 704.022ZM120.705 701.169C120.702 701.159 120.7 701.153 120.7 701.151C120.7 701.15 120.7 701.15 120.7 701.152C120.7 701.155 120.699 701.156 120.7 701.156C120.7 701.155 120.701 701.152 120.704 701.145L119.829 700.662C119.677 700.938 119.661 701.242 119.774 701.531L120.705 701.169ZM120.741 701.062C120.743 701.055 120.745 701.052 120.745 701.052C120.745 701.051 120.745 701.053 120.743 701.054C120.742 701.056 120.741 701.056 120.743 701.055C120.744 701.054 120.749 701.051 120.759 701.047L120.396 700.115C120.106 700.228 119.893 700.446 119.793 700.745L120.741 701.062ZM120.759 701.047L138.784 694.028L138.421 693.096L120.396 700.115L120.759 701.047ZM138.784 694.028C139.046 693.927 139.255 693.747 139.391 693.5L138.516 693.016C138.495 693.054 138.47 693.077 138.421 693.096L138.784 694.028ZM139.428 693.417C139.518 693.149 139.508 692.874 139.406 692.612L138.475 692.975C138.494 693.024 138.493 693.059 138.48 693.099L139.428 693.417ZM139.406 692.612L136.798 685.915L135.867 686.277L138.475 692.975L139.406 692.612ZM136.798 685.915C136.697 685.653 136.513 685.436 136.241 685.316L135.838 686.232C135.841 686.233 135.842 686.234 135.843 686.234C135.843 686.234 135.843 686.234 135.844 686.236C135.846 686.238 135.855 686.249 135.867 686.277L136.798 685.915ZM136.241 685.316C135.966 685.195 135.669 685.18 135.382 685.292L135.745 686.224C135.769 686.215 135.79 686.211 135.838 686.232L136.241 685.316ZM135.382 685.292L117.357 692.311L117.72 693.243L135.745 686.224L135.382 685.292ZM117.357 692.311C117.347 692.315 117.342 692.316 117.34 692.316C117.338 692.317 117.339 692.316 117.341 692.317C117.343 692.317 117.344 692.317 117.344 692.317C117.344 692.317 117.34 692.316 117.334 692.312L116.85 693.187C117.126 693.34 117.43 693.356 117.72 693.243L117.357 692.311ZM117.293 692.292C117.244 692.271 117.233 692.252 117.224 692.229L116.292 692.592C116.404 692.879 116.616 693.087 116.891 693.208L117.293 692.292ZM117.224 692.229L116.136 689.433L115.204 689.796L116.292 692.592L117.224 692.229ZM116.136 689.433C116.126 689.41 116.122 689.389 116.143 689.34L115.228 688.938C115.107 689.213 115.092 689.509 115.204 689.796L116.136 689.433ZM116.16 689.298C116.162 689.29 116.164 689.287 116.164 689.287C116.164 689.287 116.164 689.288 116.162 689.29C116.161 689.291 116.16 689.291 116.162 689.29C116.163 689.289 116.168 689.286 116.178 689.283L115.815 688.351C115.525 688.464 115.312 688.681 115.212 688.98L116.16 689.298ZM116.178 689.283L135.892 681.606L135.529 680.674L115.815 688.351L116.178 689.283Z" fill="#993300" fill-opacity="0.8"/>
<path d="M115.148 668.863C114.887 668.072 114.952 667.304 115.343 666.561C115.708 665.805 116.286 665.296 117.077 665.035L131.412 660.309C131.57 660.256 131.728 660.27 131.886 660.35C132.024 660.436 132.12 660.558 132.172 660.716L136.702 674.457C136.963 675.249 136.911 676.023 136.547 676.779C136.175 677.516 135.594 678.015 134.802 678.276L129.638 679.978C128.847 680.239 128.083 680.184 127.346 679.813C126.583 679.428 126.071 678.84 125.81 678.049L122.601 668.314C122.549 668.156 122.457 668.044 122.325 667.977C122.167 667.898 122.009 667.884 121.851 667.936L120.13 668.504C119.971 668.556 119.852 668.661 119.773 668.819C119.687 668.957 119.67 669.105 119.722 669.263L123.313 680.155C123.365 680.314 123.362 680.468 123.302 680.62C123.216 680.758 123.094 680.853 122.935 680.905L120.086 681.844C119.928 681.897 119.773 681.893 119.622 681.833C119.464 681.754 119.359 681.635 119.307 681.476L115.148 668.863ZM131.76 674.837C131.918 674.784 132.037 674.679 132.117 674.521C132.177 674.37 132.18 674.215 132.128 674.057L129.486 666.044C129.434 665.886 129.342 665.773 129.211 665.707C129.053 665.627 128.895 665.614 128.736 665.666L127.015 666.233C126.857 666.286 126.738 666.391 126.658 666.549C126.572 666.687 126.555 666.835 126.607 666.993L129.249 675.006C129.302 675.165 129.407 675.283 129.565 675.363C129.722 675.443 129.88 675.456 130.039 675.404L131.76 674.837Z" fill="#E5631A" fill-opacity="0.8"/>
<path d="M115.343 666.561L115.786 666.794L115.79 666.786L115.793 666.778L115.343 666.561ZM131.886 660.35L132.151 659.925L132.132 659.913L132.111 659.903L131.886 660.35ZM136.547 676.779L136.993 677.004L136.997 676.996L136.547 676.779ZM127.346 679.813L127.121 680.259L127.346 679.813ZM119.773 668.819L120.197 669.083L120.209 669.064L120.219 669.044L119.773 668.819ZM123.302 680.62L123.726 680.884L123.75 680.846L123.767 680.803L123.302 680.62ZM119.622 681.833L119.397 682.28L119.417 682.29L119.438 682.298L119.622 681.833ZM132.117 674.521L132.563 674.747L132.574 674.726L132.582 674.705L132.117 674.521ZM129.211 665.707L128.986 666.153L129.211 665.707ZM126.658 666.549L127.083 666.813L127.095 666.794L127.105 666.774L126.658 666.549ZM115.623 668.706C115.405 668.045 115.457 667.418 115.786 666.794L114.901 666.328C114.447 667.19 114.369 668.098 114.673 669.02L115.623 668.706ZM115.793 666.778C116.1 666.143 116.573 665.728 117.234 665.51L116.921 664.56C116 664.864 115.316 665.466 114.893 666.344L115.793 666.778ZM117.234 665.51L131.569 660.783L131.256 659.834L116.921 664.56L117.234 665.51ZM131.569 660.783C131.593 660.776 131.614 660.772 131.661 660.796L132.111 659.903C131.843 659.768 131.548 659.737 131.256 659.834L131.569 660.783ZM131.622 660.774C131.658 660.797 131.68 660.823 131.697 660.873L132.647 660.56C132.559 660.293 132.391 660.075 132.151 659.925L131.622 660.774ZM131.697 660.873L136.228 674.614L137.177 674.301L132.647 660.56L131.697 660.873ZM136.228 674.614C136.448 675.281 136.405 675.921 136.096 676.562L136.997 676.996C137.418 676.124 137.479 675.216 137.177 674.301L136.228 674.614ZM136.1 676.554C135.789 677.171 135.313 677.581 134.646 677.801L134.959 678.75C135.875 678.448 136.561 677.861 136.993 677.004L136.1 676.554ZM134.646 677.801L129.482 679.503L129.795 680.453L134.959 678.75L134.646 677.801ZM129.482 679.503C128.815 679.723 128.188 679.677 127.571 679.366L127.121 680.259C127.978 680.691 128.879 680.755 129.795 680.453L129.482 679.503ZM127.571 679.366C126.923 679.04 126.504 678.554 126.285 677.892L125.336 678.205C125.639 679.126 126.243 679.817 127.121 680.259L127.571 679.366ZM126.285 677.892L123.076 668.158L122.126 668.471L125.336 678.205L126.285 677.892ZM123.076 668.158C122.988 667.891 122.816 667.665 122.55 667.531L122.1 668.424C122.103 668.425 122.104 668.426 122.104 668.426C122.104 668.426 122.105 668.426 122.106 668.428C122.107 668.43 122.116 668.441 122.126 668.471L123.076 668.158ZM122.55 667.531C122.282 667.395 121.987 667.365 121.694 667.461L122.008 668.411C122.032 668.403 122.053 668.4 122.1 668.424L122.55 667.531ZM121.694 667.461L119.973 668.029L120.286 668.979L122.008 668.411L121.694 667.461ZM119.973 668.029C119.681 668.125 119.462 668.325 119.326 668.594L120.219 669.044C120.243 668.996 120.262 668.986 120.286 668.979L119.973 668.029ZM119.349 668.554C119.182 668.822 119.15 669.125 119.247 669.42L120.197 669.107C120.194 669.097 120.193 669.091 120.193 669.089C120.192 669.088 120.193 669.088 120.192 669.09C120.192 669.092 120.192 669.094 120.192 669.094C120.192 669.093 120.193 669.09 120.197 669.083L119.349 668.554ZM119.247 669.42L122.838 680.312L123.788 679.999L120.197 669.107L119.247 669.42ZM122.838 680.312C122.855 680.362 122.852 680.396 122.837 680.436L123.767 680.803C123.871 680.54 123.876 680.265 123.788 679.999L122.838 680.312ZM122.878 680.355C122.855 680.391 122.829 680.414 122.779 680.43L123.092 681.38C123.358 681.292 123.577 681.124 123.726 680.884L122.878 680.355ZM122.779 680.43L119.93 681.37L120.243 682.319L123.092 681.38L122.779 680.43ZM119.93 681.37C119.879 681.386 119.845 681.384 119.805 681.368L119.438 682.298C119.701 682.402 119.976 682.407 120.243 682.319L119.93 681.37ZM119.847 681.387C119.799 681.363 119.789 681.344 119.782 681.32L118.832 681.633C118.928 681.925 119.128 682.144 119.397 682.28L119.847 681.387ZM119.782 681.32L115.623 668.706L114.673 669.02L118.832 681.633L119.782 681.32ZM131.917 675.311C132.209 675.215 132.428 675.015 132.563 674.747L131.67 674.296C131.646 674.344 131.628 674.354 131.603 674.362L131.917 675.311ZM132.582 674.705C132.686 674.442 132.691 674.167 132.603 673.9L131.653 674.214C131.67 674.264 131.668 674.298 131.652 674.338L132.582 674.705ZM132.603 673.9L129.961 665.887L129.011 666.2L131.653 674.214L132.603 673.9ZM129.961 665.887C129.873 665.621 129.702 665.395 129.436 665.261L128.986 666.153C128.988 666.155 128.989 666.156 128.99 666.156C128.99 666.156 128.99 666.156 128.991 666.158C128.993 666.16 129.002 666.171 129.011 666.2L129.961 665.887ZM129.436 665.261C129.167 665.125 128.872 665.095 128.58 665.191L128.893 666.141C128.917 666.133 128.938 666.13 128.986 666.153L129.436 665.261ZM128.58 665.191L126.858 665.759L127.172 666.708L128.893 666.141L128.58 665.191ZM126.858 665.759C126.566 665.855 126.347 666.055 126.212 666.323L127.105 666.774C127.129 666.726 127.147 666.716 127.172 666.708L126.858 665.759ZM126.234 666.284C126.067 666.551 126.035 666.854 126.133 667.15L127.082 666.837C127.079 666.827 127.078 666.821 127.078 666.819C127.078 666.817 127.078 666.818 127.078 666.82C127.077 666.822 127.077 666.823 127.077 666.823C127.077 666.823 127.078 666.82 127.083 666.813L126.234 666.284ZM126.133 667.15L128.775 675.163L129.724 674.85L127.082 666.837L126.133 667.15ZM128.775 675.163C128.871 675.455 129.071 675.674 129.339 675.81L129.79 674.917C129.742 674.893 129.732 674.874 129.724 674.85L128.775 675.163ZM129.339 675.81C129.608 675.945 129.903 675.975 130.195 675.879L129.882 674.929C129.858 674.937 129.837 674.94 129.79 674.917L129.339 675.81ZM130.195 675.879L131.917 675.311L131.603 674.362L129.882 674.929L130.195 675.879Z" fill="#993300" fill-opacity="0.8"/>
<path d="M115.144 656.576C115.189 656.736 115.288 656.86 115.441 656.948C115.595 657.035 115.752 657.056 115.913 657.012L128.716 653.48C128.877 653.436 129.034 653.457 129.188 653.545C129.316 653.617 129.402 653.734 129.446 653.895L130.252 656.817C130.297 656.978 130.285 657.132 130.218 657.28C130.125 657.414 129.998 657.503 129.838 657.547L112.968 662.201C112.807 662.245 112.653 662.233 112.505 662.166C112.351 662.079 112.252 661.955 112.207 661.794L108.352 647.816C108.13 647.013 108.233 646.25 108.66 645.527C109.062 644.789 109.664 644.31 110.468 644.088L113.36 643.291C113.52 643.246 113.678 643.268 113.831 643.355C113.985 643.442 114.084 643.566 114.128 643.727L114.926 646.619C114.971 646.78 114.949 646.937 114.862 647.09C114.775 647.244 114.651 647.343 114.49 647.388L113.345 647.703C113.185 647.748 113.061 647.847 112.973 648C112.88 648.134 112.856 648.281 112.901 648.442L115.144 656.576Z" fill="#E5631A" fill-opacity="0.8"/>
<path d="M129.188 653.545L129.434 653.11L129.188 653.545ZM130.218 657.28L130.629 657.565L130.655 657.528L130.673 657.487L130.218 657.28ZM112.505 662.166L112.258 662.601L112.277 662.612L112.298 662.622L112.505 662.166ZM108.66 645.527L109.091 645.781L109.095 645.774L109.099 645.766L108.66 645.527ZM112.973 648L113.384 648.286L113.397 648.267L113.408 648.247L112.973 648ZM114.662 656.709C114.744 657.005 114.933 657.234 115.194 657.382L115.688 656.513C115.642 656.486 115.633 656.467 115.626 656.443L114.662 656.709ZM115.194 657.382C115.456 657.531 115.749 657.576 116.046 657.494L115.78 656.53C115.755 656.537 115.734 656.539 115.688 656.513L115.194 657.382ZM116.046 657.494L128.849 653.962L128.583 652.998L115.78 656.53L116.046 657.494ZM128.849 653.962C128.873 653.956 128.895 653.953 128.941 653.98L129.434 653.11C129.173 652.962 128.88 652.916 128.583 652.998L128.849 653.962ZM128.941 653.98C128.944 653.981 128.945 653.982 128.945 653.982C128.945 653.982 128.945 653.983 128.946 653.984C128.948 653.986 128.956 653.998 128.964 654.028L129.928 653.762C129.854 653.492 129.693 653.257 129.434 653.11L128.941 653.98ZM128.964 654.028L129.77 656.95L130.734 656.684L129.928 653.762L128.964 654.028ZM129.77 656.95C129.784 657.001 129.78 657.035 129.763 657.074L130.673 657.487C130.79 657.229 130.809 656.954 130.734 656.684L129.77 656.95ZM129.807 656.995C129.783 657.03 129.756 657.051 129.705 657.065L129.971 658.029C130.241 657.955 130.467 657.798 130.629 657.565L129.807 656.995ZM129.705 657.065L112.835 661.719L113.101 662.683L129.971 658.029L129.705 657.065ZM112.835 661.719C112.784 661.733 112.75 661.729 112.711 661.711L112.298 662.622C112.556 662.738 112.83 662.757 113.101 662.683L112.835 661.719ZM112.751 661.731C112.705 661.705 112.696 661.686 112.689 661.661L111.725 661.927C111.807 662.224 111.996 662.453 112.258 662.601L112.751 661.731ZM112.689 661.661L108.834 647.684L107.87 647.949L111.725 661.927L112.689 661.661ZM108.834 647.684C108.649 647.012 108.732 646.389 109.091 645.781L108.23 645.273C107.734 646.111 107.612 647.014 107.87 647.949L108.834 647.684ZM109.099 645.766C109.437 645.147 109.929 644.756 110.601 644.57L110.335 643.606C109.4 643.864 108.687 644.432 108.221 645.288L109.099 645.766ZM110.601 644.57L113.493 643.773L113.227 642.809L110.335 643.606L110.601 644.57ZM113.493 643.773C113.517 643.766 113.538 643.764 113.585 643.79L114.078 642.92C113.817 642.772 113.524 642.727 113.227 642.809L113.493 643.773ZM113.585 643.79C113.631 643.816 113.64 643.835 113.647 643.86L114.61 643.594C114.529 643.297 114.34 643.068 114.078 642.92L113.585 643.79ZM113.647 643.86L114.444 646.752L115.408 646.486L114.61 643.594L113.647 643.86ZM114.444 646.752C114.451 646.776 114.453 646.797 114.427 646.844L115.297 647.337C115.445 647.076 115.49 646.783 115.408 646.486L114.444 646.752ZM114.427 646.844C114.401 646.89 114.381 646.899 114.357 646.906L114.623 647.87C114.92 647.788 115.148 647.599 115.297 647.337L114.427 646.844ZM114.357 646.906L113.212 647.221L113.478 648.185L114.623 647.87L114.357 646.906ZM113.212 647.221C112.915 647.303 112.687 647.492 112.538 647.754L113.408 648.247C113.434 648.201 113.454 648.192 113.478 648.185L113.212 647.221ZM112.563 647.715C112.383 647.974 112.336 648.275 112.419 648.575L113.383 648.309C113.38 648.299 113.379 648.293 113.379 648.291C113.379 648.29 113.379 648.29 113.379 648.292C113.379 648.294 113.378 648.296 113.378 648.296C113.378 648.295 113.38 648.292 113.384 648.286L112.563 647.715ZM112.419 648.575L114.662 656.709L115.626 656.443L113.383 648.309L112.419 648.575Z" fill="#993300" fill-opacity="0.8"/>
<path d="M109.93 635.494C109.967 635.657 110.059 635.785 110.209 635.88C110.358 635.975 110.514 636.004 110.676 635.968L123.639 633.075C123.801 633.039 123.957 633.068 124.107 633.163C124.231 633.242 124.311 633.363 124.348 633.525L125.008 636.484C125.044 636.647 125.025 636.8 124.951 636.945C124.851 637.074 124.72 637.156 124.558 637.193L109.826 640.48C109.013 640.662 108.258 640.531 107.562 640.089C106.84 639.631 106.389 638.995 106.208 638.182L103.58 626.409C103.399 625.596 103.539 624.838 104.002 624.138C104.44 623.421 105.065 622.972 105.879 622.79L120.61 619.503C120.773 619.467 120.929 619.496 121.078 619.591C121.207 619.69 121.289 619.821 121.326 619.984L121.979 622.912C122.015 623.074 121.996 623.228 121.922 623.373C121.827 623.522 121.698 623.615 121.536 623.651L108.573 626.543C108.411 626.58 108.282 626.673 108.187 626.822C108.088 626.951 108.056 627.096 108.093 627.259L109.93 635.494Z" fill="#E5631A" fill-opacity="0.8"/>
<path d="M124.107 633.163L124.375 632.741L124.107 633.163ZM124.951 636.945L125.347 637.25L125.374 637.214L125.395 637.174L124.951 636.945ZM107.562 640.089L107.83 639.667L107.562 640.089ZM104.002 624.138L104.419 624.413L104.424 624.406L104.429 624.398L104.002 624.138ZM121.078 619.591L121.383 619.195L121.365 619.181L121.346 619.169L121.078 619.591ZM121.922 623.373L122.344 623.641L122.356 623.622L122.366 623.601L121.922 623.373ZM108.187 626.822L108.583 627.127L108.597 627.109L108.609 627.09L108.187 626.822ZM109.442 635.603C109.509 635.904 109.687 636.141 109.94 636.302L110.477 635.458C110.432 635.43 110.424 635.41 110.418 635.385L109.442 635.603ZM109.94 636.302C110.194 636.463 110.485 636.523 110.785 636.456L110.567 635.48C110.543 635.485 110.521 635.487 110.477 635.458L109.94 636.302ZM110.785 636.456L123.748 633.563L123.53 632.587L110.567 635.48L110.785 636.456ZM123.748 633.563C123.772 633.558 123.794 633.557 123.839 633.585L124.375 632.741C124.121 632.58 123.83 632.52 123.53 632.587L123.748 633.563ZM123.839 633.585C123.841 633.587 123.842 633.588 123.842 633.588C123.842 633.588 123.843 633.588 123.844 633.59C123.845 633.592 123.853 633.604 123.86 633.634L124.836 633.417C124.775 633.143 124.626 632.901 124.375 632.741L123.839 633.585ZM123.86 633.634L124.52 636.593L125.496 636.375L124.836 633.417L123.86 633.634ZM124.52 636.593C124.531 636.644 124.526 636.678 124.506 636.716L125.395 637.174C125.525 636.922 125.557 636.649 125.496 636.375L124.52 636.593ZM124.555 636.64C124.528 636.674 124.5 636.693 124.449 636.705L124.667 637.681C124.94 637.62 125.174 637.474 125.347 637.25L124.555 636.64ZM124.449 636.705L109.717 639.992L109.935 640.968L124.667 637.681L124.449 636.705ZM109.717 639.992C109.032 640.145 108.413 640.037 107.83 639.667L107.294 640.511C108.103 641.025 108.994 641.178 109.935 640.968L109.717 639.992ZM107.83 639.667C107.217 639.278 106.847 638.753 106.696 638.073L105.72 638.291C105.931 639.237 106.464 639.984 107.294 640.511L107.83 639.667ZM106.696 638.073L104.068 626.3L103.092 626.518L105.72 638.291L106.696 638.073ZM104.068 626.3C103.917 625.62 104.031 625.002 104.419 624.413L103.585 623.862C103.048 624.675 102.881 625.571 103.092 626.518L104.068 626.3ZM104.429 624.398C104.796 623.796 105.308 623.43 105.988 623.278L105.77 622.302C104.823 622.514 104.083 623.046 103.575 623.877L104.429 624.398ZM105.988 623.278L120.719 619.991L120.501 619.015L105.77 622.302L105.988 623.278ZM120.719 619.991C120.744 619.985 120.765 619.984 120.81 620.013L121.346 619.169C121.092 619.007 120.802 618.948 120.501 619.015L120.719 619.991ZM120.773 619.987C120.807 620.013 120.826 620.041 120.838 620.092L121.814 619.875C121.753 619.601 121.607 619.367 121.383 619.195L120.773 619.987ZM120.838 620.092L121.491 623.02L122.467 622.803L121.814 619.875L120.838 620.092ZM121.491 623.02C121.503 623.072 121.497 623.106 121.477 623.144L122.366 623.601C122.496 623.35 122.528 623.076 122.467 622.803L121.491 623.02ZM121.5 623.105C121.471 623.149 121.452 623.157 121.427 623.163L121.645 624.139C121.945 624.072 122.183 623.894 122.344 623.641L121.5 623.105ZM121.427 623.163L108.464 626.055L108.682 627.031L121.645 624.139L121.427 623.163ZM108.464 626.055C108.164 626.123 107.926 626.3 107.765 626.554L108.609 627.09C108.638 627.045 108.657 627.037 108.682 627.031L108.464 626.055ZM107.791 626.517C107.599 626.766 107.537 627.065 107.605 627.368L108.581 627.15C108.578 627.14 108.578 627.134 108.578 627.133C108.578 627.131 108.578 627.131 108.578 627.133C108.577 627.135 108.577 627.137 108.577 627.137C108.577 627.136 108.578 627.133 108.583 627.127L107.791 626.517ZM107.605 627.368L109.442 635.603L110.418 635.385L108.581 627.15L107.605 627.368Z" fill="#993300" fill-opacity="0.8"/>
<path d="M97.3056 621.365C97.1413 621.393 96.999 621.364 96.8788 621.279C96.7345 621.177 96.6483 621.044 96.6202 620.88L96.1094 617.892C96.0813 617.728 96.12 617.583 96.2257 617.46C96.3073 617.319 96.4303 617.235 96.5945 617.206L99.5824 616.696C99.7467 616.667 99.901 616.705 100.045 616.807C100.166 616.892 100.24 617.016 100.268 617.181L100.779 620.169C100.807 620.333 100.78 620.485 100.698 620.626C100.593 620.75 100.458 620.826 100.293 620.854L97.3056 621.365ZM102.054 616.875C102.026 616.711 102.065 616.567 102.171 616.443C102.273 616.299 102.406 616.213 102.57 616.185L119.82 613.235C119.984 613.207 120.139 613.244 120.283 613.346C120.403 613.432 120.477 613.556 120.505 613.721L121.016 616.708C121.044 616.873 121.018 617.025 120.936 617.166C120.83 617.29 120.695 617.366 120.531 617.394L103.281 620.343C103.117 620.371 102.965 620.344 102.824 620.263C102.679 620.161 102.593 620.027 102.565 619.863L102.054 616.875Z" fill="#E5631A" fill-opacity="0.8"/>
<path d="M96.8788 621.279L96.5899 621.687L96.8788 621.279ZM96.2257 617.46L96.606 617.784L96.6355 617.75L96.6583 617.711L96.2257 617.46ZM100.045 616.807L99.7564 617.215L100.045 616.807ZM100.698 620.626L101.079 620.951L101.108 620.916L101.131 620.877L100.698 620.626ZM102.171 616.443L102.551 616.768L102.566 616.751L102.579 616.732L102.171 616.443ZM120.283 613.346L120.572 612.938L120.283 613.346ZM120.936 617.166L121.316 617.491L121.346 617.456L121.368 617.417L120.936 617.166ZM102.824 620.263L102.535 620.671L102.553 620.684L102.573 620.695L102.824 620.263ZM97.2213 620.872C97.1908 620.877 97.1766 620.875 97.1739 620.874C97.1723 620.874 97.1718 620.874 97.1717 620.874C97.1716 620.874 97.1704 620.873 97.1677 620.871L96.5899 621.687C96.8329 621.859 97.1135 621.905 97.3898 621.858L97.2213 620.872ZM97.1677 620.871C97.1244 620.841 97.1174 620.82 97.1131 620.795L96.1274 620.964C96.1793 621.267 96.3447 621.514 96.5899 621.687L97.1677 620.871ZM97.1131 620.795L96.6022 617.808L95.6165 617.976L96.1274 620.964L97.1131 620.795ZM96.6022 617.808C96.6005 617.797 96.6005 617.792 96.6005 617.79C96.6006 617.788 96.6007 617.789 96.6002 617.791C96.5996 617.793 96.599 617.794 96.5991 617.794C96.5992 617.793 96.6009 617.79 96.606 617.784L95.8455 617.135C95.6408 617.375 95.5641 617.67 95.6165 617.976L96.6022 617.808ZM96.6583 617.711C96.6622 617.704 96.6646 617.701 96.6648 617.701C96.6649 617.701 96.6639 617.702 96.6622 617.703C96.6604 617.704 96.6598 617.704 96.6615 617.704C96.6632 617.703 96.6686 617.701 96.6788 617.699L96.5103 616.714C96.2038 616.766 95.9512 616.936 95.7931 617.209L96.6583 617.711ZM96.6788 617.699L99.6667 617.188L99.4982 616.203L96.5103 616.714L96.6788 617.699ZM99.6667 617.188C99.6917 617.184 99.713 617.184 99.7564 617.215L100.334 616.399C100.089 616.225 99.8017 616.151 99.4982 616.203L99.6667 617.188ZM99.7564 617.215C99.759 617.217 99.76 617.218 99.76 617.218C99.7601 617.218 99.7605 617.218 99.7613 617.22C99.7627 617.222 99.7697 617.235 99.7749 617.265L100.761 617.097C100.713 616.82 100.577 616.571 100.334 616.399L99.7564 617.215ZM99.7749 617.265L100.286 620.253L101.271 620.084L100.761 617.097L99.7749 617.265ZM100.286 620.253C100.295 620.305 100.287 620.339 100.266 620.375L101.131 620.877C101.273 620.632 101.319 620.361 101.271 620.084L100.286 620.253ZM100.318 620.302C100.29 620.334 100.261 620.352 100.209 620.361L100.378 621.347C100.654 621.3 100.895 621.166 101.079 620.951L100.318 620.302ZM100.209 620.361L97.2213 620.872L97.3898 621.858L100.378 621.347L100.209 620.361ZM102.547 616.791C102.545 616.781 102.545 616.775 102.546 616.773C102.546 616.771 102.546 616.772 102.545 616.774C102.545 616.776 102.544 616.777 102.544 616.777C102.544 616.777 102.546 616.774 102.551 616.768L101.79 616.119C101.586 616.358 101.509 616.653 101.561 616.96L102.547 616.791ZM102.579 616.732C102.609 616.689 102.63 616.682 102.655 616.678L102.486 615.692C102.183 615.744 101.936 615.909 101.763 616.154L102.579 616.732ZM102.655 616.678L119.904 613.728L119.736 612.742L102.486 615.692L102.655 616.678ZM119.904 613.728C119.929 613.724 119.951 613.724 119.994 613.754L120.572 612.938C120.327 612.765 120.039 612.691 119.736 612.742L119.904 613.728ZM119.994 613.754C119.997 613.756 119.998 613.757 119.998 613.757C119.998 613.758 119.998 613.758 119.999 613.759C120 613.762 120.007 613.774 120.012 613.805L120.998 613.636C120.951 613.36 120.815 613.11 120.572 612.938L119.994 613.754ZM120.012 613.805L120.523 616.793L121.509 616.624L120.998 613.636L120.012 613.805ZM120.523 616.793C120.532 616.845 120.525 616.878 120.503 616.915L121.368 617.417C121.51 617.172 121.556 616.901 121.509 616.624L120.523 616.793ZM120.556 616.841C120.528 616.874 120.499 616.892 120.447 616.901L120.615 617.887C120.892 617.839 121.133 617.706 121.316 617.491L120.556 616.841ZM120.447 616.901L103.197 619.85L103.366 620.836L120.615 617.887L120.447 616.901ZM103.197 619.85C103.145 619.859 103.111 619.852 103.075 619.83L102.573 620.695C102.818 620.837 103.089 620.883 103.366 620.836L103.197 619.85ZM103.113 619.855C103.069 619.824 103.062 619.804 103.058 619.779L102.072 619.947C102.124 620.251 102.29 620.497 102.535 620.671L103.113 619.855ZM103.058 619.779L102.547 616.791L101.561 616.96L102.072 619.947L103.058 619.779Z" fill="#993300" fill-opacity="0.8"/>
<path d="M104.583 607.215C104.605 607.38 104.687 607.516 104.828 607.623C104.969 607.73 105.122 607.772 105.287 607.749L118.444 605.936C118.609 605.913 118.762 605.955 118.903 606.062C119.02 606.151 119.091 606.278 119.113 606.443L119.527 609.446C119.55 609.611 119.518 609.763 119.432 609.901C119.322 610.021 119.185 610.093 119.02 610.115L104.067 612.176C103.242 612.29 102.5 612.097 101.843 611.599C101.162 611.083 100.765 610.412 100.651 609.587L99.0043 597.637C98.8905 596.812 99.0931 596.069 99.612 595.408C100.107 594.73 100.768 594.334 101.593 594.22L116.546 592.16C116.711 592.137 116.864 592.179 117.005 592.286C117.125 592.396 117.197 592.533 117.219 592.698L117.629 595.67C117.652 595.835 117.62 595.987 117.534 596.125C117.427 596.266 117.291 596.348 117.126 596.37L103.969 598.183C103.804 598.206 103.668 598.288 103.561 598.429C103.452 598.549 103.408 598.692 103.431 598.857L104.583 607.215Z" fill="#E5631A" fill-opacity="0.8"/>
<path d="M118.903 606.062L119.205 605.664L118.903 606.062ZM119.432 609.901L119.802 610.238L119.832 610.204L119.856 610.166L119.432 609.901ZM101.843 611.599L102.145 611.201L101.843 611.599ZM99.612 595.408L100.005 595.717L100.011 595.71L100.016 595.703L99.612 595.408ZM117.005 592.286L117.342 591.917L117.325 591.901L117.307 591.888L117.005 592.286ZM117.534 596.125L117.932 596.427L117.946 596.409L117.958 596.39L117.534 596.125ZM103.561 598.429L103.931 598.766L103.946 598.749L103.96 598.731L103.561 598.429ZM104.087 607.284C104.129 607.589 104.287 607.84 104.526 608.022L105.13 607.225C105.088 607.193 105.081 607.172 105.078 607.147L104.087 607.284ZM104.526 608.022C104.766 608.203 105.05 608.286 105.355 608.244L105.219 607.254C105.194 607.257 105.172 607.257 105.13 607.225L104.526 608.022ZM105.355 608.244L118.512 606.432L118.376 605.441L105.219 607.254L105.355 608.244ZM118.512 606.432C118.537 606.428 118.559 606.429 118.601 606.461L119.205 605.664C118.966 605.482 118.681 605.399 118.376 605.441L118.512 606.432ZM118.601 606.461C118.604 606.463 118.605 606.464 118.605 606.464C118.605 606.464 118.605 606.464 118.606 606.466C118.607 606.468 118.614 606.481 118.618 606.512L119.609 606.375C119.57 606.097 119.442 605.844 119.205 605.664L118.601 606.461ZM118.618 606.512L119.032 609.515L120.022 609.378L119.609 606.375L118.618 606.512ZM119.032 609.515C119.039 609.567 119.03 609.6 119.008 609.636L119.856 610.166C120.006 609.926 120.061 609.656 120.022 609.378L119.032 609.515ZM119.062 609.564C119.034 609.596 119.004 609.613 118.952 609.62L119.088 610.611C119.366 610.573 119.611 610.447 119.802 610.238L119.062 609.564ZM118.952 609.62L103.999 611.68L104.136 612.671L119.088 610.611L118.952 609.62ZM103.999 611.68C103.304 611.776 102.695 611.618 102.145 611.201L101.541 611.998C102.305 612.577 103.18 612.803 104.136 612.671L103.999 611.68ZM102.145 611.201C101.567 610.762 101.241 610.209 101.146 609.518L100.155 609.655C100.288 610.615 100.757 611.404 101.541 611.998L102.145 611.201ZM101.146 609.518L99.4996 597.569L98.509 597.705L100.155 609.655L101.146 609.518ZM99.4996 597.569C99.4045 596.879 99.5693 596.272 100.005 595.717L99.2188 595.099C98.6169 595.865 98.3765 596.744 98.509 597.705L99.4996 597.569ZM100.016 595.703C100.432 595.134 100.972 594.811 101.662 594.716L101.525 593.725C100.564 593.858 99.783 594.327 99.2082 595.113L100.016 595.703ZM101.662 594.716L116.614 592.655L116.478 591.665L101.525 593.725L101.662 594.716ZM116.614 592.655C116.639 592.652 116.661 592.653 116.703 592.685L117.307 591.888C117.067 591.706 116.783 591.623 116.478 591.665L116.614 592.655ZM116.668 592.656C116.7 592.684 116.717 592.714 116.724 592.766L117.715 592.63C117.676 592.352 117.551 592.107 117.342 591.917L116.668 592.656ZM116.724 592.766L117.134 595.738L118.124 595.602L117.715 592.63L116.724 592.766ZM117.134 595.738C117.141 595.791 117.132 595.824 117.11 595.86L117.958 596.39C118.108 596.15 118.162 595.88 118.124 595.602L117.134 595.738ZM117.135 595.823C117.103 595.865 117.083 595.872 117.058 595.875L117.194 596.866C117.499 596.824 117.751 596.666 117.932 596.427L117.135 595.823ZM117.058 595.875L103.901 597.688L104.037 598.679L117.194 596.866L117.058 595.875ZM103.901 597.688C103.596 597.73 103.344 597.887 103.163 598.127L103.96 598.731C103.992 598.688 104.012 598.682 104.037 598.679L103.901 597.688ZM103.192 598.092C102.979 598.325 102.893 598.617 102.936 598.925L103.926 598.789C103.925 598.778 103.925 598.773 103.925 598.771C103.925 598.769 103.925 598.769 103.925 598.772C103.924 598.774 103.923 598.775 103.924 598.775C103.924 598.774 103.926 598.771 103.931 598.766L103.192 598.092ZM102.936 598.925L104.087 607.284L105.078 607.147L103.926 598.789L102.936 598.925Z" fill="#993300" fill-opacity="0.8"/>
<path d="M122.7 573.481L123.706 587.947C123.717 588.113 123.665 588.263 123.549 588.396C123.452 588.507 123.321 588.568 123.155 588.58L120.131 588.79C119.964 588.802 119.815 588.76 119.683 588.665C119.571 588.547 119.509 588.406 119.497 588.239L118.617 575.582C118.605 575.416 118.533 575.285 118.402 575.19C118.268 575.074 118.118 575.022 117.952 575.033L116.144 575.159C115.978 575.171 115.847 575.242 115.752 575.374C115.634 575.487 115.581 575.626 115.593 575.793L116.304 586.018C116.362 586.849 116.121 587.587 115.581 588.23C115.039 588.852 114.353 589.192 113.522 589.25L100.865 590.13C100.033 590.188 99.3065 589.946 98.6841 589.405C98.0394 588.844 97.6882 588.148 97.6304 587.317L96.7934 575.283C96.7356 574.452 96.9878 573.724 97.5501 573.101C98.0901 572.457 98.7757 572.107 99.6071 572.049L119.465 570.668C120.297 570.61 121.024 570.862 121.648 571.424C122.291 571.964 122.642 572.65 122.7 573.481ZM111.421 585.167C111.587 585.156 111.728 585.083 111.844 584.95C111.939 584.818 111.981 584.669 111.97 584.503L111.384 576.085C111.373 575.919 111.311 575.788 111.2 575.691C111.067 575.575 110.917 575.523 110.751 575.534L101.71 576.163C101.544 576.175 101.403 576.247 101.287 576.38C101.169 576.493 101.116 576.632 101.128 576.799L101.713 585.216C101.725 585.382 101.797 585.523 101.931 585.639C102.064 585.755 102.214 585.808 102.38 585.796L111.421 585.167Z" fill="#E5631A" fill-opacity="0.8"/>
<path d="M123.549 588.396L123.926 588.724L123.549 588.396ZM119.683 588.665L119.322 589.011L119.354 589.044L119.391 589.07L119.683 588.665ZM118.402 575.19L118.073 575.567L118.09 575.582L118.109 575.595L118.402 575.19ZM115.752 575.374L116.098 575.735L116.13 575.704L116.157 575.667L115.752 575.374ZM115.581 588.23L115.958 588.558L115.964 588.551L115.581 588.23ZM98.6841 589.405L99.0122 589.028L98.6841 589.405ZM97.5501 573.101L97.9215 573.435L97.9274 573.429L97.933 573.422L97.5501 573.101ZM121.648 571.424L121.313 571.796L121.32 571.802L121.327 571.807L121.648 571.424ZM111.844 584.95L112.221 585.278L112.236 585.261L112.25 585.242L111.844 584.95ZM111.2 575.691L110.872 576.068L111.2 575.691ZM101.287 576.38L101.633 576.741L101.649 576.726L101.664 576.709L101.287 576.38ZM122.201 573.516L123.207 587.981L124.204 587.912L123.198 573.447L122.201 573.516ZM123.207 587.981C123.209 588.007 123.207 588.028 123.172 588.068L123.926 588.724C124.123 588.497 124.226 588.219 124.204 587.912L123.207 587.981ZM123.172 588.068C123.17 588.07 123.169 588.071 123.168 588.071C123.168 588.071 123.168 588.072 123.166 588.072C123.164 588.073 123.151 588.079 123.12 588.081L123.189 589.079C123.469 589.059 123.731 588.949 123.926 588.724L123.172 588.068ZM123.12 588.081L120.096 588.292L120.165 589.289L123.189 589.079L123.12 588.081ZM120.096 588.292C120.043 588.295 120.011 588.284 119.976 588.259L119.391 589.07C119.62 589.236 119.885 589.309 120.165 589.289L120.096 588.292ZM120.044 588.319C120.015 588.288 120 588.257 119.996 588.205L118.998 588.274C119.018 588.554 119.127 588.807 119.322 589.011L120.044 588.319ZM119.996 588.205L119.116 575.548L118.118 575.617L118.998 588.274L119.996 588.205ZM119.116 575.548C119.094 575.237 118.95 574.969 118.694 574.785L118.109 575.595C118.115 575.6 118.118 575.603 118.118 575.603C118.118 575.603 118.117 575.602 118.116 575.6C118.115 575.598 118.115 575.598 118.115 575.599C118.116 575.601 118.117 575.607 118.118 575.617L119.116 575.548ZM118.73 574.813C118.503 574.616 118.225 574.513 117.917 574.535L117.987 575.532C118.012 575.53 118.033 575.532 118.073 575.567L118.73 574.813ZM117.917 574.535L116.109 574.66L116.179 575.658L117.987 575.532L117.917 574.535ZM116.109 574.66C115.799 574.682 115.531 574.826 115.346 575.082L116.157 575.667C116.162 575.661 116.164 575.658 116.165 575.658C116.165 575.658 116.164 575.659 116.162 575.66C116.16 575.661 116.159 575.661 116.161 575.661C116.163 575.66 116.168 575.659 116.179 575.658L116.109 574.66ZM115.406 575.013C115.178 575.232 115.072 575.517 115.094 575.827L116.092 575.758C116.091 575.748 116.091 575.742 116.092 575.74C116.092 575.738 116.092 575.739 116.091 575.741C116.091 575.743 116.09 575.744 116.09 575.744C116.09 575.744 116.092 575.741 116.098 575.735L115.406 575.013ZM115.094 575.827L115.805 586.053L116.803 585.983L116.092 575.758L115.094 575.827ZM115.805 586.053C115.854 586.754 115.655 587.363 115.198 587.908L115.964 588.551C116.586 587.81 116.87 586.945 116.803 585.983L115.805 586.053ZM115.204 587.902C114.75 588.423 114.187 588.703 113.487 588.751L113.556 589.749C114.518 589.682 115.329 589.281 115.958 588.558L115.204 587.902ZM113.487 588.751L100.83 589.632L100.899 590.629L113.556 589.749L113.487 588.751ZM100.83 589.632C100.129 589.68 99.5335 589.481 99.0122 589.028L98.3559 589.782C99.0795 590.412 99.9373 590.696 100.899 590.629L100.83 589.632ZM99.0122 589.028C98.4648 588.551 98.1776 587.977 98.1292 587.282L97.1316 587.351C97.1989 588.319 97.6141 589.137 98.3559 589.782L99.0122 589.028ZM98.1292 587.282L97.2922 575.249L96.2947 575.318L97.1316 587.351L98.1292 587.282ZM97.2922 575.249C97.2439 574.554 97.4493 573.959 97.9215 573.435L97.1787 572.766C96.5264 573.49 96.2273 574.35 96.2947 575.318L97.2922 575.249ZM97.933 573.422C98.3866 572.882 98.9469 572.596 99.6418 572.548L99.5724 571.55C98.6045 571.618 97.7936 572.033 97.1671 572.779L97.933 573.422ZM99.6418 572.548L119.5 571.167L119.431 570.169L99.5724 571.55L99.6418 572.548ZM119.5 571.167C120.195 571.118 120.789 571.324 121.313 571.796L121.983 571.053C121.259 570.401 120.398 570.102 119.431 570.169L119.5 571.167ZM121.327 571.807C121.867 572.261 122.152 572.821 122.201 573.516L123.198 573.447C123.131 572.479 122.716 571.668 121.97 571.042L121.327 571.807ZM111.455 585.666C111.763 585.645 112.024 585.505 112.221 585.278L111.467 584.622C111.432 584.662 111.411 584.667 111.386 584.668L111.455 585.666ZM112.25 585.242C112.415 585.013 112.488 584.748 112.468 584.468L111.471 584.537C111.475 584.59 111.464 584.623 111.439 584.657L112.25 585.242ZM112.468 584.468L111.883 576.051L110.885 576.12L111.471 584.537L112.468 584.468ZM111.883 576.051C111.864 575.771 111.753 575.509 111.528 575.314L110.872 576.068C110.874 576.07 110.875 576.071 110.875 576.072C110.875 576.072 110.876 576.072 110.876 576.073C110.878 576.076 110.883 576.089 110.885 576.12L111.883 576.051ZM111.528 575.314C111.302 575.116 111.023 575.014 110.716 575.035L110.785 576.033C110.811 576.031 110.832 576.033 110.872 576.068L111.528 575.314ZM110.716 575.035L101.675 575.664L101.745 576.662L110.785 576.033L110.716 575.035ZM101.675 575.664C101.368 575.686 101.107 575.826 100.909 576.052L101.664 576.709C101.699 576.669 101.719 576.664 101.745 576.662L101.675 575.664ZM100.941 576.019C100.713 576.238 100.607 576.523 100.629 576.833L101.627 576.764C101.626 576.754 101.626 576.748 101.627 576.746C101.627 576.744 101.627 576.745 101.626 576.747C101.626 576.749 101.625 576.75 101.625 576.75C101.625 576.75 101.627 576.747 101.633 576.741L100.941 576.019ZM100.629 576.833L101.214 585.251L102.212 585.181L101.627 576.764L100.629 576.833ZM101.214 585.251C101.236 585.558 101.376 585.819 101.602 586.017L102.259 585.262C102.219 585.227 102.214 585.207 102.212 585.181L101.214 585.251ZM101.602 586.017C101.829 586.214 102.108 586.316 102.415 586.295L102.345 585.297C102.32 585.299 102.299 585.297 102.259 585.262L101.602 586.017ZM102.415 586.295L111.455 585.666L111.386 584.668L102.345 585.297L102.415 586.295Z" fill="#993300" fill-opacity="0.8"/>
<path d="M114.999 540C114.999 595.812 125.992 651.077 147.35 702.64C168.708 754.204 200.014 801.055 239.479 840.52C278.944 879.985 325.795 911.29 377.359 932.649C428.922 954.007 484.187 965 539.999 965" stroke="#C800B4"/>
<path d="M114.999 540C114.999 595.812 125.992 651.077 147.35 702.64C168.708 754.204 200.014 801.055 239.479 840.52C278.944 879.985 325.795 911.29 377.359 932.649C428.922 954.007 484.187 965 539.999 965" stroke="#C800B4"/>
<path d="M114.999 540C114.999 595.812 125.992 651.077 147.35 702.64C168.708 754.204 200.014 801.055 239.479 840.52C278.944 879.985 325.795 911.29 377.359 932.649C428.922 954.007 484.187 965 539.999 965" stroke="#C800B4"/>
<path d="M114.999 540C114.999 595.812 125.992 651.077 147.35 702.64C168.708 754.204 200.014 801.055 239.479 840.52C278.944 879.985 325.795 911.29 377.359 932.649C428.922 954.007 484.187 965 539.999 965" stroke="#C800B4"/>
</svg>
