<svg width="94" height="86" viewBox="0 0 94 86" fill="none" xmlns="http://www.w3.org/2000/svg">
    <path d="M12.5 33V36.843L4.81 43L12.5 49.156V53L0 43L12.5 33Z" fill="#5999A6" fill-opacity="0.8" />
    <path d="M12.5 40.686L9.61 43L12.5 45.314V40.686Z" fill="#5999A6" fill-opacity="0.8" />
    <path d="M62 65L71 59.75V25.25L62 20M50 20L41 25.25V59.75L50 65" stroke="#5999A6" stroke-opacity="0.8"
        stroke-width="3" />
    <path
        d="M53.5684 51.3828L55.0332 49.918C55.3066 49.6445 55.6289 49.5078 56 49.5078C56.3711 49.5078 56.6934 49.6445 56.9668 49.918L58.4609 51.3828C58.7148 51.6562 58.8418 51.9785 58.8418 52.3496C58.8418 52.7207 58.7148 53.043 58.4609 53.3164L56.9668 54.8105C56.6934 55.0645 56.3711 55.1914 56 55.1914C55.6289 55.1914 55.3066 55.0645 55.0332 54.8105L53.5684 53.3164C53.2949 53.043 53.1582 52.7207 53.1582 52.3496C53.1582 51.9785 53.2949 51.6562 53.5684 51.3828ZM60.043 29.2344L58.7832 45.582C58.7637 45.7578 58.6855 45.9141 58.5488 46.0508C58.4316 46.168 58.2852 46.2266 58.1094 46.2266H53.9199C53.7441 46.2266 53.5879 46.168 53.4512 46.0508C53.3145 45.9141 53.2363 45.7578 53.2168 45.582L51.957 29.2344C51.957 29.0195 52.0254 28.8438 52.1621 28.707C52.2988 28.5703 52.4648 28.502 52.6602 28.502H59.3691C59.5645 28.502 59.7305 28.5703 59.8672 28.707C60.0039 28.8438 60.0625 29.0195 60.043 29.2344Z"
        fill="#5999A6" fill-opacity="0.8" />
    <path
        d="M21 78L28 85H84L91 78M21 8L28 1H84L91 8M93.5 77C93.5 77.8284 92.8284 78.5 92 78.5C91.1716 78.5 90.5 77.8284 90.5 77C90.5 76.1716 91.1716 75.5 92 75.5C92.8284 75.5 93.5 76.1716 93.5 77ZM93.5 9C93.5 9.82843 92.8284 10.5 92 10.5C91.1716 10.5 90.5 9.82843 90.5 9C90.5 8.17157 91.1716 7.5 92 7.5C92.8284 7.5 93.5 8.17157 93.5 9ZM21.5 77C21.5 77.8284 20.8284 78.5 20 78.5C19.1716 78.5 18.5 77.8284 18.5 77C18.5 76.1716 19.1716 75.5 20 75.5C20.8284 75.5 21.5 76.1716 21.5 77ZM21.5 9C21.5 9.82843 20.8284 10.5 20 10.5C19.1716 10.5 18.5 9.82843 18.5 9C18.5 8.17157 19.1716 7.5 20 7.5C20.8284 7.5 21.5 8.17157 21.5 9Z"
        stroke="#5999A6" stroke-opacity="0.8" />
</svg>