<svg width="333" height="140" viewBox="0 0 333 140" fill="none" xmlns="http://www.w3.org/2000/svg">
    <!-- LINE -->
    <path d="M135 86L221 86" stroke="#A3E7F5" stroke-opacity="0.9" stroke-width="3" />
    <!-- TOP NUMS -->
    <g>
        <path
            d="M158.365 41.9023C159.514 41.9023 160.486 42.3008 161.283 43.0977C162.08 43.8945 162.479 44.8555 162.479 45.9805V70.5195C162.479 71.6445 162.08 72.6055 161.283 73.4023C160.486 74.1992 159.514 74.5977 158.365 74.5977H142.018C140.893 74.5977 139.932 74.1992 139.135 73.4023C138.338 72.6055 137.939 71.6445 137.939 70.5195V45.9805C137.939 44.8555 138.338 43.8945 139.135 43.0977C139.932 42.3008 140.893 41.9023 142.018 41.9023H158.365ZM143.635 48.4414V68.0586C143.635 68.293 143.717 68.4922 143.881 68.6562C144.045 68.8203 144.244 68.9023 144.479 68.9023H155.939C156.15 68.9023 156.338 68.8203 156.502 68.6562C156.666 68.4922 156.748 68.293 156.748 68.0586V48.4414C156.748 48.207 156.666 48.0078 156.502 47.8438C156.338 47.6797 156.15 47.5977 155.939 47.5977H144.479C144.244 47.5977 144.045 47.6797 143.881 47.8438C143.717 48.0078 143.635 48.207 143.635 48.4414ZM190.287 69.7109V73.7891C190.287 74.0234 190.205 74.2109 190.041 74.3516C189.877 74.5156 189.678 74.5977 189.443 74.5977H166.557C166.322 74.5977 166.123 74.5156 165.959 74.3516C165.818 74.2109 165.748 74.0234 165.748 73.7891V59.9023C165.748 58.7539 166.146 57.7812 166.943 56.9844C167.74 56.1875 168.701 55.7891 169.826 55.7891H183.748C183.959 55.7891 184.146 55.7188 184.311 55.5781C184.475 55.4141 184.557 55.2148 184.557 54.9805V48.4414C184.557 48.207 184.475 48.0078 184.311 47.8438C184.146 47.6797 183.959 47.5977 183.748 47.5977H166.557C166.322 47.5977 166.123 47.5273 165.959 47.3867C165.818 47.2227 165.748 47.0234 165.748 46.7891V42.7109C165.748 42.4766 165.818 42.2891 165.959 42.1484C166.123 41.9844 166.322 41.9023 166.557 41.9023H186.174C187.322 41.9023 188.295 42.3008 189.092 43.0977C189.889 43.8945 190.287 44.8555 190.287 45.9805V56.5977C190.287 57.7461 189.889 58.7188 189.092 59.5156C188.295 60.3125 187.322 60.7109 186.174 60.7109H172.287C172.053 60.7109 171.854 60.793 171.689 60.957C171.525 61.0977 171.443 61.2852 171.443 61.5195V68.0586C171.443 68.293 171.525 68.4922 171.689 68.6562C171.854 68.8203 172.053 68.9023 172.287 68.9023H189.443C189.678 68.9023 189.877 68.9844 190.041 69.1484C190.205 69.2891 190.287 69.4766 190.287 69.7109ZM213.982 41.9023C215.131 41.9023 216.104 42.3008 216.9 43.0977C217.697 43.8945 218.096 44.8555 218.096 45.9805V70.5195C218.096 71.6445 217.697 72.6055 216.9 73.4023C216.104 74.1992 215.131 74.5977 213.982 74.5977H194.365C194.131 74.5977 193.932 74.5156 193.768 74.3516C193.627 74.2109 193.557 74.0234 193.557 73.7891V69.7109C193.557 69.4766 193.627 69.2891 193.768 69.1484C193.932 68.9844 194.131 68.9023 194.365 68.9023H211.557C211.768 68.9023 211.955 68.8203 212.119 68.6562C212.283 68.4922 212.365 68.293 212.365 68.0586V61.5195C212.365 61.2852 212.283 61.0977 212.119 60.957C211.955 60.793 211.768 60.7109 211.557 60.7109H197.635C196.51 60.7109 195.549 60.3125 194.752 59.5156C193.955 58.7188 193.557 57.7461 193.557 56.5977V45.9805C193.557 44.8555 193.955 43.8945 194.752 43.0977C195.549 42.3008 196.51 41.9023 197.635 41.9023H213.982ZM212.365 54.9805V48.4414C212.365 48.207 212.283 48.0078 212.119 47.8438C211.955 47.6797 211.768 47.5977 211.557 47.5977H200.096C199.861 47.5977 199.662 47.6797 199.498 47.8438C199.334 48.0078 199.252 48.207 199.252 48.4414V54.9805C199.252 55.2148 199.334 55.4141 199.498 55.5781C199.662 55.7188 199.861 55.7891 200.096 55.7891H211.557C211.768 55.7891 211.955 55.7188 212.119 55.5781C212.283 55.4141 212.365 55.2148 212.365 54.9805Z"
            fill="#A3E7F5" fill-opacity="0.5" shape-rendering="crispEdges" />
    </g>
    <!-- BOT NUMS -->
    <g>
        <path
            d="M158.365 97.9023C159.514 97.9023 160.486 98.3008 161.283 99.0977C162.08 99.8945 162.479 100.855 162.479 101.98V126.52C162.479 127.645 162.08 128.605 161.283 129.402C160.486 130.199 159.514 130.598 158.365 130.598H142.018C140.893 130.598 139.932 130.199 139.135 129.402C138.338 128.605 137.939 127.645 137.939 126.52V101.98C137.939 100.855 138.338 99.8945 139.135 99.0977C139.932 98.3008 140.893 97.9023 142.018 97.9023H158.365ZM143.635 104.441V124.059C143.635 124.293 143.717 124.492 143.881 124.656C144.045 124.82 144.244 124.902 144.479 124.902H155.939C156.15 124.902 156.338 124.82 156.502 124.656C156.666 124.492 156.748 124.293 156.748 124.059V104.441C156.748 104.207 156.666 104.008 156.502 103.844C156.338 103.68 156.15 103.598 155.939 103.598H144.479C144.244 103.598 144.045 103.68 143.881 103.844C143.717 104.008 143.635 104.207 143.635 104.441ZM190.287 125.711V129.789C190.287 130.023 190.205 130.211 190.041 130.352C189.877 130.516 189.678 130.598 189.443 130.598H166.557C166.322 130.598 166.123 130.516 165.959 130.352C165.818 130.211 165.748 130.023 165.748 129.789V115.902C165.748 114.754 166.146 113.781 166.943 112.984C167.74 112.188 168.701 111.789 169.826 111.789H183.748C183.959 111.789 184.146 111.719 184.311 111.578C184.475 111.414 184.557 111.215 184.557 110.98V104.441C184.557 104.207 184.475 104.008 184.311 103.844C184.146 103.68 183.959 103.598 183.748 103.598H166.557C166.322 103.598 166.123 103.527 165.959 103.387C165.818 103.223 165.748 103.023 165.748 102.789V98.7109C165.748 98.4766 165.818 98.2891 165.959 98.1484C166.123 97.9844 166.322 97.9023 166.557 97.9023H186.174C187.322 97.9023 188.295 98.3008 189.092 99.0977C189.889 99.8945 190.287 100.855 190.287 101.98V112.598C190.287 113.746 189.889 114.719 189.092 115.516C188.295 116.312 187.322 116.711 186.174 116.711H172.287C172.053 116.711 171.854 116.793 171.689 116.957C171.525 117.098 171.443 117.285 171.443 117.52V124.059C171.443 124.293 171.525 124.492 171.689 124.656C171.854 124.82 172.053 124.902 172.287 124.902H189.443C189.678 124.902 189.877 124.984 190.041 125.148C190.205 125.289 190.287 125.477 190.287 125.711ZM213.982 97.9023C215.131 97.9023 216.104 98.3008 216.9 99.0977C217.697 99.8945 218.096 100.855 218.096 101.98V126.52C218.096 127.645 217.697 128.605 216.9 129.402C216.104 130.199 215.131 130.598 213.982 130.598H194.365C194.131 130.598 193.932 130.516 193.768 130.352C193.627 130.211 193.557 130.023 193.557 129.789V125.711C193.557 125.477 193.627 125.289 193.768 125.148C193.932 124.984 194.131 124.902 194.365 124.902H211.557C211.768 124.902 211.955 124.82 212.119 124.656C212.283 124.492 212.365 124.293 212.365 124.059V117.52C212.365 117.285 212.283 117.098 212.119 116.957C211.955 116.793 211.768 116.711 211.557 116.711H197.635C196.51 116.711 195.549 116.312 194.752 115.516C193.955 114.719 193.557 113.746 193.557 112.598V101.98C193.557 100.855 193.955 99.8945 194.752 99.0977C195.549 98.3008 196.51 97.9023 197.635 97.9023H213.982ZM212.365 110.98V104.441C212.365 104.207 212.283 104.008 212.119 103.844C211.955 103.68 211.768 103.598 211.557 103.598H200.096C199.861 103.598 199.662 103.68 199.498 103.844C199.334 104.008 199.252 104.207 199.252 104.441V110.98C199.252 111.215 199.334 111.414 199.498 111.578C199.662 111.719 199.861 111.789 200.096 111.789H211.557C211.768 111.789 211.955 111.719 212.119 111.578C212.283 111.414 212.365 111.215 212.365 110.98Z"
            fill="#A3E7F5" fill-opacity="0.5" shape-rendering="crispEdges" />
    </g>
    <!-- Arrows -->
    <path d="M320.5 76V79.843L328.19 86L320.5 92.156V96L333 86L320.5 76Z" fill="#5999A6" fill-opacity="0.8" />
    <path d="M320.5 83.686L323.39 86L320.5 88.314V83.686Z" fill="#5999A6" fill-opacity="0.8" />
    <!-- Boxy -->
    <path
        d="M242 121L249 128H305L312 121M242 51L249 44H305L312 51M314.5 120C314.5 120.828 313.828 121.5 313 121.5C312.172 121.5 311.5 120.828 311.5 120C311.5 119.172 312.172 118.5 313 118.5C313.828 118.5 314.5 119.172 314.5 120ZM314.5 52C314.5 52.8284 313.828 53.5 313 53.5C312.172 53.5 311.5 52.8284 311.5 52C311.5 51.1716 312.172 50.5 313 50.5C313.828 50.5 314.5 51.1716 314.5 52ZM242.5 120C242.5 120.828 241.828 121.5 241 121.5C240.172 121.5 239.5 120.828 239.5 120C239.5 119.172 240.172 118.5 241 118.5C241.828 118.5 242.5 119.172 242.5 120ZM242.5 52C242.5 52.8284 241.828 53.5 241 53.5C240.172 53.5 239.5 52.8284 239.5 52C239.5 51.1716 240.172 50.5 241 50.5C241.828 50.5 242.5 51.1716 242.5 52Z"
        stroke="#5999A6" stroke-opacity="0.8" />
    <!-- Rocket -->
    <path d="M277 59C272.029 59 268 63.0294 268 68V77H286V68C286 63.0294 281.971 59 277 59Z" fill="#A3E7F5"
        fill-opacity="0.9" />
    <path d="M269 80V94H285V80H269Z" fill="#A3E7F5" fill-opacity="0.9" />
    <path d="M256 108V113H264V100L256 108Z" fill="#A3E7F5" fill-opacity="0.9" />
    <path d="M298 108V113H290V100L298 108Z" fill="#A3E7F5" fill-opacity="0.9" />
    <path d="M267 97V113H275V101H279V113H287V97H267Z" fill="#A3E7F5" fill-opacity="0.9" />
    <!-- Depleted -->
    <path
        d="M98.0625 24.75H83.5625C83.3958 24.75 83.25 24.6979 83.125 24.5938C83.0208 24.4688 82.9688 24.3229 82.9688 24.1562V0.59375C82.9688 0.427083 83.0208 0.291667 83.125 0.1875C83.25 0.0625 83.3958 0 83.5625 0H98.0625C98.8958 0 99.6042 0.302083 100.188 0.90625C100.792 1.48958 101.094 2.19792 101.094 3.03125V21.75C101.094 22.5833 100.792 23.2917 100.188 23.875C99.6042 24.4583 98.8958 24.75 98.0625 24.75ZM87.1875 4.84375V19.9375C87.1875 20.1042 87.25 20.25 87.375 20.375C87.5 20.4792 87.6458 20.5312 87.8125 20.5312H96.25C96.4167 20.5312 96.5521 20.4792 96.6562 20.375C96.7812 20.25 96.8438 20.1042 96.8438 19.9375V4.84375C96.8438 4.67708 96.7812 4.53125 96.6562 4.40625C96.5521 4.28125 96.4167 4.21875 96.25 4.21875H87.8125C87.6458 4.21875 87.5 4.28125 87.375 4.40625C87.25 4.53125 87.1875 4.67708 87.1875 4.84375ZM106.125 24.75C105.292 24.75 104.573 24.4583 103.969 23.875C103.385 23.2917 103.094 22.5833 103.094 21.75V9.0625C103.094 8.22917 103.385 7.52083 103.969 6.9375C104.573 6.33333 105.292 6.03125 106.125 6.03125H118.188C119.021 6.03125 119.729 6.33333 120.312 6.9375C120.917 7.52083 121.219 8.22917 121.219 9.0625V14.5C121.219 15.3333 120.917 16.0417 120.312 16.625C119.729 17.2083 119.021 17.5 118.188 17.5H107.938C107.771 17.5 107.625 17.5625 107.5 17.6875C107.375 17.8125 107.312 17.9583 107.312 18.125V19.9375C107.312 20.1042 107.375 20.25 107.5 20.375C107.625 20.4792 107.771 20.5312 107.938 20.5312H120.594C120.76 20.5312 120.906 20.5938 121.031 20.7188C121.156 20.8229 121.219 20.9583 121.219 21.125V24.1562C121.219 24.3229 121.156 24.4688 121.031 24.5938C120.906 24.6979 120.76 24.75 120.594 24.75H106.125ZM116.969 10.875C116.969 10.7083 116.906 10.5625 116.781 10.4375C116.677 10.3125 116.542 10.25 116.375 10.25H107.938C107.771 10.25 107.625 10.3125 107.5 10.4375C107.375 10.5625 107.312 10.7083 107.312 10.875V12.6875C107.312 12.8542 107.375 13 107.5 13.125C107.625 13.2292 107.771 13.2812 107.938 13.2812H116.375C116.542 13.2812 116.677 13.2292 116.781 13.125C116.906 13 116.969 12.8542 116.969 12.6875V10.875ZM123.812 30.1875C123.646 30.1875 123.5 30.125 123.375 30C123.271 29.8958 123.219 29.7604 123.219 29.5938V6.65625C123.219 6.48958 123.271 6.34375 123.375 6.21875C123.5 6.09375 123.646 6.03125 123.812 6.03125H138.312C139.146 6.03125 139.854 6.33333 140.438 6.9375C141.042 7.52083 141.344 8.22917 141.344 9.0625V21.75C141.344 22.5833 141.042 23.2917 140.438 23.875C139.854 24.4583 139.146 24.75 138.312 24.75H128.062C127.896 24.75 127.75 24.8125 127.625 24.9375C127.5 25.0417 127.438 25.1771 127.438 25.3438V29.5938C127.438 29.7604 127.375 29.8958 127.25 30C127.146 30.125 127.01 30.1875 126.844 30.1875H123.812ZM137.094 10.875C137.094 10.7083 137.031 10.5625 136.906 10.4375C136.802 10.3125 136.667 10.25 136.5 10.25H128.062C127.896 10.25 127.75 10.3125 127.625 10.4375C127.5 10.5625 127.438 10.7083 127.438 10.875V19.9375C127.438 20.1042 127.5 20.25 127.625 20.375C127.75 20.4792 127.896 20.5312 128.062 20.5312H136.5C136.667 20.5312 136.802 20.4792 136.906 20.375C137.031 20.25 137.094 20.1042 137.094 19.9375V10.875ZM143.938 24.75C143.771 24.75 143.625 24.6979 143.5 24.5938C143.396 24.4688 143.344 24.3229 143.344 24.1562V0.59375C143.344 0.427083 143.396 0.291667 143.5 0.1875C143.625 0.0625 143.771 0 143.938 0H146.969C147.135 0 147.271 0.0625 147.375 0.1875C147.5 0.291667 147.562 0.427083 147.562 0.59375V24.1562C147.562 24.3229 147.5 24.4688 147.375 24.5938C147.271 24.6979 147.135 24.75 146.969 24.75H143.938ZM152.594 24.75C151.76 24.75 151.042 24.4583 150.438 23.875C149.854 23.2917 149.562 22.5833 149.562 21.75V9.0625C149.562 8.22917 149.854 7.52083 150.438 6.9375C151.042 6.33333 151.76 6.03125 152.594 6.03125H164.656C165.49 6.03125 166.198 6.33333 166.781 6.9375C167.385 7.52083 167.688 8.22917 167.688 9.0625V14.5C167.688 15.3333 167.385 16.0417 166.781 16.625C166.198 17.2083 165.49 17.5 164.656 17.5H154.406C154.24 17.5 154.094 17.5625 153.969 17.6875C153.844 17.8125 153.781 17.9583 153.781 18.125V19.9375C153.781 20.1042 153.844 20.25 153.969 20.375C154.094 20.4792 154.24 20.5312 154.406 20.5312H167.062C167.229 20.5312 167.375 20.5938 167.5 20.7188C167.625 20.8229 167.688 20.9583 167.688 21.125V24.1562C167.688 24.3229 167.625 24.4688 167.5 24.5938C167.375 24.6979 167.229 24.75 167.062 24.75H152.594ZM163.438 10.875C163.438 10.7083 163.375 10.5625 163.25 10.4375C163.146 10.3125 163.01 10.25 162.844 10.25H154.406C154.24 10.25 154.094 10.3125 153.969 10.4375C153.844 10.5625 153.781 10.7083 153.781 10.875V12.6875C153.781 12.8542 153.844 13 153.969 13.125C154.094 13.2292 154.24 13.2812 154.406 13.2812H162.844C163.01 13.2812 163.146 13.2292 163.25 13.125C163.375 13 163.438 12.8542 163.438 12.6875V10.875ZM172.719 24.75C171.885 24.75 171.167 24.4583 170.562 23.875C169.979 23.2917 169.688 22.5833 169.688 21.75V0.59375C169.688 0.427083 169.74 0.291667 169.844 0.1875C169.969 0.0625 170.115 0 170.281 0H173.312C173.479 0 173.615 0.0625 173.719 0.1875C173.844 0.291667 173.906 0.427083 173.906 0.59375V5.4375C173.906 5.60417 173.969 5.75 174.094 5.875C174.219 5.97917 174.365 6.03125 174.531 6.03125H178.125C178.292 6.03125 178.438 6.09375 178.562 6.21875C178.688 6.34375 178.75 6.48958 178.75 6.65625V9.65625C178.75 9.82292 178.688 9.96875 178.562 10.0938C178.438 10.1979 178.292 10.25 178.125 10.25H174.531C174.365 10.25 174.219 10.3125 174.094 10.4375C173.969 10.5625 173.906 10.7083 173.906 10.875V19.9375C173.906 20.1042 173.969 20.25 174.094 20.375C174.219 20.4792 174.365 20.5312 174.531 20.5312H178.125C178.292 20.5312 178.438 20.5938 178.562 20.7188C178.688 20.8229 178.75 20.9583 178.75 21.125V24.1562C178.75 24.3229 178.688 24.4688 178.562 24.5938C178.438 24.6979 178.292 24.75 178.125 24.75H172.719ZM183.781 24.75C182.948 24.75 182.229 24.4583 181.625 23.875C181.042 23.2917 180.75 22.5833 180.75 21.75V9.0625C180.75 8.22917 181.042 7.52083 181.625 6.9375C182.229 6.33333 182.948 6.03125 183.781 6.03125H195.844C196.677 6.03125 197.385 6.33333 197.969 6.9375C198.573 7.52083 198.875 8.22917 198.875 9.0625V14.5C198.875 15.3333 198.573 16.0417 197.969 16.625C197.385 17.2083 196.677 17.5 195.844 17.5H185.594C185.427 17.5 185.281 17.5625 185.156 17.6875C185.031 17.8125 184.969 17.9583 184.969 18.125V19.9375C184.969 20.1042 185.031 20.25 185.156 20.375C185.281 20.4792 185.427 20.5312 185.594 20.5312H198.25C198.417 20.5312 198.562 20.5938 198.688 20.7188C198.812 20.8229 198.875 20.9583 198.875 21.125V24.1562C198.875 24.3229 198.812 24.4688 198.688 24.5938C198.562 24.6979 198.417 24.75 198.25 24.75H183.781ZM194.625 10.875C194.625 10.7083 194.562 10.5625 194.438 10.4375C194.333 10.3125 194.198 10.25 194.031 10.25H185.594C185.427 10.25 185.281 10.3125 185.156 10.4375C185.031 10.5625 184.969 10.7083 184.969 10.875V12.6875C184.969 12.8542 185.031 13 185.156 13.125C185.281 13.2292 185.427 13.2812 185.594 13.2812H194.031C194.198 13.2812 194.333 13.2292 194.438 13.125C194.562 13 194.625 12.8542 194.625 12.6875V10.875ZM218.375 0C218.542 0 218.688 0.0625 218.812 0.1875C218.938 0.291667 219 0.427083 219 0.59375V24.1562C219 24.3229 218.938 24.4688 218.812 24.5938C218.688 24.6979 218.542 24.75 218.375 24.75H203.906C203.073 24.75 202.354 24.4583 201.75 23.875C201.167 23.2917 200.875 22.5833 200.875 21.75V9.0625C200.875 8.22917 201.167 7.52083 201.75 6.9375C202.354 6.33333 203.073 6.03125 203.906 6.03125H214.156C214.323 6.03125 214.458 5.97917 214.562 5.875C214.688 5.75 214.75 5.60417 214.75 5.4375V0.59375C214.75 0.427083 214.812 0.291667 214.938 0.1875C215.062 0.0625 215.208 0 215.375 0H218.375ZM205.094 19.9375C205.094 20.1042 205.156 20.25 205.281 20.375C205.406 20.4792 205.552 20.5312 205.719 20.5312H214.156C214.323 20.5312 214.458 20.4792 214.562 20.375C214.688 20.25 214.75 20.1042 214.75 19.9375V10.875C214.75 10.7083 214.688 10.5625 214.562 10.4375C214.458 10.3125 214.323 10.25 214.156 10.25H205.719C205.552 10.25 205.406 10.3125 205.281 10.4375C205.156 10.5625 205.094 10.7083 205.094 10.875V19.9375Z"
        fill="#E6C31A" />
        <!-- Depleted -->
    <path
        d="M83.125 24.5938L82.7409 24.9138L82.77 24.9488L82.8049 24.9779L83.125 24.5938ZM83.125 0.1875L82.7714 -0.166053L83.125 0.1875ZM100.188 0.90625L99.8278 1.25355L99.8339 1.25986L99.8402 1.26595L100.188 0.90625ZM100.188 23.875L99.8401 23.5152L99.8339 23.5214L100.188 23.875ZM87.375 20.375L87.0214 20.7286L87.0375 20.7446L87.0549 20.7591L87.375 20.375ZM96.6562 20.375L96.3027 20.0214L96.6562 20.375ZM96.6562 4.40625L96.2721 4.72634L96.2867 4.74377L96.3027 4.7598L96.6562 4.40625ZM98.0625 24.25H83.5625V25.25H98.0625V24.25ZM83.5625 24.25C83.5097 24.25 83.4779 24.237 83.4451 24.2096L82.8049 24.9779C83.0221 25.1589 83.282 25.25 83.5625 25.25V24.25ZM83.5091 24.2737C83.4818 24.2409 83.4688 24.209 83.4688 24.1562H82.4688C82.4688 24.4368 82.5599 24.6966 82.7409 24.9138L83.5091 24.2737ZM83.4688 24.1562V0.59375H82.4688V24.1562H83.4688ZM83.4688 0.59375C83.4688 0.562769 83.4735 0.549256 83.4745 0.546677C83.4751 0.545156 83.4754 0.544695 83.4754 0.544618C83.4755 0.544522 83.4763 0.543355 83.4786 0.541053L82.7714 -0.166053C82.5609 0.0445029 82.4688 0.313459 82.4688 0.59375H83.4688ZM83.4786 0.541053C83.5161 0.503509 83.5371 0.5 83.5625 0.5V-0.5C83.2546 -0.5 82.9839 -0.378509 82.7714 -0.166053L83.4786 0.541053ZM83.5625 0.5H98.0625V-0.5H83.5625V0.5ZM98.0625 0.5C98.759 0.5 99.3379 0.746109 99.8278 1.25355L100.547 0.558953C99.8705 -0.141942 99.0327 -0.5 98.0625 -0.5V0.5ZM99.8402 1.26595C100.348 1.75589 100.594 2.33476 100.594 3.03125H101.594C101.594 2.06108 101.236 1.22328 100.535 0.546549L99.8402 1.26595ZM100.594 3.03125V21.75H101.594V3.03125H100.594ZM100.594 21.75C100.594 22.4465 100.348 23.0254 99.8402 23.5153L100.535 24.2347C101.236 23.558 101.594 22.7202 101.594 21.75H100.594ZM99.8339 23.5214C99.3454 24.0099 98.7647 24.25 98.0625 24.25V25.25C99.0269 25.25 99.8629 24.9067 100.541 24.2286L99.8339 23.5214ZM86.6875 4.84375V19.9375H87.6875V4.84375H86.6875ZM86.6875 19.9375C86.6875 20.2454 86.809 20.5161 87.0214 20.7286L87.7286 20.0214C87.691 19.9839 87.6875 19.9629 87.6875 19.9375H86.6875ZM87.0549 20.7591C87.2721 20.9401 87.532 21.0312 87.8125 21.0312V20.0312C87.7597 20.0312 87.7279 20.0182 87.6951 19.9909L87.0549 20.7591ZM87.8125 21.0312H96.25V20.0312H87.8125V21.0312ZM96.25 21.0312C96.5303 21.0312 96.7992 20.9391 97.0098 20.7286L96.3027 20.0214C96.3004 20.0237 96.2992 20.0245 96.2991 20.0246C96.2991 20.0246 96.2986 20.0249 96.2971 20.0255C96.2945 20.0265 96.281 20.0312 96.25 20.0312V21.0312ZM97.0098 20.7286C97.2223 20.5161 97.3438 20.2454 97.3438 19.9375H96.3438C96.3438 19.9629 96.3402 19.9839 96.3027 20.0214L97.0098 20.7286ZM97.3438 19.9375V4.84375H96.3438V19.9375H97.3438ZM97.3438 4.84375C97.3438 4.53581 97.2223 4.26515 97.0098 4.0527L96.3027 4.7598C96.3402 4.79735 96.3438 4.81836 96.3438 4.84375H97.3438ZM97.0404 4.08616C96.8386 3.844 96.5609 3.71875 96.25 3.71875V4.71875C96.2603 4.71875 96.266 4.71971 96.2678 4.7201C96.2696 4.72046 96.2689 4.72049 96.267 4.7196C96.2651 4.71871 96.264 4.71788 96.2641 4.71797C96.2643 4.71816 96.2672 4.72039 96.2721 4.72634L97.0404 4.08616ZM96.25 3.71875H87.8125V4.71875H96.25V3.71875ZM87.8125 3.71875C87.5046 3.71875 87.2339 3.84024 87.0214 4.0527L87.7286 4.7598C87.7661 4.72226 87.7871 4.71875 87.8125 4.71875V3.71875ZM87.0214 4.0527C86.809 4.26515 86.6875 4.53581 86.6875 4.84375H87.6875C87.6875 4.81836 87.691 4.79735 87.7286 4.7598L87.0214 4.0527ZM103.969 23.875L103.615 24.2286L103.621 24.2347L103.969 23.875ZM103.969 6.9375L104.322 7.29105L103.969 6.9375ZM120.312 6.9375L119.953 7.2848L119.959 7.29111L119.965 7.2972L120.312 6.9375ZM120.312 16.625L119.965 16.2652L119.959 16.2714L120.312 16.625ZM107.5 20.375L107.146 20.7286L107.162 20.7446L107.18 20.7591L107.5 20.375ZM121.031 20.7188L120.678 21.0723L120.694 21.0883L120.711 21.1029L121.031 20.7188ZM121.031 24.5938L121.351 24.9779L121.369 24.9633L121.385 24.9473L121.031 24.5938ZM116.781 10.4375L116.397 10.7576L116.412 10.775L116.428 10.7911L116.781 10.4375ZM107.5 13.125L107.146 13.4786L107.162 13.4946L107.18 13.5091L107.5 13.125ZM106.125 24.25C105.422 24.25 104.828 24.0094 104.316 23.5153L103.621 24.2347C104.318 24.9073 105.161 25.25 106.125 25.25V24.25ZM104.322 23.5214C103.834 23.0329 103.594 22.4522 103.594 21.75H102.594C102.594 22.7144 102.937 23.5504 103.615 24.2286L104.322 23.5214ZM103.594 21.75V9.0625H102.594V21.75H103.594ZM103.594 9.0625C103.594 8.36026 103.834 7.77955 104.322 7.29105L103.615 6.58395C102.937 7.26211 102.594 8.09807 102.594 9.0625H103.594ZM104.322 7.29105C104.835 6.778 105.428 6.53125 106.125 6.53125V5.53125C105.155 5.53125 104.31 5.88867 103.615 6.58395L104.322 7.29105ZM106.125 6.53125H118.188V5.53125H106.125V6.53125ZM118.188 6.53125C118.884 6.53125 119.463 6.77736 119.953 7.2848L120.672 6.5902C119.995 5.88931 119.158 5.53125 118.188 5.53125V6.53125ZM119.965 7.2972C120.473 7.78714 120.719 8.36601 120.719 9.0625H121.719C121.719 8.09233 121.361 7.25453 120.66 6.5778L119.965 7.2972ZM120.719 9.0625V14.5H121.719V9.0625H120.719ZM120.719 14.5C120.719 15.1965 120.473 15.7754 119.965 16.2653L120.66 16.9847C121.361 16.308 121.719 15.4702 121.719 14.5H120.719ZM119.959 16.2714C119.47 16.7599 118.89 17 118.188 17V18C119.152 18 119.988 17.6567 120.666 16.9786L119.959 16.2714ZM118.188 17H107.938V18H118.188V17ZM107.938 17C107.63 17 107.359 17.1215 107.146 17.3339L107.854 18.0411C107.891 18.0035 107.912 18 107.938 18V17ZM107.146 17.3339C106.934 17.5464 106.812 17.8171 106.812 18.125H107.812C107.812 18.0996 107.816 18.0786 107.854 18.0411L107.146 17.3339ZM106.812 18.125V19.9375H107.812V18.125H106.812ZM106.812 19.9375C106.812 20.2454 106.934 20.5161 107.146 20.7286L107.854 20.0214C107.816 19.9839 107.812 19.9629 107.812 19.9375H106.812ZM107.18 20.7591C107.397 20.9401 107.657 21.0312 107.938 21.0312V20.0312C107.885 20.0312 107.853 20.0182 107.82 19.9909L107.18 20.7591ZM107.938 21.0312H120.594V20.0312H107.938V21.0312ZM120.594 21.0312C120.619 21.0312 120.64 21.0348 120.678 21.0723L121.385 20.3652C121.172 20.1527 120.902 20.0312 120.594 20.0312V21.0312ZM120.711 21.1029C120.717 21.1078 120.719 21.1107 120.72 21.1109C120.72 21.111 120.719 21.1099 120.718 21.108C120.717 21.1061 120.717 21.1054 120.717 21.1072C120.718 21.109 120.719 21.1147 120.719 21.125H121.719C121.719 20.8141 121.593 20.5364 121.351 20.3346L120.711 21.1029ZM120.719 21.125V24.1562H121.719V21.125H120.719ZM120.719 24.1562C120.719 24.1816 120.715 24.2027 120.678 24.2402L121.385 24.9473C121.597 24.7348 121.719 24.4642 121.719 24.1562H120.719ZM120.711 24.2096C120.678 24.237 120.647 24.25 120.594 24.25V25.25C120.874 25.25 121.134 25.1589 121.351 24.9779L120.711 24.2096ZM120.594 24.25H106.125V25.25H120.594V24.25ZM117.469 10.875C117.469 10.5671 117.347 10.2964 117.135 10.0839L116.428 10.7911C116.465 10.8286 116.469 10.8496 116.469 10.875H117.469ZM117.165 10.1174C116.964 9.87525 116.686 9.75 116.375 9.75V10.75C116.385 10.75 116.391 10.751 116.393 10.7513C116.395 10.7517 116.394 10.7517 116.392 10.7509C116.39 10.75 116.389 10.7491 116.389 10.7492C116.389 10.7494 116.392 10.7516 116.397 10.7576L117.165 10.1174ZM116.375 9.75H107.938V10.75H116.375V9.75ZM107.938 9.75C107.63 9.75 107.359 9.87149 107.146 10.0839L107.854 10.7911C107.891 10.7535 107.912 10.75 107.938 10.75V9.75ZM107.146 10.0839C106.934 10.2964 106.812 10.5671 106.812 10.875H107.812C107.812 10.8496 107.816 10.8286 107.854 10.7911L107.146 10.0839ZM106.812 10.875V12.6875H107.812V10.875H106.812ZM106.812 12.6875C106.812 12.9954 106.934 13.2661 107.146 13.4786L107.854 12.7714C107.816 12.7339 107.812 12.7129 107.812 12.6875H106.812ZM107.18 13.5091C107.397 13.6901 107.657 13.7812 107.938 13.7812V12.7812C107.885 12.7812 107.853 12.7682 107.82 12.7409L107.18 13.5091ZM107.938 13.7812H116.375V12.7812H107.938V13.7812ZM116.375 13.7812C116.655 13.7812 116.924 13.6891 117.135 13.4786L116.428 12.7714C116.425 12.7737 116.424 12.7745 116.424 12.7746C116.424 12.7746 116.424 12.7749 116.422 12.7755C116.419 12.7765 116.406 12.7812 116.375 12.7812V13.7812ZM117.135 13.4786C117.347 13.2661 117.469 12.9954 117.469 12.6875H116.469C116.469 12.7129 116.465 12.7339 116.428 12.7714L117.135 13.4786ZM117.469 12.6875V10.875H116.469V12.6875H117.469ZM123.375 30L123.021 30.3536L123.375 30ZM123.375 6.21875L123.021 5.8652L123.005 5.88123L122.991 5.89866L123.375 6.21875ZM140.438 6.9375L140.078 7.2848L140.084 7.29111L140.09 7.2972L140.438 6.9375ZM140.438 23.875L140.09 23.5152L140.084 23.5214L140.438 23.875ZM127.625 24.9375L127.945 25.3216L127.963 25.3071L127.979 25.2911L127.625 24.9375ZM127.25 30L126.93 29.6159L126.895 29.645L126.866 29.6799L127.25 30ZM136.906 10.4375L136.522 10.7576L136.537 10.775L136.553 10.7911L136.906 10.4375ZM127.625 20.375L127.271 20.7286L127.287 20.7446L127.305 20.7591L127.625 20.375ZM136.906 20.375L136.553 20.0214L136.906 20.375ZM123.812 29.6875C123.787 29.6875 123.766 29.684 123.729 29.6464L123.021 30.3536C123.234 30.566 123.505 30.6875 123.812 30.6875V29.6875ZM123.729 29.6464C123.726 29.6441 123.726 29.643 123.725 29.6429C123.725 29.6428 123.725 29.6423 123.724 29.6408C123.723 29.6382 123.719 29.6247 123.719 29.5938H122.719C122.719 29.874 122.811 30.143 123.021 30.3536L123.729 29.6464ZM123.719 29.5938V6.65625H122.719V29.5938H123.719ZM123.719 6.65625C123.719 6.60345 123.732 6.57163 123.759 6.53884L122.991 5.89866C122.81 6.11587 122.719 6.37571 122.719 6.65625H123.719ZM123.729 6.5723C123.766 6.53476 123.787 6.53125 123.812 6.53125V5.53125C123.505 5.53125 123.234 5.65274 123.021 5.8652L123.729 6.5723ZM123.812 6.53125H138.312V5.53125H123.812V6.53125ZM138.312 6.53125C139.009 6.53125 139.588 6.77736 140.078 7.2848L140.797 6.5902C140.12 5.88931 139.283 5.53125 138.312 5.53125V6.53125ZM140.09 7.2972C140.598 7.78714 140.844 8.36601 140.844 9.0625H141.844C141.844 8.09233 141.486 7.25453 140.785 6.5778L140.09 7.2972ZM140.844 9.0625V21.75H141.844V9.0625H140.844ZM140.844 21.75C140.844 22.4465 140.598 23.0254 140.09 23.5153L140.785 24.2347C141.486 23.558 141.844 22.7202 141.844 21.75H140.844ZM140.084 23.5214C139.595 24.0099 139.015 24.25 138.312 24.25V25.25C139.277 25.25 140.113 24.9067 140.791 24.2286L140.084 23.5214ZM138.312 24.25H128.062V25.25H138.312V24.25ZM128.062 24.25C127.755 24.25 127.484 24.3715 127.271 24.5839L127.979 25.2911C128.016 25.2535 128.037 25.25 128.062 25.25V24.25ZM127.305 24.5534C127.063 24.7552 126.938 25.0329 126.938 25.3438H127.938C127.938 25.3334 127.938 25.3278 127.939 25.3259C127.939 25.3242 127.939 25.3248 127.938 25.3267C127.937 25.3287 127.937 25.3298 127.937 25.3296C127.937 25.3294 127.939 25.3266 127.945 25.3216L127.305 24.5534ZM126.938 25.3438V29.5938H127.938V25.3438H126.938ZM126.938 29.5938C126.938 29.6041 126.937 29.6097 126.936 29.6116C126.936 29.6133 126.936 29.6127 126.937 29.6108C126.938 29.6088 126.938 29.6077 126.938 29.6079C126.938 29.6081 126.936 29.6109 126.93 29.6159L127.57 30.3841C127.812 30.1823 127.938 29.9046 127.938 29.5938H126.938ZM126.866 29.6799C126.861 29.6859 126.858 29.6881 126.858 29.6883C126.858 29.6884 126.859 29.6875 126.861 29.6866C126.863 29.6858 126.863 29.6858 126.862 29.6862C126.86 29.6865 126.854 29.6875 126.844 29.6875V30.6875C127.155 30.6875 127.432 30.5622 127.634 30.3201L126.866 29.6799ZM126.844 29.6875H123.812V30.6875H126.844V29.6875ZM137.594 10.875C137.594 10.5671 137.472 10.2964 137.26 10.0839L136.553 10.7911C136.59 10.8286 136.594 10.8496 136.594 10.875H137.594ZM137.29 10.1174C137.089 9.87525 136.811 9.75 136.5 9.75V10.75C136.51 10.75 136.516 10.751 136.518 10.7513C136.52 10.7517 136.519 10.7517 136.517 10.7509C136.515 10.75 136.514 10.7491 136.514 10.7492C136.514 10.7494 136.517 10.7516 136.522 10.7576L137.29 10.1174ZM136.5 9.75H128.062V10.75H136.5V9.75ZM128.062 9.75C127.755 9.75 127.484 9.87149 127.271 10.0839L127.979 10.7911C128.016 10.7535 128.037 10.75 128.062 10.75V9.75ZM127.271 10.0839C127.059 10.2964 126.938 10.5671 126.938 10.875H127.938C127.938 10.8496 127.941 10.8286 127.979 10.7911L127.271 10.0839ZM126.938 10.875V19.9375H127.938V10.875H126.938ZM126.938 19.9375C126.938 20.2454 127.059 20.5161 127.271 20.7286L127.979 20.0214C127.941 19.9839 127.938 19.9629 127.938 19.9375H126.938ZM127.305 20.7591C127.522 20.9401 127.782 21.0312 128.062 21.0312V20.0312C128.01 20.0312 127.978 20.0182 127.945 19.9909L127.305 20.7591ZM128.062 21.0312H136.5V20.0312H128.062V21.0312ZM136.5 21.0312C136.78 21.0312 137.049 20.9391 137.26 20.7286L136.553 20.0214C136.55 20.0237 136.549 20.0245 136.549 20.0246C136.549 20.0246 136.549 20.0249 136.547 20.0255C136.544 20.0265 136.531 20.0312 136.5 20.0312V21.0312ZM137.26 20.7286C137.472 20.5161 137.594 20.2454 137.594 19.9375H136.594C136.594 19.9629 136.59 19.9839 136.553 20.0214L137.26 20.7286ZM137.594 19.9375V10.875H136.594V19.9375H137.594ZM143.5 24.5938L143.116 24.9138L143.145 24.9488L143.18 24.9779L143.5 24.5938ZM143.5 0.1875L143.146 -0.166053L143.5 0.1875ZM147.375 0.1875L146.991 0.507592L147.02 0.542511L147.055 0.571611L147.375 0.1875ZM147.375 24.5938L147.729 24.9473L147.375 24.5938ZM143.938 24.25C143.885 24.25 143.853 24.237 143.82 24.2096L143.18 24.9779C143.397 25.1589 143.657 25.25 143.938 25.25V24.25ZM143.884 24.2737C143.857 24.2409 143.844 24.209 143.844 24.1562H142.844C142.844 24.4368 142.935 24.6966 143.116 24.9138L143.884 24.2737ZM143.844 24.1562V0.59375H142.844V24.1562H143.844ZM143.844 0.59375C143.844 0.562769 143.848 0.549256 143.849 0.546677C143.85 0.545156 143.85 0.544695 143.85 0.544618C143.851 0.544522 143.851 0.543355 143.854 0.541053L143.146 -0.166053C142.936 0.0445029 142.844 0.313459 142.844 0.59375H143.844ZM143.854 0.541053C143.891 0.503509 143.912 0.5 143.938 0.5V-0.5C143.63 -0.5 143.359 -0.378509 143.146 -0.166053L143.854 0.541053ZM143.938 0.5H146.969V-0.5H143.938V0.5ZM146.969 0.5C146.979 0.5 146.985 0.500959 146.987 0.501349C146.988 0.501705 146.988 0.501736 146.986 0.500855C146.984 0.499962 146.983 0.499127 146.983 0.499221C146.983 0.499406 146.986 0.501637 146.991 0.507592L147.759 -0.132592C147.557 -0.374748 147.28 -0.5 146.969 -0.5V0.5ZM147.055 0.571611C147.061 0.576573 147.063 0.579403 147.063 0.579639C147.063 0.579759 147.063 0.578651 147.062 0.576717C147.061 0.574808 147.061 0.574191 147.061 0.575912C147.062 0.577795 147.062 0.583408 147.062 0.59375H148.062C148.062 0.282856 147.937 0.00518623 147.695 -0.196611L147.055 0.571611ZM147.062 0.59375V24.1562H148.062V0.59375H147.062ZM147.062 24.1562C147.062 24.1816 147.059 24.2027 147.021 24.2402L147.729 24.9473C147.941 24.7348 148.062 24.4642 148.062 24.1562H147.062ZM147.021 24.2402C147.019 24.2425 147.018 24.2432 147.018 24.2433C147.018 24.2434 147.017 24.2437 147.016 24.2443C147.013 24.2453 147 24.25 146.969 24.25V25.25C147.249 25.25 147.518 25.1579 147.729 24.9473L147.021 24.2402ZM146.969 24.25H143.938V25.25H146.969V24.25ZM150.438 23.875L150.084 24.2286L150.09 24.2347L150.438 23.875ZM150.438 6.9375L150.791 7.29105L150.438 6.9375ZM166.781 6.9375L166.422 7.2848L166.428 7.29111L166.434 7.2972L166.781 6.9375ZM166.781 16.625L166.434 16.2652L166.428 16.2714L166.781 16.625ZM153.969 20.375L153.615 20.7286L153.631 20.7446L153.649 20.7591L153.969 20.375ZM167.5 20.7188L167.146 21.0723L167.162 21.0883L167.18 21.1029L167.5 20.7188ZM167.5 24.5938L167.82 24.9779L167.838 24.9633L167.854 24.9473L167.5 24.5938ZM163.25 10.4375L162.866 10.7576L162.88 10.775L162.896 10.7911L163.25 10.4375ZM153.969 13.125L153.615 13.4786L153.631 13.4946L153.649 13.5091L153.969 13.125ZM152.594 24.25C151.891 24.25 151.297 24.0094 150.785 23.5153L150.09 24.2347C150.787 24.9073 151.63 25.25 152.594 25.25V24.25ZM150.791 23.5214C150.303 23.0329 150.062 22.4522 150.062 21.75H149.062C149.062 22.7144 149.406 23.5504 150.084 24.2286L150.791 23.5214ZM150.062 21.75V9.0625H149.062V21.75H150.062ZM150.062 9.0625C150.062 8.36026 150.303 7.77955 150.791 7.29105L150.084 6.58395C149.406 7.26211 149.062 8.09807 149.062 9.0625H150.062ZM150.791 7.29105C151.304 6.778 151.897 6.53125 152.594 6.53125V5.53125C151.624 5.53125 150.779 5.88867 150.084 6.58395L150.791 7.29105ZM152.594 6.53125H164.656V5.53125H152.594V6.53125ZM164.656 6.53125C165.353 6.53125 165.932 6.77736 166.422 7.2848L167.141 6.5902C166.464 5.88931 165.626 5.53125 164.656 5.53125V6.53125ZM166.434 7.2972C166.941 7.78714 167.188 8.36601 167.188 9.0625H168.188C168.188 8.09233 167.829 7.25453 167.129 6.5778L166.434 7.2972ZM167.188 9.0625V14.5H168.188V9.0625H167.188ZM167.188 14.5C167.188 15.1965 166.941 15.7754 166.434 16.2653L167.129 16.9847C167.829 16.308 168.188 15.4702 168.188 14.5H167.188ZM166.428 16.2714C165.939 16.7599 165.358 17 164.656 17V18C165.621 18 166.457 17.6567 167.135 16.9786L166.428 16.2714ZM164.656 17H154.406V18H164.656V17ZM154.406 17C154.098 17 153.828 17.1215 153.615 17.3339L154.322 18.0411C154.36 18.0035 154.381 18 154.406 18V17ZM153.615 17.3339C153.403 17.5464 153.281 17.8171 153.281 18.125H154.281C154.281 18.0996 154.285 18.0786 154.322 18.0411L153.615 17.3339ZM153.281 18.125V19.9375H154.281V18.125H153.281ZM153.281 19.9375C153.281 20.2454 153.403 20.5161 153.615 20.7286L154.322 20.0214C154.285 19.9839 154.281 19.9629 154.281 19.9375H153.281ZM153.649 20.7591C153.866 20.9401 154.126 21.0312 154.406 21.0312V20.0312C154.353 20.0312 154.322 20.0182 154.289 19.9909L153.649 20.7591ZM154.406 21.0312H167.062V20.0312H154.406V21.0312ZM167.062 21.0312C167.088 21.0312 167.109 21.0348 167.146 21.0723L167.854 20.3652C167.641 20.1527 167.37 20.0312 167.062 20.0312V21.0312ZM167.18 21.1029C167.186 21.1078 167.188 21.1107 167.188 21.1109C167.188 21.111 167.188 21.1099 167.187 21.108C167.186 21.1061 167.186 21.1054 167.186 21.1072C167.187 21.109 167.188 21.1147 167.188 21.125H168.188C168.188 20.8141 168.062 20.5364 167.82 20.3346L167.18 21.1029ZM167.188 21.125V24.1562H168.188V21.125H167.188ZM167.188 24.1562C167.188 24.1816 167.184 24.2027 167.146 24.2402L167.854 24.9473C168.066 24.7348 168.188 24.4642 168.188 24.1562H167.188ZM167.18 24.2096C167.147 24.237 167.115 24.25 167.062 24.25V25.25C167.343 25.25 167.603 25.1589 167.82 24.9779L167.18 24.2096ZM167.062 24.25H152.594V25.25H167.062V24.25ZM163.938 10.875C163.938 10.5671 163.816 10.2964 163.604 10.0839L162.896 10.7911C162.934 10.8286 162.938 10.8496 162.938 10.875H163.938ZM163.634 10.1174C163.432 9.87525 163.155 9.75 162.844 9.75V10.75C162.854 10.75 162.86 10.751 162.862 10.7513C162.863 10.7517 162.863 10.7517 162.861 10.7509C162.859 10.75 162.858 10.7491 162.858 10.7492C162.858 10.7494 162.861 10.7516 162.866 10.7576L163.634 10.1174ZM162.844 9.75H154.406V10.75H162.844V9.75ZM154.406 9.75C154.098 9.75 153.828 9.87149 153.615 10.0839L154.322 10.7911C154.36 10.7535 154.381 10.75 154.406 10.75V9.75ZM153.615 10.0839C153.403 10.2964 153.281 10.5671 153.281 10.875H154.281C154.281 10.8496 154.285 10.8286 154.322 10.7911L153.615 10.0839ZM153.281 10.875V12.6875H154.281V10.875H153.281ZM153.281 12.6875C153.281 12.9954 153.403 13.2661 153.615 13.4786L154.322 12.7714C154.285 12.7339 154.281 12.7129 154.281 12.6875H153.281ZM153.649 13.5091C153.866 13.6901 154.126 13.7812 154.406 13.7812V12.7812C154.353 12.7812 154.322 12.7682 154.289 12.7409L153.649 13.5091ZM154.406 13.7812H162.844V12.7812H154.406V13.7812ZM162.844 13.7812C163.124 13.7812 163.393 13.6891 163.604 13.4786L162.896 12.7714C162.894 12.7737 162.893 12.7745 162.893 12.7746C162.893 12.7746 162.892 12.7749 162.891 12.7755C162.888 12.7765 162.875 12.7812 162.844 12.7812V13.7812ZM163.604 13.4786C163.816 13.2661 163.938 12.9954 163.938 12.6875H162.938C162.938 12.7129 162.934 12.7339 162.896 12.7714L163.604 13.4786ZM163.938 12.6875V10.875H162.938V12.6875H163.938ZM170.562 23.875L170.209 24.2286L170.215 24.2347L170.562 23.875ZM169.844 0.1875L169.49 -0.166053L169.844 0.1875ZM173.719 0.1875L173.335 0.507592L173.364 0.542511L173.399 0.571611L173.719 0.1875ZM174.094 5.875L173.74 6.22855L173.756 6.24459L173.774 6.25911L174.094 5.875ZM178.562 10.0938L178.883 10.4779L178.9 10.4633L178.916 10.4473L178.562 10.0938ZM174.094 20.375L173.74 20.7286L173.756 20.7446L173.774 20.7591L174.094 20.375ZM178.562 20.7188L178.209 21.0723L178.225 21.0883L178.242 21.1029L178.562 20.7188ZM178.562 24.5938L178.883 24.9779L178.9 24.9633L178.916 24.9473L178.562 24.5938ZM172.719 24.25C172.016 24.25 171.422 24.0094 170.91 23.5153L170.215 24.2347C170.912 24.9073 171.755 25.25 172.719 25.25V24.25ZM170.916 23.5214C170.428 23.0329 170.188 22.4522 170.188 21.75H169.188C169.188 22.7144 169.531 23.5504 170.209 24.2286L170.916 23.5214ZM170.188 21.75V0.59375H169.188V21.75H170.188ZM170.188 0.59375C170.188 0.562769 170.192 0.549256 170.193 0.546677C170.194 0.545156 170.194 0.544695 170.194 0.544618C170.194 0.544522 170.195 0.543355 170.197 0.541053L169.49 -0.166053C169.28 0.0445029 169.188 0.313459 169.188 0.59375H170.188ZM170.197 0.541053C170.235 0.503509 170.256 0.5 170.281 0.5V-0.5C169.973 -0.5 169.703 -0.378509 169.49 -0.166053L170.197 0.541053ZM170.281 0.5H173.312V-0.5H170.281V0.5ZM173.312 0.5C173.323 0.5 173.328 0.500959 173.33 0.501349C173.332 0.501705 173.331 0.501736 173.33 0.500855C173.328 0.499962 173.326 0.499127 173.327 0.499221C173.327 0.499406 173.33 0.501637 173.335 0.507592L174.103 -0.132592C173.901 -0.374748 173.623 -0.5 173.312 -0.5V0.5ZM173.399 0.571611C173.405 0.576573 173.407 0.579403 173.407 0.579639C173.407 0.579759 173.406 0.578651 173.405 0.576717C173.405 0.574808 173.405 0.574191 173.405 0.575912C173.405 0.577795 173.406 0.583408 173.406 0.59375H174.406C174.406 0.282856 174.281 0.00518623 174.039 -0.196611L173.399 0.571611ZM173.406 0.59375V5.4375H174.406V0.59375H173.406ZM173.406 5.4375C173.406 5.74544 173.528 6.0161 173.74 6.22855L174.447 5.52145C174.41 5.4839 174.406 5.46289 174.406 5.4375H173.406ZM173.774 6.25911C173.991 6.44012 174.251 6.53125 174.531 6.53125V5.53125C174.478 5.53125 174.447 5.51821 174.414 5.49089L173.774 6.25911ZM174.531 6.53125H178.125V5.53125H174.531V6.53125ZM178.125 6.53125C178.15 6.53125 178.171 6.53476 178.209 6.5723L178.916 5.8652C178.704 5.65274 178.433 5.53125 178.125 5.53125V6.53125ZM178.209 6.5723C178.246 6.60985 178.25 6.63086 178.25 6.65625H179.25C179.25 6.34831 179.129 6.07765 178.916 5.8652L178.209 6.5723ZM178.25 6.65625V9.65625H179.25V6.65625H178.25ZM178.25 9.65625C178.25 9.68164 178.246 9.70265 178.209 9.7402L178.916 10.4473C179.129 10.2348 179.25 9.96419 179.25 9.65625H178.25ZM178.242 9.70964C178.21 9.73696 178.178 9.75 178.125 9.75V10.75C178.406 10.75 178.665 10.6589 178.883 10.4779L178.242 9.70964ZM178.125 9.75H174.531V10.75H178.125V9.75ZM174.531 9.75C174.223 9.75 173.953 9.87149 173.74 10.0839L174.447 10.7911C174.485 10.7535 174.506 10.75 174.531 10.75V9.75ZM173.74 10.0839C173.528 10.2964 173.406 10.5671 173.406 10.875H174.406C174.406 10.8496 174.41 10.8286 174.447 10.7911L173.74 10.0839ZM173.406 10.875V19.9375H174.406V10.875H173.406ZM173.406 19.9375C173.406 20.2454 173.528 20.5161 173.74 20.7286L174.447 20.0214C174.41 19.9839 174.406 19.9629 174.406 19.9375H173.406ZM173.774 20.7591C173.991 20.9401 174.251 21.0312 174.531 21.0312V20.0312C174.478 20.0312 174.447 20.0182 174.414 19.9909L173.774 20.7591ZM174.531 21.0312H178.125V20.0312H174.531V21.0312ZM178.125 21.0312C178.15 21.0312 178.171 21.0348 178.209 21.0723L178.916 20.3652C178.704 20.1527 178.433 20.0312 178.125 20.0312V21.0312ZM178.242 21.1029C178.248 21.1078 178.251 21.1107 178.251 21.1109C178.251 21.111 178.25 21.1099 178.249 21.108C178.248 21.1061 178.248 21.1054 178.249 21.1072C178.249 21.109 178.25 21.1147 178.25 21.125H179.25C179.25 20.8141 179.125 20.5364 178.883 20.3346L178.242 21.1029ZM178.25 21.125V24.1562H179.25V21.125H178.25ZM178.25 24.1562C178.25 24.1816 178.246 24.2027 178.209 24.2402L178.916 24.9473C179.129 24.7348 179.25 24.4642 179.25 24.1562H178.25ZM178.242 24.2096C178.21 24.237 178.178 24.25 178.125 24.25V25.25C178.406 25.25 178.665 25.1589 178.883 24.9779L178.242 24.2096ZM178.125 24.25H172.719V25.25H178.125V24.25ZM181.625 23.875L181.271 24.2286L181.278 24.2347L181.625 23.875ZM181.625 6.9375L181.979 7.29105L181.625 6.9375ZM197.969 6.9375L197.609 7.2848L197.615 7.29111L197.621 7.2972L197.969 6.9375ZM197.969 16.625L197.621 16.2652L197.615 16.2714L197.969 16.625ZM185.156 20.375L184.803 20.7286L184.819 20.7446L184.836 20.7591L185.156 20.375ZM198.688 20.7188L198.334 21.0723L198.35 21.0883L198.367 21.1029L198.688 20.7188ZM198.688 24.5938L199.008 24.9779L199.025 24.9633L199.041 24.9473L198.688 24.5938ZM194.438 10.4375L194.053 10.7576L194.068 10.775L194.084 10.7911L194.438 10.4375ZM185.156 13.125L184.803 13.4786L184.819 13.4946L184.836 13.5091L185.156 13.125ZM183.781 24.25C183.079 24.25 182.484 24.0094 181.972 23.5153L181.278 24.2347C181.974 24.9073 182.817 25.25 183.781 25.25V24.25ZM181.979 23.5214C181.49 23.0329 181.25 22.4522 181.25 21.75H180.25C180.25 22.7144 180.593 23.5504 181.271 24.2286L181.979 23.5214ZM181.25 21.75V9.0625H180.25V21.75H181.25ZM181.25 9.0625C181.25 8.36026 181.49 7.77955 181.979 7.29105L181.271 6.58395C180.593 7.26211 180.25 8.09807 180.25 9.0625H181.25ZM181.979 7.29105C182.492 6.778 183.084 6.53125 183.781 6.53125V5.53125C182.812 5.53125 181.967 5.88867 181.271 6.58395L181.979 7.29105ZM183.781 6.53125H195.844V5.53125H183.781V6.53125ZM195.844 6.53125C196.54 6.53125 197.119 6.77736 197.609 7.2848L198.328 6.5902C197.652 5.88931 196.814 5.53125 195.844 5.53125V6.53125ZM197.621 7.2972C198.129 7.78714 198.375 8.36601 198.375 9.0625H199.375C199.375 8.09233 199.017 7.25453 198.316 6.5778L197.621 7.2972ZM198.375 9.0625V14.5H199.375V9.0625H198.375ZM198.375 14.5C198.375 15.1965 198.129 15.7754 197.621 16.2653L198.316 16.9847C199.017 16.308 199.375 15.4702 199.375 14.5H198.375ZM197.615 16.2714C197.127 16.7599 196.546 17 195.844 17V18C196.808 18 197.644 17.6567 198.322 16.9786L197.615 16.2714ZM195.844 17H185.594V18H195.844V17ZM185.594 17C185.286 17 185.015 17.1215 184.803 17.3339L185.51 18.0411C185.547 18.0035 185.568 18 185.594 18V17ZM184.803 17.3339C184.59 17.5464 184.469 17.8171 184.469 18.125H185.469C185.469 18.0996 185.472 18.0786 185.51 18.0411L184.803 17.3339ZM184.469 18.125V19.9375H185.469V18.125H184.469ZM184.469 19.9375C184.469 20.2454 184.59 20.5161 184.803 20.7286L185.51 20.0214C185.472 19.9839 185.469 19.9629 185.469 19.9375H184.469ZM184.836 20.7591C185.053 20.9401 185.313 21.0312 185.594 21.0312V20.0312C185.541 20.0312 185.509 20.0182 185.476 19.9909L184.836 20.7591ZM185.594 21.0312H198.25V20.0312H185.594V21.0312ZM198.25 21.0312C198.275 21.0312 198.296 21.0348 198.334 21.0723L199.041 20.3652C198.829 20.1527 198.558 20.0312 198.25 20.0312V21.0312ZM198.367 21.1029C198.373 21.1078 198.376 21.1107 198.376 21.1109C198.376 21.111 198.375 21.1099 198.374 21.108C198.373 21.1061 198.373 21.1054 198.374 21.1072C198.374 21.109 198.375 21.1147 198.375 21.125H199.375C199.375 20.8141 199.25 20.5364 199.008 20.3346L198.367 21.1029ZM198.375 21.125V24.1562H199.375V21.125H198.375ZM198.375 24.1562C198.375 24.1816 198.371 24.2027 198.334 24.2402L199.041 24.9473C199.254 24.7348 199.375 24.4642 199.375 24.1562H198.375ZM198.367 24.2096C198.335 24.237 198.303 24.25 198.25 24.25V25.25C198.531 25.25 198.79 25.1589 199.008 24.9779L198.367 24.2096ZM198.25 24.25H183.781V25.25H198.25V24.25ZM195.125 10.875C195.125 10.5671 195.004 10.2964 194.791 10.0839L194.084 10.7911C194.121 10.8286 194.125 10.8496 194.125 10.875H195.125ZM194.822 10.1174C194.62 9.87525 194.342 9.75 194.031 9.75V10.75C194.042 10.75 194.047 10.751 194.049 10.7513C194.051 10.7517 194.05 10.7517 194.048 10.7509C194.046 10.75 194.045 10.7491 194.045 10.7492C194.046 10.7494 194.048 10.7516 194.053 10.7576L194.822 10.1174ZM194.031 9.75H185.594V10.75H194.031V9.75ZM185.594 9.75C185.286 9.75 185.015 9.87149 184.803 10.0839L185.51 10.7911C185.547 10.7535 185.568 10.75 185.594 10.75V9.75ZM184.803 10.0839C184.59 10.2964 184.469 10.5671 184.469 10.875H185.469C185.469 10.8496 185.472 10.8286 185.51 10.7911L184.803 10.0839ZM184.469 10.875V12.6875H185.469V10.875H184.469ZM184.469 12.6875C184.469 12.9954 184.59 13.2661 184.803 13.4786L185.51 12.7714C185.472 12.7339 185.469 12.7129 185.469 12.6875H184.469ZM184.836 13.5091C185.053 13.6901 185.313 13.7812 185.594 13.7812V12.7812C185.541 12.7812 185.509 12.7682 185.476 12.7409L184.836 13.5091ZM185.594 13.7812H194.031V12.7812H185.594V13.7812ZM194.031 13.7812C194.312 13.7812 194.58 13.6891 194.791 13.4786L194.084 12.7714C194.082 12.7737 194.08 12.7745 194.08 12.7746C194.08 12.7746 194.08 12.7749 194.078 12.7755C194.076 12.7765 194.062 12.7812 194.031 12.7812V13.7812ZM194.791 13.4786C195.004 13.2661 195.125 12.9954 195.125 12.6875H194.125C194.125 12.7129 194.121 12.7339 194.084 12.7714L194.791 13.4786ZM195.125 12.6875V10.875H194.125V12.6875H195.125ZM218.812 0.1875L218.459 0.541053L218.475 0.557091L218.492 0.571611L218.812 0.1875ZM218.812 24.5938L219.133 24.9779L219.15 24.9633L219.166 24.9473L218.812 24.5938ZM201.75 23.875L201.396 24.2286L201.403 24.2347L201.75 23.875ZM201.75 6.9375L202.104 7.29105L201.75 6.9375ZM214.562 5.875L214.209 5.52145L214.562 5.875ZM214.938 0.1875L215.258 0.571611L215.275 0.557091L215.291 0.541053L214.938 0.1875ZM205.281 20.375L204.928 20.7286L204.944 20.7446L204.961 20.7591L205.281 20.375ZM214.562 20.375L214.209 20.0214L214.562 20.375ZM214.562 10.4375L214.178 10.7576L214.193 10.775L214.209 10.7911L214.562 10.4375ZM218.375 0.5C218.4 0.5 218.421 0.503509 218.459 0.541053L219.166 -0.166053C218.954 -0.378509 218.683 -0.5 218.375 -0.5V0.5ZM218.492 0.571611C218.498 0.576573 218.501 0.579403 218.501 0.579639C218.501 0.579759 218.5 0.578651 218.499 0.576717C218.498 0.574808 218.498 0.574191 218.499 0.575912C218.499 0.577795 218.5 0.583408 218.5 0.59375H219.5C219.5 0.282856 219.375 0.00518623 219.133 -0.196611L218.492 0.571611ZM218.5 0.59375V24.1562H219.5V0.59375H218.5ZM218.5 24.1562C218.5 24.1816 218.496 24.2027 218.459 24.2402L219.166 24.9473C219.379 24.7348 219.5 24.4642 219.5 24.1562H218.5ZM218.492 24.2096C218.46 24.237 218.428 24.25 218.375 24.25V25.25C218.656 25.25 218.915 25.1589 219.133 24.9779L218.492 24.2096ZM218.375 24.25H203.906V25.25H218.375V24.25ZM203.906 24.25C203.204 24.25 202.609 24.0094 202.097 23.5153L201.403 24.2347C202.099 24.9073 202.942 25.25 203.906 25.25V24.25ZM202.104 23.5214C201.615 23.0329 201.375 22.4522 201.375 21.75H200.375C200.375 22.7144 200.718 23.5504 201.396 24.2286L202.104 23.5214ZM201.375 21.75V9.0625H200.375V21.75H201.375ZM201.375 9.0625C201.375 8.36026 201.615 7.77955 202.104 7.29105L201.396 6.58395C200.718 7.26211 200.375 8.09807 200.375 9.0625H201.375ZM202.104 7.29105C202.617 6.778 203.209 6.53125 203.906 6.53125V5.53125C202.937 5.53125 202.092 5.88867 201.396 6.58395L202.104 7.29105ZM203.906 6.53125H214.156V5.53125H203.906V6.53125ZM214.156 6.53125C214.437 6.53125 214.705 6.43911 214.916 6.22855L214.209 5.52145C214.207 5.52375 214.205 5.52449 214.205 5.52455C214.205 5.5246 214.205 5.52493 214.203 5.52551C214.201 5.52651 214.187 5.53125 214.156 5.53125V6.53125ZM214.916 6.22855C215.129 6.0161 215.25 5.74544 215.25 5.4375H214.25C214.25 5.46289 214.246 5.4839 214.209 5.52145L214.916 6.22855ZM215.25 5.4375V0.59375H214.25V5.4375H215.25ZM215.25 0.59375C215.25 0.583408 215.251 0.577795 215.251 0.575912C215.252 0.574191 215.252 0.574808 215.251 0.576717C215.25 0.578651 215.249 0.579759 215.249 0.579639C215.249 0.579403 215.252 0.576573 215.258 0.571611L214.617 -0.196611C214.375 0.00518623 214.25 0.282856 214.25 0.59375H215.25ZM215.291 0.541053C215.329 0.503509 215.35 0.5 215.375 0.5V-0.5C215.067 -0.5 214.796 -0.378509 214.584 -0.166053L215.291 0.541053ZM215.375 0.5H218.375V-0.5H215.375V0.5ZM204.594 19.9375C204.594 20.2454 204.715 20.5161 204.928 20.7286L205.635 20.0214C205.597 19.9839 205.594 19.9629 205.594 19.9375H204.594ZM204.961 20.7591C205.178 20.9401 205.438 21.0312 205.719 21.0312V20.0312C205.666 20.0312 205.634 20.0182 205.601 19.9909L204.961 20.7591ZM205.719 21.0312H214.156V20.0312H205.719V21.0312ZM214.156 21.0312C214.437 21.0312 214.705 20.9391 214.916 20.7286L214.209 20.0214C214.207 20.0237 214.205 20.0245 214.205 20.0246C214.205 20.0246 214.205 20.0249 214.203 20.0255C214.201 20.0265 214.187 20.0312 214.156 20.0312V21.0312ZM214.916 20.7286C215.129 20.5161 215.25 20.2454 215.25 19.9375H214.25C214.25 19.9629 214.246 19.9839 214.209 20.0214L214.916 20.7286ZM215.25 19.9375V10.875H214.25V19.9375H215.25ZM215.25 10.875C215.25 10.5671 215.129 10.2964 214.916 10.0839L214.209 10.7911C214.246 10.8286 214.25 10.8496 214.25 10.875H215.25ZM214.947 10.1174C214.745 9.87525 214.467 9.75 214.156 9.75V10.75C214.167 10.75 214.172 10.751 214.174 10.7513C214.176 10.7517 214.175 10.7517 214.173 10.7509C214.171 10.75 214.17 10.7491 214.17 10.7492C214.171 10.7494 214.173 10.7516 214.178 10.7576L214.947 10.1174ZM214.156 9.75H205.719V10.75H214.156V9.75ZM205.719 9.75C205.411 9.75 205.14 9.87149 204.928 10.0839L205.635 10.7911C205.672 10.7535 205.693 10.75 205.719 10.75V9.75ZM204.928 10.0839C204.715 10.2964 204.594 10.5671 204.594 10.875H205.594C205.594 10.8496 205.597 10.8286 205.635 10.7911L204.928 10.0839ZM204.594 10.875V19.9375H205.594V10.875H204.594Z"
        fill="#998000" />
</svg>