<svg width="198" height="108" viewBox="0 0 198 108" fill="none" xmlns="http://www.w3.org/2000/svg">
    <path d="M0 54L86 54" stroke="#A3E7F5" stroke-opacity="0.9" stroke-width="3" />
    <path
        d="M23.3652 9.90234C24.5137 9.90234 25.4863 10.3008 26.2832 11.0977C27.0801 11.8945 27.4785 12.8555 27.4785 13.9805V38.5195C27.4785 39.6445 27.0801 40.6055 26.2832 41.4023C25.4863 42.1992 24.5137 42.5977 23.3652 42.5977H7.01758C5.89258 42.5977 4.93164 42.1992 4.13477 41.4023C3.33789 40.6055 2.93945 39.6445 2.93945 38.5195V13.9805C2.93945 12.8555 3.33789 11.8945 4.13477 11.0977C4.93164 10.3008 5.89258 9.90234 7.01758 9.90234H23.3652ZM8.63477 16.4414V36.0586C8.63477 36.293 8.7168 36.4922 8.88086 36.6562C9.04492 36.8203 9.24414 36.9023 9.47852 36.9023H20.9395C21.1504 36.9023 21.3379 36.8203 21.502 36.6562C21.666 36.4922 21.748 36.293 21.748 36.0586V16.4414C21.748 16.207 21.666 16.0078 21.502 15.8438C21.3379 15.6797 21.1504 15.5977 20.9395 15.5977H9.47852C9.24414 15.5977 9.04492 15.6797 8.88086 15.8438C8.7168 16.0078 8.63477 16.207 8.63477 16.4414ZM55.2871 37.7109V41.7891C55.2871 42.0234 55.2051 42.2109 55.041 42.3516C54.877 42.5156 54.6777 42.5977 54.4434 42.5977H31.5566C31.3223 42.5977 31.123 42.5156 30.959 42.3516C30.8184 42.2109 30.748 42.0234 30.748 41.7891V27.9023C30.748 26.7539 31.1465 25.7812 31.9434 24.9844C32.7402 24.1875 33.7012 23.7891 34.8262 23.7891H48.748C48.959 23.7891 49.1465 23.7188 49.3105 23.5781C49.4746 23.4141 49.5566 23.2148 49.5566 22.9805V16.4414C49.5566 16.207 49.4746 16.0078 49.3105 15.8438C49.1465 15.6797 48.959 15.5977 48.748 15.5977H31.5566C31.3223 15.5977 31.123 15.5273 30.959 15.3867C30.8184 15.2227 30.748 15.0234 30.748 14.7891V10.7109C30.748 10.4766 30.8184 10.2891 30.959 10.1484C31.123 9.98438 31.3223 9.90234 31.5566 9.90234H51.1738C52.3223 9.90234 53.2949 10.3008 54.0918 11.0977C54.8887 11.8945 55.2871 12.8555 55.2871 13.9805V24.5977C55.2871 25.7461 54.8887 26.7188 54.0918 27.5156C53.2949 28.3125 52.3223 28.7109 51.1738 28.7109H37.2871C37.0527 28.7109 36.8535 28.793 36.6895 28.957C36.5254 29.0977 36.4434 29.2852 36.4434 29.5195V36.0586C36.4434 36.293 36.5254 36.4922 36.6895 36.6562C36.8535 36.8203 37.0527 36.9023 37.2871 36.9023H54.4434C54.6777 36.9023 54.877 36.9844 55.041 37.1484C55.2051 37.2891 55.2871 37.4766 55.2871 37.7109ZM78.9824 9.90234C80.1309 9.90234 81.1035 10.3008 81.9004 11.0977C82.6973 11.8945 83.0957 12.8555 83.0957 13.9805V38.5195C83.0957 39.6445 82.6973 40.6055 81.9004 41.4023C81.1035 42.1992 80.1309 42.5977 78.9824 42.5977H59.3652C59.1309 42.5977 58.9316 42.5156 58.7676 42.3516C58.627 42.2109 58.5566 42.0234 58.5566 41.7891V37.7109C58.5566 37.4766 58.627 37.2891 58.7676 37.1484C58.9316 36.9844 59.1309 36.9023 59.3652 36.9023H76.5566C76.7676 36.9023 76.9551 36.8203 77.1191 36.6562C77.2832 36.4922 77.3652 36.293 77.3652 36.0586V29.5195C77.3652 29.2852 77.2832 29.0977 77.1191 28.957C76.9551 28.793 76.7676 28.7109 76.5566 28.7109H62.6348C61.5098 28.7109 60.5488 28.3125 59.752 27.5156C58.9551 26.7188 58.5566 25.7461 58.5566 24.5977V13.9805C58.5566 12.8555 58.9551 11.8945 59.752 11.0977C60.5488 10.3008 61.5098 9.90234 62.6348 9.90234H78.9824ZM77.3652 22.9805V16.4414C77.3652 16.207 77.2832 16.0078 77.1191 15.8438C76.9551 15.6797 76.7676 15.5977 76.5566 15.5977H65.0957C64.8613 15.5977 64.6621 15.6797 64.498 15.8438C64.334 16.0078 64.252 16.207 64.252 16.4414V22.9805C64.252 23.2148 64.334 23.4141 64.498 23.5781C64.6621 23.7188 64.8613 23.7891 65.0957 23.7891H76.5566C76.7676 23.7891 76.9551 23.7188 77.1191 23.5781C77.2832 23.4141 77.3652 23.2148 77.3652 22.9805Z"
        fill="#A3E7F5" fill-opacity="0.9" />
    <path
        d="M23.3652 65.9023C24.5137 65.9023 25.4863 66.3008 26.2832 67.0977C27.0801 67.8945 27.4785 68.8555 27.4785 69.9805V94.5195C27.4785 95.6445 27.0801 96.6055 26.2832 97.4023C25.4863 98.1992 24.5137 98.5977 23.3652 98.5977H7.01758C5.89258 98.5977 4.93164 98.1992 4.13477 97.4023C3.33789 96.6055 2.93945 95.6445 2.93945 94.5195V69.9805C2.93945 68.8555 3.33789 67.8945 4.13477 67.0977C4.93164 66.3008 5.89258 65.9023 7.01758 65.9023H23.3652ZM8.63477 72.4414V92.0586C8.63477 92.293 8.7168 92.4922 8.88086 92.6562C9.04492 92.8203 9.24414 92.9023 9.47852 92.9023H20.9395C21.1504 92.9023 21.3379 92.8203 21.502 92.6562C21.666 92.4922 21.748 92.293 21.748 92.0586V72.4414C21.748 72.207 21.666 72.0078 21.502 71.8438C21.3379 71.6797 21.1504 71.5977 20.9395 71.5977H9.47852C9.24414 71.5977 9.04492 71.6797 8.88086 71.8438C8.7168 72.0078 8.63477 72.207 8.63477 72.4414ZM55.2871 93.7109V97.7891C55.2871 98.0234 55.2051 98.2109 55.041 98.3516C54.877 98.5156 54.6777 98.5977 54.4434 98.5977H31.5566C31.3223 98.5977 31.123 98.5156 30.959 98.3516C30.8184 98.2109 30.748 98.0234 30.748 97.7891V83.9023C30.748 82.7539 31.1465 81.7812 31.9434 80.9844C32.7402 80.1875 33.7012 79.7891 34.8262 79.7891H48.748C48.959 79.7891 49.1465 79.7188 49.3105 79.5781C49.4746 79.4141 49.5566 79.2148 49.5566 78.9805V72.4414C49.5566 72.207 49.4746 72.0078 49.3105 71.8438C49.1465 71.6797 48.959 71.5977 48.748 71.5977H31.5566C31.3223 71.5977 31.123 71.5273 30.959 71.3867C30.8184 71.2227 30.748 71.0234 30.748 70.7891V66.7109C30.748 66.4766 30.8184 66.2891 30.959 66.1484C31.123 65.9844 31.3223 65.9023 31.5566 65.9023H51.1738C52.3223 65.9023 53.2949 66.3008 54.0918 67.0977C54.8887 67.8945 55.2871 68.8555 55.2871 69.9805V80.5977C55.2871 81.7461 54.8887 82.7188 54.0918 83.5156C53.2949 84.3125 52.3223 84.7109 51.1738 84.7109H37.2871C37.0527 84.7109 36.8535 84.793 36.6895 84.957C36.5254 85.0977 36.4434 85.2852 36.4434 85.5195V92.0586C36.4434 92.293 36.5254 92.4922 36.6895 92.6562C36.8535 92.8203 37.0527 92.9023 37.2871 92.9023H54.4434C54.6777 92.9023 54.877 92.9844 55.041 93.1484C55.2051 93.2891 55.2871 93.4766 55.2871 93.7109ZM78.9824 65.9023C80.1309 65.9023 81.1035 66.3008 81.9004 67.0977C82.6973 67.8945 83.0957 68.8555 83.0957 69.9805V94.5195C83.0957 95.6445 82.6973 96.6055 81.9004 97.4023C81.1035 98.1992 80.1309 98.5977 78.9824 98.5977H59.3652C59.1309 98.5977 58.9316 98.5156 58.7676 98.3516C58.627 98.2109 58.5566 98.0234 58.5566 97.7891V93.7109C58.5566 93.4766 58.627 93.2891 58.7676 93.1484C58.9316 92.9844 59.1309 92.9023 59.3652 92.9023H76.5566C76.7676 92.9023 76.9551 92.8203 77.1191 92.6562C77.2832 92.4922 77.3652 92.293 77.3652 92.0586V85.5195C77.3652 85.2852 77.2832 85.0977 77.1191 84.957C76.9551 84.793 76.7676 84.7109 76.5566 84.7109H62.6348C61.5098 84.7109 60.5488 84.3125 59.752 83.5156C58.9551 82.7188 58.5566 81.7461 58.5566 80.5977V69.9805C58.5566 68.8555 58.9551 67.8945 59.752 67.0977C60.5488 66.3008 61.5098 65.9023 62.6348 65.9023H78.9824ZM77.3652 78.9805V72.4414C77.3652 72.207 77.2832 72.0078 77.1191 71.8438C76.9551 71.6797 76.7676 71.5977 76.5566 71.5977H65.0957C64.8613 71.5977 64.6621 71.6797 64.498 71.8438C64.334 72.0078 64.252 72.207 64.252 72.4414V78.9805C64.252 79.2148 64.334 79.4141 64.498 79.5781C64.6621 79.7188 64.8613 79.7891 65.0957 79.7891H76.5566C76.7676 79.7891 76.9551 79.7188 77.1191 79.5781C77.2832 79.4141 77.3652 79.2148 77.3652 78.9805Z"
        fill="#A3E7F5" fill-opacity="0.9" />
    <path d="M185.5 44V47.843L193.19 54L185.5 60.156V64L198 54L185.5 44Z" fill="#5999A6" fill-opacity="0.8" />
    <path d="M185.5 51.686L188.39 54L185.5 56.314V51.686Z" fill="#5999A6" fill-opacity="0.8" />
    <path
        d="M107 89L114 96H170L177 89M107 19L114 12H170L177 19M179.5 88C179.5 88.8284 178.828 89.5 178 89.5C177.172 89.5 176.5 88.8284 176.5 88C176.5 87.1716 177.172 86.5 178 86.5C178.828 86.5 179.5 87.1716 179.5 88ZM179.5 20C179.5 20.8284 178.828 21.5 178 21.5C177.172 21.5 176.5 20.8284 176.5 20C176.5 19.1716 177.172 18.5 178 18.5C178.828 18.5 179.5 19.1716 179.5 20ZM107.5 88C107.5 88.8284 106.828 89.5 106 89.5C105.172 89.5 104.5 88.8284 104.5 88C104.5 87.1716 105.172 86.5 106 86.5C106.828 86.5 107.5 87.1716 107.5 88ZM107.5 20C107.5 20.8284 106.828 21.5 106 21.5C105.172 21.5 104.5 20.8284 104.5 20C104.5 19.1716 105.172 18.5 106 18.5C106.828 18.5 107.5 19.1716 107.5 20Z"
        stroke="#5999A6" stroke-opacity="0.8" />
    <path d="M142 27C137.029 27 133 31.0294 133 36V45H151V36C151 31.0294 146.971 27 142 27Z" fill="#A3E7F5"
        fill-opacity="0.9" />
    <path d="M134 48V62H150V48H134Z" fill="#A3E7F5" fill-opacity="0.9" />
    <path d="M121 76V81H129V68L121 76Z" fill="#A3E7F5" fill-opacity="0.9" />
    <path d="M163 76V81H155V68L163 76Z" fill="#A3E7F5" fill-opacity="0.9" />
    <path d="M132 65V81H140V69H144V81H152V65H132Z" fill="#A3E7F5" fill-opacity="0.9" />
</svg>