<svg width="730" height="618" viewBox="0 0 730 618" fill="none" xmlns="http://www.w3.org/2000/svg">
    <path
        d="M162 578H305L317.485 590.485C319.736 592.736 322.788 594 325.971 594H361V606H221L209 618H145.914C142.838 618 140.913 614.673 142.446 612.006L162 578Z"
        fill="#80D5FF" fill-opacity="0.1" />
    <path
        d="M325.971 594.5H360.5V605.5H221H220.793L220.646 605.646L208.793 617.5H145.914C143.223 617.5 141.538 614.589 142.88 612.255L162.289 578.5H304.793L317.132 590.839C319.476 593.183 322.655 594.5 325.971 594.5Z"
        stroke="#9DDEFF" stroke-opacity="0.4" />
    <path
        d="M261 0H321L335 15H361V45H337L313.343 21.3431C311.843 19.8429 309.808 19 307.686 19H285.595C282.75 19 280.118 20.5113 278.685 22.969L274 31H244L261 0Z"
        fill="#80D5FF" fill-opacity="0.1" />
    <path
        d="M334.634 15.3412L334.783 15.5H335H360.5V44.5H337.207L313.697 20.9896C312.103 19.3955 309.941 18.5 307.686 18.5H285.595C282.572 18.5 279.776 20.1057 278.253 22.7171L273.713 30.5H244.844L261.296 0.5H320.783L334.634 15.3412Z"
        stroke="#9DDEFF" stroke-opacity="0.4" />
    <path
        d="M469 0H409L395 15H369V45H393L416.657 21.3431C418.157 19.8429 420.192 19 422.314 19H444.405C447.25 19 449.882 20.5113 451.315 22.969L456 31H486L469 0Z"
        fill="#80D5FF" fill-opacity="0.1" />
    <path
        d="M395.366 15.3412L395.217 15.5H395H369.5V44.5H392.793L416.303 20.9896C417.897 19.3955 420.059 18.5 422.314 18.5H444.405C447.428 18.5 450.224 20.1057 451.747 22.7171L456.287 30.5H485.156L468.704 0.5H409.217L395.366 15.3412Z"
        stroke="#9DDEFF" stroke-opacity="0.4" />
    <path
        d="M70 527L76.5988 538.218C78.5135 541.473 82.6222 542.689 86 541V541L109.703 582.936C111.122 585.447 113.783 587 116.668 587H147L130 618H99.5992C96.7516 618 94.1186 616.486 92.6857 614.026L49 539L70 527Z"
        fill="#80D5FF" fill-opacity="0.1" />
    <path
        d="M49.6857 539.184L69.8194 527.679L76.1678 538.471C78.1349 541.815 82.2667 543.147 85.7914 541.647L109.268 583.182C110.776 585.85 113.603 587.5 116.668 587.5H146.156L129.704 617.5H99.5992C96.9295 617.5 94.4612 616.081 93.1178 613.774L49.6857 539.184Z"
        stroke="#9DDEFF" stroke-opacity="0.4" />
    <path
        d="M660 527L653.401 538.218C651.486 541.473 647.378 542.689 644 541V541L620.297 582.936C618.878 585.447 616.217 587 613.332 587H583L600 618H630.401C633.248 618 635.881 616.486 637.314 614.026L681 539L660 527Z"
        fill="#80D5FF" fill-opacity="0.1" />
    <path
        d="M680.314 539.184L660.181 527.679L653.832 538.471C651.865 541.815 647.733 543.147 644.209 541.647L620.732 583.182C619.224 585.85 616.397 587.5 613.332 587.5H583.844L600.296 617.5H630.401C633.07 617.5 635.539 616.081 636.882 613.774L680.314 539.184Z"
        stroke="#9DDEFF" stroke-opacity="0.4" />
    <path
        d="M66 520L59.9959 508.659C58.2578 505.376 59.0992 501.321 62 499V499L37.3357 456.979C35.8902 454.517 35.867 451.47 37.2748 448.986L52 423H17L2.24081 449.046C0.851239 451.498 0.854594 454.5 2.24964 456.949L45 532L66 520Z"
        fill="#80D5FF" fill-opacity="0.1" />
    <path
        d="M59.554 508.893L65.3316 519.806L45.1866 531.317L2.68409 456.702C1.37624 454.406 1.3731 451.591 2.67582 449.292L17.2914 423.5H51.142L36.8398 448.739C35.344 451.379 35.3686 454.616 36.9045 457.232L61.3555 498.89C58.5371 501.397 57.7717 505.526 59.554 508.893Z"
        stroke="#9DDEFF" stroke-opacity="0.4" />
    <path
        d="M664 520L670.004 508.659C671.742 505.376 670.901 501.321 668 499V499L692.664 456.979C694.11 454.517 694.133 451.47 692.725 448.986L678 423H713L727.759 449.046C729.149 451.498 729.145 454.5 727.75 456.949L685 532L664 520Z"
        fill="#80D5FF" fill-opacity="0.1" />
    <path
        d="M670.446 508.893L664.668 519.806L684.813 531.317L727.316 456.702C728.624 454.406 728.627 451.591 727.324 449.292L712.709 423.5H678.858L693.16 448.739C694.656 451.379 694.631 454.616 693.096 457.232L668.644 498.89C671.463 501.397 672.228 505.526 670.446 508.893Z"
        stroke="#9DDEFF" stroke-opacity="0.4" />
    <path
        d="M568 578H425L412.515 590.485C410.264 592.736 407.212 594 404.029 594H369V606H509L521 618H584.086C587.162 618 589.087 614.673 587.554 612.006L568 578Z"
        fill="#80D5FF" fill-opacity="0.1" />
    <path
        d="M404.029 594.5H369.5V605.5H509H509.207L509.354 605.646L521.207 617.5H584.086C586.777 617.5 588.462 614.589 587.12 612.255L567.711 578.5H425.207L412.868 590.839C410.524 593.183 407.345 594.5 404.029 594.5Z"
        stroke="#9DDEFF" stroke-opacity="0.4" />
</svg>