<svg width="80" height="80" viewBox="0 0 80 80" fill="none" xmlns="http://www.w3.org/2000/svg">
    <path fill-rule="evenodd" clip-rule="evenodd"
        d="M71 1H9L1 9V71L9 79H71L79 71V9L71 1ZM20.2258 13H67.7742L75 20V68L67.7742 75H20.2258L13 68V20L20.2258 13Z"
        fill="#33B3CC" fill-opacity="0.5" />
    <path d="M67.7742 13H20.2258L13 20V68L20.2258 75H67.7742L75 68V20L67.7742 13Z" fill="#33B3CC" fill-opacity="0.5" />
    <path
        d="M9 1H71M9 1L1 9M9 1L20.2258 13M71 1L79 9M71 1L67.7742 13M79 71V9M79 71L71 79M79 71L75 68M1 71V9M1 71L9 79M1 71L13 68M1 9L13 20M79 9L75 20M9 79H71M9 79L20.2258 75M71 79L67.7742 75M20.2258 13H67.7742M20.2258 13L13 20M67.7742 13L75 20M75 68V20M75 68L67.7742 75M13 68V20M13 68L20.2258 75M20.2258 75H67.7742"
        stroke="#33B3CC" stroke-opacity="0.75" stroke-width="2" />
</svg>