<svg width="1920" height="1080" viewBox="0 0 1920 1080" fill="none" xmlns="http://www.w3.org/2000/svg">
<path d="M573 745H586L623 810L617 821L573 745Z" fill="#80D5FF" fill-opacity="0.1"/>
<path d="M622.428 810.005L616.987 819.98L573.867 745.5H585.709L622.428 810.005Z" stroke="#9DDEFF" stroke-opacity="0.4"/>
<path d="M1347 745H1334L1297 810L1303 821L1347 745Z" fill="#80D5FF" fill-opacity="0.1"/>
<path d="M1297.57 810.005L1303.01 819.98L1346.13 745.5H1334.29L1297.57 810.005Z" stroke="#9DDEFF" stroke-opacity="0.4"/>
<path d="M568 720L583 693L667 838H636L629 825L637 810L592 733H576L568 720Z" fill="#80D5FF" fill-opacity="0.1"/>
<path d="M592.432 732.748L592.287 732.5H592H576.279L568.579 719.987L583.009 694.013L666.132 837.5H636.299L629.567 824.999L637.441 810.235L637.573 809.989L637.432 809.748L592.432 732.748Z" stroke="#9DDEFF" stroke-opacity="0.4"/>
<path d="M1352 720L1337 693L1253 838H1284L1291 825L1283 810L1328 733H1344L1352 720Z" fill="#80D5FF" fill-opacity="0.1"/>
<path d="M1327.57 732.748L1327.71 732.5H1328H1343.72L1351.42 719.987L1336.99 694.013L1253.87 837.5H1283.7L1290.43 824.999L1282.56 810.235L1282.43 809.989L1282.57 809.748L1327.57 732.748Z" stroke="#9DDEFF" stroke-opacity="0.4"/>
</svg>
