<svg width="266" height="66" viewBox="0 0 266 66" fill="none" xmlns="http://www.w3.org/2000/svg">
    <path d="M255 31L251 38L258 56L239 59L235 66L266 61L255 31Z" fill="#E5901A" fill-opacity="0.8" />
    <path d="M247 44L250 51L243 52L247 44Z" fill="#E5901A" fill-opacity="0.8" />
    <path d="M208 4V0L220 8V44L208 52V48L217 42V10L208 4Z" fill="#E5901A" fill-opacity="0.8" />
    <path d="M196 4V0L184 8V44L196 52V48L187 42V10L196 4Z" fill="#E5901A" fill-opacity="0.8" />
    <path
        d="M199.082 37.3594L200.84 35.6016C201.168 35.2734 201.555 35.1094 202 35.1094C202.445 35.1094 202.832 35.2734 203.16 35.6016L204.953 37.3594C205.258 37.6875 205.41 38.0742 205.41 38.5195C205.41 38.9648 205.258 39.3516 204.953 39.6797L203.16 41.4727C202.832 41.7773 202.445 41.9297 202 41.9297C201.555 41.9297 201.168 41.7773 200.84 41.4727L199.082 39.6797C198.754 39.3516 198.59 38.9648 198.59 38.5195C198.59 38.0742 198.754 37.6875 199.082 37.3594ZM206.852 10.7812L205.34 30.3984C205.316 30.6094 205.223 30.7969 205.059 30.9609C204.918 31.1016 204.742 31.1719 204.531 31.1719H199.504C199.293 31.1719 199.105 31.1016 198.941 30.9609C198.777 30.7969 198.684 30.6094 198.66 30.3984L197.148 10.7812C197.148 10.5234 197.23 10.3125 197.395 10.1484C197.559 9.98438 197.758 9.90234 197.992 9.90234H206.043C206.277 9.90234 206.477 9.98438 206.641 10.1484C206.805 10.3125 206.875 10.5234 206.852 10.7812Z"
        fill="#E5901A" fill-opacity="0.8" />
    <path d="M215 1L223 6V15M189 1L181 6V15M215 51L223 46V37M189 51L181 46V37" stroke="#E5901A" stroke-opacity="0.4" />
    <path
        d="M48.1562 32.25C48.1562 33.0833 47.8542 33.7917 47.25 34.375C46.6667 34.9583 45.9583 35.25 45.125 35.25H21.5938C20.7604 35.25 20.0417 34.9583 19.4375 34.375C18.8542 33.7917 18.5625 33.0833 18.5625 32.25V11.0938C18.5625 10.9271 18.6146 10.7917 18.7188 10.6875C18.8438 10.5625 18.9896 10.5 19.1562 10.5H22.1875C22.3542 10.5 22.4896 10.5625 22.5938 10.6875C22.7188 10.7917 22.7812 10.9271 22.7812 11.0938V30.4375C22.7812 30.6042 22.8438 30.75 22.9688 30.875C23.0938 30.9792 23.2396 31.0312 23.4062 31.0312H30.6562C30.8229 31.0312 30.9583 30.9792 31.0625 30.875C31.1875 30.75 31.25 30.6042 31.25 30.4375V11.0938C31.25 10.9271 31.3125 10.7917 31.4375 10.6875C31.5625 10.5625 31.7083 10.5 31.875 10.5H34.9375C35.1042 10.5 35.2396 10.5625 35.3438 10.6875C35.4688 10.7917 35.5312 10.9271 35.5312 11.0938V30.4375C35.5312 30.6042 35.5833 30.75 35.6875 30.875C35.8125 30.9792 35.9583 31.0312 36.125 31.0312H43.3125C43.4792 31.0312 43.6146 30.9792 43.7188 30.875C43.8438 30.75 43.9062 30.6042 43.9062 30.4375V11.0938C43.9062 10.9271 43.9688 10.7917 44.0938 10.6875C44.2188 10.5625 44.3646 10.5 44.5312 10.5H47.5312C47.6979 10.5 47.8438 10.5625 47.9688 10.6875C48.0938 10.7917 48.1562 10.9271 48.1562 11.0938V32.25ZM65.25 16.5312C66.0833 16.5312 66.7917 16.8333 67.375 17.4375C67.9792 18.0208 68.2812 18.7292 68.2812 19.5625V34.6562C68.2812 34.8229 68.2188 34.9688 68.0938 35.0938C67.9688 35.1979 67.8229 35.25 67.6562 35.25H53.1875C52.3542 35.25 51.6354 34.9583 51.0312 34.375C50.4479 33.7917 50.1562 33.0833 50.1562 32.25V26.8125C50.1562 25.9792 50.4479 25.2708 51.0312 24.6875C51.6354 24.0833 52.3542 23.7812 53.1875 23.7812H63.4375C63.6042 23.7812 63.7396 23.7292 63.8438 23.625C63.9688 23.5 64.0312 23.3542 64.0312 23.1875V21.375C64.0312 21.2083 63.9688 21.0625 63.8438 20.9375C63.7396 20.8125 63.6042 20.75 63.4375 20.75H51.9688C51.8021 20.75 51.6562 20.6979 51.5312 20.5938C51.4271 20.4688 51.375 20.3229 51.375 20.1562V17.1562C51.375 16.9896 51.4271 16.8438 51.5312 16.7188C51.6562 16.5938 51.8021 16.5312 51.9688 16.5312H65.25ZM54.375 30.4375C54.375 30.6042 54.4375 30.75 54.5625 30.875C54.6875 30.9792 54.8333 31.0312 55 31.0312H63.4375C63.6042 31.0312 63.7396 30.9792 63.8438 30.875C63.9688 30.75 64.0312 30.6042 64.0312 30.4375V28.625C64.0312 28.4583 63.9688 28.3125 63.8438 28.1875C63.7396 28.0625 63.6042 28 63.4375 28H55C54.8333 28 54.6875 28.0625 54.5625 28.1875C54.4375 28.3125 54.375 28.4583 54.375 28.625V30.4375ZM75.125 20.75C74.9583 20.75 74.8125 20.8125 74.6875 20.9375C74.5625 21.0625 74.5 21.2083 74.5 21.375V34.6562C74.5 34.8229 74.4375 34.9688 74.3125 35.0938C74.2083 35.1979 74.0729 35.25 73.9062 35.25H70.875C70.7083 35.25 70.5625 35.1979 70.4375 35.0938C70.3333 34.9688 70.2812 34.8229 70.2812 34.6562V17.1562C70.2812 16.9896 70.3333 16.8438 70.4375 16.7188C70.5625 16.5938 70.7083 16.5312 70.875 16.5312H85.375C86.2083 16.5312 86.9167 16.8333 87.5 17.4375C88.1042 18.0208 88.4062 18.7292 88.4062 19.5625V22.5625C88.4062 22.7292 88.3438 22.875 88.2188 23C88.0938 23.125 87.9479 23.1875 87.7812 23.1875H84.7812C84.6146 23.1875 84.4688 23.125 84.3438 23C84.2188 22.875 84.1562 22.7292 84.1562 22.5625V21.375C84.1562 21.2083 84.0938 21.0625 83.9688 20.9375C83.8646 20.8125 83.7292 20.75 83.5625 20.75H75.125ZM95.25 20.75C95.0833 20.75 94.9375 20.8125 94.8125 20.9375C94.6875 21.0625 94.625 21.2083 94.625 21.375V34.6562C94.625 34.8229 94.5625 34.9688 94.4375 35.0938C94.3333 35.1979 94.1979 35.25 94.0312 35.25H91C90.8333 35.25 90.6875 35.1979 90.5625 35.0938C90.4583 34.9688 90.4062 34.8229 90.4062 34.6562V19.5625C90.4062 18.7292 90.6979 18.0208 91.2812 17.4375C91.8854 16.8333 92.6042 16.5312 93.4375 16.5312H105.5C106.333 16.5312 107.042 16.8333 107.625 17.4375C108.229 18.0208 108.531 18.7292 108.531 19.5625V34.6562C108.531 34.8229 108.469 34.9688 108.344 35.0938C108.219 35.1979 108.073 35.25 107.906 35.25H104.906C104.74 35.25 104.594 35.1979 104.469 35.0938C104.344 34.9688 104.281 34.8229 104.281 34.6562V21.375C104.281 21.2083 104.219 21.0625 104.094 20.9375C103.99 20.8125 103.854 20.75 103.688 20.75H95.25ZM110.531 11.0938C110.531 10.9271 110.583 10.7917 110.688 10.6875C110.812 10.5625 110.958 10.5 111.125 10.5H114.156C114.323 10.5 114.458 10.5625 114.562 10.6875C114.688 10.7917 114.75 10.9271 114.75 11.0938V14.125C114.75 14.2917 114.688 14.4375 114.562 14.5625C114.458 14.6667 114.323 14.7188 114.156 14.7188H111.125C110.958 14.7188 110.812 14.6667 110.688 14.5625C110.583 14.4375 110.531 14.2917 110.531 14.125V11.0938ZM114.156 16.5312C114.323 16.5312 114.458 16.5938 114.562 16.7188C114.688 16.8438 114.75 16.9896 114.75 17.1562V34.6562C114.75 34.8229 114.688 34.9688 114.562 35.0938C114.458 35.1979 114.323 35.25 114.156 35.25H111.125C110.958 35.25 110.812 35.1979 110.688 35.0938C110.583 34.9688 110.531 34.8229 110.531 34.6562V17.1562C110.531 16.9896 110.583 16.8438 110.688 16.7188C110.812 16.5938 110.958 16.5312 111.125 16.5312H114.156ZM121.594 20.75C121.427 20.75 121.281 20.8125 121.156 20.9375C121.031 21.0625 120.969 21.2083 120.969 21.375V34.6562C120.969 34.8229 120.906 34.9688 120.781 35.0938C120.677 35.1979 120.542 35.25 120.375 35.25H117.344C117.177 35.25 117.031 35.1979 116.906 35.0938C116.802 34.9688 116.75 34.8229 116.75 34.6562V19.5625C116.75 18.7292 117.042 18.0208 117.625 17.4375C118.229 16.8333 118.948 16.5312 119.781 16.5312H131.844C132.677 16.5312 133.385 16.8333 133.969 17.4375C134.573 18.0208 134.875 18.7292 134.875 19.5625V34.6562C134.875 34.8229 134.812 34.9688 134.688 35.0938C134.562 35.1979 134.417 35.25 134.25 35.25H131.25C131.083 35.25 130.938 35.1979 130.812 35.0938C130.688 34.9688 130.625 34.8229 130.625 34.6562V21.375C130.625 21.2083 130.562 21.0625 130.438 20.9375C130.333 20.8125 130.198 20.75 130.031 20.75H121.594ZM151.969 42.5H137.469C137.302 42.5 137.156 42.4375 137.031 42.3125C136.927 42.2083 136.875 42.0729 136.875 41.9062V38.875C136.875 38.7083 136.927 38.5625 137.031 38.4375C137.156 38.3333 137.302 38.2812 137.469 38.2812H150.156C150.323 38.2812 150.458 38.2188 150.562 38.0938C150.688 37.9688 150.75 37.8229 150.75 37.6562V35.8438C150.75 35.6771 150.688 35.5417 150.562 35.4375C150.458 35.3125 150.323 35.25 150.156 35.25H139.906C139.073 35.25 138.354 34.9583 137.75 34.375C137.167 33.7917 136.875 33.0833 136.875 32.25V19.5625C136.875 18.7292 137.167 18.0208 137.75 17.4375C138.354 16.8333 139.073 16.5312 139.906 16.5312H151.969C152.802 16.5312 153.51 16.8333 154.094 17.4375C154.698 18.0208 155 18.7292 155 19.5625V39.4688C155 40.3021 154.698 41.0104 154.094 41.5938C153.51 42.1979 152.802 42.5 151.969 42.5ZM141.094 30.4375C141.094 30.6042 141.156 30.75 141.281 30.875C141.406 30.9792 141.552 31.0312 141.719 31.0312H150.156C150.323 31.0312 150.458 30.9792 150.562 30.875C150.688 30.75 150.75 30.6042 150.75 30.4375V21.375C150.75 21.2083 150.688 21.0625 150.562 20.9375C150.458 20.8125 150.323 20.75 150.156 20.75H141.719C141.552 20.75 141.406 20.8125 141.281 20.9375C141.156 21.0625 141.094 21.2083 141.094 21.375V30.4375Z"
        fill="#E5631A" fill-opacity="0.8" />
    <path
        d="M47.25 34.375L46.9026 34.0152L46.8964 34.0214L47.25 34.375ZM19.4375 34.375L19.0839 34.7286L19.0902 34.7347L19.4375 34.375ZM18.7188 10.6875L18.3652 10.3339L18.7188 10.6875ZM22.5938 10.6875L22.2096 11.0076L22.2387 11.0425L22.2737 11.0716L22.5938 10.6875ZM22.9688 30.875L22.6152 31.2286L22.6312 31.2446L22.6487 31.2591L22.9688 30.875ZM31.0625 30.875L30.7089 30.5214L31.0625 30.875ZM31.4375 10.6875L31.7576 11.0716L31.775 11.0571L31.7911 11.0411L31.4375 10.6875ZM35.3438 10.6875L34.9596 11.0076L34.9887 11.0425L35.0237 11.0716L35.3438 10.6875ZM35.6875 30.875L35.3034 31.1951L35.3325 31.23L35.3674 31.2591L35.6875 30.875ZM43.7188 30.875L44.0723 31.2286L43.7188 30.875ZM44.0938 10.6875L44.4138 11.0716L44.4313 11.0571L44.4473 11.0411L44.0938 10.6875ZM47.9688 10.6875L47.6152 11.0411L47.6312 11.0571L47.6487 11.0716L47.9688 10.6875ZM47.6562 32.25C47.6562 32.9465 47.4101 33.5254 46.9027 34.0153L47.5973 34.7347C48.2982 34.058 48.6562 33.2202 48.6562 32.25H47.6562ZM46.8964 34.0214C46.4079 34.5099 45.8272 34.75 45.125 34.75V35.75C46.0894 35.75 46.9254 35.4067 47.6036 34.7286L46.8964 34.0214ZM45.125 34.75H21.5938V35.75H45.125V34.75ZM21.5938 34.75C20.8911 34.75 20.2966 34.5094 19.7848 34.0153L19.0902 34.7347C19.7868 35.4073 20.6297 35.75 21.5938 35.75V34.75ZM19.7911 34.0214C19.3026 33.5329 19.0625 32.9522 19.0625 32.25H18.0625C18.0625 33.2144 18.4058 34.0504 19.0839 34.7286L19.7911 34.0214ZM19.0625 32.25V11.0938H18.0625V32.25H19.0625ZM19.0625 11.0938C19.0625 11.0628 19.0672 11.0493 19.0682 11.0467C19.0688 11.0452 19.0691 11.0447 19.0692 11.0446C19.0693 11.0445 19.07 11.0434 19.0723 11.0411L18.3652 10.3339C18.1546 10.5445 18.0625 10.8135 18.0625 11.0938H19.0625ZM19.0723 11.0411C19.1098 11.0035 19.1309 11 19.1562 11V10C18.8483 10 18.5777 10.1215 18.3652 10.3339L19.0723 11.0411ZM19.1562 11H22.1875V10H19.1562V11ZM22.1875 11C22.1978 11 22.2035 11.001 22.2053 11.0013C22.2071 11.0017 22.2064 11.0017 22.2045 11.0009C22.2026 11 22.2015 10.9991 22.2016 10.9992C22.2018 10.9994 22.2047 11.0016 22.2096 11.0076L22.9779 10.3674C22.7761 10.1253 22.4984 10 22.1875 10V11ZM22.2737 11.0716C22.2796 11.0766 22.2818 11.0794 22.282 11.0796C22.2821 11.0798 22.2813 11.0787 22.2804 11.0767C22.2795 11.0748 22.2795 11.0742 22.2799 11.0759C22.2803 11.0778 22.2812 11.0834 22.2812 11.0938H23.2812C23.2812 10.7829 23.156 10.5052 22.9138 10.3034L22.2737 11.0716ZM22.2812 11.0938V30.4375H23.2812V11.0938H22.2812ZM22.2812 30.4375C22.2812 30.7454 22.4027 31.0161 22.6152 31.2286L23.3223 30.5214C23.2848 30.4839 23.2812 30.4629 23.2812 30.4375H22.2812ZM22.6487 31.2591C22.8659 31.4401 23.1257 31.5312 23.4062 31.5312V30.5312C23.3535 30.5312 23.3216 30.5182 23.2888 30.4909L22.6487 31.2591ZM23.4062 31.5312H30.6562V30.5312H23.4062V31.5312ZM30.6562 31.5312C30.9365 31.5312 31.2055 31.4391 31.4161 31.2286L30.7089 30.5214C30.7066 30.5237 30.7055 30.5245 30.7054 30.5246C30.7053 30.5246 30.7048 30.5249 30.7033 30.5255C30.7007 30.5265 30.6872 30.5312 30.6562 30.5312V31.5312ZM31.4161 31.2286C31.6285 31.0161 31.75 30.7454 31.75 30.4375H30.75C30.75 30.4629 30.7465 30.4839 30.7089 30.5214L31.4161 31.2286ZM31.75 30.4375V11.0938H30.75V30.4375H31.75ZM31.75 11.0938C31.75 11.0834 31.751 11.0778 31.7513 11.0759C31.7517 11.0742 31.7517 11.0748 31.7509 11.0767C31.75 11.0787 31.7491 11.0798 31.7492 11.0796C31.7494 11.0794 31.7516 11.0766 31.7576 11.0716L31.1174 10.3034C30.8753 10.5052 30.75 10.7829 30.75 11.0938H31.75ZM31.7911 11.0411C31.8286 11.0035 31.8496 11 31.875 11V10C31.5671 10 31.2964 10.1215 31.0839 10.3339L31.7911 11.0411ZM31.875 11H34.9375V10H31.875V11ZM34.9375 11C34.9478 11 34.9535 11.001 34.9553 11.0013C34.9571 11.0017 34.9564 11.0017 34.9545 11.0009C34.9526 11 34.9515 10.9991 34.9516 10.9992C34.9518 10.9994 34.9547 11.0016 34.9596 11.0076L35.7279 10.3674C35.5261 10.1253 35.2484 10 34.9375 10V11ZM35.0237 11.0716C35.0296 11.0766 35.0318 11.0794 35.032 11.0796C35.0321 11.0798 35.0313 11.0787 35.0304 11.0767C35.0295 11.0748 35.0295 11.0742 35.0299 11.0759C35.0303 11.0778 35.0312 11.0834 35.0312 11.0938H36.0312C36.0312 10.7829 35.906 10.5052 35.6638 10.3034L35.0237 11.0716ZM35.0312 11.0938V30.4375H36.0312V11.0938H35.0312ZM35.0312 30.4375C35.0312 30.718 35.1224 30.9779 35.3034 31.1951L36.0716 30.5549C36.0443 30.5221 36.0312 30.4903 36.0312 30.4375H35.0312ZM35.3674 31.2591C35.5846 31.4401 35.8445 31.5312 36.125 31.5312V30.5312C36.0722 30.5312 36.0404 30.5182 36.0076 30.4909L35.3674 31.2591ZM36.125 31.5312H43.3125V30.5312H36.125V31.5312ZM43.3125 31.5312C43.5928 31.5312 43.8617 31.4391 44.0723 31.2286L43.3652 30.5214C43.3629 30.5237 43.3617 30.5245 43.3616 30.5246C43.3616 30.5246 43.3611 30.5249 43.3596 30.5255C43.357 30.5265 43.3435 30.5312 43.3125 30.5312V31.5312ZM44.0723 31.2286C44.2848 31.0161 44.4062 30.7454 44.4062 30.4375H43.4062C43.4062 30.4629 43.4027 30.4839 43.3652 30.5214L44.0723 31.2286ZM44.4062 30.4375V11.0938H43.4062V30.4375H44.4062ZM44.4062 11.0938C44.4062 11.0834 44.4072 11.0778 44.4076 11.0759C44.408 11.0742 44.408 11.0748 44.4071 11.0767C44.4062 11.0787 44.4054 11.0798 44.4055 11.0796C44.4057 11.0794 44.4079 11.0766 44.4138 11.0716L43.7737 10.3034C43.5315 10.5052 43.4062 10.7829 43.4062 11.0938H44.4062ZM44.4473 11.0411C44.4848 11.0035 44.5059 11 44.5312 11V10C44.2233 10 43.9527 10.1215 43.7402 10.3339L44.4473 11.0411ZM44.5312 11H47.5312V10H44.5312V11ZM47.5312 11C47.5566 11 47.5777 11.0035 47.6152 11.0411L48.3223 10.3339C48.1098 10.1215 47.8392 10 47.5312 10V11ZM47.6487 11.0716C47.6546 11.0766 47.6568 11.0794 47.657 11.0796C47.6571 11.0798 47.6563 11.0787 47.6554 11.0767C47.6545 11.0748 47.6545 11.0742 47.6549 11.0759C47.6553 11.0778 47.6562 11.0834 47.6562 11.0938H48.6562C48.6562 10.7829 48.531 10.5052 48.2888 10.3034L47.6487 11.0716ZM47.6562 11.0938V32.25H48.6562V11.0938H47.6562ZM67.375 17.4375L67.0153 17.7848L67.0214 17.7911L67.0277 17.7972L67.375 17.4375ZM68.0938 35.0938L68.4138 35.4779L68.4313 35.4633L68.4473 35.4473L68.0938 35.0938ZM51.0312 34.375L50.6776 34.7286L50.684 34.7347L51.0312 34.375ZM51.0312 24.6875L50.6777 24.3339L51.0312 24.6875ZM63.8438 20.9375L63.4596 21.2576L63.4742 21.275L63.4902 21.2911L63.8438 20.9375ZM51.5312 20.5938L51.1471 20.9138L51.1762 20.9488L51.2112 20.9779L51.5312 20.5938ZM51.5312 16.7188L51.1777 16.3652L51.1617 16.3812L51.1471 16.3987L51.5312 16.7188ZM54.5625 30.875L54.2089 31.2286L54.225 31.2446L54.2424 31.2591L54.5625 30.875ZM63.8438 30.875L63.4902 30.5214L63.8438 30.875ZM63.8438 28.1875L63.4596 28.5076L63.4742 28.525L63.4902 28.5411L63.8438 28.1875ZM65.25 17.0312C65.9465 17.0312 66.5254 17.2774 67.0153 17.7848L67.7347 17.0902C67.058 16.3893 66.2202 16.0312 65.25 16.0312V17.0312ZM67.0277 17.7972C67.5351 18.2871 67.7812 18.866 67.7812 19.5625H68.7812C68.7812 18.5923 68.4232 17.7545 67.7223 17.0778L67.0277 17.7972ZM67.7812 19.5625V34.6562H68.7812V19.5625H67.7812ZM67.7812 34.6562C67.7812 34.6816 67.7777 34.7027 67.7402 34.7402L68.4473 35.4473C68.6598 35.2348 68.7812 34.9642 68.7812 34.6562H67.7812ZM67.7737 34.7096C67.7409 34.737 67.709 34.75 67.6562 34.75V35.75C67.9368 35.75 68.1966 35.6589 68.4138 35.4779L67.7737 34.7096ZM67.6562 34.75H53.1875V35.75H67.6562V34.75ZM53.1875 34.75C52.4849 34.75 51.8903 34.5094 51.3785 34.0153L50.684 34.7347C51.3805 35.4073 52.2235 35.75 53.1875 35.75V34.75ZM51.3848 34.0214C50.8963 33.5329 50.6562 32.9522 50.6562 32.25H49.6562C49.6562 33.2144 49.9995 34.0504 50.6777 34.7286L51.3848 34.0214ZM50.6562 32.25V26.8125H49.6562V32.25H50.6562ZM50.6562 26.8125C50.6562 26.1103 50.8963 25.5296 51.3848 25.0411L50.6777 24.3339C49.9995 25.0121 49.6562 25.8481 49.6562 26.8125H50.6562ZM51.3848 25.0411C51.8979 24.528 52.4905 24.2812 53.1875 24.2812V23.2812C52.2178 23.2812 51.373 23.6387 50.6777 24.3339L51.3848 25.0411ZM53.1875 24.2812H63.4375V23.2812H53.1875V24.2812ZM63.4375 24.2812C63.7178 24.2812 63.9867 24.1891 64.1973 23.9786L63.4902 23.2714C63.4879 23.2737 63.4867 23.2745 63.4866 23.2746C63.4866 23.2746 63.4861 23.2749 63.4846 23.2755C63.482 23.2765 63.4685 23.2812 63.4375 23.2812V24.2812ZM64.1973 23.9786C64.4098 23.7661 64.5312 23.4954 64.5312 23.1875H63.5312C63.5312 23.2129 63.5277 23.2339 63.4902 23.2714L64.1973 23.9786ZM64.5312 23.1875V21.375H63.5312V23.1875H64.5312ZM64.5312 21.375C64.5312 21.0671 64.4098 20.7964 64.1973 20.5839L63.4902 21.2911C63.5277 21.3286 63.5312 21.3496 63.5312 21.375H64.5312ZM64.2279 20.6174C64.0261 20.3753 63.7484 20.25 63.4375 20.25V21.25C63.4478 21.25 63.4535 21.251 63.4553 21.2513C63.4571 21.2517 63.4564 21.2517 63.4545 21.2509C63.4526 21.25 63.4515 21.2491 63.4516 21.2492C63.4518 21.2494 63.4547 21.2516 63.4596 21.2576L64.2279 20.6174ZM63.4375 20.25H51.9688V21.25H63.4375V20.25ZM51.9688 20.25C51.916 20.25 51.8841 20.237 51.8513 20.2096L51.2112 20.9779C51.4284 21.1589 51.6882 21.25 51.9688 21.25V20.25ZM51.9154 20.2737C51.888 20.2409 51.875 20.209 51.875 20.1562H50.875C50.875 20.4368 50.9661 20.6966 51.1471 20.9138L51.9154 20.2737ZM51.875 20.1562V17.1562H50.875V20.1562H51.875ZM51.875 17.1562C51.875 17.1035 51.888 17.0716 51.9154 17.0388L51.1471 16.3987C50.9661 16.6159 50.875 16.8757 50.875 17.1562H51.875ZM51.8848 17.0723C51.9223 17.0348 51.9434 17.0312 51.9688 17.0312V16.0312C51.6608 16.0312 51.3902 16.1527 51.1777 16.3652L51.8848 17.0723ZM51.9688 17.0312H65.25V16.0312H51.9688V17.0312ZM53.875 30.4375C53.875 30.7454 53.9965 31.0161 54.2089 31.2286L54.9161 30.5214C54.8785 30.4839 54.875 30.4629 54.875 30.4375H53.875ZM54.2424 31.2591C54.4596 31.4401 54.7195 31.5312 55 31.5312V30.5312C54.9472 30.5312 54.9154 30.5182 54.8826 30.4909L54.2424 31.2591ZM55 31.5312H63.4375V30.5312H55V31.5312ZM63.4375 31.5312C63.7178 31.5312 63.9867 31.4391 64.1973 31.2286L63.4902 30.5214C63.4879 30.5237 63.4867 30.5245 63.4866 30.5246C63.4866 30.5246 63.4861 30.5249 63.4846 30.5255C63.482 30.5265 63.4685 30.5312 63.4375 30.5312V31.5312ZM64.1973 31.2286C64.4098 31.0161 64.5312 30.7454 64.5312 30.4375H63.5312C63.5312 30.4629 63.5277 30.4839 63.4902 30.5214L64.1973 31.2286ZM64.5312 30.4375V28.625H63.5312V30.4375H64.5312ZM64.5312 28.625C64.5312 28.3171 64.4098 28.0464 64.1973 27.8339L63.4902 28.5411C63.5277 28.5786 63.5312 28.5996 63.5312 28.625H64.5312ZM64.2279 27.8674C64.0261 27.6253 63.7484 27.5 63.4375 27.5V28.5C63.4478 28.5 63.4535 28.501 63.4553 28.5013C63.4571 28.5017 63.4564 28.5017 63.4545 28.5009C63.4526 28.5 63.4515 28.4991 63.4516 28.4992C63.4518 28.4994 63.4547 28.5016 63.4596 28.5076L64.2279 27.8674ZM63.4375 27.5H55V28.5H63.4375V27.5ZM55 27.5C54.6921 27.5 54.4214 27.6215 54.2089 27.8339L54.9161 28.5411C54.9536 28.5035 54.9746 28.5 55 28.5V27.5ZM54.2089 27.8339C53.9965 28.0464 53.875 28.3171 53.875 28.625H54.875C54.875 28.5996 54.8785 28.5786 54.9161 28.5411L54.2089 27.8339ZM53.875 28.625V30.4375H54.875V28.625H53.875ZM74.3125 35.0938L74.6661 35.4473L74.3125 35.0938ZM70.4375 35.0938L70.0534 35.4138L70.0825 35.4488L70.1174 35.4779L70.4375 35.0938ZM70.4375 16.7188L70.0839 16.3652L70.0679 16.3812L70.0534 16.3987L70.4375 16.7188ZM87.5 17.4375L87.1403 17.7848L87.1464 17.7911L87.1527 17.7972L87.5 17.4375ZM83.9688 20.9375L83.5846 21.2576L83.5992 21.275L83.6152 21.2911L83.9688 20.9375ZM75.125 20.25C74.8171 20.25 74.5464 20.3715 74.3339 20.5839L75.0411 21.2911C75.0786 21.2535 75.0996 21.25 75.125 21.25V20.25ZM74.3339 20.5839C74.1215 20.7964 74 21.0671 74 21.375H75C75 21.3496 75.0035 21.3286 75.0411 21.2911L74.3339 20.5839ZM74 21.375V34.6562H75V21.375H74ZM74 34.6562C74 34.6816 73.9965 34.7027 73.9589 34.7402L74.6661 35.4473C74.8785 35.2348 75 34.9642 75 34.6562H74ZM73.9589 34.7402C73.9566 34.7425 73.9555 34.7432 73.9554 34.7433C73.9553 34.7434 73.9548 34.7437 73.9533 34.7443C73.9507 34.7453 73.9372 34.75 73.9062 34.75V35.75C74.1865 35.75 74.4555 35.6579 74.6661 35.4473L73.9589 34.7402ZM73.9062 34.75H70.875V35.75H73.9062V34.75ZM70.875 34.75C70.8222 34.75 70.7904 34.737 70.7576 34.7096L70.1174 35.4779C70.3346 35.6589 70.5945 35.75 70.875 35.75V34.75ZM70.8216 34.7737C70.7943 34.7409 70.7812 34.709 70.7812 34.6562H69.7812C69.7812 34.9368 69.8724 35.1966 70.0534 35.4138L70.8216 34.7737ZM70.7812 34.6562V17.1562H69.7812V34.6562H70.7812ZM70.7812 17.1562C70.7812 17.1035 70.7943 17.0716 70.8216 17.0388L70.0534 16.3987C69.8724 16.6159 69.7812 16.8757 69.7812 17.1562H70.7812ZM70.7911 17.0723C70.8286 17.0348 70.8496 17.0312 70.875 17.0312V16.0312C70.5671 16.0312 70.2964 16.1527 70.0839 16.3652L70.7911 17.0723ZM70.875 17.0312H85.375V16.0312H70.875V17.0312ZM85.375 17.0312C86.0715 17.0312 86.6504 17.2774 87.1403 17.7848L87.8597 17.0902C87.183 16.3893 86.3452 16.0312 85.375 16.0312V17.0312ZM87.1527 17.7972C87.6601 18.2871 87.9062 18.866 87.9062 19.5625H88.9062C88.9062 18.5923 88.5482 17.7545 87.8473 17.0778L87.1527 17.7972ZM87.9062 19.5625V22.5625H88.9062V19.5625H87.9062ZM87.9062 22.5625C87.9062 22.5879 87.9027 22.6089 87.8652 22.6464L88.5723 23.3536C88.7848 23.1411 88.9062 22.8704 88.9062 22.5625H87.9062ZM87.8652 22.6464C87.8277 22.684 87.8066 22.6875 87.7812 22.6875V23.6875C88.0892 23.6875 88.3598 23.566 88.5723 23.3536L87.8652 22.6464ZM87.7812 22.6875H84.7812V23.6875H87.7812V22.6875ZM84.7812 22.6875C84.7559 22.6875 84.7348 22.684 84.6973 22.6464L83.9902 23.3536C84.2027 23.566 84.4733 23.6875 84.7812 23.6875V22.6875ZM84.6973 22.6464C84.6598 22.6089 84.6562 22.5879 84.6562 22.5625H83.6562C83.6562 22.8704 83.7777 23.1411 83.9902 23.3536L84.6973 22.6464ZM84.6562 22.5625V21.375H83.6562V22.5625H84.6562ZM84.6562 21.375C84.6562 21.0671 84.5348 20.7964 84.3223 20.5839L83.6152 21.2911C83.6527 21.3286 83.6562 21.3496 83.6562 21.375H84.6562ZM84.3529 20.6174C84.1511 20.3753 83.8734 20.25 83.5625 20.25V21.25C83.5728 21.25 83.5785 21.251 83.5803 21.2513C83.5821 21.2517 83.5814 21.2517 83.5795 21.2509C83.5776 21.25 83.5765 21.2491 83.5766 21.2492C83.5768 21.2494 83.5797 21.2516 83.5846 21.2576L84.3529 20.6174ZM83.5625 20.25H75.125V21.25H83.5625V20.25ZM94.4375 35.0938L94.7911 35.4473L94.4375 35.0938ZM90.5625 35.0938L90.1784 35.4138L90.2075 35.4488L90.2424 35.4779L90.5625 35.0938ZM91.2812 17.4375L91.6348 17.7911L91.2812 17.4375ZM107.625 17.4375L107.265 17.7848L107.271 17.7911L107.278 17.7972L107.625 17.4375ZM108.344 35.0938L108.664 35.4779L108.681 35.4633L108.697 35.4473L108.344 35.0938ZM104.469 35.0938L104.115 35.4473L104.131 35.4633L104.149 35.4779L104.469 35.0938ZM104.094 20.9375L103.71 21.2576L103.724 21.275L103.74 21.2911L104.094 20.9375ZM95.25 20.25C94.9421 20.25 94.6714 20.3715 94.4589 20.5839L95.1661 21.2911C95.2036 21.2535 95.2246 21.25 95.25 21.25V20.25ZM94.4589 20.5839C94.2465 20.7964 94.125 21.0671 94.125 21.375H95.125C95.125 21.3496 95.1285 21.3286 95.1661 21.2911L94.4589 20.5839ZM94.125 21.375V34.6562H95.125V21.375H94.125ZM94.125 34.6562C94.125 34.6816 94.1215 34.7027 94.0839 34.7402L94.7911 35.4473C95.0035 35.2348 95.125 34.9642 95.125 34.6562H94.125ZM94.0839 34.7402C94.0816 34.7425 94.0805 34.7432 94.0804 34.7433C94.0803 34.7434 94.0798 34.7437 94.0783 34.7443C94.0757 34.7453 94.0622 34.75 94.0312 34.75V35.75C94.3115 35.75 94.5805 35.6579 94.7911 35.4473L94.0839 34.7402ZM94.0312 34.75H91V35.75H94.0312V34.75ZM91 34.75C90.9472 34.75 90.9154 34.737 90.8826 34.7096L90.2424 35.4779C90.4596 35.6589 90.7195 35.75 91 35.75V34.75ZM90.9466 34.7737C90.9193 34.7409 90.9062 34.709 90.9062 34.6562H89.9062C89.9062 34.9368 89.9974 35.1966 90.1784 35.4138L90.9466 34.7737ZM90.9062 34.6562V19.5625H89.9062V34.6562H90.9062ZM90.9062 19.5625C90.9062 18.8603 91.1463 18.2796 91.6348 17.7911L90.9277 17.0839C90.2495 17.7621 89.9062 18.5981 89.9062 19.5625H90.9062ZM91.6348 17.7911C92.1479 17.278 92.7405 17.0312 93.4375 17.0312V16.0312C92.4678 16.0312 91.623 16.3887 90.9277 17.0839L91.6348 17.7911ZM93.4375 17.0312H105.5V16.0312H93.4375V17.0312ZM105.5 17.0312C106.196 17.0312 106.775 17.2774 107.265 17.7848L107.985 17.0902C107.308 16.3893 106.47 16.0312 105.5 16.0312V17.0312ZM107.278 17.7972C107.785 18.2871 108.031 18.866 108.031 19.5625H109.031C109.031 18.5923 108.673 17.7545 107.972 17.0778L107.278 17.7972ZM108.031 19.5625V34.6562H109.031V19.5625H108.031ZM108.031 34.6562C108.031 34.6816 108.028 34.7027 107.99 34.7402L108.697 35.4473C108.91 35.2348 109.031 34.9642 109.031 34.6562H108.031ZM108.024 34.7096C107.991 34.737 107.959 34.75 107.906 34.75V35.75C108.187 35.75 108.447 35.6589 108.664 35.4779L108.024 34.7096ZM107.906 34.75H104.906V35.75H107.906V34.75ZM104.906 34.75C104.853 34.75 104.822 34.737 104.789 34.7096L104.149 35.4779C104.366 35.6589 104.626 35.75 104.906 35.75V34.75ZM104.822 34.7402C104.785 34.7027 104.781 34.6816 104.781 34.6562H103.781C103.781 34.9642 103.903 35.2348 104.115 35.4473L104.822 34.7402ZM104.781 34.6562V21.375H103.781V34.6562H104.781ZM104.781 21.375C104.781 21.0671 104.66 20.7964 104.447 20.5839L103.74 21.2911C103.778 21.3286 103.781 21.3496 103.781 21.375H104.781ZM104.478 20.6174C104.276 20.3753 103.998 20.25 103.688 20.25V21.25C103.698 21.25 103.703 21.251 103.705 21.2513C103.707 21.2517 103.706 21.2517 103.705 21.2509C103.703 21.25 103.701 21.2491 103.702 21.2492C103.702 21.2494 103.705 21.2516 103.71 21.2576L104.478 20.6174ZM103.688 20.25H95.25V21.25H103.688V20.25ZM110.688 10.6875L110.334 10.3339L110.688 10.6875ZM114.562 10.6875L114.178 11.0076L114.207 11.0425L114.242 11.0716L114.562 10.6875ZM114.562 14.5625L114.209 14.2089L114.562 14.5625ZM110.688 14.5625L110.303 14.8826L110.332 14.9175L110.367 14.9466L110.688 14.5625ZM114.562 16.7188L114.178 17.0388L114.193 17.0563L114.209 17.0723L114.562 16.7188ZM114.562 35.0938L114.916 35.4473L114.562 35.0938ZM110.688 35.0938L110.303 35.4138L110.332 35.4488L110.367 35.4779L110.688 35.0938ZM110.688 16.7188L110.334 16.3652L110.318 16.3812L110.303 16.3987L110.688 16.7188ZM111.031 11.0938C111.031 11.0628 111.036 11.0493 111.037 11.0467C111.038 11.0452 111.038 11.0447 111.038 11.0446C111.038 11.0445 111.039 11.0434 111.041 11.0411L110.334 10.3339C110.123 10.5445 110.031 10.8135 110.031 11.0938H111.031ZM111.041 11.0411C111.079 11.0035 111.1 11 111.125 11V10C110.817 10 110.546 10.1215 110.334 10.3339L111.041 11.0411ZM111.125 11H114.156V10H111.125V11ZM114.156 11C114.167 11 114.172 11.001 114.174 11.0013C114.176 11.0017 114.175 11.0017 114.173 11.0009C114.171 11 114.17 10.9991 114.17 10.9992C114.171 10.9994 114.173 11.0016 114.178 11.0076L114.947 10.3674C114.745 10.1253 114.467 10 114.156 10V11ZM114.242 11.0716C114.248 11.0766 114.251 11.0794 114.251 11.0796C114.251 11.0798 114.25 11.0787 114.249 11.0767C114.248 11.0748 114.248 11.0742 114.249 11.0759C114.249 11.0778 114.25 11.0834 114.25 11.0938H115.25C115.25 10.7829 115.125 10.5052 114.883 10.3034L114.242 11.0716ZM114.25 11.0938V14.125H115.25V11.0938H114.25ZM114.25 14.125C114.25 14.1504 114.246 14.1714 114.209 14.2089L114.916 14.9161C115.129 14.7036 115.25 14.4329 115.25 14.125H114.25ZM114.209 14.2089C114.207 14.2112 114.205 14.212 114.205 14.2121C114.205 14.2121 114.205 14.2124 114.203 14.213C114.201 14.214 114.187 14.2188 114.156 14.2188V15.2188C114.437 15.2188 114.705 15.1266 114.916 14.9161L114.209 14.2089ZM114.156 14.2188H111.125V15.2188H114.156V14.2188ZM111.125 14.2188C111.072 14.2188 111.04 14.2057 111.008 14.1784L110.367 14.9466C110.585 15.1276 110.844 15.2188 111.125 15.2188V14.2188ZM111.072 14.2424C111.044 14.2096 111.031 14.1778 111.031 14.125H110.031C110.031 14.4055 110.122 14.6654 110.303 14.8826L111.072 14.2424ZM111.031 14.125V11.0938H110.031V14.125H111.031ZM114.156 17.0312C114.167 17.0312 114.172 17.0322 114.174 17.0326C114.176 17.033 114.175 17.033 114.173 17.0321C114.171 17.0312 114.17 17.0304 114.17 17.0305C114.171 17.0307 114.173 17.0329 114.178 17.0388L114.947 16.3987C114.745 16.1565 114.467 16.0312 114.156 16.0312V17.0312ZM114.209 17.0723C114.246 17.1098 114.25 17.1309 114.25 17.1562H115.25C115.25 16.8483 115.129 16.5777 114.916 16.3652L114.209 17.0723ZM114.25 17.1562V34.6562H115.25V17.1562H114.25ZM114.25 34.6562C114.25 34.6816 114.246 34.7027 114.209 34.7402L114.916 35.4473C115.129 35.2348 115.25 34.9642 115.25 34.6562H114.25ZM114.209 34.7402C114.207 34.7425 114.205 34.7432 114.205 34.7433C114.205 34.7434 114.205 34.7437 114.203 34.7443C114.201 34.7453 114.187 34.75 114.156 34.75V35.75C114.437 35.75 114.705 35.6579 114.916 35.4473L114.209 34.7402ZM114.156 34.75H111.125V35.75H114.156V34.75ZM111.125 34.75C111.072 34.75 111.04 34.737 111.008 34.7096L110.367 35.4779C110.585 35.6589 110.844 35.75 111.125 35.75V34.75ZM111.072 34.7737C111.044 34.7409 111.031 34.709 111.031 34.6562H110.031C110.031 34.9368 110.122 35.1966 110.303 35.4138L111.072 34.7737ZM111.031 34.6562V17.1562H110.031V34.6562H111.031ZM111.031 17.1562C111.031 17.1035 111.044 17.0716 111.072 17.0388L110.303 16.3987C110.122 16.6159 110.031 16.8757 110.031 17.1562H111.031ZM111.041 17.0723C111.079 17.0348 111.1 17.0312 111.125 17.0312V16.0312C110.817 16.0312 110.546 16.1527 110.334 16.3652L111.041 17.0723ZM111.125 17.0312H114.156V16.0312H111.125V17.0312ZM120.781 35.0938L121.135 35.4473L120.781 35.0938ZM116.906 35.0938L116.522 35.4138L116.551 35.4488L116.586 35.4779L116.906 35.0938ZM117.625 17.4375L117.979 17.7911L117.625 17.4375ZM133.969 17.4375L133.609 17.7848L133.615 17.7911L133.621 17.7972L133.969 17.4375ZM134.688 35.0938L135.008 35.4779L135.025 35.4633L135.041 35.4473L134.688 35.0938ZM130.812 35.0938L130.459 35.4473L130.475 35.4633L130.492 35.4779L130.812 35.0938ZM130.438 20.9375L130.053 21.2576L130.068 21.275L130.084 21.2911L130.438 20.9375ZM121.594 20.25C121.286 20.25 121.015 20.3715 120.803 20.5839L121.51 21.2911C121.547 21.2535 121.568 21.25 121.594 21.25V20.25ZM120.803 20.5839C120.59 20.7964 120.469 21.0671 120.469 21.375H121.469C121.469 21.3496 121.472 21.3286 121.51 21.2911L120.803 20.5839ZM120.469 21.375V34.6562H121.469V21.375H120.469ZM120.469 34.6562C120.469 34.6816 120.465 34.7027 120.428 34.7402L121.135 35.4473C121.347 35.2348 121.469 34.9642 121.469 34.6562H120.469ZM120.428 34.7402C120.425 34.7425 120.424 34.7432 120.424 34.7433C120.424 34.7434 120.424 34.7437 120.422 34.7443C120.419 34.7453 120.406 34.75 120.375 34.75V35.75C120.655 35.75 120.924 35.6579 121.135 35.4473L120.428 34.7402ZM120.375 34.75H117.344V35.75H120.375V34.75ZM117.344 34.75C117.291 34.75 117.259 34.737 117.226 34.7096L116.586 35.4779C116.803 35.6589 117.063 35.75 117.344 35.75V34.75ZM117.29 34.7737C117.263 34.7409 117.25 34.709 117.25 34.6562H116.25C116.25 34.9368 116.341 35.1966 116.522 35.4138L117.29 34.7737ZM117.25 34.6562V19.5625H116.25V34.6562H117.25ZM117.25 19.5625C117.25 18.8603 117.49 18.2796 117.979 17.7911L117.271 17.0839C116.593 17.7621 116.25 18.5981 116.25 19.5625H117.25ZM117.979 17.7911C118.492 17.278 119.084 17.0312 119.781 17.0312V16.0312C118.812 16.0312 117.967 16.3887 117.271 17.0839L117.979 17.7911ZM119.781 17.0312H131.844V16.0312H119.781V17.0312ZM131.844 17.0312C132.54 17.0312 133.119 17.2774 133.609 17.7848L134.328 17.0902C133.652 16.3893 132.814 16.0312 131.844 16.0312V17.0312ZM133.621 17.7972C134.129 18.2871 134.375 18.866 134.375 19.5625H135.375C135.375 18.5923 135.017 17.7545 134.316 17.0778L133.621 17.7972ZM134.375 19.5625V34.6562H135.375V19.5625H134.375ZM134.375 34.6562C134.375 34.6816 134.371 34.7027 134.334 34.7402L135.041 35.4473C135.254 35.2348 135.375 34.9642 135.375 34.6562H134.375ZM134.367 34.7096C134.335 34.737 134.303 34.75 134.25 34.75V35.75C134.531 35.75 134.79 35.6589 135.008 35.4779L134.367 34.7096ZM134.25 34.75H131.25V35.75H134.25V34.75ZM131.25 34.75C131.197 34.75 131.165 34.737 131.133 34.7096L130.492 35.4779C130.71 35.6589 130.969 35.75 131.25 35.75V34.75ZM131.166 34.7402C131.129 34.7027 131.125 34.6816 131.125 34.6562H130.125C130.125 34.9642 130.246 35.2348 130.459 35.4473L131.166 34.7402ZM131.125 34.6562V21.375H130.125V34.6562H131.125ZM131.125 21.375C131.125 21.0671 131.004 20.7964 130.791 20.5839L130.084 21.2911C130.121 21.3286 130.125 21.3496 130.125 21.375H131.125ZM130.822 20.6174C130.62 20.3753 130.342 20.25 130.031 20.25V21.25C130.042 21.25 130.047 21.251 130.049 21.2513C130.051 21.2517 130.05 21.2517 130.048 21.2509C130.046 21.25 130.045 21.2491 130.045 21.2492C130.046 21.2494 130.048 21.2516 130.053 21.2576L130.822 20.6174ZM130.031 20.25H121.594V21.25H130.031V20.25ZM137.031 42.3125L136.678 42.6661L137.031 42.3125ZM137.031 38.4375L136.711 38.0534L136.676 38.0825L136.647 38.1174L137.031 38.4375ZM150.562 38.0938L150.209 37.7402L150.193 37.7562L150.178 37.7737L150.562 38.0938ZM150.562 35.4375L150.178 35.7576L150.207 35.7925L150.242 35.8216L150.562 35.4375ZM137.75 34.375L137.396 34.7286L137.403 34.7347L137.75 34.375ZM137.75 17.4375L138.104 17.7911L137.75 17.4375ZM154.094 17.4375L153.734 17.7848L153.74 17.7911L153.746 17.7972L154.094 17.4375ZM154.094 41.5938L153.746 41.234L153.74 41.2401L153.734 41.2465L154.094 41.5938ZM141.281 30.875L140.928 31.2286L140.944 31.2446L140.961 31.2591L141.281 30.875ZM150.562 30.875L150.209 30.5214L150.562 30.875ZM150.562 20.9375L150.178 21.2576L150.193 21.275L150.209 21.2911L150.562 20.9375ZM151.969 42H137.469V43H151.969V42ZM137.469 42C137.443 42 137.422 41.9965 137.385 41.9589L136.678 42.6661C136.89 42.8785 137.161 43 137.469 43V42ZM137.385 41.9589C137.383 41.9566 137.382 41.9555 137.382 41.9554C137.382 41.9553 137.381 41.9548 137.381 41.9533C137.38 41.9507 137.375 41.9372 137.375 41.9062H136.375C136.375 42.1865 136.467 42.4555 136.678 42.6661L137.385 41.9589ZM137.375 41.9062V38.875H136.375V41.9062H137.375ZM137.375 38.875C137.375 38.8222 137.388 38.7904 137.415 38.7576L136.647 38.1174C136.466 38.3346 136.375 38.5945 136.375 38.875H137.375ZM137.351 38.8216C137.384 38.7943 137.416 38.7812 137.469 38.7812V37.7812C137.188 37.7812 136.928 37.8724 136.711 38.0534L137.351 38.8216ZM137.469 38.7812H150.156V37.7812H137.469V38.7812ZM150.156 38.7812C150.467 38.7812 150.745 38.656 150.947 38.4138L150.178 37.7737C150.173 37.7796 150.171 37.7818 150.17 37.782C150.17 37.7821 150.171 37.7813 150.173 37.7804C150.175 37.7795 150.176 37.7795 150.174 37.7799C150.172 37.7803 150.167 37.7812 150.156 37.7812V38.7812ZM150.916 38.4473C151.129 38.2348 151.25 37.9642 151.25 37.6562H150.25C150.25 37.6816 150.246 37.7027 150.209 37.7402L150.916 38.4473ZM151.25 37.6562V35.8438H150.25V37.6562H151.25ZM151.25 35.8438C151.25 35.5329 151.125 35.2552 150.883 35.0534L150.242 35.8216C150.248 35.8266 150.251 35.8294 150.251 35.8296C150.251 35.8298 150.25 35.8287 150.249 35.8267C150.248 35.8248 150.248 35.8242 150.249 35.8259C150.249 35.8278 150.25 35.8334 150.25 35.8438H151.25ZM150.947 35.1174C150.745 34.8753 150.467 34.75 150.156 34.75V35.75C150.167 35.75 150.172 35.751 150.174 35.7513C150.176 35.7517 150.175 35.7517 150.173 35.7509C150.171 35.75 150.17 35.7491 150.17 35.7492C150.171 35.7494 150.173 35.7516 150.178 35.7576L150.947 35.1174ZM150.156 34.75H139.906V35.75H150.156V34.75ZM139.906 34.75C139.204 34.75 138.609 34.5094 138.097 34.0153L137.403 34.7347C138.099 35.4073 138.942 35.75 139.906 35.75V34.75ZM138.104 34.0214C137.615 33.5329 137.375 32.9522 137.375 32.25H136.375C136.375 33.2144 136.718 34.0504 137.396 34.7286L138.104 34.0214ZM137.375 32.25V19.5625H136.375V32.25H137.375ZM137.375 19.5625C137.375 18.8603 137.615 18.2796 138.104 17.7911L137.396 17.0839C136.718 17.7621 136.375 18.5981 136.375 19.5625H137.375ZM138.104 17.7911C138.617 17.278 139.209 17.0312 139.906 17.0312V16.0312C138.937 16.0312 138.092 16.3887 137.396 17.0839L138.104 17.7911ZM139.906 17.0312H151.969V16.0312H139.906V17.0312ZM151.969 17.0312C152.665 17.0312 153.244 17.2774 153.734 17.7848L154.453 17.0902C153.777 16.3893 152.939 16.0312 151.969 16.0312V17.0312ZM153.746 17.7972C154.254 18.2871 154.5 18.866 154.5 19.5625H155.5C155.5 18.5923 155.142 17.7545 154.441 17.0778L153.746 17.7972ZM154.5 19.5625V39.4688H155.5V19.5625H154.5ZM154.5 39.4688C154.5 40.1652 154.254 40.7441 153.746 41.234L154.441 41.9535C155.142 41.2767 155.5 40.4389 155.5 39.4688H154.5ZM153.734 41.2465C153.244 41.7539 152.665 42 151.969 42V43C152.939 43 153.777 42.6419 154.453 41.941L153.734 41.2465ZM140.594 30.4375C140.594 30.7454 140.715 31.0161 140.928 31.2286L141.635 30.5214C141.597 30.4839 141.594 30.4629 141.594 30.4375H140.594ZM140.961 31.2591C141.178 31.4401 141.438 31.5312 141.719 31.5312V30.5312C141.666 30.5312 141.634 30.5182 141.601 30.4909L140.961 31.2591ZM141.719 31.5312H150.156V30.5312H141.719V31.5312ZM150.156 31.5312C150.437 31.5312 150.705 31.4391 150.916 31.2286L150.209 30.5214C150.207 30.5237 150.205 30.5245 150.205 30.5246C150.205 30.5246 150.205 30.5249 150.203 30.5255C150.201 30.5265 150.187 30.5312 150.156 30.5312V31.5312ZM150.916 31.2286C151.129 31.0161 151.25 30.7454 151.25 30.4375H150.25C150.25 30.4629 150.246 30.4839 150.209 30.5214L150.916 31.2286ZM151.25 30.4375V21.375H150.25V30.4375H151.25ZM151.25 21.375C151.25 21.0671 151.129 20.7964 150.916 20.5839L150.209 21.2911C150.246 21.3286 150.25 21.3496 150.25 21.375H151.25ZM150.947 20.6174C150.745 20.3753 150.467 20.25 150.156 20.25V21.25C150.167 21.25 150.172 21.251 150.174 21.2513C150.176 21.2517 150.175 21.2517 150.173 21.2509C150.171 21.25 150.17 21.2491 150.17 21.2492C150.171 21.2494 150.173 21.2516 150.178 21.2576L150.947 20.6174ZM150.156 20.25H141.719V21.25H150.156V20.25ZM141.719 20.25C141.411 20.25 141.14 20.3715 140.928 20.5839L141.635 21.2911C141.672 21.2535 141.693 21.25 141.719 21.25V20.25ZM140.928 20.5839C140.715 20.7964 140.594 21.0671 140.594 21.375H141.594C141.594 21.3496 141.597 21.3286 141.635 21.2911L140.928 20.5839ZM140.594 21.375V30.4375H141.594V21.375H140.594Z"
        fill="#993300" fill-opacity="0.8" />
</svg>