<svg width="44" height="52" viewBox="0 0 44 52" fill="none" xmlns="http://www.w3.org/2000/svg">
    <path
        d="M28.0049 3.99951V-0.000488281L40.0049 7.99951V43.9995L28.0049 51.9995V47.9995L37.0049 41.9995V9.99951L28.0049 3.99951Z"
        fill="#5999A6" fill-opacity="0.8" />
    <path
        d="M16.0049 3.99951V-0.000488281L4.00488 7.99951V43.9995L16.0049 51.9995V47.9995L7.00488 41.9995V9.99951L16.0049 3.99951Z"
        fill="#5999A6" fill-opacity="0.8" />
    <path
        d="M19.0869 37.3589L20.8447 35.6011C21.1729 35.2729 21.5596 35.1089 22.0049 35.1089C22.4502 35.1089 22.8369 35.2729 23.165 35.6011L24.958 37.3589C25.2627 37.687 25.415 38.0737 25.415 38.519C25.415 38.9644 25.2627 39.3511 24.958 39.6792L23.165 41.4722C22.8369 41.7769 22.4502 41.9292 22.0049 41.9292C21.5596 41.9292 21.1729 41.7769 20.8447 41.4722L19.0869 39.6792C18.7588 39.3511 18.5947 38.9644 18.5947 38.519C18.5947 38.0737 18.7588 37.687 19.0869 37.3589ZM26.8564 10.7808L25.3447 30.3979C25.3213 30.6089 25.2275 30.7964 25.0635 30.9604C24.9229 31.1011 24.7471 31.1714 24.5361 31.1714H19.5088C19.2979 31.1714 19.1104 31.1011 18.9463 30.9604C18.7822 30.7964 18.6885 30.6089 18.665 30.3979L17.1533 10.7808C17.1533 10.5229 17.2354 10.312 17.3994 10.1479C17.5635 9.98389 17.7627 9.90186 17.9971 9.90186H26.0479C26.2822 9.90186 26.4814 9.98389 26.6455 10.1479C26.8096 10.312 26.8799 10.5229 26.8564 10.7808Z"
        fill="#5999A6" fill-opacity="0.8" />
    <path
        d="M35.0049 0.999512L43.0049 5.99951V14.9995M9.00488 0.999512L1.00488 5.99951V14.9995M35.0049 50.9995L43.0049 45.9995V36.9995M9.00488 50.9995L1.00488 45.9995V36.9995"
        stroke="#5999A6" stroke-opacity="0.4" />
</svg>