<svg width="87" height="56" viewBox="0 0 87 56" fill="none" xmlns="http://www.w3.org/2000/svg">
<path d="M11 21L15 28L8 46L27 49L31 56L0 51L11 21Z" fill="#80D5FF" fill-opacity="0.4"/>
<path d="M19 34L16 41L23 42L19 34Z" fill="#80D5FF" fill-opacity="0.4"/>
<path d="M66 0C61.0294 0 57 4.02944 57 9V18H75V9C75 4.02944 70.9706 0 66 0Z" fill="#80D5FF" fill-opacity="0.4"/>
<path d="M58 21V35H74V21H58Z" fill="#80D5FF" fill-opacity="0.4"/>
<path d="M45 49V54H53V41L45 49Z" fill="#80D5FF" fill-opacity="0.4"/>
<path d="M87 49V54H79V41L87 49Z" fill="#80D5FF" fill-opacity="0.4"/>
<path d="M56 38V54H64V42H68V54H76V38H56Z" fill="#80D5FF" fill-opacity="0.4"/>
</svg>
