<svg width="1920" height="1080" viewBox="0 0 1920 1080" fill="none" xmlns="http://www.w3.org/2000/svg">
    <path d="M241 702.5L244.75 700.335L244.75 704.665L241 702.5Z" fill="#9DDEFF" fill-opacity="0.4" />
    <path
        d="M202.5 754.319C202.5 760.904 206.095 766.963 211.875 770.118L273.022 803.5V790L224.481 764.857C220.5 762.795 218 758.685 218 754.202V744C218 740.686 220.686 738 224 738H231V727.5H202.5V754.319Z"
        fill="#80D5FF" fill-opacity="0.4" />
    <path
        d="M195.5 748.819C195.5 755.404 199.095 761.463 204.875 764.618L266.022 798V784.5L217.481 759.357C213.5 757.295 211 753.185 211 748.701V738.5C211 735.186 213.686 732.5 217 732.5H224V722H195.5V748.819Z"
        fill="#80D5FF" fill-opacity="0.4" />
    <path d="M224 722L231 727.5H202.5L195.5 722H224Z" fill="#80D5FF" fill-opacity="0.4" />
    <path d="M266.022 784.5L273.022 790V803.5L266.022 798V784.5Z" fill="#80D5FF" fill-opacity="0.4" />
    <path d="M224 722L231 727.5V738L224 732.5V722Z" fill="#80D5FF" fill-opacity="0.4" />
    <path
        d="M273.022 803.5L211.875 770.118C206.095 766.963 202.5 760.904 202.5 754.319V727.5M273.022 803.5V790M273.022 803.5L266.022 798M231 727.5H202.5M231 727.5V738M231 727.5L224 722M202.5 727.5L195.5 722M273.022 790L224.481 764.857C220.5 762.795 218 758.685 218 754.202V744C218 740.686 220.686 738 224 738H231M273.022 790L266.022 784.5M231 738L224 732.5M266.022 798L204.875 764.618C199.095 761.463 195.5 755.404 195.5 748.819V722M266.022 798V784.5M224 722H195.5M224 722V732.5M266.022 784.5L217.481 759.357C213.5 757.295 211 753.185 211 748.701V738.5C211 735.186 213.686 732.5 217 732.5H224"
        stroke="#9DDEFF" stroke-opacity="0.4" />
    <path
        d="M132.555 872.783C132.555 867.555 134.961 862.617 139.078 859.395L224.555 792.5L234.055 800.5L152.691 865.398C151.025 866.726 150.055 868.741 150.055 870.871V877L132.555 895V872.783Z"
        fill="#80D5FF" fill-opacity="0.4" />
    <path
        d="M120.5 866.783C120.5 861.555 122.906 856.617 127.023 853.395L212.5 786.5L222 794.5L140.635 859.398C138.97 860.726 138 862.741 138 864.871V871L120.5 889V866.783Z"
        fill="#80D5FF" fill-opacity="0.4" />
    <path d="M138 871L120.5 889L132.555 895L150.055 877L138 871Z" fill="#80D5FF" fill-opacity="0.4" />
    <path d="M222 794.5L212.5 786.5L224.555 792.5L234.055 800.5L222 794.5Z" fill="#80D5FF" fill-opacity="0.4" />
    <path
        d="M224.555 792.5L139.078 859.395C134.961 862.617 132.555 867.555 132.555 872.783V895M224.555 792.5L234.055 800.5M224.555 792.5L212.5 786.5M150.055 877L132.555 895M150.055 877V870.871C150.055 868.741 151.025 866.726 152.691 865.398L234.055 800.5M150.055 877L138 871M132.555 895L120.5 889M234.055 800.5L222 794.5M212.5 786.5L127.023 853.395C122.906 856.617 120.5 861.555 120.5 866.783V889M212.5 786.5L222 794.5M138 871L120.5 889M138 871V864.871C138 862.741 138.97 860.726 140.635 859.398L222 794.5"
        stroke="#9DDEFF" stroke-opacity="0.4" />
    <path
        d="M352.022 839.741C352.022 833.441 348.537 827.658 342.968 824.713L291.5 797.5V805.935C291.5 808.132 292.701 810.154 294.631 811.205L332.847 832.011C335.099 833.237 336.5 835.596 336.5 838.159V842L352.022 856V839.741Z"
        fill="#80D5FF" fill-opacity="0.4" />
    <path
        d="M347.522 833.847C347.522 827.547 344.037 821.763 338.468 818.818L287 791.606V800.041C287 802.238 288.201 804.26 290.131 805.31L328.347 826.117C330.599 827.343 332 829.701 332 832.265V836.106L347.522 850.106V833.847Z"
        fill="#80D5FF" fill-opacity="0.4" />
    <path
        d="M291.5 797.5L342.968 824.713C348.537 827.658 352.022 833.441 352.022 839.741V856M291.5 797.5V805.935C291.5 808.132 292.701 810.154 294.631 811.205L332.847 832.011C335.099 833.237 336.5 835.596 336.5 838.159V842M291.5 797.5L287 791.606M336.5 842L352.022 856M336.5 842L332 836.106M352.022 856L347.522 850.106M287 791.606L338.468 818.818C344.037 821.763 347.522 827.547 347.522 833.847V850.106M287 791.606V800.041C287 802.238 288.201 804.26 290.131 805.31L328.347 826.117C330.599 827.343 332 829.701 332 832.265V836.106M332 836.106L347.522 850.106"
        stroke="#9DDEFF" stroke-opacity="0.4" />
    <path
        d="M80 37.5L69.5 40.5L86 58.5L91.53 57.4945C95.129 56.8401 98.83 57.0171 102.35 58.012L143 69.5L146.051 66.4491C148.505 63.9947 152.057 62.9886 155.434 63.791L385.11 118.363C389.361 119.373 393.825 117.993 396.764 114.76L397 114.5L80 37.5Z"
        fill="#80D5FF" fill-opacity="0.4" />
    <path d="M94.9285 32L404.5 107.5L397 114.5L80 37.5L94.9285 32Z" fill="#80D5FF" fill-opacity="0.4" />
    <path d="M84.4285 35L100.929 53L86 58.5L69.5 40.5L84.4285 35Z" fill="#80D5FF" fill-opacity="0.4" />
    <path
        d="M94.9285 32L84.4285 35L100.929 53L106.458 51.9945C110.058 51.3401 113.759 51.5171 117.279 52.512L157.929 64L160.974 60.954C163.432 58.497 166.988 57.4916 170.368 58.2984L392.604 111.354C396.858 112.369 401.327 110.99 404.269 107.754L404.5 107.5L94.9285 32Z"
        fill="#80D5FF" fill-opacity="0.4" />
    <path
        d="M80 37.5L69.5 40.5M80 37.5L397 114.5M80 37.5L94.9285 32M69.5 40.5L86 58.5M69.5 40.5L84.4285 35M397 114.5L396.764 114.76C393.825 117.993 389.361 119.373 385.11 118.363L155.434 63.791C152.057 62.9886 148.505 63.9947 146.051 66.4491L143 69.5L102.35 58.012C98.83 57.0171 95.129 56.8401 91.53 57.4945L86 58.5M397 114.5L404.5 107.5M86 58.5L100.929 53M84.4285 35L100.929 53M84.4285 35L94.9285 32M100.929 53L106.458 51.9945C110.058 51.3401 113.759 51.5171 117.279 52.512L157.929 64L160.974 60.954C163.432 58.497 166.988 57.4916 170.368 58.2984L392.604 111.354C396.858 112.369 401.327 110.99 404.269 107.754L404.5 107.5M94.9285 32L404.5 107.5"
        stroke="#9DDEFF" stroke-opacity="0.4" />
    <path
        d="M232 355C232 343.954 223.046 335 212 335H206.5L77.2985 248.412C68.9875 242.842 64 233.496 64 223.491V216.5L53.5738 206.876C51.9331 205.361 51 203.23 51 200.997V129.5C51 123.977 55.4772 119.5 61 119.5H63.5V69.5L74.5 58.5L57 42.5L37 50.5V223.308C37 233.414 42.0877 242.84 50.5353 248.386L201.5 347.5V349.5C201.5 356.127 206.873 361.5 213.5 361.5H232V355Z"
        fill="#80D5FF" fill-opacity="0.4" />
    <path
        d="M224.5 356.5C224.5 345.454 215.546 336.5 204.5 336.5H199L63.8954 252.735C54.6928 247.029 49.2788 236.808 49.7296 225.989L50 219.5L39.5738 209.876C37.9331 208.361 37 206.23 37 203.997V133.5C37 127.977 41.4772 123.5 47 123.5H48.5V73.5L59.5 62.5L42 46.5L22 54.5V226.707C22 237.141 27.4207 246.825 36.3144 252.28L194 349V351C194 357.627 199.373 363 206 363H224.5V356.5Z"
        fill="#80D5FF" fill-opacity="0.4" />
    <path d="M57 42.5L74.5 58.5L59.5 62.5L42 46.5L57 42.5Z" fill="#80D5FF" fill-opacity="0.4" />
    <path d="M59.5 62.5L74.5 58.5L63.5 69.5L48.5 73.5L59.5 62.5Z" fill="#80D5FF" fill-opacity="0.4" />
    <path d="M48.5 73.5L63.5 69.5V119.5L48.5 123.5V73.5Z" fill="#80D5FF" fill-opacity="0.4" />
    <path
        d="M206.5 335H212C223.046 335 232 343.954 232 355V361.5H213.5C206.873 361.5 201.5 356.127 201.5 349.5V347.5M206.5 335L77.2985 248.412C68.9875 242.842 64 233.496 64 223.491V216.5M206.5 335L199 336.5M201.5 347.5L50.5353 248.386C42.0877 242.84 37 233.414 37 223.308V50.5M201.5 347.5L194 349M64 216.5L53.5738 206.876C51.9331 205.361 51 203.23 51 200.997V129.5C51 123.977 55.4772 119.5 61 119.5H63.5M64 216.5L50 219.5M37 50.5L57 42.5M37 50.5L22 54.5M63.5 119.5V69.5M63.5 119.5L48.5 123.5M63.5 69.5L74.5 58.5M63.5 69.5L48.5 73.5M74.5 58.5L57 42.5M74.5 58.5L59.5 62.5M57 42.5L42 46.5M199 336.5H204.5C215.546 336.5 224.5 345.454 224.5 356.5V363H206C199.373 363 194 357.627 194 351V349M199 336.5L63.8954 252.735C54.6928 247.029 49.2788 236.808 49.7296 225.989L50 219.5M194 349L36.3144 252.28C27.4207 246.825 22 237.141 22 226.707V54.5M50 219.5L39.5738 209.876C37.9331 208.361 37 206.23 37 203.997V133.5C37 127.977 41.4772 123.5 47 123.5H48.5M22 54.5L42 46.5M48.5 123.5V73.5M48.5 73.5L59.5 62.5M59.5 62.5L42 46.5"
        stroke="#9DDEFF" stroke-opacity="0.4" />
    <rect x="207.5" y="381.5" width="13" height="327" rx="2" fill="#80D5FF" fill-opacity="0.4" />
    <rect x="208" y="382" width="12" height="326" rx="1.5" stroke="#9DDEFF" stroke-opacity="0.4" />
    <path
        d="M473 128.717L414.5 116.217L403.5 122.217L416.36 124.434V124.434C426.118 126.117 433.884 133.544 436 143.217V143.217V149.217L421 165.217V188.717L489 145.717L473 128.717Z"
        fill="#80D5FF" fill-opacity="0.4" />
    <path
        d="M481 121L422.5 108.5L411.5 114.5L424.36 116.717V116.717C434.118 118.4 441.884 125.827 444 135.5V135.5V141.5L429 157.5V181L497 138L481 121Z"
        fill="#80D5FF" fill-opacity="0.4" />
    <path d="M403.5 122.217L414.5 116.217L422.5 108.5L411.5 114.5L403.5 122.217Z" fill="#80D5FF" fill-opacity="0.4" />
    <path d="M421 165.217L429 157.5V181L421 188.717V165.217Z" fill="#80D5FF" fill-opacity="0.4" />
    <path d="M421 188.717L489 145.717L497 138L429 181L421 188.717Z" fill="#80D5FF" fill-opacity="0.4" />
    <path d="M481 121L497 138L489 145.717L473 128.717L481 121Z" fill="#80D5FF" fill-opacity="0.4" />
    <path d="M422.5 108.5L481 121L473 128.717L414.5 116.217L422.5 108.5Z" fill="#80D5FF" fill-opacity="0.4" />
    <path
        d="M414.5 116.217L473 128.717M414.5 116.217L403.5 122.217M414.5 116.217L422.5 108.5M473 128.717L489 145.717M473 128.717L481 121M489 145.717L421 188.717M489 145.717L497 138M421 188.717V165.217M421 188.717L429 181M421 165.217L436 149.217V143.217M421 165.217L429 157.5M436 143.217V143.217C433.884 133.544 426.118 126.117 416.36 124.434V124.434M436 143.217C433.884 133.544 426.118 126.117 416.36 124.434M403.5 122.217L416.36 124.434M403.5 122.217L411.5 114.5M422.5 108.5L481 121M422.5 108.5L411.5 114.5M481 121L497 138M497 138L429 181M429 181V157.5M429 157.5L444 141.5V135.5V135.5C441.884 125.827 434.118 118.4 424.36 116.717V116.717L411.5 114.5"
        stroke="#9DDEFF" stroke-opacity="0.4" />
    <path
        d="M505.5 118.5L540.5 99L548.5 106.5L676.5 127L680 123H688V159L661.043 135.214C656.445 131.157 650.777 128.506 644.716 127.578L553.174 113.558C546.558 112.545 539.791 113.632 533.825 116.665L513.5 127L505.5 118.5Z"
        fill="#80D5FF" fill-opacity="0.4" />
    <path
        d="M500.5 127L535.5 107.5L543.5 115L675 134.5L678.5 130.5H686.5V168L657.869 143.805C653.377 140.009 647.925 137.524 642.112 136.624L548.2 122.08C541.568 121.053 534.781 122.137 528.799 125.178L508.5 135.5L500.5 127Z"
        fill="#80D5FF" fill-opacity="0.4" />
    <path d="M500.5 127L505.5 118.5L513.5 127L508.5 135.5L500.5 127Z" fill="#80D5FF" fill-opacity="0.4" />
    <path d="M505.5 118.5L540.5 99L535.5 107.5L500.5 127L505.5 118.5Z" fill="#80D5FF" fill-opacity="0.4" />
    <path d="M535.5 107.5L540.5 99L548.5 106.5L543.5 115L535.5 107.5Z" fill="#80D5FF" fill-opacity="0.4" />
    <path d="M548.5 106.5L676.5 127L675 134.5L543.5 115L548.5 106.5Z" fill="#80D5FF" fill-opacity="0.4" />
    <path d="M676.5 127L680 123L678.5 130.5L675 134.5L676.5 127Z" fill="#80D5FF" fill-opacity="0.4" />
    <path d="M680 123H688L686.5 130.5H678.5L680 123Z" fill="#80D5FF" fill-opacity="0.4" />
    <path d="M686.5 130.5L688 123V159L686.5 168V130.5Z" fill="#80D5FF" fill-opacity="0.4" />
    <path
        d="M505.5 118.5L540.5 99M505.5 118.5L513.5 127M505.5 118.5L500.5 127M540.5 99L548.5 106.5M540.5 99L535.5 107.5M548.5 106.5L676.5 127M548.5 106.5L543.5 115M676.5 127L680 123M676.5 127L675 134.5M680 123H688M680 123L678.5 130.5M688 123V159M688 123L686.5 130.5M688 159L661.043 135.214C656.445 131.157 650.777 128.506 644.716 127.578L553.174 113.558C546.558 112.545 539.791 113.632 533.825 116.665L513.5 127M688 159L686.5 168M513.5 127L508.5 135.5M500.5 127L535.5 107.5M500.5 127L508.5 135.5M535.5 107.5L543.5 115M543.5 115L675 134.5M675 134.5L678.5 130.5M678.5 130.5H686.5M686.5 130.5V168M686.5 168L657.869 143.805C653.377 140.009 647.925 137.524 642.112 136.624L548.2 122.08C541.568 121.053 534.781 122.137 528.799 125.178L508.5 135.5"
        stroke="#9DDEFF" stroke-opacity="0.4" />
    <path
        d="M701.5 115H725V126.5H721.5C717.082 126.5 713.5 130.082 713.5 134.5V174.082C713.5 176.265 714.392 178.354 715.97 179.863L725 188.5V200.5L705.419 185.502C702.949 183.61 701.5 180.675 701.5 177.563V115Z"
        fill="#80D5FF" fill-opacity="0.4" />
    <path
        d="M701.5 124H725V135.5H721.5C717.082 135.5 713.5 139.082 713.5 143.5V182.32C713.5 184.939 714.782 187.392 716.931 188.887L725 194.5V206.5L705.754 192.987C703.087 191.114 701.5 188.061 701.5 184.803V124Z"
        fill="#80D5FF" fill-opacity="0.4" />
    <path d="M701.5 115V124H725V115H701.5Z" fill="#80D5FF" fill-opacity="0.4" />
    <path
        d="M701.5 115H725M701.5 115V177.563C701.5 180.675 702.949 183.61 705.419 185.502L725 200.5V188.5L715.97 179.863C714.392 178.354 713.5 176.265 713.5 174.082V134.5C713.5 130.082 717.082 126.5 721.5 126.5H725V115M701.5 115V124M725 115V124M701.5 124H725M701.5 124V184.803C701.5 188.061 703.087 191.114 705.754 192.987L725 206.5V194.5L716.931 188.887C714.782 187.392 713.5 184.939 713.5 182.32V143.5C713.5 139.082 717.082 135.5 721.5 135.5H725V124"
        stroke="#9DDEFF" stroke-opacity="0.4" />
    <path
        d="M1717.5 754.319C1717.5 760.904 1713.9 766.963 1708.13 770.118L1646.98 803.5V790L1695.52 764.857C1699.5 762.795 1702 758.685 1702 754.202V744C1702 740.686 1699.31 738 1696 738H1689V727.5H1717.5V754.319Z"
        fill="#80D5FF" fill-opacity="0.4" />
    <path
        d="M1724.5 748.819C1724.5 755.404 1720.9 761.463 1715.13 764.618L1653.98 798V784.5L1702.52 759.357C1706.5 757.295 1709 753.185 1709 748.701V738.5C1709 735.186 1706.31 732.5 1703 732.5H1696V722H1724.5V748.819Z"
        fill="#80D5FF" fill-opacity="0.4" />
    <path d="M1696 722L1689 727.5H1717.5L1724.5 722H1696Z" fill="#80D5FF" fill-opacity="0.4" />
    <path d="M1653.98 784.5L1646.98 790V803.5L1653.98 798V784.5Z" fill="#80D5FF" fill-opacity="0.4" />
    <path d="M1696 722L1689 727.5V738L1696 732.5V722Z" fill="#80D5FF" fill-opacity="0.4" />
    <path
        d="M1646.98 803.5L1708.13 770.118C1713.9 766.963 1717.5 760.904 1717.5 754.319V727.5M1646.98 803.5V790M1646.98 803.5L1653.98 798M1689 727.5H1717.5M1689 727.5V738M1689 727.5L1696 722M1717.5 727.5L1724.5 722M1646.98 790L1695.52 764.857C1699.5 762.795 1702 758.685 1702 754.202V744C1702 740.686 1699.31 738 1696 738H1689M1646.98 790L1653.98 784.5M1689 738L1696 732.5M1653.98 798L1715.13 764.618C1720.9 761.463 1724.5 755.404 1724.5 748.819V722M1653.98 798V784.5M1696 722H1724.5M1696 722V732.5M1653.98 784.5L1702.52 759.357C1706.5 757.295 1709 753.185 1709 748.701V738.5C1709 735.186 1706.31 732.5 1703 732.5H1696"
        stroke="#9DDEFF" stroke-opacity="0.4" />
    <path
        d="M1787.44 872.783C1787.44 867.555 1785.04 862.617 1780.92 859.395L1695.44 792.5L1685.94 800.5L1767.31 865.398C1768.97 866.726 1769.94 868.741 1769.94 870.871V877L1787.44 895V872.783Z"
        fill="#80D5FF" fill-opacity="0.4" />
    <path
        d="M1799.5 866.783C1799.5 861.555 1797.09 856.617 1792.98 853.395L1707.5 786.5L1698 794.5L1779.36 859.398C1781.03 860.726 1782 862.741 1782 864.871V871L1799.5 889V866.783Z"
        fill="#80D5FF" fill-opacity="0.4" />
    <path d="M1782 871L1799.5 889L1787.44 895L1769.94 877L1782 871Z" fill="#80D5FF" fill-opacity="0.4" />
    <path d="M1698 794.5L1707.5 786.5L1695.44 792.5L1685.94 800.5L1698 794.5Z" fill="#80D5FF" fill-opacity="0.4" />
    <path
        d="M1695.44 792.5L1780.92 859.395C1785.04 862.617 1787.44 867.555 1787.44 872.783V895M1695.44 792.5L1685.94 800.5M1695.44 792.5L1707.5 786.5M1769.94 877L1787.44 895M1769.94 877V870.871C1769.94 868.741 1768.97 866.726 1767.31 865.398L1685.94 800.5M1769.94 877L1782 871M1787.44 895L1799.5 889M1685.94 800.5L1698 794.5M1707.5 786.5L1792.98 853.395C1797.09 856.617 1799.5 861.555 1799.5 866.783V889M1707.5 786.5L1698 794.5M1782 871L1799.5 889M1782 871V864.871C1782 862.741 1781.03 860.726 1779.36 859.398L1698 794.5"
        stroke="#9DDEFF" stroke-opacity="0.4" />
    <path
        d="M1567.98 839.741C1567.98 833.441 1571.46 827.658 1577.03 824.713L1628.5 797.5V805.935C1628.5 808.132 1627.3 810.154 1625.37 811.205L1587.15 832.011C1584.9 833.237 1583.5 835.596 1583.5 838.159V842L1567.98 856V839.741Z"
        fill="#80D5FF" fill-opacity="0.4" />
    <path
        d="M1572.48 833.847C1572.48 827.547 1575.96 821.763 1581.53 818.818L1633 791.606V800.041C1633 802.238 1631.8 804.26 1629.87 805.31L1591.65 826.117C1589.4 827.343 1588 829.701 1588 832.265V836.106L1572.48 850.106V833.847Z"
        fill="#80D5FF" fill-opacity="0.4" />
    <path
        d="M1628.5 797.5L1577.03 824.713C1571.46 827.658 1567.98 833.441 1567.98 839.741V856M1628.5 797.5V805.935C1628.5 808.132 1627.3 810.154 1625.37 811.205L1587.15 832.011C1584.9 833.237 1583.5 835.596 1583.5 838.159V842M1628.5 797.5L1633 791.606M1583.5 842L1567.98 856M1583.5 842L1588 836.106M1567.98 856L1572.48 850.106M1633 791.606L1581.53 818.818C1575.96 821.763 1572.48 827.547 1572.48 833.847V850.106M1633 791.606V800.041C1633 802.238 1631.8 804.26 1629.87 805.31L1591.65 826.117C1589.4 827.343 1588 829.701 1588 832.265V836.106M1588 836.106L1572.48 850.106"
        stroke="#9DDEFF" stroke-opacity="0.4" />
    <path
        d="M1840 37.5L1850.5 40.5L1834 58.5L1828.47 57.4945C1824.87 56.8401 1821.17 57.0171 1817.65 58.012L1777 69.5L1773.95 66.4491C1771.49 63.9947 1767.94 62.9886 1764.57 63.791L1534.89 118.363C1530.64 119.373 1526.18 117.993 1523.24 114.76L1523 114.5L1840 37.5Z"
        fill="#80D5FF" fill-opacity="0.4" />
    <path d="M1825.07 32L1515.5 107.5L1523 114.5L1840 37.5L1825.07 32Z" fill="#80D5FF" fill-opacity="0.4" />
    <path d="M1835.57 35L1819.07 53L1834 58.5L1850.5 40.5L1835.57 35Z" fill="#80D5FF" fill-opacity="0.4" />
    <path
        d="M1825.07 32L1835.57 35L1819.07 53L1813.54 51.9945C1809.94 51.3401 1806.24 51.5171 1802.72 52.512L1762.07 64L1759.03 60.954C1756.57 58.497 1753.01 57.4916 1749.63 58.2984L1527.4 111.354C1523.14 112.369 1518.67 110.99 1515.73 107.754L1515.5 107.5L1825.07 32Z"
        fill="#80D5FF" fill-opacity="0.4" />
    <path
        d="M1840 37.5L1850.5 40.5M1840 37.5L1523 114.5M1840 37.5L1825.07 32M1850.5 40.5L1834 58.5M1850.5 40.5L1835.57 35M1523 114.5L1523.24 114.76C1526.18 117.993 1530.64 119.373 1534.89 118.363L1764.57 63.791C1767.94 62.9886 1771.49 63.9947 1773.95 66.4491L1777 69.5L1817.65 58.012C1821.17 57.0171 1824.87 56.8401 1828.47 57.4945L1834 58.5M1523 114.5L1515.5 107.5M1834 58.5L1819.07 53M1835.57 35L1819.07 53M1835.57 35L1825.07 32M1819.07 53L1813.54 51.9945C1809.94 51.3401 1806.24 51.5171 1802.72 52.512L1762.07 64L1759.03 60.954C1756.57 58.497 1753.01 57.4916 1749.63 58.2984L1527.4 111.354C1523.14 112.369 1518.67 110.99 1515.73 107.754L1515.5 107.5M1825.07 32L1515.5 107.5"
        stroke="#9DDEFF" stroke-opacity="0.4" />
    <path
        d="M1688 355C1688 343.954 1696.95 335 1708 335H1713.5L1842.7 248.412C1851.01 242.842 1856 233.496 1856 223.491V216.5L1866.43 206.876C1868.07 205.361 1869 203.23 1869 200.997V129.5C1869 123.977 1864.52 119.5 1859 119.5H1856.5V69.5L1845.5 58.5L1863 42.5L1883 50.5V223.308C1883 233.414 1877.91 242.84 1869.46 248.386L1718.5 347.5V349.5C1718.5 356.127 1713.13 361.5 1706.5 361.5H1688V355Z"
        fill="#80D5FF" fill-opacity="0.4" />
    <path
        d="M1695.5 356.5C1695.5 345.454 1704.45 336.5 1715.5 336.5H1721L1856.1 252.735C1865.31 247.029 1870.72 236.808 1870.27 225.989L1870 219.5L1880.43 209.876C1882.07 208.361 1883 206.23 1883 203.997V133.5C1883 127.977 1878.52 123.5 1873 123.5H1871.5V73.5L1860.5 62.5L1878 46.5L1898 54.5V226.707C1898 237.141 1892.58 246.825 1883.69 252.28L1726 349V351C1726 357.627 1720.63 363 1714 363H1695.5V356.5Z"
        fill="#80D5FF" fill-opacity="0.4" />
    <path d="M1863 42.5L1845.5 58.5L1860.5 62.5L1878 46.5L1863 42.5Z" fill="#80D5FF" fill-opacity="0.4" />
    <path d="M1860.5 62.5L1845.5 58.5L1856.5 69.5L1871.5 73.5L1860.5 62.5Z" fill="#80D5FF" fill-opacity="0.4" />
    <path d="M1871.5 73.5L1856.5 69.5V119.5L1871.5 123.5V73.5Z" fill="#80D5FF" fill-opacity="0.4" />
    <path
        d="M1713.5 335H1708C1696.95 335 1688 343.954 1688 355V361.5H1706.5C1713.13 361.5 1718.5 356.127 1718.5 349.5V347.5M1713.5 335L1842.7 248.412C1851.01 242.842 1856 233.496 1856 223.491V216.5M1713.5 335L1721 336.5M1718.5 347.5L1869.46 248.386C1877.91 242.84 1883 233.414 1883 223.308V50.5M1718.5 347.5L1726 349M1856 216.5L1866.43 206.876C1868.07 205.361 1869 203.23 1869 200.997V129.5C1869 123.977 1864.52 119.5 1859 119.5H1856.5M1856 216.5L1870 219.5M1883 50.5L1863 42.5M1883 50.5L1898 54.5M1856.5 119.5V69.5M1856.5 119.5L1871.5 123.5M1856.5 69.5L1845.5 58.5M1856.5 69.5L1871.5 73.5M1845.5 58.5L1863 42.5M1845.5 58.5L1860.5 62.5M1863 42.5L1878 46.5M1721 336.5H1715.5C1704.45 336.5 1695.5 345.454 1695.5 356.5V363H1714C1720.63 363 1726 357.627 1726 351V349M1721 336.5L1856.1 252.735C1865.31 247.029 1870.72 236.808 1870.27 225.989L1870 219.5M1726 349L1883.69 252.28C1892.58 246.825 1898 237.141 1898 226.707V54.5M1870 219.5L1880.43 209.876C1882.07 208.361 1883 206.23 1883 203.997V133.5C1883 127.977 1878.52 123.5 1873 123.5H1871.5M1898 54.5L1878 46.5M1871.5 123.5V73.5M1871.5 73.5L1860.5 62.5M1860.5 62.5L1878 46.5"
        stroke="#9DDEFF" stroke-opacity="0.4" />
    <rect width="13" height="327" rx="2" transform="matrix(-1 0 0 1 1712.5 381.5)" fill="#80D5FF" fill-opacity="0.4" />
    <rect x="-0.5" y="0.5" width="12" height="326" rx="1.5" transform="matrix(-1 0 0 1 1711.5 381.5)" stroke="#9DDEFF"
        stroke-opacity="0.4" />
    <path
        d="M1447 128.717L1505.5 116.217L1516.5 122.217L1503.64 124.434V124.434C1493.88 126.117 1486.12 133.544 1484 143.217V143.217V149.217L1499 165.217V188.717L1431 145.717L1447 128.717Z"
        fill="#80D5FF" fill-opacity="0.4" />
    <path
        d="M1439 121L1497.5 108.5L1508.5 114.5L1495.64 116.717V116.717C1485.88 118.4 1478.12 125.827 1476 135.5V135.5V141.5L1491 157.5V181L1423 138L1439 121Z"
        fill="#80D5FF" fill-opacity="0.4" />
    <path d="M1516.5 122.217L1505.5 116.217L1497.5 108.5L1508.5 114.5L1516.5 122.217Z" fill="#80D5FF"
        fill-opacity="0.4" />
    <path d="M1499 165.217L1491 157.5V181L1499 188.717V165.217Z" fill="#80D5FF" fill-opacity="0.4" />
    <path d="M1499 188.717L1431 145.717L1423 138L1491 181L1499 188.717Z" fill="#80D5FF" fill-opacity="0.4" />
    <path d="M1439 121L1423 138L1431 145.717L1447 128.717L1439 121Z" fill="#80D5FF" fill-opacity="0.4" />
    <path d="M1497.5 108.5L1439 121L1447 128.717L1505.5 116.217L1497.5 108.5Z" fill="#80D5FF" fill-opacity="0.4" />
    <path
        d="M1505.5 116.217L1447 128.717M1505.5 116.217L1516.5 122.217M1505.5 116.217L1497.5 108.5M1447 128.717L1431 145.717M1447 128.717L1439 121M1431 145.717L1499 188.717M1431 145.717L1423 138M1499 188.717V165.217M1499 188.717L1491 181M1499 165.217L1484 149.217V143.217M1499 165.217L1491 157.5M1484 143.217V143.217C1486.12 133.544 1493.88 126.117 1503.64 124.434V124.434M1484 143.217C1486.12 133.544 1493.88 126.117 1503.64 124.434M1516.5 122.217L1503.64 124.434M1516.5 122.217L1508.5 114.5M1497.5 108.5L1439 121M1497.5 108.5L1508.5 114.5M1439 121L1423 138M1423 138L1491 181M1491 181V157.5M1491 157.5L1476 141.5V135.5V135.5C1478.12 125.827 1485.88 118.4 1495.64 116.717V116.717L1508.5 114.5"
        stroke="#9DDEFF" stroke-opacity="0.4" />
    <path
        d="M1414.5 118.5L1379.5 99L1371.5 106.5L1243.5 127L1240 123H1232V159L1258.96 135.214C1263.56 131.157 1269.22 128.506 1275.28 127.578L1366.83 113.558C1373.44 112.545 1380.21 113.632 1386.17 116.665L1406.5 127L1414.5 118.5Z"
        fill="#80D5FF" fill-opacity="0.4" />
    <path
        d="M1419.5 127L1384.5 107.5L1376.5 115L1245 134.5L1241.5 130.5H1233.5V168L1262.13 143.805C1266.62 140.009 1272.08 137.524 1277.89 136.624L1371.8 122.08C1378.43 121.053 1385.22 122.137 1391.2 125.178L1411.5 135.5L1419.5 127Z"
        fill="#80D5FF" fill-opacity="0.4" />
    <path d="M1419.5 127L1414.5 118.5L1406.5 127L1411.5 135.5L1419.5 127Z" fill="#80D5FF" fill-opacity="0.4" />
    <path d="M1414.5 118.5L1379.5 99L1384.5 107.5L1419.5 127L1414.5 118.5Z" fill="#80D5FF" fill-opacity="0.4" />
    <path d="M1384.5 107.5L1379.5 99L1371.5 106.5L1376.5 115L1384.5 107.5Z" fill="#80D5FF" fill-opacity="0.4" />
    <path d="M1371.5 106.5L1243.5 127L1245 134.5L1376.5 115L1371.5 106.5Z" fill="#80D5FF" fill-opacity="0.4" />
    <path d="M1243.5 127L1240 123L1241.5 130.5L1245 134.5L1243.5 127Z" fill="#80D5FF" fill-opacity="0.4" />
    <path d="M1240 123H1232L1233.5 130.5H1241.5L1240 123Z" fill="#80D5FF" fill-opacity="0.4" />
    <path d="M1233.5 130.5L1232 123V159L1233.5 168V130.5Z" fill="#80D5FF" fill-opacity="0.4" />
    <path
        d="M1414.5 118.5L1379.5 99M1414.5 118.5L1406.5 127M1414.5 118.5L1419.5 127M1379.5 99L1371.5 106.5M1379.5 99L1384.5 107.5M1371.5 106.5L1243.5 127M1371.5 106.5L1376.5 115M1243.5 127L1240 123M1243.5 127L1245 134.5M1240 123H1232M1240 123L1241.5 130.5M1232 123V159M1232 123L1233.5 130.5M1232 159L1258.96 135.214C1263.56 131.157 1269.22 128.506 1275.28 127.578L1366.83 113.558C1373.44 112.545 1380.21 113.632 1386.17 116.665L1406.5 127M1232 159L1233.5 168M1406.5 127L1411.5 135.5M1419.5 127L1384.5 107.5M1419.5 127L1411.5 135.5M1384.5 107.5L1376.5 115M1376.5 115L1245 134.5M1245 134.5L1241.5 130.5M1241.5 130.5H1233.5M1233.5 130.5V168M1233.5 168L1262.13 143.805C1266.62 140.009 1272.08 137.524 1277.89 136.624L1371.8 122.08C1378.43 121.053 1385.22 122.137 1391.2 125.178L1411.5 135.5"
        stroke="#9DDEFF" stroke-opacity="0.4" />
    <path
        d="M1218.5 115H1195V126.5H1198.5C1202.92 126.5 1206.5 130.082 1206.5 134.5V174.082C1206.5 176.265 1205.61 178.354 1204.03 179.863L1195 188.5V200.5L1214.58 185.502C1217.05 183.61 1218.5 180.675 1218.5 177.563V115Z"
        fill="#80D5FF" fill-opacity="0.4" />
    <path
        d="M1218.5 124H1195V135.5H1198.5C1202.92 135.5 1206.5 139.082 1206.5 143.5V182.32C1206.5 184.939 1205.22 187.392 1203.07 188.887L1195 194.5V206.5L1214.25 192.987C1216.91 191.114 1218.5 188.061 1218.5 184.803V124Z"
        fill="#80D5FF" fill-opacity="0.4" />
    <path d="M1218.5 115V124H1195V115H1218.5Z" fill="#80D5FF" fill-opacity="0.4" />
    <path
        d="M1218.5 115H1195M1218.5 115V177.563C1218.5 180.675 1217.05 183.61 1214.58 185.502L1195 200.5V188.5L1204.03 179.863C1205.61 178.354 1206.5 176.265 1206.5 174.082V134.5C1206.5 130.082 1202.92 126.5 1198.5 126.5H1195V115M1218.5 115V124M1195 115V124M1218.5 124H1195M1218.5 124V184.803C1218.5 188.061 1216.91 191.114 1214.25 192.987L1195 206.5V194.5L1203.07 188.887C1205.22 187.392 1206.5 184.939 1206.5 182.32V143.5C1206.5 139.082 1202.92 135.5 1198.5 135.5H1195V124"
        stroke="#9DDEFF" stroke-opacity="0.4" />
</svg>