<svg width="252" height="86" viewBox="0 0 252 86" fill="none" xmlns="http://www.w3.org/2000/svg">
    <path d="M12.5 33V36.843L4.81 43L12.5 49.156V53L0 43L12.5 33Z" fill="#A3E7F5" fill-opacity="0.9" />
    <path d="M12.5 40.686L9.61 43L12.5 45.314V40.686Z" fill="#A3E7F5" fill-opacity="0.9" />
    <path d="M62 20V16L74 24V60L62 68V64L71 58V26L62 20Z" fill="#A3E7F5" fill-opacity="0.9" />
    <path d="M50 20V16L38 24V60L50 68V64L41 58V26L50 20Z" fill="#A3E7F5" fill-opacity="0.9" />
    <path
        d="M53.082 53.3594L54.8398 51.6016C55.168 51.2734 55.5547 51.1094 56 51.1094C56.4453 51.1094 56.832 51.2734 57.1602 51.6016L58.9531 53.3594C59.2578 53.6875 59.4102 54.0742 59.4102 54.5195C59.4102 54.9648 59.2578 55.3516 58.9531 55.6797L57.1602 57.4727C56.832 57.7773 56.4453 57.9297 56 57.9297C55.5547 57.9297 55.168 57.7773 54.8398 57.4727L53.082 55.6797C52.7539 55.3516 52.5898 54.9648 52.5898 54.5195C52.5898 54.0742 52.7539 53.6875 53.082 53.3594ZM60.8516 26.7812L59.3398 46.3984C59.3164 46.6094 59.2227 46.7969 59.0586 46.9609C58.918 47.1016 58.7422 47.1719 58.5312 47.1719H53.5039C53.293 47.1719 53.1055 47.1016 52.9414 46.9609C52.7773 46.7969 52.6836 46.6094 52.6602 46.3984L51.1484 26.7812C51.1484 26.5234 51.2305 26.3125 51.3945 26.1484C51.5586 25.9844 51.7578 25.9023 51.9922 25.9023H60.043C60.2773 25.9023 60.4766 25.9844 60.6406 26.1484C60.8047 26.3125 60.875 26.5234 60.8516 26.7812Z"
        fill="pink" fill-opacity="0.5" />
    <path d="M69 17L77 22V31M43 17L35 22V31M69 67L77 62V53M43 67L35 62V53" stroke="#5999A6" stroke-opacity="0.4" />
    <path
        d="M21 78L28 85H84L91 78M21 8L28 1H84L91 8M93.5 77C93.5 77.8284 92.8284 78.5 92 78.5C91.1716 78.5 90.5 77.8284 90.5 77C90.5 76.1716 91.1716 75.5 92 75.5C92.8284 75.5 93.5 76.1716 93.5 77ZM93.5 9C93.5 9.82843 92.8284 10.5 92 10.5C91.1716 10.5 90.5 9.82843 90.5 9C90.5 8.17157 91.1716 7.5 92 7.5C92.8284 7.5 93.5 8.17157 93.5 9ZM21.5 77C21.5 77.8284 20.8284 78.5 20 78.5C19.1716 78.5 18.5 77.8284 18.5 77C18.5 76.1716 19.1716 75.5 20 75.5C20.8284 75.5 21.5 76.1716 21.5 77ZM21.5 9C21.5 9.82843 20.8284 10.5 20 10.5C19.1716 10.5 18.5 9.82843 18.5 9C18.5 8.17157 19.1716 7.5 20 7.5C20.8284 7.5 21.5 8.17157 21.5 9Z"
        stroke="#5999A6" stroke-opacity="0.8" />
        <text x='50' y='50' fill='white'>!</text>
            
    <path
    fill-opacity="0.5"
        d="M126.594 51.25C126.594 52.0833 126.292 52.7917 125.688 53.375C125.104 53.9583 124.396 54.25 123.562 54.25H100.031C99.1979 54.25 98.4792 53.9583 97.875 53.375C97.2917 52.7917 97 52.0833 97 51.25V30.0938C97 29.9271 97.0521 29.7917 97.1562 29.6875C97.2812 29.5625 97.4271 29.5 97.5938 29.5H100.625C100.792 29.5 100.927 29.5625 101.031 29.6875C101.156 29.7917 101.219 29.9271 101.219 30.0938V49.4375C101.219 49.6042 101.281 49.75 101.406 49.875C101.531 49.9792 101.677 50.0312 101.844 50.0312H109.094C109.26 50.0312 109.396 49.9792 109.5 49.875C109.625 49.75 109.688 49.6042 109.688 49.4375V30.0938C109.688 29.9271 109.75 29.7917 109.875 29.6875C110 29.5625 110.146 29.5 110.312 29.5H113.375C113.542 29.5 113.677 29.5625 113.781 29.6875C113.906 29.7917 113.969 29.9271 113.969 30.0938V49.4375C113.969 49.6042 114.021 49.75 114.125 49.875C114.25 49.9792 114.396 50.0312 114.562 50.0312H121.75C121.917 50.0312 122.052 49.9792 122.156 49.875C122.281 49.75 122.344 49.6042 122.344 49.4375V30.0938C122.344 29.9271 122.406 29.7917 122.531 29.6875C122.656 29.5625 122.802 29.5 122.969 29.5H125.969C126.135 29.5 126.281 29.5625 126.406 29.6875C126.531 29.7917 126.594 29.9271 126.594 30.0938V51.25ZM143.688 35.5312C144.521 35.5312 145.229 35.8333 145.812 36.4375C146.417 37.0208 146.719 37.7292 146.719 38.5625V53.6562C146.719 53.8229 146.656 53.9688 146.531 54.0938C146.406 54.1979 146.26 54.25 146.094 54.25H131.625C130.792 54.25 130.073 53.9583 129.469 53.375C128.885 52.7917 128.594 52.0833 128.594 51.25V45.8125C128.594 44.9792 128.885 44.2708 129.469 43.6875C130.073 43.0833 130.792 42.7812 131.625 42.7812H141.875C142.042 42.7812 142.177 42.7292 142.281 42.625C142.406 42.5 142.469 42.3542 142.469 42.1875V40.375C142.469 40.2083 142.406 40.0625 142.281 39.9375C142.177 39.8125 142.042 39.75 141.875 39.75H130.406C130.24 39.75 130.094 39.6979 129.969 39.5938C129.865 39.4688 129.812 39.3229 129.812 39.1562V36.1562C129.812 35.9896 129.865 35.8438 129.969 35.7188C130.094 35.5938 130.24 35.5312 130.406 35.5312H143.688ZM132.812 49.4375C132.812 49.6042 132.875 49.75 133 49.875C133.125 49.9792 133.271 50.0312 133.438 50.0312H141.875C142.042 50.0312 142.177 49.9792 142.281 49.875C142.406 49.75 142.469 49.6042 142.469 49.4375V47.625C142.469 47.4583 142.406 47.3125 142.281 47.1875C142.177 47.0625 142.042 47 141.875 47H133.438C133.271 47 133.125 47.0625 133 47.1875C132.875 47.3125 132.812 47.4583 132.812 47.625V49.4375ZM153.562 39.75C153.396 39.75 153.25 39.8125 153.125 39.9375C153 40.0625 152.938 40.2083 152.938 40.375V53.6562C152.938 53.8229 152.875 53.9688 152.75 54.0938C152.646 54.1979 152.51 54.25 152.344 54.25H149.312C149.146 54.25 149 54.1979 148.875 54.0938C148.771 53.9688 148.719 53.8229 148.719 53.6562V36.1562C148.719 35.9896 148.771 35.8438 148.875 35.7188C149 35.5938 149.146 35.5312 149.312 35.5312H163.812C164.646 35.5312 165.354 35.8333 165.938 36.4375C166.542 37.0208 166.844 37.7292 166.844 38.5625V41.5625C166.844 41.7292 166.781 41.875 166.656 42C166.531 42.125 166.385 42.1875 166.219 42.1875H163.219C163.052 42.1875 162.906 42.125 162.781 42C162.656 41.875 162.594 41.7292 162.594 41.5625V40.375C162.594 40.2083 162.531 40.0625 162.406 39.9375C162.302 39.8125 162.167 39.75 162 39.75H153.562ZM173.688 39.75C173.521 39.75 173.375 39.8125 173.25 39.9375C173.125 40.0625 173.062 40.2083 173.062 40.375V53.6562C173.062 53.8229 173 53.9688 172.875 54.0938C172.771 54.1979 172.635 54.25 172.469 54.25H169.438C169.271 54.25 169.125 54.1979 169 54.0938C168.896 53.9688 168.844 53.8229 168.844 53.6562V38.5625C168.844 37.7292 169.135 37.0208 169.719 36.4375C170.323 35.8333 171.042 35.5312 171.875 35.5312H183.938C184.771 35.5312 185.479 35.8333 186.062 36.4375C186.667 37.0208 186.969 37.7292 186.969 38.5625V53.6562C186.969 53.8229 186.906 53.9688 186.781 54.0938C186.656 54.1979 186.51 54.25 186.344 54.25H183.344C183.177 54.25 183.031 54.1979 182.906 54.0938C182.781 53.9688 182.719 53.8229 182.719 53.6562V40.375C182.719 40.2083 182.656 40.0625 182.531 39.9375C182.427 39.8125 182.292 39.75 182.125 39.75H173.688ZM188.969 30.0938C188.969 29.9271 189.021 29.7917 189.125 29.6875C189.25 29.5625 189.396 29.5 189.562 29.5H192.594C192.76 29.5 192.896 29.5625 193 29.6875C193.125 29.7917 193.188 29.9271 193.188 30.0938V33.125C193.188 33.2917 193.125 33.4375 193 33.5625C192.896 33.6667 192.76 33.7188 192.594 33.7188H189.562C189.396 33.7188 189.25 33.6667 189.125 33.5625C189.021 33.4375 188.969 33.2917 188.969 33.125V30.0938ZM192.594 35.5312C192.76 35.5312 192.896 35.5938 193 35.7188C193.125 35.8438 193.188 35.9896 193.188 36.1562V53.6562C193.188 53.8229 193.125 53.9688 193 54.0938C192.896 54.1979 192.76 54.25 192.594 54.25H189.562C189.396 54.25 189.25 54.1979 189.125 54.0938C189.021 53.9688 188.969 53.8229 188.969 53.6562V36.1562C188.969 35.9896 189.021 35.8438 189.125 35.7188C189.25 35.5938 189.396 35.5312 189.562 35.5312H192.594ZM200.031 39.75C199.865 39.75 199.719 39.8125 199.594 39.9375C199.469 40.0625 199.406 40.2083 199.406 40.375V53.6562C199.406 53.8229 199.344 53.9688 199.219 54.0938C199.115 54.1979 198.979 54.25 198.812 54.25H195.781C195.615 54.25 195.469 54.1979 195.344 54.0938C195.24 53.9688 195.188 53.8229 195.188 53.6562V38.5625C195.188 37.7292 195.479 37.0208 196.062 36.4375C196.667 35.8333 197.385 35.5312 198.219 35.5312H210.281C211.115 35.5312 211.823 35.8333 212.406 36.4375C213.01 37.0208 213.312 37.7292 213.312 38.5625V53.6562C213.312 53.8229 213.25 53.9688 213.125 54.0938C213 54.1979 212.854 54.25 212.688 54.25H209.688C209.521 54.25 209.375 54.1979 209.25 54.0938C209.125 53.9688 209.062 53.8229 209.062 53.6562V40.375C209.062 40.2083 209 40.0625 208.875 39.9375C208.771 39.8125 208.635 39.75 208.469 39.75H200.031ZM230.406 61.5H215.906C215.74 61.5 215.594 61.4375 215.469 61.3125C215.365 61.2083 215.312 61.0729 215.312 60.9062V57.875C215.312 57.7083 215.365 57.5625 215.469 57.4375C215.594 57.3333 215.74 57.2812 215.906 57.2812H228.594C228.76 57.2812 228.896 57.2188 229 57.0938C229.125 56.9688 229.188 56.8229 229.188 56.6562V54.8438C229.188 54.6771 229.125 54.5417 229 54.4375C228.896 54.3125 228.76 54.25 228.594 54.25H218.344C217.51 54.25 216.792 53.9583 216.188 53.375C215.604 52.7917 215.312 52.0833 215.312 51.25V38.5625C215.312 37.7292 215.604 37.0208 216.188 36.4375C216.792 35.8333 217.51 35.5312 218.344 35.5312H230.406C231.24 35.5312 231.948 35.8333 232.531 36.4375C233.135 37.0208 233.438 37.7292 233.438 38.5625V58.4688C233.438 59.3021 233.135 60.0104 232.531 60.5938C231.948 61.1979 231.24 61.5 230.406 61.5ZM219.531 49.4375C219.531 49.6042 219.594 49.75 219.719 49.875C219.844 49.9792 219.99 50.0312 220.156 50.0312H228.594C228.76 50.0312 228.896 49.9792 229 49.875C229.125 49.75 229.188 49.6042 229.188 49.4375V40.375C229.188 40.2083 229.125 40.0625 229 39.9375C228.896 39.8125 228.76 39.75 228.594 39.75H220.156C219.99 39.75 219.844 39.8125 219.719 39.9375C219.594 40.0625 219.531 40.2083 219.531 40.375V49.4375Z"
        fill="red" />
    <path
    fill-opacity="0.5"
        d="M125.688 53.375L125.34 53.0152L125.334 53.0214L125.688 53.375ZM97.875 53.375L97.5214 53.7286L97.5277 53.7347L97.875 53.375ZM97.1562 29.6875L96.8027 29.3339L97.1562 29.6875ZM101.031 29.6875L100.647 30.0076L100.676 30.0425L100.711 30.0716L101.031 29.6875ZM101.406 49.875L101.053 50.2286L101.069 50.2446L101.086 50.2591L101.406 49.875ZM109.5 49.875L109.146 49.5214L109.5 49.875ZM109.875 29.6875L110.195 30.0716L110.213 30.0571L110.229 30.0411L109.875 29.6875ZM113.781 29.6875L113.397 30.0076L113.426 30.0425L113.461 30.0716L113.781 29.6875ZM114.125 49.875L113.741 50.1951L113.77 50.23L113.805 50.2591L114.125 49.875ZM122.156 49.875L122.51 50.2286L122.156 49.875ZM122.531 29.6875L122.851 30.0716L122.869 30.0571L122.885 30.0411L122.531 29.6875ZM126.406 29.6875L126.053 30.0411L126.069 30.0571L126.086 30.0716L126.406 29.6875ZM126.094 51.25C126.094 51.9465 125.848 52.5254 125.34 53.0153L126.035 53.7347C126.736 53.058 127.094 52.2202 127.094 51.25H126.094ZM125.334 53.0214C124.845 53.5099 124.265 53.75 123.562 53.75V54.75C124.527 54.75 125.363 54.4067 126.041 53.7286L125.334 53.0214ZM123.562 53.75H100.031V54.75H123.562V53.75ZM100.031 53.75C99.3286 53.75 98.7341 53.5094 98.2223 53.0153L97.5277 53.7347C98.2243 54.4073 99.0672 54.75 100.031 54.75V53.75ZM98.2286 53.0214C97.7401 52.5329 97.5 51.9522 97.5 51.25H96.5C96.5 52.2144 96.8433 53.0504 97.5214 53.7286L98.2286 53.0214ZM97.5 51.25V30.0938H96.5V51.25H97.5ZM97.5 30.0938C97.5 30.0628 97.5047 30.0493 97.5057 30.0467C97.5063 30.0452 97.5066 30.0447 97.5067 30.0446C97.5068 30.0445 97.5075 30.0434 97.5098 30.0411L96.8027 29.3339C96.5921 29.5445 96.5 29.8135 96.5 30.0938H97.5ZM97.5098 30.0411C97.5473 30.0035 97.5684 30 97.5938 30V29C97.2858 29 97.0152 29.1215 96.8027 29.3339L97.5098 30.0411ZM97.5938 30H100.625V29H97.5938V30ZM100.625 30C100.635 30 100.641 30.001 100.643 30.0013C100.645 30.0017 100.644 30.0017 100.642 30.0009C100.64 30 100.639 29.9991 100.639 29.9992C100.639 29.9994 100.642 30.0016 100.647 30.0076L101.415 29.3674C101.214 29.1253 100.936 29 100.625 29V30ZM100.711 30.0716C100.717 30.0766 100.719 30.0794 100.72 30.0796C100.72 30.0798 100.719 30.0787 100.718 30.0767C100.717 30.0748 100.717 30.0742 100.717 30.0759C100.718 30.0778 100.719 30.0834 100.719 30.0938H101.719C101.719 29.7829 101.593 29.5052 101.351 29.3034L100.711 30.0716ZM100.719 30.0938V49.4375H101.719V30.0938H100.719ZM100.719 49.4375C100.719 49.7454 100.84 50.0161 101.053 50.2286L101.76 49.5214C101.722 49.4839 101.719 49.4629 101.719 49.4375H100.719ZM101.086 50.2591C101.303 50.4401 101.563 50.5312 101.844 50.5312V49.5312C101.791 49.5312 101.759 49.5182 101.726 49.4909L101.086 50.2591ZM101.844 50.5312H109.094V49.5312H101.844V50.5312ZM109.094 50.5312C109.374 50.5312 109.643 50.4391 109.854 50.2286L109.146 49.5214C109.144 49.5237 109.143 49.5245 109.143 49.5246C109.143 49.5246 109.142 49.5249 109.141 49.5255C109.138 49.5265 109.125 49.5312 109.094 49.5312V50.5312ZM109.854 50.2286C110.066 50.0161 110.188 49.7454 110.188 49.4375H109.188C109.188 49.4629 109.184 49.4839 109.146 49.5214L109.854 50.2286ZM110.188 49.4375V30.0938H109.188V49.4375H110.188ZM110.188 30.0938C110.188 30.0834 110.188 30.0778 110.189 30.0759C110.189 30.0742 110.189 30.0748 110.188 30.0767C110.187 30.0787 110.187 30.0798 110.187 30.0796C110.187 30.0794 110.189 30.0766 110.195 30.0716L109.555 29.3034C109.313 29.5052 109.188 29.7829 109.188 30.0938H110.188ZM110.229 30.0411C110.266 30.0035 110.287 30 110.312 30V29C110.005 29 109.734 29.1215 109.521 29.3339L110.229 30.0411ZM110.312 30H113.375V29H110.312V30ZM113.375 30C113.385 30 113.391 30.001 113.393 30.0013C113.395 30.0017 113.394 30.0017 113.392 30.0009C113.39 30 113.389 29.9991 113.389 29.9992C113.389 29.9994 113.392 30.0016 113.397 30.0076L114.165 29.3674C113.964 29.1253 113.686 29 113.375 29V30ZM113.461 30.0716C113.467 30.0766 113.469 30.0794 113.47 30.0796C113.47 30.0798 113.469 30.0787 113.468 30.0767C113.467 30.0748 113.467 30.0742 113.467 30.0759C113.468 30.0778 113.469 30.0834 113.469 30.0938H114.469C114.469 29.7829 114.343 29.5052 114.101 29.3034L113.461 30.0716ZM113.469 30.0938V49.4375H114.469V30.0938H113.469ZM113.469 49.4375C113.469 49.718 113.56 49.9779 113.741 50.1951L114.509 49.5549C114.482 49.5221 114.469 49.4903 114.469 49.4375H113.469ZM113.805 50.2591C114.022 50.4401 114.282 50.5312 114.562 50.5312V49.5312C114.51 49.5312 114.478 49.5182 114.445 49.4909L113.805 50.2591ZM114.562 50.5312H121.75V49.5312H114.562V50.5312ZM121.75 50.5312C122.03 50.5312 122.299 50.4391 122.51 50.2286L121.803 49.5214C121.8 49.5237 121.799 49.5245 121.799 49.5246C121.799 49.5246 121.799 49.5249 121.797 49.5255C121.794 49.5265 121.781 49.5312 121.75 49.5312V50.5312ZM122.51 50.2286C122.722 50.0161 122.844 49.7454 122.844 49.4375H121.844C121.844 49.4629 121.84 49.4839 121.803 49.5214L122.51 50.2286ZM122.844 49.4375V30.0938H121.844V49.4375H122.844ZM122.844 30.0938C122.844 30.0834 122.845 30.0778 122.845 30.0759C122.845 30.0742 122.845 30.0748 122.845 30.0767C122.844 30.0787 122.843 30.0798 122.843 30.0796C122.843 30.0794 122.845 30.0766 122.851 30.0716L122.211 29.3034C121.969 29.5052 121.844 29.7829 121.844 30.0938H122.844ZM122.885 30.0411C122.922 30.0035 122.943 30 122.969 30V29C122.661 29 122.39 29.1215 122.178 29.3339L122.885 30.0411ZM122.969 30H125.969V29H122.969V30ZM125.969 30C125.994 30 126.015 30.0035 126.053 30.0411L126.76 29.3339C126.547 29.1215 126.277 29 125.969 29V30ZM126.086 30.0716C126.092 30.0766 126.094 30.0794 126.095 30.0796C126.095 30.0798 126.094 30.0787 126.093 30.0767C126.092 30.0748 126.092 30.0742 126.092 30.0759C126.093 30.0778 126.094 30.0834 126.094 30.0938H127.094C127.094 29.7829 126.968 29.5052 126.726 29.3034L126.086 30.0716ZM126.094 30.0938V51.25H127.094V30.0938H126.094ZM145.812 36.4375L145.453 36.7848L145.459 36.7911L145.465 36.7972L145.812 36.4375ZM146.531 54.0938L146.851 54.4779L146.869 54.4633L146.885 54.4473L146.531 54.0938ZM129.469 53.375L129.115 53.7286L129.121 53.7347L129.469 53.375ZM129.469 43.6875L129.115 43.3339L129.469 43.6875ZM142.281 39.9375L141.897 40.2576L141.912 40.275L141.928 40.2911L142.281 39.9375ZM129.969 39.5938L129.585 39.9138L129.614 39.9488L129.649 39.9779L129.969 39.5938ZM129.969 35.7188L129.615 35.3652L129.599 35.3812L129.585 35.3987L129.969 35.7188ZM133 49.875L132.646 50.2286L132.662 50.2446L132.68 50.2591L133 49.875ZM142.281 49.875L141.928 49.5214L142.281 49.875ZM142.281 47.1875L141.897 47.5076L141.912 47.525L141.928 47.5411L142.281 47.1875ZM143.688 36.0312C144.384 36.0312 144.963 36.2774 145.453 36.7848L146.172 36.0902C145.495 35.3893 144.658 35.0312 143.688 35.0312V36.0312ZM145.465 36.7972C145.973 37.2871 146.219 37.866 146.219 38.5625H147.219C147.219 37.5923 146.861 36.7545 146.16 36.0778L145.465 36.7972ZM146.219 38.5625V53.6562H147.219V38.5625H146.219ZM146.219 53.6562C146.219 53.6816 146.215 53.7027 146.178 53.7402L146.885 54.4473C147.097 54.2348 147.219 53.9642 147.219 53.6562H146.219ZM146.211 53.7096C146.178 53.737 146.147 53.75 146.094 53.75V54.75C146.374 54.75 146.634 54.6589 146.851 54.4779L146.211 53.7096ZM146.094 53.75H131.625V54.75H146.094V53.75ZM131.625 53.75C130.922 53.75 130.328 53.5094 129.816 53.0153L129.121 53.7347C129.818 54.4073 130.661 54.75 131.625 54.75V53.75ZM129.822 53.0214C129.334 52.5329 129.094 51.9522 129.094 51.25H128.094C128.094 52.2144 128.437 53.0504 129.115 53.7286L129.822 53.0214ZM129.094 51.25V45.8125H128.094V51.25H129.094ZM129.094 45.8125C129.094 45.1103 129.334 44.5296 129.822 44.0411L129.115 43.3339C128.437 44.0121 128.094 44.8481 128.094 45.8125H129.094ZM129.822 44.0411C130.335 43.528 130.928 43.2812 131.625 43.2812V42.2812C130.655 42.2812 129.81 42.6387 129.115 43.3339L129.822 44.0411ZM131.625 43.2812H141.875V42.2812H131.625V43.2812ZM141.875 43.2812C142.155 43.2812 142.424 43.1891 142.635 42.9786L141.928 42.2714C141.925 42.2737 141.924 42.2745 141.924 42.2746C141.924 42.2746 141.924 42.2749 141.922 42.2755C141.919 42.2765 141.906 42.2812 141.875 42.2812V43.2812ZM142.635 42.9786C142.847 42.7661 142.969 42.4954 142.969 42.1875H141.969C141.969 42.2129 141.965 42.2339 141.928 42.2714L142.635 42.9786ZM142.969 42.1875V40.375H141.969V42.1875H142.969ZM142.969 40.375C142.969 40.0671 142.847 39.7964 142.635 39.5839L141.928 40.2911C141.965 40.3286 141.969 40.3496 141.969 40.375H142.969ZM142.665 39.6174C142.464 39.3753 142.186 39.25 141.875 39.25V40.25C141.885 40.25 141.891 40.251 141.893 40.2513C141.895 40.2517 141.894 40.2517 141.892 40.2509C141.89 40.25 141.889 40.2491 141.889 40.2492C141.889 40.2494 141.892 40.2516 141.897 40.2576L142.665 39.6174ZM141.875 39.25H130.406V40.25H141.875V39.25ZM130.406 39.25C130.353 39.25 130.322 39.237 130.289 39.2096L129.649 39.9779C129.866 40.1589 130.126 40.25 130.406 40.25V39.25ZM130.353 39.2737C130.326 39.2409 130.312 39.209 130.312 39.1562H129.312C129.312 39.4368 129.404 39.6966 129.585 39.9138L130.353 39.2737ZM130.312 39.1562V36.1562H129.312V39.1562H130.312ZM130.312 36.1562C130.312 36.1035 130.326 36.0716 130.353 36.0388L129.585 35.3987C129.404 35.6159 129.312 35.8757 129.312 36.1562H130.312ZM130.322 36.0723C130.36 36.0348 130.381 36.0312 130.406 36.0312V35.0312C130.098 35.0312 129.828 35.1527 129.615 35.3652L130.322 36.0723ZM130.406 36.0312H143.688V35.0312H130.406V36.0312ZM132.312 49.4375C132.312 49.7454 132.434 50.0161 132.646 50.2286L133.354 49.5214C133.316 49.4839 133.312 49.4629 133.312 49.4375H132.312ZM132.68 50.2591C132.897 50.4401 133.157 50.5312 133.438 50.5312V49.5312C133.385 49.5312 133.353 49.5182 133.32 49.4909L132.68 50.2591ZM133.438 50.5312H141.875V49.5312H133.438V50.5312ZM141.875 50.5312C142.155 50.5312 142.424 50.4391 142.635 50.2286L141.928 49.5214C141.925 49.5237 141.924 49.5245 141.924 49.5246C141.924 49.5246 141.924 49.5249 141.922 49.5255C141.919 49.5265 141.906 49.5312 141.875 49.5312V50.5312ZM142.635 50.2286C142.847 50.0161 142.969 49.7454 142.969 49.4375H141.969C141.969 49.4629 141.965 49.4839 141.928 49.5214L142.635 50.2286ZM142.969 49.4375V47.625H141.969V49.4375H142.969ZM142.969 47.625C142.969 47.3171 142.847 47.0464 142.635 46.8339L141.928 47.5411C141.965 47.5786 141.969 47.5996 141.969 47.625H142.969ZM142.665 46.8674C142.464 46.6253 142.186 46.5 141.875 46.5V47.5C141.885 47.5 141.891 47.501 141.893 47.5013C141.895 47.5017 141.894 47.5017 141.892 47.5009C141.89 47.5 141.889 47.4991 141.889 47.4992C141.889 47.4994 141.892 47.5016 141.897 47.5076L142.665 46.8674ZM141.875 46.5H133.438V47.5H141.875V46.5ZM133.438 46.5C133.13 46.5 132.859 46.6215 132.646 46.8339L133.354 47.5411C133.391 47.5035 133.412 47.5 133.438 47.5V46.5ZM132.646 46.8339C132.434 47.0464 132.312 47.3171 132.312 47.625H133.312C133.312 47.5996 133.316 47.5786 133.354 47.5411L132.646 46.8339ZM132.312 47.625V49.4375H133.312V47.625H132.312ZM152.75 54.0938L153.104 54.4473L152.75 54.0938ZM148.875 54.0938L148.491 54.4138L148.52 54.4488L148.555 54.4779L148.875 54.0938ZM148.875 35.7188L148.521 35.3652L148.505 35.3812L148.491 35.3987L148.875 35.7188ZM165.938 36.4375L165.578 36.7848L165.584 36.7911L165.59 36.7972L165.938 36.4375ZM162.406 39.9375L162.022 40.2576L162.037 40.275L162.053 40.2911L162.406 39.9375ZM153.562 39.25C153.255 39.25 152.984 39.3715 152.771 39.5839L153.479 40.2911C153.516 40.2535 153.537 40.25 153.562 40.25V39.25ZM152.771 39.5839C152.559 39.7964 152.438 40.0671 152.438 40.375H153.438C153.438 40.3496 153.441 40.3286 153.479 40.2911L152.771 39.5839ZM152.438 40.375V53.6562H153.438V40.375H152.438ZM152.438 53.6562C152.438 53.6816 152.434 53.7027 152.396 53.7402L153.104 54.4473C153.316 54.2348 153.438 53.9642 153.438 53.6562H152.438ZM152.396 53.7402C152.394 53.7425 152.393 53.7432 152.393 53.7433C152.393 53.7434 152.392 53.7437 152.391 53.7443C152.388 53.7453 152.375 53.75 152.344 53.75V54.75C152.624 54.75 152.893 54.6579 153.104 54.4473L152.396 53.7402ZM152.344 53.75H149.312V54.75H152.344V53.75ZM149.312 53.75C149.26 53.75 149.228 53.737 149.195 53.7096L148.555 54.4779C148.772 54.6589 149.032 54.75 149.312 54.75V53.75ZM149.259 53.7737C149.232 53.7409 149.219 53.709 149.219 53.6562H148.219C148.219 53.9368 148.31 54.1966 148.491 54.4138L149.259 53.7737ZM149.219 53.6562V36.1562H148.219V53.6562H149.219ZM149.219 36.1562C149.219 36.1035 149.232 36.0716 149.259 36.0388L148.491 35.3987C148.31 35.6159 148.219 35.8757 148.219 36.1562H149.219ZM149.229 36.0723C149.266 36.0348 149.287 36.0312 149.312 36.0312V35.0312C149.005 35.0312 148.734 35.1527 148.521 35.3652L149.229 36.0723ZM149.312 36.0312H163.812V35.0312H149.312V36.0312ZM163.812 36.0312C164.509 36.0312 165.088 36.2774 165.578 36.7848L166.297 36.0902C165.62 35.3893 164.783 35.0312 163.812 35.0312V36.0312ZM165.59 36.7972C166.098 37.2871 166.344 37.866 166.344 38.5625H167.344C167.344 37.5923 166.986 36.7545 166.285 36.0778L165.59 36.7972ZM166.344 38.5625V41.5625H167.344V38.5625H166.344ZM166.344 41.5625C166.344 41.5879 166.34 41.6089 166.303 41.6464L167.01 42.3536C167.222 42.1411 167.344 41.8704 167.344 41.5625H166.344ZM166.303 41.6464C166.265 41.684 166.244 41.6875 166.219 41.6875V42.6875C166.527 42.6875 166.797 42.566 167.01 42.3536L166.303 41.6464ZM166.219 41.6875H163.219V42.6875H166.219V41.6875ZM163.219 41.6875C163.193 41.6875 163.172 41.684 163.135 41.6464L162.428 42.3536C162.64 42.566 162.911 42.6875 163.219 42.6875V41.6875ZM163.135 41.6464C163.097 41.6089 163.094 41.5879 163.094 41.5625H162.094C162.094 41.8704 162.215 42.1411 162.428 42.3536L163.135 41.6464ZM163.094 41.5625V40.375H162.094V41.5625H163.094ZM163.094 40.375C163.094 40.0671 162.972 39.7964 162.76 39.5839L162.053 40.2911C162.09 40.3286 162.094 40.3496 162.094 40.375H163.094ZM162.79 39.6174C162.589 39.3753 162.311 39.25 162 39.25V40.25C162.01 40.25 162.016 40.251 162.018 40.2513C162.02 40.2517 162.019 40.2517 162.017 40.2509C162.015 40.25 162.014 40.2491 162.014 40.2492C162.014 40.2494 162.017 40.2516 162.022 40.2576L162.79 39.6174ZM162 39.25H153.562V40.25H162V39.25ZM172.875 54.0938L173.229 54.4473L172.875 54.0938ZM169 54.0938L168.616 54.4138L168.645 54.4488L168.68 54.4779L169 54.0938ZM169.719 36.4375L170.072 36.7911L169.719 36.4375ZM186.062 36.4375L185.703 36.7848L185.709 36.7911L185.715 36.7972L186.062 36.4375ZM186.781 54.0938L187.101 54.4779L187.119 54.4633L187.135 54.4473L186.781 54.0938ZM182.906 54.0938L182.553 54.4473L182.569 54.4633L182.586 54.4779L182.906 54.0938ZM182.531 39.9375L182.147 40.2576L182.162 40.275L182.178 40.2911L182.531 39.9375ZM173.688 39.25C173.38 39.25 173.109 39.3715 172.896 39.5839L173.604 40.2911C173.641 40.2535 173.662 40.25 173.688 40.25V39.25ZM172.896 39.5839C172.684 39.7964 172.562 40.0671 172.562 40.375H173.562C173.562 40.3496 173.566 40.3286 173.604 40.2911L172.896 39.5839ZM172.562 40.375V53.6562H173.562V40.375H172.562ZM172.562 53.6562C172.562 53.6816 172.559 53.7027 172.521 53.7402L173.229 54.4473C173.441 54.2348 173.562 53.9642 173.562 53.6562H172.562ZM172.521 53.7402C172.519 53.7425 172.518 53.7432 172.518 53.7433C172.518 53.7434 172.517 53.7437 172.516 53.7443C172.513 53.7453 172.5 53.75 172.469 53.75V54.75C172.749 54.75 173.018 54.6579 173.229 54.4473L172.521 53.7402ZM172.469 53.75H169.438V54.75H172.469V53.75ZM169.438 53.75C169.385 53.75 169.353 53.737 169.32 53.7096L168.68 54.4779C168.897 54.6589 169.157 54.75 169.438 54.75V53.75ZM169.384 53.7737C169.357 53.7409 169.344 53.709 169.344 53.6562H168.344C168.344 53.9368 168.435 54.1966 168.616 54.4138L169.384 53.7737ZM169.344 53.6562V38.5625H168.344V53.6562H169.344ZM169.344 38.5625C169.344 37.8603 169.584 37.2796 170.072 36.7911L169.365 36.0839C168.687 36.7621 168.344 37.5981 168.344 38.5625H169.344ZM170.072 36.7911C170.585 36.278 171.178 36.0312 171.875 36.0312V35.0312C170.905 35.0312 170.06 35.3887 169.365 36.0839L170.072 36.7911ZM171.875 36.0312H183.938V35.0312H171.875V36.0312ZM183.938 36.0312C184.634 36.0312 185.213 36.2774 185.703 36.7848L186.422 36.0902C185.745 35.3893 184.908 35.0312 183.938 35.0312V36.0312ZM185.715 36.7972C186.223 37.2871 186.469 37.866 186.469 38.5625H187.469C187.469 37.5923 187.111 36.7545 186.41 36.0778L185.715 36.7972ZM186.469 38.5625V53.6562H187.469V38.5625H186.469ZM186.469 53.6562C186.469 53.6816 186.465 53.7027 186.428 53.7402L187.135 54.4473C187.347 54.2348 187.469 53.9642 187.469 53.6562H186.469ZM186.461 53.7096C186.428 53.737 186.397 53.75 186.344 53.75V54.75C186.624 54.75 186.884 54.6589 187.101 54.4779L186.461 53.7096ZM186.344 53.75H183.344V54.75H186.344V53.75ZM183.344 53.75C183.291 53.75 183.259 53.737 183.226 53.7096L182.586 54.4779C182.803 54.6589 183.063 54.75 183.344 54.75V53.75ZM183.26 53.7402C183.222 53.7027 183.219 53.6816 183.219 53.6562H182.219C182.219 53.9642 182.34 54.2348 182.553 54.4473L183.26 53.7402ZM183.219 53.6562V40.375H182.219V53.6562H183.219ZM183.219 40.375C183.219 40.0671 183.097 39.7964 182.885 39.5839L182.178 40.2911C182.215 40.3286 182.219 40.3496 182.219 40.375H183.219ZM182.915 39.6174C182.714 39.3753 182.436 39.25 182.125 39.25V40.25C182.135 40.25 182.141 40.251 182.143 40.2513C182.145 40.2517 182.144 40.2517 182.142 40.2509C182.14 40.25 182.139 40.2491 182.139 40.2492C182.139 40.2494 182.142 40.2516 182.147 40.2576L182.915 39.6174ZM182.125 39.25H173.688V40.25H182.125V39.25ZM189.125 29.6875L188.771 29.3339L189.125 29.6875ZM193 29.6875L192.616 30.0076L192.645 30.0425L192.68 30.0716L193 29.6875ZM193 33.5625L192.646 33.2089L193 33.5625ZM189.125 33.5625L188.741 33.8826L188.77 33.9175L188.805 33.9466L189.125 33.5625ZM193 35.7188L192.616 36.0388L192.63 36.0563L192.646 36.0723L193 35.7188ZM193 54.0938L193.354 54.4473L193 54.0938ZM189.125 54.0938L188.741 54.4138L188.77 54.4488L188.805 54.4779L189.125 54.0938ZM189.125 35.7188L188.771 35.3652L188.755 35.3812L188.741 35.3987L189.125 35.7188ZM189.469 30.0938C189.469 30.0628 189.473 30.0493 189.474 30.0467C189.475 30.0452 189.475 30.0447 189.475 30.0446C189.476 30.0445 189.476 30.0434 189.479 30.0411L188.771 29.3339C188.561 29.5445 188.469 29.8135 188.469 30.0938H189.469ZM189.479 30.0411C189.516 30.0035 189.537 30 189.562 30V29C189.255 29 188.984 29.1215 188.771 29.3339L189.479 30.0411ZM189.562 30H192.594V29H189.562V30ZM192.594 30C192.604 30 192.61 30.001 192.612 30.0013C192.613 30.0017 192.613 30.0017 192.611 30.0009C192.609 30 192.608 29.9991 192.608 29.9992C192.608 29.9994 192.611 30.0016 192.616 30.0076L193.384 29.3674C193.182 29.1253 192.905 29 192.594 29V30ZM192.68 30.0716C192.686 30.0766 192.688 30.0794 192.688 30.0796C192.688 30.0798 192.688 30.0787 192.687 30.0767C192.686 30.0748 192.686 30.0742 192.686 30.0759C192.687 30.0778 192.688 30.0834 192.688 30.0938H193.688C193.688 29.7829 193.562 29.5052 193.32 29.3034L192.68 30.0716ZM192.688 30.0938V33.125H193.688V30.0938H192.688ZM192.688 33.125C192.688 33.1504 192.684 33.1714 192.646 33.2089L193.354 33.9161C193.566 33.7036 193.688 33.4329 193.688 33.125H192.688ZM192.646 33.2089C192.644 33.2112 192.643 33.212 192.643 33.2121C192.643 33.2121 192.642 33.2124 192.641 33.213C192.638 33.214 192.625 33.2188 192.594 33.2188V34.2188C192.874 34.2188 193.143 34.1266 193.354 33.9161L192.646 33.2089ZM192.594 33.2188H189.562V34.2188H192.594V33.2188ZM189.562 33.2188C189.51 33.2188 189.478 33.2057 189.445 33.1784L188.805 33.9466C189.022 34.1276 189.282 34.2188 189.562 34.2188V33.2188ZM189.509 33.2424C189.482 33.2096 189.469 33.1778 189.469 33.125H188.469C188.469 33.4055 188.56 33.6654 188.741 33.8826L189.509 33.2424ZM189.469 33.125V30.0938H188.469V33.125H189.469ZM192.594 36.0312C192.604 36.0312 192.61 36.0322 192.612 36.0326C192.613 36.033 192.613 36.033 192.611 36.0321C192.609 36.0312 192.608 36.0304 192.608 36.0305C192.608 36.0307 192.611 36.0329 192.616 36.0388L193.384 35.3987C193.182 35.1565 192.905 35.0312 192.594 35.0312V36.0312ZM192.646 36.0723C192.684 36.1098 192.688 36.1309 192.688 36.1562H193.688C193.688 35.8483 193.566 35.5777 193.354 35.3652L192.646 36.0723ZM192.688 36.1562V53.6562H193.688V36.1562H192.688ZM192.688 53.6562C192.688 53.6816 192.684 53.7027 192.646 53.7402L193.354 54.4473C193.566 54.2348 193.688 53.9642 193.688 53.6562H192.688ZM192.646 53.7402C192.644 53.7425 192.643 53.7432 192.643 53.7433C192.643 53.7434 192.642 53.7437 192.641 53.7443C192.638 53.7453 192.625 53.75 192.594 53.75V54.75C192.874 54.75 193.143 54.6579 193.354 54.4473L192.646 53.7402ZM192.594 53.75H189.562V54.75H192.594V53.75ZM189.562 53.75C189.51 53.75 189.478 53.737 189.445 53.7096L188.805 54.4779C189.022 54.6589 189.282 54.75 189.562 54.75V53.75ZM189.509 53.7737C189.482 53.7409 189.469 53.709 189.469 53.6562H188.469C188.469 53.9368 188.56 54.1966 188.741 54.4138L189.509 53.7737ZM189.469 53.6562V36.1562H188.469V53.6562H189.469ZM189.469 36.1562C189.469 36.1035 189.482 36.0716 189.509 36.0388L188.741 35.3987C188.56 35.6159 188.469 35.8757 188.469 36.1562H189.469ZM189.479 36.0723C189.516 36.0348 189.537 36.0312 189.562 36.0312V35.0312C189.255 35.0312 188.984 35.1527 188.771 35.3652L189.479 36.0723ZM189.562 36.0312H192.594V35.0312H189.562V36.0312ZM199.219 54.0938L199.572 54.4473L199.219 54.0938ZM195.344 54.0938L194.96 54.4138L194.989 54.4488L195.024 54.4779L195.344 54.0938ZM196.062 36.4375L196.416 36.7911L196.062 36.4375ZM212.406 36.4375L212.047 36.7848L212.053 36.7911L212.059 36.7972L212.406 36.4375ZM213.125 54.0938L213.445 54.4779L213.463 54.4633L213.479 54.4473L213.125 54.0938ZM209.25 54.0938L208.896 54.4473L208.912 54.4633L208.93 54.4779L209.25 54.0938ZM208.875 39.9375L208.491 40.2576L208.505 40.275L208.521 40.2911L208.875 39.9375ZM200.031 39.25C199.723 39.25 199.453 39.3715 199.24 39.5839L199.947 40.2911C199.985 40.2535 200.006 40.25 200.031 40.25V39.25ZM199.24 39.5839C199.028 39.7964 198.906 40.0671 198.906 40.375H199.906C199.906 40.3496 199.91 40.3286 199.947 40.2911L199.24 39.5839ZM198.906 40.375V53.6562H199.906V40.375H198.906ZM198.906 53.6562C198.906 53.6816 198.903 53.7027 198.865 53.7402L199.572 54.4473C199.785 54.2348 199.906 53.9642 199.906 53.6562H198.906ZM198.865 53.7402C198.863 53.7425 198.862 53.7432 198.862 53.7433C198.862 53.7434 198.861 53.7437 198.86 53.7443C198.857 53.7453 198.843 53.75 198.812 53.75V54.75C199.093 54.75 199.362 54.6579 199.572 54.4473L198.865 53.7402ZM198.812 53.75H195.781V54.75H198.812V53.75ZM195.781 53.75C195.728 53.75 195.697 53.737 195.664 53.7096L195.024 54.4779C195.241 54.6589 195.501 54.75 195.781 54.75V53.75ZM195.728 53.7737C195.701 53.7409 195.688 53.709 195.688 53.6562H194.688C194.688 53.9368 194.779 54.1966 194.96 54.4138L195.728 53.7737ZM195.688 53.6562V38.5625H194.688V53.6562H195.688ZM195.688 38.5625C195.688 37.8603 195.928 37.2796 196.416 36.7911L195.709 36.0839C195.031 36.7621 194.688 37.5981 194.688 38.5625H195.688ZM196.416 36.7911C196.929 36.278 197.522 36.0312 198.219 36.0312V35.0312C197.249 35.0312 196.404 35.3887 195.709 36.0839L196.416 36.7911ZM198.219 36.0312H210.281V35.0312H198.219V36.0312ZM210.281 36.0312C210.978 36.0312 211.557 36.2774 212.047 36.7848L212.766 36.0902C212.089 35.3893 211.251 35.0312 210.281 35.0312V36.0312ZM212.059 36.7972C212.566 37.2871 212.812 37.866 212.812 38.5625H213.812C213.812 37.5923 213.454 36.7545 212.754 36.0778L212.059 36.7972ZM212.812 38.5625V53.6562H213.812V38.5625H212.812ZM212.812 53.6562C212.812 53.6816 212.809 53.7027 212.771 53.7402L213.479 54.4473C213.691 54.2348 213.812 53.9642 213.812 53.6562H212.812ZM212.805 53.7096C212.772 53.737 212.74 53.75 212.688 53.75V54.75C212.968 54.75 213.228 54.6589 213.445 54.4779L212.805 53.7096ZM212.688 53.75H209.688V54.75H212.688V53.75ZM209.688 53.75C209.635 53.75 209.603 53.737 209.57 53.7096L208.93 54.4779C209.147 54.6589 209.407 54.75 209.688 54.75V53.75ZM209.604 53.7402C209.566 53.7027 209.562 53.6816 209.562 53.6562H208.562C208.562 53.9642 208.684 54.2348 208.896 54.4473L209.604 53.7402ZM209.562 53.6562V40.375H208.562V53.6562H209.562ZM209.562 40.375C209.562 40.0671 209.441 39.7964 209.229 39.5839L208.521 40.2911C208.559 40.3286 208.562 40.3496 208.562 40.375H209.562ZM209.259 39.6174C209.057 39.3753 208.78 39.25 208.469 39.25V40.25C208.479 40.25 208.485 40.251 208.487 40.2513C208.488 40.2517 208.488 40.2517 208.486 40.2509C208.484 40.25 208.483 40.2491 208.483 40.2492C208.483 40.2494 208.486 40.2516 208.491 40.2576L209.259 39.6174ZM208.469 39.25H200.031V40.25H208.469V39.25ZM215.469 61.3125L215.115 61.6661L215.469 61.3125ZM215.469 57.4375L215.149 57.0534L215.114 57.0825L215.085 57.1174L215.469 57.4375ZM229 57.0938L228.646 56.7402L228.63 56.7562L228.616 56.7737L229 57.0938ZM229 54.4375L228.616 54.7576L228.645 54.7925L228.68 54.8216L229 54.4375ZM216.188 53.375L215.834 53.7286L215.84 53.7347L216.188 53.375ZM216.188 36.4375L216.541 36.7911L216.188 36.4375ZM232.531 36.4375L232.172 36.7848L232.178 36.7911L232.184 36.7972L232.531 36.4375ZM232.531 60.5938L232.184 60.234L232.178 60.2401L232.172 60.2465L232.531 60.5938ZM219.719 49.875L219.365 50.2286L219.381 50.2446L219.399 50.2591L219.719 49.875ZM229 49.875L228.646 49.5214L229 49.875ZM229 39.9375L228.616 40.2576L228.63 40.275L228.646 40.2911L229 39.9375ZM230.406 61H215.906V62H230.406V61ZM215.906 61C215.881 61 215.86 60.9965 215.822 60.9589L215.115 61.6661C215.328 61.8785 215.598 62 215.906 62V61ZM215.822 60.9589C215.82 60.9566 215.819 60.9555 215.819 60.9554C215.819 60.9553 215.819 60.9548 215.818 60.9533C215.817 60.9507 215.812 60.9372 215.812 60.9062H214.812C214.812 61.1865 214.905 61.4555 215.115 61.6661L215.822 60.9589ZM215.812 60.9062V57.875H214.812V60.9062H215.812ZM215.812 57.875C215.812 57.8222 215.826 57.7904 215.853 57.7576L215.085 57.1174C214.904 57.3346 214.812 57.5945 214.812 57.875H215.812ZM215.789 57.8216C215.822 57.7943 215.853 57.7812 215.906 57.7812V56.7812C215.626 56.7812 215.366 56.8724 215.149 57.0534L215.789 57.8216ZM215.906 57.7812H228.594V56.7812H215.906V57.7812ZM228.594 57.7812C228.905 57.7812 229.182 57.656 229.384 57.4138L228.616 56.7737C228.611 56.7796 228.608 56.7818 228.608 56.782C228.608 56.7821 228.609 56.7813 228.611 56.7804C228.613 56.7795 228.613 56.7795 228.612 56.7799C228.61 56.7803 228.604 56.7812 228.594 56.7812V57.7812ZM229.354 57.4473C229.566 57.2348 229.688 56.9642 229.688 56.6562H228.688C228.688 56.6816 228.684 56.7027 228.646 56.7402L229.354 57.4473ZM229.688 56.6562V54.8438H228.688V56.6562H229.688ZM229.688 54.8438C229.688 54.5329 229.562 54.2552 229.32 54.0534L228.68 54.8216C228.686 54.8266 228.688 54.8294 228.688 54.8296C228.688 54.8298 228.688 54.8287 228.687 54.8267C228.686 54.8248 228.686 54.8242 228.686 54.8259C228.687 54.8278 228.688 54.8334 228.688 54.8438H229.688ZM229.384 54.1174C229.182 53.8753 228.905 53.75 228.594 53.75V54.75C228.604 54.75 228.61 54.751 228.612 54.7513C228.613 54.7517 228.613 54.7517 228.611 54.7509C228.609 54.75 228.608 54.7491 228.608 54.7492C228.608 54.7494 228.611 54.7516 228.616 54.7576L229.384 54.1174ZM228.594 53.75H218.344V54.75H228.594V53.75ZM218.344 53.75C217.641 53.75 217.047 53.5094 216.535 53.0153L215.84 53.7347C216.537 54.4073 217.38 54.75 218.344 54.75V53.75ZM216.541 53.0214C216.053 52.5329 215.812 51.9522 215.812 51.25H214.812C214.812 52.2144 215.156 53.0504 215.834 53.7286L216.541 53.0214ZM215.812 51.25V38.5625H214.812V51.25H215.812ZM215.812 38.5625C215.812 37.8603 216.053 37.2796 216.541 36.7911L215.834 36.0839C215.156 36.7621 214.812 37.5981 214.812 38.5625H215.812ZM216.541 36.7911C217.054 36.278 217.647 36.0312 218.344 36.0312V35.0312C217.374 35.0312 216.529 35.3887 215.834 36.0839L216.541 36.7911ZM218.344 36.0312H230.406V35.0312H218.344V36.0312ZM230.406 36.0312C231.103 36.0312 231.682 36.2774 232.172 36.7848L232.891 36.0902C232.214 35.3893 231.376 35.0312 230.406 35.0312V36.0312ZM232.184 36.7972C232.691 37.2871 232.938 37.866 232.938 38.5625H233.938C233.938 37.5923 233.579 36.7545 232.879 36.0778L232.184 36.7972ZM232.938 38.5625V58.4688H233.938V38.5625H232.938ZM232.938 58.4688C232.938 59.1652 232.691 59.7441 232.184 60.234L232.879 60.9535C233.579 60.2767 233.938 59.4389 233.938 58.4688H232.938ZM232.172 60.2465C231.682 60.7539 231.103 61 230.406 61V62C231.376 62 232.214 61.6419 232.891 60.941L232.172 60.2465ZM219.031 49.4375C219.031 49.7454 219.153 50.0161 219.365 50.2286L220.072 49.5214C220.035 49.4839 220.031 49.4629 220.031 49.4375H219.031ZM219.399 50.2591C219.616 50.4401 219.876 50.5312 220.156 50.5312V49.5312C220.103 49.5312 220.072 49.5182 220.039 49.4909L219.399 50.2591ZM220.156 50.5312H228.594V49.5312H220.156V50.5312ZM228.594 50.5312C228.874 50.5312 229.143 50.4391 229.354 50.2286L228.646 49.5214C228.644 49.5237 228.643 49.5245 228.643 49.5246C228.643 49.5246 228.642 49.5249 228.641 49.5255C228.638 49.5265 228.625 49.5312 228.594 49.5312V50.5312ZM229.354 50.2286C229.566 50.0161 229.688 49.7454 229.688 49.4375H228.688C228.688 49.4629 228.684 49.4839 228.646 49.5214L229.354 50.2286ZM229.688 49.4375V40.375H228.688V49.4375H229.688ZM229.688 40.375C229.688 40.0671 229.566 39.7964 229.354 39.5839L228.646 40.2911C228.684 40.3286 228.688 40.3496 228.688 40.375H229.688ZM229.384 39.6174C229.182 39.3753 228.905 39.25 228.594 39.25V40.25C228.604 40.25 228.61 40.251 228.612 40.2513C228.613 40.2517 228.613 40.2517 228.611 40.2509C228.609 40.25 228.608 40.2491 228.608 40.2492C228.608 40.2494 228.611 40.2516 228.616 40.2576L229.384 39.6174ZM228.594 39.25H220.156V40.25H228.594V39.25ZM220.156 39.25C219.848 39.25 219.578 39.3715 219.365 39.5839L220.072 40.2911C220.11 40.2535 220.131 40.25 220.156 40.25V39.25ZM219.365 39.5839C219.153 39.7964 219.031 40.0671 219.031 40.375H220.031C220.031 40.3496 220.035 40.3286 220.072 40.2911L219.365 39.5839ZM219.031 40.375V49.4375H220.031V40.375H219.031Z"
        fill="green" />
</svg>