<svg width="1920" height="1080" viewBox="0 0 1920 1080" fill="none" xmlns="http://www.w3.org/2000/svg">
    <rect x="402" y="414" width="1116" height="252" fill="url(#paint0_linear_143_41)" />
    <path
        d="M540.737 522.091V557H536.646L517.624 529.591H517.283V557H513.055V522.091H517.146L536.237 549.568H536.578V522.091H540.737ZM559.628 557.545C557.105 557.545 554.929 556.989 553.099 555.875C551.281 554.75 549.878 553.182 548.889 551.17C547.912 549.148 547.423 546.795 547.423 544.114C547.423 541.432 547.912 539.068 548.889 537.023C549.878 534.966 551.253 533.364 553.014 532.216C554.787 531.057 556.855 530.477 559.219 530.477C560.582 530.477 561.929 530.705 563.259 531.159C564.588 531.614 565.798 532.352 566.889 533.375C567.98 534.386 568.849 535.727 569.497 537.398C570.145 539.068 570.469 541.125 570.469 543.568V545.273H550.287V541.795H566.378C566.378 540.318 566.082 539 565.491 537.841C564.912 536.682 564.082 535.767 563.003 535.097C561.935 534.426 560.673 534.091 559.219 534.091C557.616 534.091 556.23 534.489 555.06 535.284C553.901 536.068 553.009 537.091 552.384 538.352C551.759 539.614 551.446 540.966 551.446 542.409V544.727C551.446 546.705 551.787 548.381 552.469 549.756C553.162 551.119 554.122 552.159 555.349 552.875C556.577 553.58 558.003 553.932 559.628 553.932C560.685 553.932 561.639 553.784 562.491 553.489C563.355 553.182 564.099 552.727 564.724 552.125C565.349 551.511 565.832 550.75 566.173 549.841L570.06 550.932C569.651 552.25 568.963 553.409 567.997 554.409C567.031 555.398 565.838 556.17 564.418 556.727C562.997 557.273 561.401 557.545 559.628 557.545ZM582.52 557L574.543 530.818H578.77L584.429 550.864H584.702L590.293 530.818H594.588L600.111 550.795H600.384L606.043 530.818H610.27L602.293 557H598.338L592.611 536.886H592.202L586.474 557H582.52ZM629.634 557V522.091H650.702V525.841H633.861V537.636H649.611V541.386H633.861V553.25H650.974V557H629.634ZM660.776 530.818L667.048 541.523L673.321 530.818H677.957L669.503 543.909L677.957 557H673.321L667.048 546.841L660.776 557H656.139L664.457 543.909L656.139 530.818H660.776ZM695.084 530.818V534.227H681.516V530.818H695.084ZM685.47 524.545H689.493V549.5C689.493 550.636 689.658 551.489 689.987 552.057C690.328 552.614 690.76 552.989 691.283 553.182C691.817 553.364 692.379 553.455 692.97 553.455C693.413 553.455 693.777 553.432 694.061 553.386C694.345 553.33 694.572 553.284 694.743 553.25L695.561 556.864C695.288 556.966 694.908 557.068 694.419 557.17C693.93 557.284 693.311 557.341 692.561 557.341C691.425 557.341 690.311 557.097 689.22 556.608C688.141 556.119 687.243 555.375 686.527 554.375C685.822 553.375 685.47 552.114 685.47 550.591V524.545ZM701.135 557V530.818H705.021V534.773H705.294C705.771 533.477 706.635 532.426 707.885 531.619C709.135 530.812 710.544 530.409 712.112 530.409C712.408 530.409 712.777 530.415 713.22 530.426C713.663 530.437 713.999 530.455 714.226 530.477V534.568C714.089 534.534 713.777 534.483 713.288 534.415C712.811 534.335 712.305 534.295 711.771 534.295C710.499 534.295 709.362 534.562 708.362 535.097C707.374 535.619 706.589 536.347 706.01 537.278C705.442 538.199 705.158 539.25 705.158 540.432V557H701.135ZM726.699 557.614C725.04 557.614 723.534 557.301 722.182 556.676C720.83 556.04 719.756 555.125 718.96 553.932C718.165 552.727 717.767 551.273 717.767 549.568C717.767 548.068 718.063 546.852 718.653 545.92C719.244 544.977 720.034 544.239 721.023 543.705C722.011 543.17 723.102 542.773 724.295 542.511C725.5 542.239 726.71 542.023 727.926 541.864C729.517 541.659 730.807 541.506 731.795 541.403C732.795 541.29 733.523 541.102 733.977 540.841C734.443 540.58 734.676 540.125 734.676 539.477V539.341C734.676 537.659 734.216 536.352 733.295 535.42C732.386 534.489 731.006 534.023 729.153 534.023C727.233 534.023 725.727 534.443 724.636 535.284C723.545 536.125 722.778 537.023 722.335 537.977L718.517 536.614C719.199 535.023 720.108 533.784 721.244 532.898C722.392 532 723.642 531.375 724.994 531.023C726.358 530.659 727.699 530.477 729.017 530.477C729.858 530.477 730.824 530.58 731.915 530.784C733.017 530.977 734.08 531.381 735.102 531.994C736.136 532.608 736.994 533.534 737.676 534.773C738.358 536.011 738.699 537.67 738.699 539.75V557H734.676V553.455H734.472C734.199 554.023 733.744 554.631 733.108 555.278C732.472 555.926 731.625 556.477 730.568 556.932C729.511 557.386 728.222 557.614 726.699 557.614ZM727.312 554C728.903 554 730.244 553.688 731.335 553.062C732.438 552.438 733.267 551.631 733.824 550.642C734.392 549.653 734.676 548.614 734.676 547.523V543.841C734.506 544.045 734.131 544.233 733.551 544.403C732.983 544.562 732.324 544.705 731.574 544.83C730.835 544.943 730.114 545.045 729.409 545.136C728.716 545.216 728.153 545.284 727.722 545.341C726.676 545.477 725.699 545.699 724.79 546.006C723.892 546.301 723.165 546.75 722.608 547.352C722.063 547.943 721.79 548.75 721.79 549.773C721.79 551.17 722.307 552.227 723.341 552.943C724.386 553.648 725.71 554 727.312 554ZM764.587 536.682L760.973 537.705C760.746 537.102 760.411 536.517 759.967 535.949C759.536 535.369 758.945 534.892 758.195 534.517C757.445 534.142 756.484 533.955 755.314 533.955C753.712 533.955 752.376 534.324 751.308 535.062C750.251 535.79 749.723 536.716 749.723 537.841C749.723 538.841 750.087 539.631 750.814 540.21C751.541 540.79 752.678 541.273 754.223 541.659L758.109 542.614C760.45 543.182 762.195 544.051 763.342 545.222C764.49 546.381 765.064 547.875 765.064 549.705C765.064 551.205 764.632 552.545 763.768 553.727C762.916 554.909 761.723 555.841 760.189 556.523C758.655 557.205 756.871 557.545 754.837 557.545C752.166 557.545 749.956 556.966 748.206 555.807C746.456 554.648 745.348 552.955 744.882 550.727L748.7 549.773C749.064 551.182 749.751 552.239 750.763 552.943C751.786 553.648 753.121 554 754.768 554C756.643 554 758.132 553.602 759.234 552.807C760.348 552 760.905 551.034 760.905 549.909C760.905 549 760.587 548.239 759.95 547.625C759.314 547 758.337 546.534 757.018 546.227L752.655 545.205C750.257 544.636 748.496 543.756 747.371 542.562C746.257 541.358 745.7 539.852 745.7 538.045C745.7 536.568 746.115 535.261 746.945 534.125C747.786 532.989 748.928 532.097 750.371 531.449C751.825 530.801 753.473 530.477 755.314 530.477C757.905 530.477 759.939 531.045 761.416 532.182C762.905 533.318 763.962 534.818 764.587 536.682ZM808.074 522.091H812.301V545.205C812.301 547.591 811.739 549.722 810.614 551.597C809.5 553.46 807.926 554.932 805.892 556.011C803.858 557.08 801.472 557.614 798.733 557.614C795.994 557.614 793.608 557.08 791.574 556.011C789.54 554.932 787.96 553.46 786.835 551.597C785.722 549.722 785.165 547.591 785.165 545.205V522.091H789.392V544.864C789.392 546.568 789.767 548.085 790.517 549.415C791.267 550.733 792.335 551.773 793.722 552.534C795.119 553.284 796.79 553.659 798.733 553.659C800.676 553.659 802.347 553.284 803.744 552.534C805.142 551.773 806.21 550.733 806.949 549.415C807.699 548.085 808.074 546.568 808.074 544.864V522.091ZM824.22 541.25V557H820.197V530.818H824.084V534.909H824.425C825.038 533.58 825.97 532.511 827.22 531.705C828.47 530.886 830.084 530.477 832.061 530.477C833.834 530.477 835.385 530.841 836.714 531.568C838.044 532.284 839.078 533.375 839.817 534.841C840.555 536.295 840.925 538.136 840.925 540.364V557H836.902V540.636C836.902 538.58 836.368 536.977 835.3 535.83C834.232 534.67 832.766 534.091 830.902 534.091C829.618 534.091 828.47 534.369 827.459 534.926C826.459 535.483 825.669 536.295 825.089 537.364C824.51 538.432 824.22 539.727 824.22 541.25ZM852.298 522.091V557H848.276V522.091H852.298ZM870.303 557.545C867.939 557.545 865.865 556.983 864.081 555.858C862.308 554.733 860.922 553.159 859.922 551.136C858.933 549.114 858.439 546.75 858.439 544.045C858.439 541.318 858.933 538.937 859.922 536.903C860.922 534.869 862.308 533.29 864.081 532.165C865.865 531.04 867.939 530.477 870.303 530.477C872.666 530.477 874.734 531.04 876.507 532.165C878.291 533.29 879.678 534.869 880.666 536.903C881.666 538.937 882.166 541.318 882.166 544.045C882.166 546.75 881.666 549.114 880.666 551.136C879.678 553.159 878.291 554.733 876.507 555.858C874.734 556.983 872.666 557.545 870.303 557.545ZM870.303 553.932C872.098 553.932 873.575 553.472 874.734 552.551C875.893 551.631 876.751 550.42 877.308 548.92C877.865 547.42 878.143 545.795 878.143 544.045C878.143 542.295 877.865 540.665 877.308 539.153C876.751 537.642 875.893 536.42 874.734 535.489C873.575 534.557 872.098 534.091 870.303 534.091C868.507 534.091 867.03 534.557 865.871 535.489C864.712 536.42 863.854 537.642 863.297 539.153C862.74 540.665 862.462 542.295 862.462 544.045C862.462 545.795 862.74 547.42 863.297 548.92C863.854 550.42 864.712 551.631 865.871 552.551C867.03 553.472 868.507 553.932 870.303 553.932ZM898.943 557.545C896.489 557.545 894.375 556.966 892.602 555.807C890.83 554.648 889.466 553.051 888.511 551.017C887.557 548.983 887.08 546.659 887.08 544.045C887.08 541.386 887.568 539.04 888.545 537.006C889.534 534.96 890.909 533.364 892.67 532.216C894.443 531.057 896.511 530.477 898.875 530.477C900.716 530.477 902.375 530.818 903.852 531.5C905.33 532.182 906.54 533.136 907.483 534.364C908.426 535.591 909.011 537.023 909.239 538.659H905.216C904.909 537.466 904.227 536.409 903.17 535.489C902.125 534.557 900.716 534.091 898.943 534.091C897.375 534.091 896 534.5 894.818 535.318C893.648 536.125 892.733 537.267 892.074 538.744C891.426 540.21 891.102 541.932 891.102 543.909C891.102 545.932 891.42 547.693 892.057 549.193C892.705 550.693 893.614 551.858 894.784 552.688C895.966 553.517 897.352 553.932 898.943 553.932C899.989 553.932 900.938 553.75 901.79 553.386C902.642 553.023 903.364 552.5 903.955 551.818C904.545 551.136 904.966 550.318 905.216 549.364H909.239C909.011 550.909 908.449 552.301 907.551 553.54C906.665 554.767 905.489 555.744 904.023 556.472C902.568 557.188 900.875 557.545 898.943 557.545ZM918.869 547.455L918.801 542.477H919.619L931.074 530.818H936.051L923.847 543.159H923.506L918.869 547.455ZM915.119 557V522.091H919.142V557H915.119ZM931.756 557L921.528 544.045L924.392 541.25L936.869 557H931.756ZM951.128 557.545C948.605 557.545 946.429 556.989 944.599 555.875C942.781 554.75 941.378 553.182 940.389 551.17C939.412 549.148 938.923 546.795 938.923 544.114C938.923 541.432 939.412 539.068 940.389 537.023C941.378 534.966 942.753 533.364 944.514 532.216C946.287 531.057 948.355 530.477 950.719 530.477C952.082 530.477 953.429 530.705 954.759 531.159C956.088 531.614 957.298 532.352 958.389 533.375C959.48 534.386 960.349 535.727 960.997 537.398C961.645 539.068 961.969 541.125 961.969 543.568V545.273H941.787V541.795H957.878C957.878 540.318 957.582 539 956.991 537.841C956.412 536.682 955.582 535.767 954.503 535.097C953.435 534.426 952.173 534.091 950.719 534.091C949.116 534.091 947.73 534.489 946.56 535.284C945.401 536.068 944.509 537.091 943.884 538.352C943.259 539.614 942.946 540.966 942.946 542.409V544.727C942.946 546.705 943.287 548.381 943.969 549.756C944.662 551.119 945.622 552.159 946.849 552.875C948.077 553.58 949.503 553.932 951.128 553.932C952.185 553.932 953.139 553.784 953.991 553.489C954.855 553.182 955.599 552.727 956.224 552.125C956.849 551.511 957.332 550.75 957.673 549.841L961.56 550.932C961.151 552.25 960.463 553.409 959.497 554.409C958.531 555.398 957.338 556.17 955.918 556.727C954.497 557.273 952.901 557.545 951.128 557.545ZM977.974 557.545C975.793 557.545 973.866 556.994 972.196 555.892C970.526 554.778 969.219 553.21 968.276 551.188C967.332 549.153 966.861 546.75 966.861 543.977C966.861 541.227 967.332 538.841 968.276 536.818C969.219 534.795 970.531 533.233 972.213 532.131C973.895 531.028 975.838 530.477 978.043 530.477C979.747 530.477 981.094 530.761 982.082 531.33C983.082 531.886 983.844 532.523 984.366 533.239C984.901 533.943 985.315 534.523 985.611 534.977H985.952V522.091H989.974V557H986.088V552.977H985.611C985.315 553.455 984.895 554.057 984.349 554.784C983.804 555.5 983.026 556.142 982.014 556.71C981.003 557.267 979.656 557.545 977.974 557.545ZM978.52 553.932C980.134 553.932 981.497 553.511 982.611 552.67C983.724 551.818 984.571 550.642 985.151 549.142C985.73 547.631 986.02 545.886 986.02 543.909C986.02 541.955 985.736 540.244 985.168 538.778C984.599 537.301 983.759 536.153 982.645 535.335C981.531 534.506 980.156 534.091 978.52 534.091C976.815 534.091 975.395 534.528 974.259 535.403C973.134 536.267 972.287 537.443 971.719 538.932C971.162 540.409 970.884 542.068 970.884 543.909C970.884 545.773 971.168 547.466 971.736 548.989C972.315 550.5 973.168 551.705 974.293 552.602C975.429 553.489 976.838 553.932 978.52 553.932ZM1011.4 557V530.818H1015.42V557H1011.4ZM1013.45 526.455C1012.66 526.455 1011.99 526.188 1011.42 525.653C1010.86 525.119 1010.58 524.477 1010.58 523.727C1010.58 522.977 1010.86 522.335 1011.42 521.801C1011.99 521.267 1012.66 521 1013.45 521C1014.23 521 1014.9 521.267 1015.46 521.801C1016.03 522.335 1016.31 522.977 1016.31 523.727C1016.31 524.477 1016.03 525.119 1015.46 525.653C1014.9 526.188 1014.23 526.455 1013.45 526.455ZM1026.81 541.25V557H1022.79V530.818H1026.68V534.909H1027.02C1027.63 533.58 1028.56 532.511 1029.81 531.705C1031.06 530.886 1032.68 530.477 1034.65 530.477C1036.43 530.477 1037.98 530.841 1039.31 531.568C1040.64 532.284 1041.67 533.375 1042.41 534.841C1043.15 536.295 1043.52 538.136 1043.52 540.364V557H1039.5V540.636C1039.5 538.58 1038.96 536.977 1037.89 535.83C1036.83 534.67 1035.36 534.091 1033.5 534.091C1032.21 534.091 1031.06 534.369 1030.05 534.926C1029.05 535.483 1028.26 536.295 1027.68 537.364C1027.1 538.432 1026.81 539.727 1026.81 541.25ZM1075.76 530.818V534.227H1062.19V530.818H1075.76ZM1066.14 524.545H1070.16V549.5C1070.16 550.636 1070.33 551.489 1070.66 552.057C1071 552.614 1071.43 552.989 1071.95 553.182C1072.49 553.364 1073.05 553.455 1073.64 553.455C1074.09 553.455 1074.45 553.432 1074.73 553.386C1075.02 553.33 1075.24 553.284 1075.41 553.25L1076.23 556.864C1075.96 556.966 1075.58 557.068 1075.09 557.17C1074.6 557.284 1073.98 557.341 1073.23 557.341C1072.1 557.341 1070.98 557.097 1069.89 556.608C1068.81 556.119 1067.91 555.375 1067.2 554.375C1066.49 553.375 1066.14 552.114 1066.14 550.591V524.545ZM1086.39 541.25V557H1082.37V522.091H1086.39V534.909H1086.73C1087.35 533.557 1088.27 532.483 1089.49 531.688C1090.73 530.881 1092.38 530.477 1094.44 530.477C1096.22 530.477 1097.78 530.835 1099.12 531.551C1100.47 532.256 1101.51 533.341 1102.24 534.807C1102.99 536.261 1103.37 538.114 1103.37 540.364V557H1099.35V540.636C1099.35 538.557 1098.81 536.949 1097.73 535.812C1096.66 534.665 1095.18 534.091 1093.28 534.091C1091.96 534.091 1090.78 534.369 1089.73 534.926C1088.7 535.483 1087.88 536.295 1087.28 537.364C1086.69 538.432 1086.39 539.727 1086.39 541.25ZM1121.71 557.545C1119.18 557.545 1117.01 556.989 1115.18 555.875C1113.36 554.75 1111.96 553.182 1110.97 551.17C1109.99 549.148 1109.5 546.795 1109.5 544.114C1109.5 541.432 1109.99 539.068 1110.97 537.023C1111.96 534.966 1113.33 533.364 1115.09 532.216C1116.87 531.057 1118.93 530.477 1121.3 530.477C1122.66 530.477 1124.01 530.705 1125.34 531.159C1126.67 531.614 1127.88 532.352 1128.97 533.375C1130.06 534.386 1130.93 535.727 1131.58 537.398C1132.22 539.068 1132.55 541.125 1132.55 543.568V545.273H1112.37V541.795H1128.46C1128.46 540.318 1128.16 539 1127.57 537.841C1126.99 536.682 1126.16 535.767 1125.08 535.097C1124.01 534.426 1122.75 534.091 1121.3 534.091C1119.69 534.091 1118.31 534.489 1117.14 535.284C1115.98 536.068 1115.09 537.091 1114.46 538.352C1113.84 539.614 1113.52 540.966 1113.52 542.409V544.727C1113.52 546.705 1113.87 548.381 1114.55 549.756C1115.24 551.119 1116.2 552.159 1117.43 552.875C1118.65 553.58 1120.08 553.932 1121.71 553.932C1122.76 553.932 1123.72 553.784 1124.57 553.489C1125.43 553.182 1126.18 552.727 1126.8 552.125C1127.43 551.511 1127.91 550.75 1128.25 549.841L1132.14 550.932C1131.73 552.25 1131.04 553.409 1130.08 554.409C1129.11 555.398 1127.92 556.17 1126.5 556.727C1125.08 557.273 1123.48 557.545 1121.71 557.545ZM1152.71 522.091H1157.76L1169.62 551.068H1170.03L1181.89 522.091H1186.94V557H1182.98V530.477H1182.64L1171.73 557H1167.92L1157.01 530.477H1156.67V557H1152.71V522.091ZM1202.57 557.614C1200.91 557.614 1199.41 557.301 1198.06 556.676C1196.7 556.04 1195.63 555.125 1194.84 553.932C1194.04 552.727 1193.64 551.273 1193.64 549.568C1193.64 548.068 1193.94 546.852 1194.53 545.92C1195.12 544.977 1195.91 544.239 1196.9 543.705C1197.89 543.17 1198.98 542.773 1200.17 542.511C1201.38 542.239 1202.59 542.023 1203.8 541.864C1205.39 541.659 1206.68 541.506 1207.67 541.403C1208.67 541.29 1209.4 541.102 1209.85 540.841C1210.32 540.58 1210.55 540.125 1210.55 539.477V539.341C1210.55 537.659 1210.09 536.352 1209.17 535.42C1208.26 534.489 1206.88 534.023 1205.03 534.023C1203.11 534.023 1201.6 534.443 1200.51 535.284C1199.42 536.125 1198.65 537.023 1198.21 537.977L1194.39 536.614C1195.07 535.023 1195.98 533.784 1197.12 532.898C1198.27 532 1199.52 531.375 1200.87 531.023C1202.23 530.659 1203.57 530.477 1204.89 530.477C1205.73 530.477 1206.7 530.58 1207.79 530.784C1208.89 530.977 1209.95 531.381 1210.98 531.994C1212.01 532.608 1212.87 533.534 1213.55 534.773C1214.23 536.011 1214.57 537.67 1214.57 539.75V557H1210.55V553.455H1210.35C1210.07 554.023 1209.62 554.631 1208.98 555.278C1208.35 555.926 1207.5 556.477 1206.44 556.932C1205.39 557.386 1204.1 557.614 1202.57 557.614ZM1203.19 554C1204.78 554 1206.12 553.688 1207.21 553.062C1208.31 552.438 1209.14 551.631 1209.7 550.642C1210.27 549.653 1210.55 548.614 1210.55 547.523V543.841C1210.38 544.045 1210.01 544.233 1209.43 544.403C1208.86 544.562 1208.2 544.705 1207.45 544.83C1206.71 544.943 1205.99 545.045 1205.28 545.136C1204.59 545.216 1204.03 545.284 1203.6 545.341C1202.55 545.477 1201.57 545.699 1200.66 546.006C1199.77 546.301 1199.04 546.75 1198.48 547.352C1197.94 547.943 1197.66 548.75 1197.66 549.773C1197.66 551.17 1198.18 552.227 1199.22 552.943C1200.26 553.648 1201.59 554 1203.19 554ZM1221.92 557V530.818H1225.94V557H1221.92ZM1223.96 526.455C1223.18 526.455 1222.5 526.188 1221.93 525.653C1221.38 525.119 1221.1 524.477 1221.1 523.727C1221.1 522.977 1221.38 522.335 1221.93 521.801C1222.5 521.267 1223.18 521 1223.96 521C1224.75 521 1225.42 521.267 1225.97 521.801C1226.54 522.335 1226.83 522.977 1226.83 523.727C1226.83 524.477 1226.54 525.119 1225.97 525.653C1225.42 526.188 1224.75 526.455 1223.96 526.455ZM1237.33 541.25V557H1233.31V530.818H1237.19V534.909H1237.53C1238.15 533.58 1239.08 532.511 1240.33 531.705C1241.58 530.886 1243.19 530.477 1245.17 530.477C1246.94 530.477 1248.49 530.841 1249.82 531.568C1251.15 532.284 1252.19 533.375 1252.93 534.841C1253.66 536.295 1254.03 538.136 1254.03 540.364V557H1250.01V540.636C1250.01 538.58 1249.48 536.977 1248.41 535.83C1247.34 534.67 1245.88 534.091 1244.01 534.091C1242.73 534.091 1241.58 534.369 1240.57 534.926C1239.57 535.483 1238.78 536.295 1238.2 537.364C1237.62 538.432 1237.33 539.727 1237.33 541.25ZM1275.43 522.091H1280.48L1292.34 551.068H1292.75L1304.61 522.091H1309.66V557H1305.7V530.477H1305.36L1294.45 557H1290.63L1279.73 530.477H1279.38V557H1275.43V522.091ZM1328.57 557.545C1326.04 557.545 1323.87 556.989 1322.04 555.875C1320.22 554.75 1318.82 553.182 1317.83 551.17C1316.85 549.148 1316.36 546.795 1316.36 544.114C1316.36 541.432 1316.85 539.068 1317.83 537.023C1318.82 534.966 1320.19 533.364 1321.95 532.216C1323.72 531.057 1325.79 530.477 1328.16 530.477C1329.52 530.477 1330.87 530.705 1332.2 531.159C1333.53 531.614 1334.74 532.352 1335.83 533.375C1336.92 534.386 1337.79 535.727 1338.43 537.398C1339.08 539.068 1339.41 541.125 1339.41 543.568V545.273H1319.22V541.795H1335.32C1335.32 540.318 1335.02 539 1334.43 537.841C1333.85 536.682 1333.02 535.767 1331.94 535.097C1330.87 534.426 1329.61 534.091 1328.16 534.091C1326.55 534.091 1325.17 534.489 1324 535.284C1322.84 536.068 1321.95 537.091 1321.32 538.352C1320.7 539.614 1320.38 540.966 1320.38 542.409V544.727C1320.38 546.705 1320.72 548.381 1321.41 549.756C1322.1 551.119 1323.06 552.159 1324.29 552.875C1325.51 553.58 1326.94 553.932 1328.57 553.932C1329.62 553.932 1330.58 553.784 1331.43 553.489C1332.29 553.182 1333.04 552.727 1333.66 552.125C1334.29 551.511 1334.77 550.75 1335.11 549.841L1339 550.932C1338.59 552.25 1337.9 553.409 1336.93 554.409C1335.97 555.398 1334.78 556.17 1333.36 556.727C1331.93 557.273 1330.34 557.545 1328.57 557.545ZM1349.55 541.25V557H1345.53V530.818H1349.41V534.909H1349.75C1350.37 533.58 1351.3 532.511 1352.55 531.705C1353.8 530.886 1355.41 530.477 1357.39 530.477C1359.16 530.477 1360.71 530.841 1362.04 531.568C1363.37 532.284 1364.41 533.375 1365.14 534.841C1365.88 536.295 1366.25 538.136 1366.25 540.364V557H1362.23V540.636C1362.23 538.58 1361.7 536.977 1360.63 535.83C1359.56 534.67 1358.09 534.091 1356.23 534.091C1354.95 534.091 1353.8 534.369 1352.79 534.926C1351.79 535.483 1351 536.295 1350.42 537.364C1349.84 538.432 1349.55 539.727 1349.55 541.25ZM1390.1 546.295V530.818H1394.13V557H1390.1V552.568H1389.83C1389.22 553.898 1388.26 555.028 1386.97 555.96C1385.67 556.881 1384.04 557.341 1382.06 557.341C1380.42 557.341 1378.97 556.983 1377.69 556.267C1376.42 555.54 1375.42 554.449 1374.69 552.994C1373.97 551.528 1373.6 549.682 1373.6 547.455V530.818H1377.63V547.182C1377.63 549.091 1378.16 550.614 1379.23 551.75C1380.31 552.886 1381.68 553.455 1383.35 553.455C1384.35 553.455 1385.37 553.199 1386.4 552.688C1387.45 552.176 1388.33 551.392 1389.03 550.335C1389.75 549.278 1390.1 547.932 1390.1 546.295ZM1406.81 522.091L1406.47 547.182H1402.52L1402.18 522.091H1406.81ZM1404.49 557.273C1403.65 557.273 1402.93 556.972 1402.33 556.369C1401.73 555.767 1401.43 555.045 1401.43 554.205C1401.43 553.364 1401.73 552.642 1402.33 552.04C1402.93 551.437 1403.65 551.136 1404.49 551.136C1405.34 551.136 1406.06 551.437 1406.66 552.04C1407.26 552.642 1407.56 553.364 1407.56 554.205C1407.56 554.761 1407.42 555.273 1407.14 555.739C1406.86 556.205 1406.49 556.58 1406.03 556.864C1405.57 557.136 1405.06 557.273 1404.49 557.273Z"
        fill="white" />
    <path d="M390 506L400 500V580L390 574V506Z" fill="#3C4761" fill-opacity="0.44" />
    <path d="M1530 506L1520 500V580L1530 574V506Z" fill="#3C4761" fill-opacity="0.44" />
    <rect x="0.5" y="0.5" width="1919" height="1079" stroke="#EE0000" />
    <defs>
        <linearGradient id="paint0_linear_143_41" x1="1518" y1="414" x2="402" y2="414" gradientUnits="userSpaceOnUse">
            <stop stop-opacity="0" />
            <stop offset="0.213542" stop-color="#000A0F" stop-opacity="0.6" />
            <stop offset="0.744792" stop-color="#000A0F" stop-opacity="0.6" />
            <stop offset="1" stop-opacity="0" />
        </linearGradient>
    </defs>
</svg>