<svg width="184" height="84" viewBox="0 0 184 84" fill="none" xmlns="http://www.w3.org/2000/svg">
<path d="M8.92188 30.9453V6.80469C8.92188 6.59635 8.84375 6.41406 8.6875 6.25781C8.55729 6.10156 8.38802 6.02344 8.17969 6.02344H0.992188C0.783854 6.02344 0.601562 5.95833 0.445312 5.82812C0.315104 5.67188 0.25 5.48958 0.25 5.28125V1.49219C0.25 1.28385 0.315104 1.11458 0.445312 0.984375C0.601562 0.828125 0.783854 0.75 0.992188 0.75H22.125C22.3333 0.75 22.5156 0.828125 22.6719 0.984375C22.8281 1.11458 22.9062 1.28385 22.9062 1.49219V5.28125C22.9062 5.48958 22.8281 5.67188 22.6719 5.82812C22.5156 5.95833 22.3333 6.02344 22.125 6.02344H14.9766C14.7682 6.02344 14.5859 6.10156 14.4297 6.25781C14.2734 6.41406 14.1953 6.59635 14.1953 6.80469V30.9453C14.1953 31.1536 14.1172 31.3359 13.9609 31.4922C13.8307 31.6224 13.6615 31.6875 13.4531 31.6875H9.70312C9.49479 31.6875 9.3125 31.6224 9.15625 31.4922C9 31.3359 8.92188 31.1536 8.92188 30.9453ZM29.3484 0.75H33.1375C33.3458 0.75 33.5151 0.828125 33.6453 0.984375C33.8016 1.11458 33.8797 1.28385 33.8797 1.49219V7.54688C33.8797 7.75521 33.9578 7.9375 34.1141 8.09375C34.2703 8.22396 34.4526 8.28906 34.6609 8.28906H47.4734C48.5151 8.28906 49.4005 8.66667 50.1297 9.42188C50.8849 10.151 51.2625 11.0365 51.2625 12.0781V30.9453C51.2625 31.1536 51.1844 31.3359 51.0281 31.4922C50.8719 31.6224 50.6896 31.6875 50.4813 31.6875H46.7313C46.5229 31.6875 46.3406 31.6224 46.1844 31.4922C46.0281 31.3359 45.95 31.1536 45.95 30.9453V14.3438C45.95 14.1354 45.8719 13.9531 45.7156 13.7969C45.5854 13.6406 45.4161 13.5625 45.2078 13.5625H34.6609C34.4526 13.5625 34.2703 13.6406 34.1141 13.7969C33.9578 13.9531 33.8797 14.1354 33.8797 14.3438V30.9453C33.8797 31.1536 33.8016 31.3359 33.6453 31.4922C33.5151 31.6224 33.3458 31.6875 33.1375 31.6875H29.3484C29.1401 31.6875 28.9578 31.6224 28.8016 31.4922C28.6714 31.3359 28.6063 31.1536 28.6063 30.9453V1.49219C28.6063 1.28385 28.6714 1.11458 28.8016 0.984375C28.9578 0.828125 29.1401 0.75 29.3484 0.75ZM60.7516 31.6875C59.7099 31.6875 58.8115 31.3229 58.0563 30.5938C57.3271 29.8646 56.9625 28.9792 56.9625 27.9375V12.0781C56.9625 11.0365 57.3271 10.151 58.0563 9.42188C58.8115 8.66667 59.7099 8.28906 60.7516 8.28906H75.8297C76.8714 8.28906 77.7568 8.66667 78.4859 9.42188C79.2411 10.151 79.6188 11.0365 79.6188 12.0781V18.875C79.6188 19.9167 79.2411 20.8021 78.4859 21.5312C77.7568 22.2604 76.8714 22.625 75.8297 22.625H63.0172C62.8089 22.625 62.6266 22.7031 62.4703 22.8594C62.3141 23.0156 62.2359 23.1979 62.2359 23.4062V25.6719C62.2359 25.8802 62.3141 26.0625 62.4703 26.2188C62.6266 26.349 62.8089 26.4141 63.0172 26.4141H78.8375C79.0458 26.4141 79.2281 26.4922 79.3844 26.6484C79.5406 26.7786 79.6188 26.9479 79.6188 27.1562V30.9453C79.6188 31.1536 79.5406 31.3359 79.3844 31.4922C79.2281 31.6224 79.0458 31.6875 78.8375 31.6875H60.7516ZM74.3063 14.3438C74.3063 14.1354 74.2281 13.9531 74.0719 13.7969C73.9417 13.6406 73.7724 13.5625 73.5641 13.5625H63.0172C62.8089 13.5625 62.6266 13.6406 62.4703 13.7969C62.3141 13.9531 62.2359 14.1354 62.2359 14.3438V16.6094C62.2359 16.8177 62.3141 17 62.4703 17.1562C62.6266 17.2865 62.8089 17.3516 63.0172 17.3516H73.5641C73.7724 17.3516 73.9417 17.2865 74.0719 17.1562C74.2281 17 74.3063 16.8177 74.3063 16.6094V14.3438ZM91.3734 13.5625C91.1651 13.5625 90.9828 13.6406 90.8266 13.7969C90.6703 13.9531 90.5922 14.1354 90.5922 14.3438V30.9453C90.5922 31.1536 90.5141 31.3359 90.3578 31.4922C90.2276 31.6224 90.0583 31.6875 89.85 31.6875H86.0609C85.8526 31.6875 85.6703 31.6224 85.5141 31.4922C85.3839 31.3359 85.3187 31.1536 85.3187 30.9453V9.07031C85.3187 8.86198 85.3839 8.67969 85.5141 8.52344C85.6703 8.36719 85.8526 8.28906 86.0609 8.28906H104.186C105.228 8.28906 106.113 8.66667 106.842 9.42188C107.597 10.151 107.975 11.0365 107.975 12.0781V15.8281C107.975 16.0365 107.897 16.2188 107.741 16.375C107.584 16.5312 107.402 16.6094 107.194 16.6094H103.444C103.235 16.6094 103.053 16.5312 102.897 16.375C102.741 16.2188 102.662 16.0365 102.662 15.8281V14.3438C102.662 14.1354 102.584 13.9531 102.428 13.7969C102.298 13.6406 102.129 13.5625 101.92 13.5625H91.3734ZM113.675 12.0781C113.675 11.0365 114.04 10.151 114.769 9.42188C115.524 8.66667 116.422 8.28906 117.464 8.28906H140.081C141.123 8.28906 142.008 8.66667 142.738 9.42188C143.493 10.151 143.87 11.0365 143.87 12.0781V30.9453C143.87 31.1536 143.792 31.3359 143.636 31.4922C143.506 31.6224 143.336 31.6875 143.128 31.6875H139.339C139.131 31.6875 138.948 31.6224 138.792 31.4922C138.662 31.3359 138.597 31.1536 138.597 30.9453V14.3438C138.597 14.1354 138.519 13.9531 138.363 13.7969C138.206 13.6406 138.024 13.5625 137.816 13.5625H131.8C131.592 13.5625 131.409 13.6406 131.253 13.7969C131.097 13.9531 131.019 14.1354 131.019 14.3438V30.9453C131.019 31.1536 130.941 31.3359 130.784 31.4922C130.654 31.6224 130.485 31.6875 130.277 31.6875H127.269C127.06 31.6875 126.878 31.6224 126.722 31.4922C126.566 31.3359 126.488 31.1536 126.488 30.9453V14.3438C126.488 14.1354 126.409 13.9531 126.253 13.7969C126.123 13.6406 125.954 13.5625 125.745 13.5625H119.73C119.521 13.5625 119.339 13.6406 119.183 13.7969C119.027 13.9531 118.948 14.1354 118.948 14.3438V30.9453C118.948 31.1536 118.87 31.3359 118.714 31.4922C118.584 31.6224 118.415 31.6875 118.206 31.6875H114.417C114.209 31.6875 114.027 31.6224 113.87 31.4922C113.74 31.3359 113.675 31.1536 113.675 30.9453V12.0781ZM168.438 8.28906C169.479 8.28906 170.365 8.66667 171.094 9.42188C171.849 10.151 172.227 11.0365 172.227 12.0781V30.9453C172.227 31.1536 172.148 31.3359 171.992 31.4922C171.836 31.6224 171.654 31.6875 171.445 31.6875H153.359C152.318 31.6875 151.419 31.3229 150.664 30.5938C149.935 29.8646 149.57 28.9792 149.57 27.9375V21.1406C149.57 20.099 149.935 19.2135 150.664 18.4844C151.419 17.7292 152.318 17.3516 153.359 17.3516H166.172C166.38 17.3516 166.549 17.2865 166.68 17.1562C166.836 17 166.914 16.8177 166.914 16.6094V14.3438C166.914 14.1354 166.836 13.9531 166.68 13.7969C166.549 13.6406 166.38 13.5625 166.172 13.5625H151.836C151.628 13.5625 151.445 13.4974 151.289 13.3672C151.159 13.2109 151.094 13.0286 151.094 12.8203V9.07031C151.094 8.86198 151.159 8.67969 151.289 8.52344C151.445 8.36719 151.628 8.28906 151.836 8.28906H168.438ZM154.844 25.6719C154.844 25.8802 154.922 26.0625 155.078 26.2188C155.234 26.349 155.417 26.4141 155.625 26.4141H166.172C166.38 26.4141 166.549 26.349 166.68 26.2188C166.836 26.0625 166.914 25.8802 166.914 25.6719V23.4062C166.914 23.1979 166.836 23.0156 166.68 22.8594C166.549 22.7031 166.38 22.625 166.172 22.625H155.625C155.417 22.625 155.234 22.7031 155.078 22.8594C154.922 23.0156 154.844 23.1979 154.844 23.4062V25.6719ZM178.669 31.6875C178.46 31.6875 178.278 31.6224 178.122 31.4922C177.992 31.3359 177.927 31.1536 177.927 30.9453V1.49219C177.927 1.28385 177.992 1.11458 178.122 0.984375C178.278 0.828125 178.46 0.75 178.669 0.75H182.458C182.666 0.75 182.835 0.828125 182.966 0.984375C183.122 1.11458 183.2 1.28385 183.2 1.49219V30.9453C183.2 31.1536 183.122 31.3359 182.966 31.4922C182.835 31.6224 182.666 31.6875 182.458 31.6875H178.669ZM22.125 52.75C22.3333 52.75 22.5156 52.8281 22.6719 52.9844C22.8281 53.1146 22.9062 53.2839 22.9062 53.4922V76.4609C22.9062 76.5911 22.8672 76.7214 22.7891 76.8516C22.737 76.9557 22.6458 77.0469 22.5156 77.125L11.9688 83.4531C11.8385 83.5312 11.6953 83.5703 11.5391 83.5703C11.4089 83.5703 11.2917 83.5312 11.1875 83.4531L0.601562 77.125C0.497396 77.0469 0.40625 76.9557 0.328125 76.8516C0.276042 76.7214 0.25 76.5911 0.25 76.4609V53.4922C0.25 53.2839 0.315104 53.1146 0.445312 52.9844C0.601562 52.8281 0.783854 52.75 0.992188 52.75H4.78125C4.98958 52.75 5.15885 52.8281 5.28906 52.9844C5.44531 53.1146 5.52344 53.2839 5.52344 53.4922V72.7109C5.52344 72.8411 5.54948 72.9714 5.60156 73.1016C5.67969 73.2057 5.77083 73.2839 5.875 73.3359L11.1875 76.6562C11.2917 76.7344 11.4089 76.7734 11.5391 76.7734C11.6953 76.7734 11.8385 76.7344 11.9688 76.6562L17.2422 73.3359C17.3724 73.2839 17.4635 73.2057 17.5156 73.1016C17.5677 72.9714 17.5938 72.8411 17.5938 72.7109V53.4922C17.5938 53.2839 17.6719 53.1146 17.8281 52.9844C17.9844 52.8281 18.1667 52.75 18.375 52.75H22.125ZM28.6063 53.4922C28.6063 53.2839 28.6714 53.1146 28.8016 52.9844C28.9578 52.8281 29.1401 52.75 29.3484 52.75H33.1375C33.3458 52.75 33.5151 52.8281 33.6453 52.9844C33.8016 53.1146 33.8797 53.2839 33.8797 53.4922V57.2812C33.8797 57.4896 33.8016 57.6719 33.6453 57.8281C33.5151 57.9583 33.3458 58.0234 33.1375 58.0234H29.3484C29.1401 58.0234 28.9578 57.9583 28.8016 57.8281C28.6714 57.6719 28.6063 57.4896 28.6063 57.2812V53.4922ZM33.1375 60.2891C33.3458 60.2891 33.5151 60.3672 33.6453 60.5234C33.8016 60.6797 33.8797 60.862 33.8797 61.0703V82.9453C33.8797 83.1536 33.8016 83.3359 33.6453 83.4922C33.5151 83.6224 33.3458 83.6875 33.1375 83.6875H29.3484C29.1401 83.6875 28.9578 83.6224 28.8016 83.4922C28.6714 83.3359 28.6063 83.1536 28.6063 82.9453V61.0703C28.6063 60.862 28.6714 60.6797 28.8016 60.5234C28.9578 60.3672 29.1401 60.2891 29.3484 60.2891H33.1375ZM44.8531 68.6094C44.8531 68.8177 44.9313 69 45.0875 69.1562C45.2438 69.2865 45.426 69.3516 45.6344 69.3516H58.4469C59.4885 69.3516 60.374 69.7292 61.1031 70.4844C61.8583 71.2135 62.2359 72.099 62.2359 73.1406V79.9375C62.2359 80.9792 61.8583 81.8646 61.1031 82.5938C60.374 83.3229 59.4885 83.6875 58.4469 83.6875H40.3219C40.1135 83.6875 39.9313 83.6224 39.775 83.4922C39.6448 83.3359 39.5797 83.1536 39.5797 82.9453V79.1562C39.5797 78.9479 39.6448 78.7786 39.775 78.6484C39.9313 78.4922 40.1135 78.4141 40.3219 78.4141H56.1813C56.3896 78.4141 56.5589 78.349 56.6891 78.2188C56.8453 78.0625 56.9234 77.8802 56.9234 77.6719V75.4062C56.9234 75.1979 56.8453 75.0156 56.6891 74.8594C56.5589 74.7031 56.3896 74.625 56.1813 74.625H43.3688C42.3271 74.625 41.4286 74.2604 40.6734 73.5312C39.9443 72.8021 39.5797 71.9167 39.5797 70.875V64.0781C39.5797 63.0365 39.9443 62.151 40.6734 61.4219C41.4286 60.6667 42.3271 60.2891 43.3688 60.2891H61.4547C61.663 60.2891 61.8453 60.3672 62.0016 60.5234C62.1578 60.6797 62.2359 60.862 62.2359 61.0703V64.8203C62.2359 65.0286 62.1578 65.2109 62.0016 65.3672C61.8453 65.4974 61.663 65.5625 61.4547 65.5625H45.6344C45.426 65.5625 45.2438 65.6406 45.0875 65.7969C44.9313 65.9531 44.8531 66.1354 44.8531 66.3438V68.6094ZM86.8031 60.2891C87.8448 60.2891 88.7302 60.6667 89.4594 61.4219C90.2146 62.151 90.5922 63.0365 90.5922 64.0781V79.9375C90.5922 80.9792 90.2146 81.8646 89.4594 82.5938C88.7302 83.3229 87.8448 83.6875 86.8031 83.6875H71.725C70.6833 83.6875 69.7849 83.3229 69.0297 82.5938C68.3005 81.8646 67.9359 80.9792 67.9359 79.9375V64.0781C67.9359 63.0365 68.3005 62.151 69.0297 61.4219C69.7849 60.6667 70.6833 60.2891 71.725 60.2891H86.8031ZM73.2094 77.6719C73.2094 77.8802 73.2875 78.0625 73.4437 78.2188C73.6 78.349 73.7823 78.4141 73.9906 78.4141H84.5375C84.7458 78.4141 84.9151 78.349 85.0453 78.2188C85.2016 78.0625 85.2797 77.8802 85.2797 77.6719V66.3438C85.2797 66.1354 85.2016 65.9531 85.0453 65.7969C84.9151 65.6406 84.7458 65.5625 84.5375 65.5625H73.9906C73.7823 65.5625 73.6 65.6406 73.4437 65.7969C73.2875 65.9531 73.2094 66.1354 73.2094 66.3438V77.6719ZM102.347 65.5625C102.139 65.5625 101.956 65.6406 101.8 65.7969C101.644 65.9531 101.566 66.1354 101.566 66.3438V82.9453C101.566 83.1536 101.488 83.3359 101.331 83.4922C101.201 83.6224 101.032 83.6875 100.823 83.6875H97.0344C96.826 83.6875 96.6438 83.6224 96.4875 83.4922C96.3573 83.3359 96.2922 83.1536 96.2922 82.9453V61.0703C96.2922 60.862 96.3573 60.6797 96.4875 60.5234C96.6438 60.3672 96.826 60.2891 97.0344 60.2891H115.159C116.201 60.2891 117.086 60.6667 117.816 61.4219C118.571 62.151 118.948 63.0365 118.948 64.0781V67.8281C118.948 68.0365 118.87 68.2188 118.714 68.375C118.558 68.5312 118.376 68.6094 118.167 68.6094H114.417C114.209 68.6094 114.027 68.5312 113.87 68.375C113.714 68.2188 113.636 68.0365 113.636 67.8281V66.3438C113.636 66.1354 113.558 65.9531 113.402 65.7969C113.271 65.6406 113.102 65.5625 112.894 65.5625H102.347Z" fill="#CCFFFF"/>
<path d="M8.6875 6.25781L7.15106 7.53818L7.20914 7.60788L7.27329 7.67203L8.6875 6.25781ZM0.445312 5.82812L-1.09113 7.10849L-0.974733 7.24817L-0.835056 7.36457L0.445312 5.82812ZM0.445312 0.984375L-0.968901 -0.429839L0.445312 0.984375ZM22.6719 0.984375L21.2577 2.39859L21.3218 2.46274L21.3915 2.52082L22.6719 0.984375ZM22.6719 5.82812L23.9522 7.36457L24.0219 7.30649L24.0861 7.24234L22.6719 5.82812ZM13.9609 31.4922L12.5467 30.078L13.9609 31.4922ZM9.15625 31.4922L7.74204 32.9064L7.80619 32.9706L7.87588 33.0286L9.15625 31.4922ZM10.9219 30.9453V6.80469H6.92188V30.9453H10.9219ZM10.9219 6.80469C10.9219 6.03125 10.6078 5.34967 10.1017 4.8436L7.27329 7.67203C7.19201 7.59074 7.09698 7.46753 7.02499 7.29956C6.95201 7.12927 6.92188 6.95746 6.92188 6.80469H10.9219ZM10.2239 4.97744C9.70321 4.35257 8.96493 4.02344 8.17969 4.02344V8.02344C8.02865 8.02344 7.83227 7.99372 7.62477 7.89795C7.41593 7.80156 7.25853 7.66715 7.15106 7.53818L10.2239 4.97744ZM8.17969 4.02344H0.992188V8.02344H8.17969V4.02344ZM0.992188 4.02344C1.09973 4.02344 1.23123 4.04089 1.37189 4.09113C1.51321 4.1416 1.63247 4.21401 1.72568 4.29168L-0.835056 7.36457C-0.309966 7.80214 0.328378 8.02344 0.992188 8.02344V4.02344ZM1.98176 4.54776C2.05943 4.64096 2.13184 4.76023 2.18231 4.90155C2.23255 5.04221 2.25 5.17371 2.25 5.28125H-1.75C-1.75 5.94506 -1.52871 6.5834 -1.09113 7.10849L1.98176 4.54776ZM2.25 5.28125V1.49219H-1.75V5.28125H2.25ZM2.25 1.49219C2.25 1.59743 2.23317 1.75106 2.16552 1.92694C2.09604 2.10759 1.98917 2.26895 1.85953 2.39859L-0.968901 -0.429839C-1.52467 0.125928 -1.75 0.829359 -1.75 1.49219H2.25ZM1.85953 2.39859C1.77824 2.47987 1.65503 2.57489 1.48706 2.64688C1.31677 2.71986 1.14496 2.75 0.992188 2.75V-1.25C0.218747 -1.25 -0.462829 -0.935911 -0.968901 -0.429839L1.85953 2.39859ZM0.992188 2.75H22.125V-1.25H0.992188V2.75ZM22.125 2.75C21.9722 2.75 21.8004 2.71986 21.6301 2.64688C21.4622 2.57489 21.3389 2.47987 21.2577 2.39859L24.0861 -0.429839C23.58 -0.935911 22.8984 -1.25 22.125 -1.25V2.75ZM21.3915 2.52082C21.2625 2.41334 21.1281 2.25594 21.0317 2.0471C20.936 1.8396 20.9062 1.64323 20.9062 1.49219H24.9062C24.9062 0.706946 24.5771 -0.0313384 23.9522 -0.552068L21.3915 2.52082ZM20.9062 1.49219V5.28125H24.9062V1.49219H20.9062ZM20.9062 5.28125C20.9062 5.12848 20.9364 4.95667 21.0094 4.78638C21.0814 4.6184 21.1764 4.49519 21.2577 4.41391L24.0861 7.24234C24.5922 6.73627 24.9062 6.05469 24.9062 5.28125H20.9062ZM21.3915 4.29168C21.4847 4.21401 21.604 4.1416 21.7453 4.09113C21.886 4.04089 22.0175 4.02344 22.125 4.02344V8.02344C22.7888 8.02344 23.4272 7.80214 23.9522 7.36457L21.3915 4.29168ZM22.125 4.02344H14.9766V8.02344H22.125V4.02344ZM14.9766 4.02344C14.2031 4.02344 13.5215 4.33753 13.0155 4.8436L15.8439 7.67203C15.7626 7.75331 15.6394 7.84833 15.4714 7.92032C15.3011 7.9933 15.1293 8.02344 14.9766 8.02344V4.02344ZM13.0155 4.8436C12.5094 5.34967 12.1953 6.03125 12.1953 6.80469H16.1953C16.1953 6.95746 16.1652 7.12927 16.0922 7.29956C16.0202 7.46753 15.9252 7.59074 15.8439 7.67203L13.0155 4.8436ZM12.1953 6.80469V30.9453H16.1953V6.80469H12.1953ZM12.1953 30.9453C12.1953 30.7925 12.2254 30.6207 12.2984 30.4504C12.3704 30.2825 12.4654 30.1593 12.5467 30.078L15.3752 32.9064C15.8812 32.4003 16.1953 31.7188 16.1953 30.9453H12.1953ZM12.5467 30.078C12.6764 29.9483 12.8377 29.8415 13.0184 29.772C13.1943 29.7043 13.3479 29.6875 13.4531 29.6875V33.6875C14.116 33.6875 14.8194 33.4622 15.3752 32.9064L12.5467 30.078ZM13.4531 29.6875H9.70312V33.6875H13.4531V29.6875ZM9.70312 29.6875C9.81067 29.6875 9.94217 29.705 10.0828 29.7552C10.2241 29.8057 10.3434 29.8781 10.4366 29.9557L7.87588 33.0286C8.40097 33.4662 9.03932 33.6875 9.70312 33.6875V29.6875ZM10.5705 30.078C10.6517 30.1593 10.7468 30.2825 10.8188 30.4504C10.8917 30.6207 10.9219 30.7925 10.9219 30.9453H6.92188C6.92188 31.7188 7.23596 32.4003 7.74204 32.9064L10.5705 30.078ZM33.6453 0.984375L32.1089 2.26474L32.2253 2.40442L32.3649 2.52082L33.6453 0.984375ZM34.1141 8.09375L32.6998 9.50796L32.764 9.57211L32.8337 9.63019L34.1141 8.09375ZM50.1297 9.42188L48.6909 10.8111L48.7153 10.8363L48.7405 10.8607L50.1297 9.42188ZM51.0281 31.4922L52.3085 33.0286L52.3782 32.9706L52.4423 32.9064L51.0281 31.4922ZM46.1844 31.4922L44.7702 32.9064L44.8343 32.9706L44.904 33.0286L46.1844 31.4922ZM45.7156 13.7969L44.1792 15.0772L44.2373 15.1469L44.3014 15.2111L45.7156 13.7969ZM33.6453 31.4922L35.0595 32.9064L33.6453 31.4922ZM28.8016 31.4922L27.2651 32.7726L27.3815 32.9122L27.5212 33.0286L28.8016 31.4922ZM28.8016 0.984375L27.3873 -0.429839L28.8016 0.984375ZM29.3484 2.75H33.1375V-1.25H29.3484V2.75ZM33.1375 2.75C32.9865 2.75 32.7901 2.72028 32.5826 2.62451C32.3737 2.52812 32.2163 2.39371 32.1089 2.26474L35.1818 -0.295994C34.661 -0.920869 33.9227 -1.25 33.1375 -1.25V2.75ZM32.3649 2.52082C32.236 2.41334 32.1016 2.25594 32.0052 2.0471C31.9094 1.8396 31.8797 1.64323 31.8797 1.49219H35.8797C35.8797 0.706946 35.5506 -0.0313384 34.9257 -0.552068L32.3649 2.52082ZM31.8797 1.49219V7.54688H35.8797V1.49219H31.8797ZM31.8797 7.54688C31.8797 8.32032 32.1938 9.00189 32.6998 9.50796L35.5283 6.67954C35.6096 6.76082 35.7046 6.88403 35.7766 7.05201C35.8496 7.22229 35.8797 7.39411 35.8797 7.54688H31.8797ZM32.8337 9.63019C33.3588 10.0678 33.9971 10.2891 34.6609 10.2891V6.28906C34.7685 6.28906 34.9 6.30651 35.0406 6.35675C35.182 6.40722 35.3012 6.47963 35.3944 6.55731L32.8337 9.63019ZM34.6609 10.2891H47.4734V6.28906H34.6609V10.2891ZM47.4734 10.2891C47.9677 10.2891 48.3353 10.4428 48.6909 10.8111L51.5685 8.03269C50.4658 6.89057 49.0625 6.28906 47.4734 6.28906V10.2891ZM48.7405 10.8607C49.1088 11.2163 49.2625 11.5838 49.2625 12.0781H53.2625C53.2625 10.4891 52.661 9.08581 51.5189 7.98307L48.7405 10.8607ZM49.2625 12.0781V30.9453H53.2625V12.0781H49.2625ZM49.2625 30.9453C49.2625 30.7925 49.2926 30.6207 49.3656 30.4504C49.4376 30.2825 49.5326 30.1593 49.6139 30.078L52.4423 32.9064C52.9484 32.4003 53.2625 31.7188 53.2625 30.9453H49.2625ZM49.7478 29.9557C49.841 29.8781 49.9602 29.8057 50.1015 29.7552C50.2422 29.705 50.3737 29.6875 50.4813 29.6875V33.6875C51.1451 33.6875 51.7834 33.4662 52.3085 33.0286L49.7478 29.9557ZM50.4813 29.6875H46.7313V33.6875H50.4813V29.6875ZM46.7313 29.6875C46.8388 29.6875 46.9703 29.705 47.111 29.7552C47.2523 29.8057 47.3715 29.8781 47.4647 29.9557L44.904 33.0286C45.4291 33.4662 46.0674 33.6875 46.7313 33.6875V29.6875ZM47.5986 30.078C47.6799 30.1593 47.7749 30.2825 47.8469 30.4504C47.9199 30.6207 47.95 30.7925 47.95 30.9453H43.95C43.95 31.7188 44.2641 32.4003 44.7702 32.9064L47.5986 30.078ZM47.95 30.9453V14.3438H43.95V30.9453H47.95ZM47.95 14.3438C47.95 13.5703 47.6359 12.8887 47.1298 12.3827L44.3014 15.2111C44.2201 15.1298 44.1251 15.0066 44.0531 14.8386C43.9801 14.6683 43.95 14.4965 43.95 14.3438H47.95ZM47.2521 12.5165C46.7313 11.8916 45.9931 11.5625 45.2078 11.5625V15.5625C45.0568 15.5625 44.8604 15.5328 44.6529 15.437C44.4441 15.3406 44.2867 15.2062 44.1792 15.0772L47.2521 12.5165ZM45.2078 11.5625H34.6609V15.5625H45.2078V11.5625ZM34.6609 11.5625C33.8875 11.5625 33.2059 11.8766 32.6998 12.3827L35.5283 15.2111C35.447 15.2924 35.3238 15.3874 35.1558 15.4594C34.9855 15.5324 34.8137 15.5625 34.6609 15.5625V11.5625ZM32.6998 12.3827C32.1938 12.8887 31.8797 13.5703 31.8797 14.3438H35.8797C35.8797 14.4965 35.8496 14.6683 35.7766 14.8386C35.7046 15.0066 35.6096 15.1298 35.5283 15.2111L32.6998 12.3827ZM31.8797 14.3438V30.9453H35.8797V14.3438H31.8797ZM31.8797 30.9453C31.8797 30.7925 31.9098 30.6207 31.9828 30.4504C32.0548 30.2825 32.1498 30.1593 32.2311 30.078L35.0595 32.9064C35.5656 32.4003 35.8797 31.7188 35.8797 30.9453H31.8797ZM32.2311 30.078C32.3607 29.9483 32.5221 29.8415 32.7027 29.772C32.8786 29.7043 33.0323 29.6875 33.1375 29.6875V33.6875C33.8003 33.6875 34.5038 33.4622 35.0595 32.9064L32.2311 30.078ZM33.1375 29.6875H29.3484V33.6875H33.1375V29.6875ZM29.3484 29.6875C29.456 29.6875 29.5875 29.705 29.7281 29.7552C29.8695 29.8057 29.9887 29.8781 30.0819 29.9557L27.5212 33.0286C28.0463 33.4662 28.6846 33.6875 29.3484 33.6875V29.6875ZM30.338 30.2118C30.4157 30.305 30.4881 30.4243 30.5386 30.5656C30.5888 30.7063 30.6063 30.8378 30.6063 30.9453H26.6063C26.6063 31.6091 26.8275 32.2475 27.2651 32.7726L30.338 30.2118ZM30.6063 30.9453V1.49219H26.6063V30.9453H30.6063ZM30.6063 1.49219C30.6063 1.59743 30.5894 1.75106 30.5218 1.92694C30.4523 2.10759 30.3454 2.26895 30.2158 2.39859L27.3873 -0.429839C26.8316 0.125928 26.6063 0.829359 26.6063 1.49219H30.6063ZM30.2158 2.39859C30.1345 2.47987 30.0113 2.57489 29.8433 2.64688C29.673 2.71986 29.5012 2.75 29.3484 2.75V-1.25C28.575 -1.25 27.8934 -0.935911 27.3873 -0.429839L30.2158 2.39859ZM58.0563 30.5938L56.642 32.008L56.6544 32.0204L56.6671 32.0326L58.0563 30.5938ZM58.0563 9.42188L59.4705 10.8361L58.0563 9.42188ZM78.4859 9.42188L77.0471 10.8111L77.0715 10.8363L77.0967 10.8607L78.4859 9.42188ZM78.4859 21.5312L77.0967 20.0924L77.0841 20.1046L77.0717 20.117L78.4859 21.5312ZM62.4703 26.2188L61.0561 27.633L61.1203 27.6971L61.1899 27.7552L62.4703 26.2188ZM79.3844 26.6484L77.9702 28.0627L78.0343 28.1268L78.104 28.1849L79.3844 26.6484ZM79.3844 31.4922L80.6647 33.0286L80.7344 32.9706L80.7986 32.9064L79.3844 31.4922ZM74.0719 13.7969L72.5354 15.0772L72.5935 15.1469L72.6577 15.2111L74.0719 13.7969ZM62.4703 17.1562L61.0561 18.5705L61.1203 18.6346L61.1899 18.6927L62.4703 17.1562ZM60.7516 29.6875C60.2327 29.6875 59.831 29.5272 59.4454 29.1549L56.6671 32.0326C57.7919 33.1186 59.1871 33.6875 60.7516 33.6875V29.6875ZM59.4705 29.1795C59.1206 28.8297 58.9625 28.4548 58.9625 27.9375H54.9625C54.9625 29.5035 55.5335 30.8995 56.642 32.008L59.4705 29.1795ZM58.9625 27.9375V12.0781H54.9625V27.9375H58.9625ZM58.9625 12.0781C58.9625 11.5608 59.1206 11.1859 59.4705 10.8361L56.642 8.00766C55.5335 9.11616 54.9625 10.5121 54.9625 12.0781H58.9625ZM59.4705 10.8361C59.8612 10.4453 60.2552 10.2891 60.7516 10.2891V6.28906C59.1646 6.28906 57.7617 6.88801 56.642 8.00766L59.4705 10.8361ZM60.7516 10.2891H75.8297V6.28906H60.7516V10.2891ZM75.8297 10.2891C76.324 10.2891 76.6915 10.4428 77.0471 10.8111L79.9247 8.03269C78.822 6.89057 77.4187 6.28906 75.8297 6.28906V10.2891ZM77.0967 10.8607C77.465 11.2163 77.6188 11.5838 77.6188 12.0781H81.6188C81.6188 10.4891 81.0172 9.08581 79.8751 7.98307L77.0967 10.8607ZM77.6188 12.0781V18.875H81.6188V12.0781H77.6188ZM77.6188 18.875C77.6188 19.3693 77.465 19.7369 77.0967 20.0924L79.8751 22.9701C81.0172 21.8673 81.6188 20.464 81.6188 18.875H77.6188ZM77.0717 20.117C76.7219 20.4669 76.347 20.625 75.8297 20.625V24.625C77.3957 24.625 78.7917 24.054 79.9002 22.9455L77.0717 20.117ZM75.8297 20.625H63.0172V24.625H75.8297V20.625ZM63.0172 20.625C62.2437 20.625 61.5622 20.9391 61.0561 21.4452L63.8845 24.2736C63.8032 24.3549 63.68 24.4499 63.5121 24.5219C63.3418 24.5949 63.17 24.625 63.0172 24.625V20.625ZM61.0561 21.4452C60.55 21.9512 60.2359 22.6328 60.2359 23.4062H64.2359C64.2359 23.559 64.2058 23.7308 64.1328 23.9011C64.0608 24.0691 63.9658 24.1923 63.8845 24.2736L61.0561 21.4452ZM60.2359 23.4062V25.6719H64.2359V23.4062H60.2359ZM60.2359 25.6719C60.2359 26.4453 60.55 27.1269 61.0561 27.633L63.8845 24.8045C63.9658 24.8858 64.0608 25.009 64.1328 25.177C64.2058 25.3473 64.2359 25.5191 64.2359 25.6719H60.2359ZM61.1899 27.7552C61.715 28.1928 62.3534 28.4141 63.0172 28.4141V24.4141C63.1247 24.4141 63.2562 24.4315 63.3969 24.4818C63.5382 24.5322 63.6575 24.6046 63.7507 24.6823L61.1899 27.7552ZM63.0172 28.4141H78.8375V24.4141H63.0172V28.4141ZM78.8375 28.4141C78.6847 28.4141 78.5129 28.3839 78.3426 28.3109C78.1747 28.239 78.0514 28.1439 77.9702 28.0627L80.7986 25.2342C80.2925 24.7282 79.6109 24.4141 78.8375 24.4141V28.4141ZM78.104 28.1849C77.975 28.0774 77.8406 27.92 77.7442 27.7112C77.6485 27.5037 77.6188 27.3073 77.6188 27.1562H81.6188C81.6188 26.371 81.2896 25.6327 80.6647 25.112L78.104 28.1849ZM77.6188 27.1562V30.9453H81.6188V27.1562H77.6188ZM77.6188 30.9453C77.6188 30.7925 77.6489 30.6207 77.7219 30.4504C77.7939 30.2825 77.8889 30.1593 77.9702 30.078L80.7986 32.9064C81.3047 32.4003 81.6188 31.7188 81.6188 30.9453H77.6188ZM78.104 29.9557C78.1972 29.8781 78.3165 29.8057 78.4578 29.7552C78.5985 29.705 78.73 29.6875 78.8375 29.6875V33.6875C79.5013 33.6875 80.1397 33.4662 80.6647 33.0286L78.104 29.9557ZM78.8375 29.6875H60.7516V33.6875H78.8375V29.6875ZM76.3063 14.3438C76.3063 13.5703 75.9922 12.8887 75.4861 12.3827L72.6577 15.2111C72.5764 15.1298 72.4814 15.0066 72.4094 14.8386C72.3364 14.6683 72.3063 14.4965 72.3063 14.3438H76.3063ZM75.6083 12.5165C75.0876 11.8916 74.3493 11.5625 73.5641 11.5625V15.5625C73.413 15.5625 73.2166 15.5328 73.0092 15.437C72.8003 15.3406 72.6429 15.2062 72.5354 15.0772L75.6083 12.5165ZM73.5641 11.5625H63.0172V15.5625H73.5641V11.5625ZM63.0172 11.5625C62.2437 11.5625 61.5622 11.8766 61.0561 12.3827L63.8845 15.2111C63.8032 15.2924 63.68 15.3874 63.5121 15.4594C63.3418 15.5324 63.17 15.5625 63.0172 15.5625V11.5625ZM61.0561 12.3827C60.55 12.8887 60.2359 13.5703 60.2359 14.3438H64.2359C64.2359 14.4965 64.2058 14.6683 64.1328 14.8386C64.0608 15.0066 63.9658 15.1298 63.8845 15.2111L61.0561 12.3827ZM60.2359 14.3438V16.6094H64.2359V14.3438H60.2359ZM60.2359 16.6094C60.2359 17.3828 60.55 18.0644 61.0561 18.5705L63.8845 15.742C63.9658 15.8233 64.0608 15.9465 64.1328 16.1145C64.2058 16.2848 64.2359 16.4566 64.2359 16.6094H60.2359ZM61.1899 18.6927C61.715 19.1303 62.3534 19.3516 63.0172 19.3516V15.3516C63.1247 15.3516 63.2562 15.369 63.3969 15.4193C63.5382 15.4697 63.6575 15.5421 63.7507 15.6198L61.1899 18.6927ZM63.0172 19.3516H73.5641V15.3516H63.0172V19.3516ZM73.5641 19.3516C74.2269 19.3516 74.9303 19.1262 75.4861 18.5705L72.6577 15.742C72.7873 15.6124 72.9487 15.5055 73.1293 15.436C73.3052 15.3684 73.4588 15.3516 73.5641 15.3516V19.3516ZM75.4861 18.5705C75.9922 18.0644 76.3063 17.3828 76.3063 16.6094H72.3063C72.3063 16.4566 72.3364 16.2848 72.4094 16.1145C72.4814 15.9465 72.5764 15.8233 72.6577 15.742L75.4861 18.5705ZM76.3063 16.6094V14.3438H72.3063V16.6094H76.3063ZM90.3578 31.4922L91.772 32.9064L90.3578 31.4922ZM85.5141 31.4922L83.9776 32.7726L84.094 32.9122L84.2337 33.0286L85.5141 31.4922ZM85.5141 8.52344L84.0998 7.10922L84.0357 7.17337L83.9776 7.24307L85.5141 8.52344ZM106.842 9.42188L105.403 10.8111L105.428 10.8363L105.453 10.8607L106.842 9.42188ZM102.428 13.7969L100.892 15.0772L100.95 15.1469L101.014 15.2111L102.428 13.7969ZM91.3734 11.5625C90.6 11.5625 89.9184 11.8766 89.4123 12.3827L92.2408 15.2111C92.1595 15.2924 92.0363 15.3874 91.8683 15.4594C91.698 15.5324 91.5262 15.5625 91.3734 15.5625V11.5625ZM89.4123 12.3827C88.9063 12.8887 88.5922 13.5703 88.5922 14.3438H92.5922C92.5922 14.4965 92.5621 14.6683 92.4891 14.8386C92.4171 15.0066 92.3221 15.1298 92.2408 15.2111L89.4123 12.3827ZM88.5922 14.3438V30.9453H92.5922V14.3438H88.5922ZM88.5922 30.9453C88.5922 30.7925 88.6223 30.6207 88.6953 30.4504C88.7673 30.2825 88.8623 30.1593 88.9436 30.078L91.772 32.9064C92.2781 32.4003 92.5922 31.7188 92.5922 30.9453H88.5922ZM88.9436 30.078C89.0732 29.9483 89.2346 29.8415 89.4152 29.772C89.5911 29.7043 89.7448 29.6875 89.85 29.6875V33.6875C90.5128 33.6875 91.2163 33.4622 91.772 32.9064L88.9436 30.078ZM89.85 29.6875H86.0609V33.6875H89.85V29.6875ZM86.0609 29.6875C86.1685 29.6875 86.3 29.705 86.4406 29.7552C86.582 29.8057 86.7012 29.8781 86.7944 29.9557L84.2337 33.0286C84.7588 33.4662 85.3971 33.6875 86.0609 33.6875V29.6875ZM87.0505 30.2118C87.1282 30.305 87.2006 30.4243 87.2511 30.5656C87.3013 30.7063 87.3187 30.8378 87.3187 30.9453H83.3187C83.3187 31.6091 83.54 32.2475 83.9776 32.7726L87.0505 30.2118ZM87.3187 30.9453V9.07031H83.3187V30.9453H87.3187ZM87.3187 9.07031C87.3187 9.17785 87.3013 9.30935 87.2511 9.45002C87.2006 9.59133 87.1282 9.7106 87.0505 9.80381L83.9776 7.24307C83.54 7.76816 83.3187 8.4065 83.3187 9.07031H87.3187ZM86.9283 9.93765C86.847 10.0189 86.7238 10.114 86.5558 10.1859C86.3855 10.2589 86.2137 10.2891 86.0609 10.2891V6.28906C85.2875 6.28906 84.6059 6.60315 84.0998 7.10922L86.9283 9.93765ZM86.0609 10.2891H104.186V6.28906H86.0609V10.2891ZM104.186 10.2891C104.68 10.2891 105.048 10.4428 105.403 10.8111L108.281 8.03269C107.178 6.89057 105.775 6.28906 104.186 6.28906V10.2891ZM105.453 10.8607C105.821 11.2163 105.975 11.5838 105.975 12.0781H109.975C109.975 10.4891 109.373 9.08581 108.231 7.98307L105.453 10.8607ZM105.975 12.0781V15.8281H109.975V12.0781H105.975ZM105.975 15.8281C105.975 15.6754 106.005 15.5035 106.078 15.3333C106.15 15.1653 106.245 15.0421 106.326 14.9608L109.155 17.7892C109.661 17.2831 109.975 16.6016 109.975 15.8281H105.975ZM106.326 14.9608C106.408 14.8795 106.531 14.7845 106.699 14.7125C106.869 14.6395 107.041 14.6094 107.194 14.6094V18.6094C107.967 18.6094 108.649 18.2953 109.155 17.7892L106.326 14.9608ZM107.194 14.6094H103.444V18.6094H107.194V14.6094ZM103.444 14.6094C103.597 14.6094 103.768 14.6395 103.939 14.7125C104.107 14.7845 104.23 14.8795 104.311 14.9608L101.483 17.7892C101.989 18.2953 102.67 18.6094 103.444 18.6094V14.6094ZM104.311 14.9608C104.392 15.0421 104.487 15.1653 104.559 15.3333C104.632 15.5035 104.662 15.6754 104.662 15.8281H100.662C100.662 16.6016 100.977 17.2831 101.483 17.7892L104.311 14.9608ZM104.662 15.8281V14.3438H100.662V15.8281H104.662ZM104.662 14.3438C104.662 13.5703 104.348 12.8887 103.842 12.3827L101.014 15.2111C100.933 15.1298 100.838 15.0066 100.766 14.8386C100.693 14.6683 100.662 14.4965 100.662 14.3438H104.662ZM103.965 12.5165C103.444 11.8916 102.706 11.5625 101.92 11.5625V15.5625C101.769 15.5625 101.573 15.5328 101.365 15.437C101.157 15.3406 100.999 15.2062 100.892 15.0772L103.965 12.5165ZM101.92 11.5625H91.3734V15.5625H101.92V11.5625ZM114.769 9.42188L116.183 10.8361L114.769 9.42188ZM142.738 9.42188L141.299 10.8111L141.323 10.8363L141.348 10.8607L142.738 9.42188ZM143.636 31.4922L145.05 32.9064L143.636 31.4922ZM138.792 31.4922L137.256 32.7726L137.372 32.9122L137.512 33.0286L138.792 31.4922ZM130.784 31.4922L129.37 30.078L130.784 31.4922ZM126.722 31.4922L125.308 32.9064L125.372 32.9706L125.442 33.0286L126.722 31.4922ZM126.253 13.7969L124.717 15.0772L124.775 15.1469L124.839 15.2111L126.253 13.7969ZM118.714 31.4922L120.128 32.9064L118.714 31.4922ZM113.87 31.4922L112.334 32.7726L112.45 32.9122L112.59 33.0286L113.87 31.4922ZM115.675 12.0781C115.675 11.5608 115.833 11.1859 116.183 10.8361L113.355 8.00766C112.246 9.11616 111.675 10.5121 111.675 12.0781H115.675ZM116.183 10.8361C116.574 10.4453 116.968 10.2891 117.464 10.2891V6.28906C115.877 6.28906 114.474 6.88801 113.355 8.00766L116.183 10.8361ZM117.464 10.2891H140.081V6.28906H117.464V10.2891ZM140.081 10.2891C140.576 10.2891 140.943 10.4428 141.299 10.8111L144.176 8.03269C143.074 6.89057 141.67 6.28906 140.081 6.28906V10.2891ZM141.348 10.8607C141.717 11.2163 141.87 11.5838 141.87 12.0781H145.87C145.87 10.4891 145.269 9.08581 144.127 7.98307L141.348 10.8607ZM141.87 12.0781V30.9453H145.87V12.0781H141.87ZM141.87 30.9453C141.87 30.7925 141.9 30.6207 141.973 30.4504C142.045 30.2825 142.14 30.1593 142.222 30.078L145.05 32.9064C145.556 32.4003 145.87 31.7188 145.87 30.9453H141.87ZM142.222 30.078C142.351 29.9483 142.513 29.8415 142.693 29.772C142.869 29.7043 143.023 29.6875 143.128 29.6875V33.6875C143.791 33.6875 144.494 33.4622 145.05 32.9064L142.222 30.078ZM143.128 29.6875H139.339V33.6875H143.128V29.6875ZM139.339 29.6875C139.447 29.6875 139.578 29.705 139.719 29.7552C139.86 29.8057 139.979 29.8781 140.073 29.9557L137.512 33.0286C138.037 33.4662 138.675 33.6875 139.339 33.6875V29.6875ZM140.329 30.2118C140.406 30.305 140.479 30.4243 140.529 30.5656C140.579 30.7063 140.597 30.8378 140.597 30.9453H136.597C136.597 31.6091 136.818 32.2475 137.256 32.7726L140.329 30.2118ZM140.597 30.9453V14.3438H136.597V30.9453H140.597ZM140.597 14.3438C140.597 13.5703 140.283 12.8887 139.777 12.3827L136.948 15.2111C136.867 15.1298 136.772 15.0066 136.7 14.8386C136.627 14.6683 136.597 14.4965 136.597 14.3438H140.597ZM139.777 12.3827C139.271 11.8766 138.589 11.5625 137.816 11.5625V15.5625C137.663 15.5625 137.491 15.5324 137.321 15.4594C137.153 15.3874 137.03 15.2924 136.948 15.2111L139.777 12.3827ZM137.816 11.5625H131.8V15.5625H137.816V11.5625ZM131.8 11.5625C131.027 11.5625 130.345 11.8766 129.839 12.3827L132.667 15.2111C132.586 15.2924 132.463 15.3874 132.295 15.4594C132.125 15.5324 131.953 15.5625 131.8 15.5625V11.5625ZM129.839 12.3827C129.333 12.8887 129.019 13.5703 129.019 14.3438H133.019C133.019 14.4965 132.989 14.6683 132.916 14.8386C132.844 15.0066 132.749 15.1298 132.667 15.2111L129.839 12.3827ZM129.019 14.3438V30.9453H133.019V14.3438H129.019ZM129.019 30.9453C129.019 30.7925 129.049 30.6207 129.122 30.4504C129.194 30.2825 129.289 30.1593 129.37 30.078L132.199 32.9064C132.705 32.4003 133.019 31.7188 133.019 30.9453H129.019ZM129.37 30.078C129.5 29.9483 129.661 29.8415 129.842 29.772C130.018 29.7043 130.171 29.6875 130.277 29.6875V33.6875C130.939 33.6875 131.643 33.4622 132.199 32.9064L129.37 30.078ZM130.277 29.6875H127.269V33.6875H130.277V29.6875ZM127.269 29.6875C127.376 29.6875 127.508 29.705 127.648 29.7552C127.79 29.8057 127.909 29.8781 128.002 29.9557L125.442 33.0286C125.967 33.4662 126.605 33.6875 127.269 33.6875V29.6875ZM128.136 30.078C128.217 30.1593 128.312 30.2825 128.384 30.4504C128.457 30.6207 128.488 30.7925 128.488 30.9453H124.488C124.488 31.7188 124.802 32.4003 125.308 32.9064L128.136 30.078ZM128.488 30.9453V14.3438H124.488V30.9453H128.488ZM128.488 14.3438C128.488 13.5703 128.173 12.8887 127.667 12.3827L124.839 15.2111C124.758 15.1298 124.663 15.0066 124.591 14.8386C124.518 14.6683 124.488 14.4965 124.488 14.3438H128.488ZM127.79 12.5165C127.269 11.8916 126.531 11.5625 125.745 11.5625V15.5625C125.594 15.5625 125.398 15.5328 125.19 15.437C124.982 15.3406 124.824 15.2062 124.717 15.0772L127.79 12.5165ZM125.745 11.5625H119.73V15.5625H125.745V11.5625ZM119.73 11.5625C118.956 11.5625 118.275 11.8766 117.769 12.3827L120.597 15.2111C120.516 15.2924 120.393 15.3874 120.225 15.4594C120.054 15.5324 119.882 15.5625 119.73 15.5625V11.5625ZM117.769 12.3827C117.263 12.8887 116.948 13.5703 116.948 14.3438H120.948C120.948 14.4965 120.918 14.6683 120.845 14.8386C120.773 15.0066 120.678 15.1298 120.597 15.2111L117.769 12.3827ZM116.948 14.3438V30.9453H120.948V14.3438H116.948ZM116.948 30.9453C116.948 30.7925 116.979 30.6207 117.052 30.4504C117.124 30.2825 117.219 30.1593 117.3 30.078L120.128 32.9064C120.634 32.4003 120.948 31.7188 120.948 30.9453H116.948ZM117.3 30.078C117.429 29.9483 117.591 29.8415 117.771 29.772C117.947 29.7043 118.101 29.6875 118.206 29.6875V33.6875C118.869 33.6875 119.573 33.4622 120.128 32.9064L117.3 30.078ZM118.206 29.6875H114.417V33.6875H118.206V29.6875ZM114.417 29.6875C114.525 29.6875 114.656 29.705 114.797 29.7552C114.938 29.8057 115.057 29.8781 115.151 29.9557L112.59 33.0286C113.115 33.4662 113.753 33.6875 114.417 33.6875V29.6875ZM115.407 30.2118C115.484 30.305 115.557 30.4243 115.607 30.5656C115.658 30.7063 115.675 30.8378 115.675 30.9453H111.675C111.675 31.6091 111.896 32.2475 112.334 32.7726L115.407 30.2118ZM115.675 30.9453V12.0781H111.675V30.9453H115.675ZM171.094 9.42188L169.655 10.8111L169.679 10.8363L169.705 10.8607L171.094 9.42188ZM171.992 31.4922L173.273 33.0286L173.342 32.9706L173.406 32.9064L171.992 31.4922ZM150.664 30.5938L149.25 32.008L149.262 32.0204L149.275 32.0326L150.664 30.5938ZM150.664 18.4844L149.25 17.0702L150.664 18.4844ZM166.68 13.7969L165.143 15.0772L165.201 15.1469L165.265 15.2111L166.68 13.7969ZM151.289 13.3672L149.753 14.6476L149.869 14.7872L150.009 14.9036L151.289 13.3672ZM151.289 8.52344L149.875 7.10922L149.811 7.17337L149.753 7.24307L151.289 8.52344ZM155.078 26.2188L153.664 27.633L153.728 27.6971L153.798 27.7552L155.078 26.2188ZM166.68 26.2188L165.265 24.8045L166.68 26.2188ZM166.68 22.8594L165.143 24.1397L165.201 24.2094L165.265 24.2736L166.68 22.8594ZM168.438 10.2891C168.932 10.2891 169.299 10.4428 169.655 10.8111L172.533 8.03269C171.43 6.89057 170.027 6.28906 168.438 6.28906V10.2891ZM169.705 10.8607C170.073 11.2163 170.227 11.5838 170.227 12.0781H174.227C174.227 10.4891 173.625 9.08581 172.483 7.98307L169.705 10.8607ZM170.227 12.0781V30.9453H174.227V12.0781H170.227ZM170.227 30.9453C170.227 30.7925 170.257 30.6207 170.33 30.4504C170.402 30.2825 170.497 30.1593 170.578 30.078L173.406 32.9064C173.912 32.4003 174.227 31.7188 174.227 30.9453H170.227ZM170.712 29.9557C170.805 29.8781 170.924 29.8057 171.066 29.7552C171.206 29.705 171.338 29.6875 171.445 29.6875V33.6875C172.109 33.6875 172.747 33.4662 173.273 33.0286L170.712 29.9557ZM171.445 29.6875H153.359V33.6875H171.445V29.6875ZM153.359 29.6875C152.84 29.6875 152.439 29.5272 152.053 29.1549L149.275 32.0326C150.4 33.1186 151.795 33.6875 153.359 33.6875V29.6875ZM152.078 29.1795C151.728 28.8297 151.57 28.4548 151.57 27.9375H147.57C147.57 29.5035 148.141 30.8995 149.25 32.008L152.078 29.1795ZM151.57 27.9375V21.1406H147.57V27.9375H151.57ZM151.57 21.1406C151.57 20.6233 151.728 20.2484 152.078 19.8986L149.25 17.0702C148.141 18.1787 147.57 19.5746 147.57 21.1406H151.57ZM152.078 19.8986C152.469 19.5078 152.863 19.3516 153.359 19.3516V15.3516C151.772 15.3516 150.37 15.9505 149.25 17.0702L152.078 19.8986ZM153.359 19.3516H166.172V15.3516H153.359V19.3516ZM166.172 19.3516C166.835 19.3516 167.538 19.1262 168.094 18.5705L165.265 15.742C165.395 15.6124 165.556 15.5055 165.737 15.436C165.913 15.3684 166.067 15.3516 166.172 15.3516V19.3516ZM168.094 18.5705C168.6 18.0644 168.914 17.3828 168.914 16.6094H164.914C164.914 16.4566 164.944 16.2848 165.017 16.1145C165.089 15.9465 165.184 15.8233 165.265 15.742L168.094 18.5705ZM168.914 16.6094V14.3438H164.914V16.6094H168.914ZM168.914 14.3438C168.914 13.5703 168.6 12.8887 168.094 12.3827L165.265 15.2111C165.184 15.1298 165.089 15.0066 165.017 14.8386C164.944 14.6683 164.914 14.4965 164.914 14.3438H168.914ZM168.216 12.5165C167.695 11.8916 166.957 11.5625 166.172 11.5625V15.5625C166.021 15.5625 165.824 15.5328 165.617 15.437C165.408 15.3406 165.251 15.2062 165.143 15.0772L168.216 12.5165ZM166.172 11.5625H151.836V15.5625H166.172V11.5625ZM151.836 11.5625C151.943 11.5625 152.075 11.58 152.216 11.6302C152.357 11.6807 152.476 11.7531 152.569 11.8307L150.009 14.9036C150.534 15.3412 151.172 15.5625 151.836 15.5625V11.5625ZM152.826 12.0868C152.903 12.18 152.976 12.2993 153.026 12.4406C153.076 12.5813 153.094 12.7128 153.094 12.8203H149.094C149.094 13.4841 149.315 14.1225 149.753 14.6476L152.826 12.0868ZM153.094 12.8203V9.07031H149.094V12.8203H153.094ZM153.094 9.07031C153.094 9.17785 153.076 9.30935 153.026 9.45002C152.976 9.59133 152.903 9.7106 152.826 9.80381L149.753 7.24307C149.315 7.76816 149.094 8.4065 149.094 9.07031H153.094ZM152.703 9.93765C152.622 10.0189 152.499 10.114 152.331 10.1859C152.161 10.2589 151.989 10.2891 151.836 10.2891V6.28906C151.062 6.28906 150.381 6.60315 149.875 7.10922L152.703 9.93765ZM151.836 10.2891H168.438V6.28906H151.836V10.2891ZM152.844 25.6719C152.844 26.4453 153.158 27.1269 153.664 27.633L156.492 24.8045C156.574 24.8858 156.669 25.009 156.741 25.177C156.814 25.3473 156.844 25.5191 156.844 25.6719H152.844ZM153.798 27.7552C154.323 28.1928 154.961 28.4141 155.625 28.4141V24.4141C155.733 24.4141 155.864 24.4315 156.005 24.4818C156.146 24.5322 156.265 24.6046 156.358 24.6823L153.798 27.7552ZM155.625 28.4141H166.172V24.4141H155.625V28.4141ZM166.172 28.4141C166.835 28.4141 167.538 28.1887 168.094 27.633L165.265 24.8045C165.395 24.6749 165.556 24.568 165.737 24.4985C165.913 24.4309 166.067 24.4141 166.172 24.4141V28.4141ZM168.094 27.633C168.6 27.1269 168.914 26.4453 168.914 25.6719H164.914C164.914 25.5191 164.944 25.3473 165.017 25.177C165.089 25.009 165.184 24.8858 165.265 24.8045L168.094 27.633ZM168.914 25.6719V23.4062H164.914V25.6719H168.914ZM168.914 23.4062C168.914 22.6328 168.6 21.9512 168.094 21.4452L165.265 24.2736C165.184 24.1923 165.089 24.0691 165.017 23.9011C164.944 23.7308 164.914 23.559 164.914 23.4062H168.914ZM168.216 21.579C167.695 20.9541 166.957 20.625 166.172 20.625V24.625C166.021 24.625 165.824 24.5953 165.617 24.4995C165.408 24.4031 165.251 24.2687 165.143 24.1397L168.216 21.579ZM166.172 20.625H155.625V24.625H166.172V20.625ZM155.625 20.625C154.852 20.625 154.17 20.9391 153.664 21.4452L156.492 24.2736C156.411 24.3549 156.288 24.4499 156.12 24.5219C155.95 24.5949 155.778 24.625 155.625 24.625V20.625ZM153.664 21.4452C153.158 21.9512 152.844 22.6328 152.844 23.4062H156.844C156.844 23.559 156.814 23.7308 156.741 23.9011C156.669 24.0691 156.574 24.1923 156.492 24.2736L153.664 21.4452ZM152.844 23.4062V25.6719H156.844V23.4062H152.844ZM178.122 31.4922L176.585 32.7726L176.702 32.9122L176.842 33.0286L178.122 31.4922ZM178.122 0.984375L176.708 -0.429839L178.122 0.984375ZM182.966 0.984375L181.429 2.26474L181.546 2.40442L181.685 2.52082L182.966 0.984375ZM182.966 31.4922L184.38 32.9064L182.966 31.4922ZM178.669 29.6875C178.776 29.6875 178.908 29.705 179.048 29.7552C179.19 29.8057 179.309 29.8781 179.402 29.9557L176.842 33.0286C177.367 33.4662 178.005 33.6875 178.669 33.6875V29.6875ZM179.658 30.2118C179.736 30.305 179.808 30.4243 179.859 30.5656C179.909 30.7063 179.927 30.8378 179.927 30.9453H175.927C175.927 31.6091 176.148 32.2475 176.585 32.7726L179.658 30.2118ZM179.927 30.9453V1.49219H175.927V30.9453H179.927ZM179.927 1.49219C179.927 1.59743 179.91 1.75106 179.842 1.92694C179.773 2.10759 179.666 2.26895 179.536 2.39859L176.708 -0.429839C176.152 0.125928 175.927 0.829359 175.927 1.49219H179.927ZM179.536 2.39859C179.455 2.47987 179.332 2.57489 179.164 2.64688C178.993 2.71986 178.822 2.75 178.669 2.75V-1.25C177.895 -1.25 177.214 -0.935911 176.708 -0.429839L179.536 2.39859ZM178.669 2.75H182.458V-1.25H178.669V2.75ZM182.458 2.75C182.307 2.75 182.11 2.72028 181.903 2.62451C181.694 2.52812 181.537 2.39371 181.429 2.26474L184.502 -0.295994C183.981 -0.920869 183.243 -1.25 182.458 -1.25V2.75ZM181.685 2.52082C181.556 2.41334 181.422 2.25594 181.325 2.0471C181.23 1.8396 181.2 1.64323 181.2 1.49219H185.2C185.2 0.706946 184.871 -0.0313384 184.246 -0.552068L181.685 2.52082ZM181.2 1.49219V30.9453H185.2V1.49219H181.2ZM181.2 30.9453C181.2 30.7925 181.23 30.6207 181.303 30.4504C181.375 30.2825 181.47 30.1593 181.551 30.078L184.38 32.9064C184.886 32.4003 185.2 31.7188 185.2 30.9453H181.2ZM181.551 30.078C181.681 29.9483 181.842 29.8415 182.023 29.772C182.199 29.7043 182.353 29.6875 182.458 29.6875V33.6875C183.121 33.6875 183.824 33.4622 184.38 32.9064L181.551 30.078ZM182.458 29.6875H178.669V33.6875H182.458V29.6875ZM22.6719 52.9844L21.2577 54.3986L21.3218 54.4627L21.3915 54.5208L22.6719 52.9844ZM22.7891 76.8516L21.0741 75.8226L21.0346 75.8884L21.0002 75.9571L22.7891 76.8516ZM22.5156 77.125L21.4866 75.41L22.5156 77.125ZM11.9688 83.4531L10.9398 81.7381L11.9688 83.4531ZM11.1875 83.4531L12.3875 81.8531L12.3037 81.7902L12.2137 81.7365L11.1875 83.4531ZM0.601562 77.125L-0.598438 78.725L-0.514592 78.7879L-0.424633 78.8417L0.601562 77.125ZM0.328125 76.8516L-1.52883 77.5943L-1.43059 77.8399L-1.27187 78.0516L0.328125 76.8516ZM0.445312 52.9844L-0.968901 51.5702L0.445312 52.9844ZM5.28906 52.9844L3.75262 54.2647L3.86902 54.4044L4.00869 54.5208L5.28906 52.9844ZM5.60156 73.1016L3.74461 73.8443L3.84285 74.0899L4.00156 74.3016L5.60156 73.1016ZM5.875 73.3359L6.935 71.6399L6.85442 71.5896L6.76943 71.5471L5.875 73.3359ZM11.1875 76.6562L12.3875 75.0562L12.3195 75.0053L12.2475 74.9603L11.1875 76.6562ZM11.9688 76.6562L12.9977 78.3712L13.0162 78.3602L13.0344 78.3487L11.9688 76.6562ZM17.2422 73.3359L16.4994 71.479L16.3305 71.5465L16.1766 71.6435L17.2422 73.3359ZM17.5156 73.1016L19.3045 73.996L19.3417 73.9216L19.3726 73.8443L17.5156 73.1016ZM17.8281 52.9844L19.1085 54.5208L19.1782 54.4627L19.2423 54.3986L17.8281 52.9844ZM22.125 54.75C21.9722 54.75 21.8004 54.7199 21.6301 54.6469C21.4622 54.5749 21.3389 54.4799 21.2577 54.3986L24.0861 51.5702C23.58 51.0641 22.8984 50.75 22.125 50.75V54.75ZM21.3915 54.5208C21.2625 54.4133 21.1281 54.2559 21.0317 54.0471C20.936 53.8396 20.9062 53.6432 20.9062 53.4922H24.9062C24.9062 52.7069 24.5771 51.9687 23.9522 51.4479L21.3915 54.5208ZM20.9062 53.4922V76.4609H24.9062V53.4922H20.9062ZM20.9062 76.4609C20.9062 76.1721 20.9971 75.9508 21.0741 75.8226L24.504 77.8806C24.7373 77.4919 24.9062 77.0102 24.9062 76.4609H20.9062ZM21.0002 75.9571C21.1628 75.632 21.3881 75.4691 21.4866 75.41L23.5446 78.84C23.9036 78.6246 24.3112 78.2794 24.5779 77.746L21.0002 75.9571ZM21.4866 75.41L10.9398 81.7381L12.9977 85.1681L23.5446 78.84L21.4866 75.41ZM10.9398 81.7381C11.1297 81.6242 11.3439 81.5703 11.5391 81.5703V85.5703C12.0468 85.5703 12.5474 85.4383 12.9977 85.1681L10.9398 81.7381ZM11.5391 81.5703C11.8416 81.5703 12.1455 81.6716 12.3875 81.8531L9.9875 85.0531C10.4379 85.3909 10.9761 85.5703 11.5391 85.5703V81.5703ZM12.2137 81.7365L1.62776 75.4083L-0.424633 78.8417L10.1613 85.1698L12.2137 81.7365ZM1.80156 75.525C1.84901 75.5606 1.89254 75.6041 1.92812 75.6516L-1.27187 78.0516C-1.08004 78.3073 -0.854215 78.5332 -0.598438 78.725L1.80156 75.525ZM2.18508 76.1088C2.22015 76.1965 2.25 76.3177 2.25 76.4609H-1.75C-1.75 76.8646 -1.66807 77.2462 -1.52883 77.5943L2.18508 76.1088ZM2.25 76.4609V53.4922H-1.75V76.4609H2.25ZM2.25 53.4922C2.25 53.5974 2.23317 53.7511 2.16552 53.9269C2.09604 54.1076 1.98917 54.2689 1.85953 54.3986L-0.968901 51.5702C-1.52467 52.1259 -1.75 52.8294 -1.75 53.4922H2.25ZM1.85953 54.3986C1.77824 54.4799 1.65503 54.5749 1.48706 54.6469C1.31677 54.7199 1.14496 54.75 0.992188 54.75V50.75C0.218747 50.75 -0.462829 51.0641 -0.968901 51.5702L1.85953 54.3986ZM0.992188 54.75H4.78125V50.75H0.992188V54.75ZM4.78125 54.75C4.63021 54.75 4.43383 54.7203 4.22634 54.6245C4.01749 54.5281 3.86009 54.3937 3.75262 54.2647L6.82551 51.704C6.30478 51.0791 5.56649 50.75 4.78125 50.75V54.75ZM4.00869 54.5208C3.87972 54.4133 3.74531 54.2559 3.64892 54.0471C3.55316 53.8396 3.52344 53.6432 3.52344 53.4922H7.52344C7.52344 52.7069 7.19431 51.9687 6.56943 51.4479L4.00869 54.5208ZM3.52344 53.4922V72.7109H7.52344V53.4922H3.52344ZM3.52344 72.7109C3.52344 73.1146 3.60537 73.4962 3.74461 73.8443L7.45852 72.3588C7.49359 72.4465 7.52344 72.5677 7.52344 72.7109H3.52344ZM4.00156 74.3016C4.24375 74.6245 4.56736 74.9182 4.98057 75.1248L6.76943 71.5471C6.97431 71.6495 7.11562 71.787 7.20156 71.9016L4.00156 74.3016ZM4.815 75.0319L10.1275 78.3522L12.2475 74.9603L6.935 71.6399L4.815 75.0319ZM9.9875 78.2563C10.4379 78.594 10.9761 78.7734 11.5391 78.7734V74.7734C11.8416 74.7734 12.1455 74.8747 12.3875 75.0562L9.9875 78.2563ZM11.5391 78.7734C12.0468 78.7734 12.5474 78.6415 12.9977 78.3712L10.9398 74.9413C11.1297 74.8273 11.3439 74.7734 11.5391 74.7734V78.7734ZM13.0344 78.3487L18.3078 75.0284L16.1766 71.6435L10.9031 74.9638L13.0344 78.3487ZM17.985 75.1929C18.4724 74.9979 18.9905 74.6239 19.3045 73.996L15.7268 72.2071C15.9366 71.7875 16.2724 71.5698 16.4994 71.479L17.985 75.1929ZM19.3726 73.8443C19.5118 73.4962 19.5938 73.1146 19.5938 72.7109H15.5938C15.5938 72.5677 15.6236 72.4465 15.6587 72.3588L19.3726 73.8443ZM19.5938 72.7109V53.4922H15.5938V72.7109H19.5938ZM19.5938 53.4922C19.5938 53.6432 19.564 53.8396 19.4683 54.0471C19.3719 54.2559 19.2375 54.4133 19.1085 54.5208L16.5478 51.4479C15.9229 51.9687 15.5938 52.7069 15.5938 53.4922H19.5938ZM19.2423 54.3986C19.1611 54.4799 19.0378 54.5749 18.8699 54.6469C18.6996 54.7199 18.5278 54.75 18.375 54.75V50.75C17.6016 50.75 16.92 51.0641 16.4139 51.5702L19.2423 54.3986ZM18.375 54.75H22.125V50.75H18.375V54.75ZM28.8016 52.9844L27.3873 51.5702L28.8016 52.9844ZM33.6453 52.9844L32.1089 54.2647L32.2253 54.4044L32.3649 54.5208L33.6453 52.9844ZM33.6453 57.8281L32.2311 56.4139L33.6453 57.8281ZM28.8016 57.8281L27.2651 59.1085L27.3815 59.2482L27.5212 59.3646L28.8016 57.8281ZM33.6453 60.5234L32.1089 61.8038L32.1669 61.8735L32.2311 61.9377L33.6453 60.5234ZM33.6453 83.4922L35.0595 84.9064L33.6453 83.4922ZM28.8016 83.4922L27.2651 84.7726L27.3815 84.9122L27.5212 85.0286L28.8016 83.4922ZM28.8016 60.5234L27.3873 59.1092L27.3232 59.1734L27.2651 59.2431L28.8016 60.5234ZM30.6063 53.4922C30.6063 53.5974 30.5894 53.7511 30.5218 53.9269C30.4523 54.1076 30.3454 54.2689 30.2158 54.3986L27.3873 51.5702C26.8316 52.1259 26.6063 52.8294 26.6063 53.4922H30.6063ZM30.2158 54.3986C30.1345 54.4799 30.0113 54.5749 29.8433 54.6469C29.673 54.7199 29.5012 54.75 29.3484 54.75V50.75C28.575 50.75 27.8934 51.0641 27.3873 51.5702L30.2158 54.3986ZM29.3484 54.75H33.1375V50.75H29.3484V54.75ZM33.1375 54.75C32.9865 54.75 32.7901 54.7203 32.5826 54.6245C32.3737 54.5281 32.2163 54.3937 32.1089 54.2647L35.1818 51.704C34.661 51.0791 33.9227 50.75 33.1375 50.75V54.75ZM32.3649 54.5208C32.236 54.4133 32.1016 54.2559 32.0052 54.0471C31.9094 53.8396 31.8797 53.6432 31.8797 53.4922H35.8797C35.8797 52.7069 35.5506 51.9687 34.9257 51.4479L32.3649 54.5208ZM31.8797 53.4922V57.2812H35.8797V53.4922H31.8797ZM31.8797 57.2812C31.8797 57.1285 31.9098 56.9567 31.9828 56.7864C32.0548 56.6184 32.1498 56.4952 32.2311 56.4139L35.0595 59.2423C35.5656 58.7363 35.8797 58.0547 35.8797 57.2812H31.8797ZM32.2311 56.4139C32.3607 56.2843 32.5221 56.1774 32.7027 56.1079C32.8786 56.0403 33.0323 56.0234 33.1375 56.0234V60.0234C33.8003 60.0234 34.5038 59.7981 35.0595 59.2423L32.2311 56.4139ZM33.1375 56.0234H29.3484V60.0234H33.1375V56.0234ZM29.3484 56.0234C29.456 56.0234 29.5875 56.0409 29.7281 56.0911C29.8695 56.1416 29.9887 56.214 30.0819 56.2917L27.5212 59.3646C28.0463 59.8021 28.6846 60.0234 29.3484 60.0234V56.0234ZM30.338 56.5478C30.4157 56.641 30.4881 56.7602 30.5386 56.9015C30.5888 57.0422 30.6063 57.1737 30.6063 57.2812H26.6063C26.6063 57.9451 26.8275 58.5834 27.2651 59.1085L30.338 56.5478ZM30.6063 57.2812V53.4922H26.6063V57.2812H30.6063ZM33.1375 62.2891C32.9865 62.2891 32.7901 62.2593 32.5826 62.1636C32.3737 62.0672 32.2163 61.9328 32.1089 61.8038L35.1818 59.2431C34.661 58.6182 33.9227 58.2891 33.1375 58.2891V62.2891ZM32.2311 61.9377C32.1498 61.8564 32.0548 61.7332 31.9828 61.5652C31.9098 61.3949 31.8797 61.2231 31.8797 61.0703H35.8797C35.8797 60.2969 35.5656 59.6153 35.0595 59.1092L32.2311 61.9377ZM31.8797 61.0703V82.9453H35.8797V61.0703H31.8797ZM31.8797 82.9453C31.8797 82.7925 31.9098 82.6207 31.9828 82.4504C32.0548 82.2825 32.1498 82.1593 32.2311 82.078L35.0595 84.9064C35.5656 84.4003 35.8797 83.7188 35.8797 82.9453H31.8797ZM32.2311 82.078C32.3607 81.9483 32.5221 81.8415 32.7027 81.772C32.8786 81.7043 33.0323 81.6875 33.1375 81.6875V85.6875C33.8003 85.6875 34.5038 85.4622 35.0595 84.9064L32.2311 82.078ZM33.1375 81.6875H29.3484V85.6875H33.1375V81.6875ZM29.3484 81.6875C29.456 81.6875 29.5875 81.705 29.7281 81.7552C29.8695 81.8057 29.9887 81.8781 30.0819 81.9557L27.5212 85.0286C28.0463 85.4662 28.6846 85.6875 29.3484 85.6875V81.6875ZM30.338 82.2118C30.4157 82.305 30.4881 82.4243 30.5386 82.5656C30.5888 82.7063 30.6063 82.8378 30.6063 82.9453H26.6063C26.6063 83.6091 26.8275 84.2475 27.2651 84.7726L30.338 82.2118ZM30.6063 82.9453V61.0703H26.6063V82.9453H30.6063ZM30.6063 61.0703C30.6063 61.1779 30.5888 61.3094 30.5386 61.45C30.4881 61.5913 30.4157 61.7106 30.338 61.8038L27.2651 59.2431C26.8275 59.7682 26.6063 60.4065 26.6063 61.0703H30.6063ZM30.2158 61.9377C30.1345 62.0189 30.0113 62.114 29.8433 62.1859C29.673 62.2589 29.5012 62.2891 29.3484 62.2891V58.2891C28.575 58.2891 27.8934 58.6032 27.3873 59.1092L30.2158 61.9377ZM29.3484 62.2891H33.1375V58.2891H29.3484V62.2891ZM45.0875 69.1562L43.6733 70.5705L43.7374 70.6346L43.8071 70.6927L45.0875 69.1562ZM61.1031 70.4844L59.6643 71.8736L59.6887 71.8988L59.7139 71.9232L61.1031 70.4844ZM61.1031 82.5938L59.7139 81.1549L59.7013 81.1671L59.6889 81.1795L61.1031 82.5938ZM39.775 83.4922L38.2386 84.7726L38.355 84.9122L38.4946 85.0286L39.775 83.4922ZM39.775 78.6484L38.3608 77.2342L39.775 78.6484ZM56.6891 78.2188L55.2749 76.8045L56.6891 78.2188ZM56.6891 74.8594L55.1526 76.1397L55.2107 76.2094L55.2749 76.2736L56.6891 74.8594ZM40.6734 73.5312L39.2592 74.9455L39.2716 74.9579L39.2842 74.9701L40.6734 73.5312ZM40.6734 61.4219L42.0877 62.8361L40.6734 61.4219ZM62.0016 65.3672L63.2819 66.9036L63.3516 66.8456L63.4158 66.7814L62.0016 65.3672ZM42.8531 68.6094C42.8531 69.3828 43.1672 70.0644 43.6733 70.5705L46.5017 67.742C46.583 67.8233 46.678 67.9465 46.75 68.1145C46.823 68.2848 46.8531 68.4566 46.8531 68.6094H42.8531ZM43.8071 70.6927C44.3322 71.1303 44.9706 71.3516 45.6344 71.3516V67.3516C45.7419 67.3516 45.8734 67.369 46.0141 67.4193C46.1554 67.4697 46.2747 67.5421 46.3679 67.6198L43.8071 70.6927ZM45.6344 71.3516H58.4469V67.3516H45.6344V71.3516ZM58.4469 71.3516C58.9412 71.3516 59.3087 71.5053 59.6643 71.8736L62.5419 69.0952C61.4392 67.9531 60.0359 67.3516 58.4469 67.3516V71.3516ZM59.7139 71.9232C60.0822 72.2788 60.2359 72.6463 60.2359 73.1406H64.2359C64.2359 71.5516 63.6344 70.1483 62.4923 69.0456L59.7139 71.9232ZM60.2359 73.1406V79.9375H64.2359V73.1406H60.2359ZM60.2359 79.9375C60.2359 80.4318 60.0822 80.7994 59.7139 81.1549L62.4923 84.0326C63.6344 82.9298 64.2359 81.5265 64.2359 79.9375H60.2359ZM59.6889 81.1795C59.3391 81.5294 58.9642 81.6875 58.4469 81.6875V85.6875C60.0129 85.6875 61.4088 85.1165 62.5173 84.008L59.6889 81.1795ZM58.4469 81.6875H40.3219V85.6875H58.4469V81.6875ZM40.3219 81.6875C40.4294 81.6875 40.5609 81.705 40.7016 81.7552C40.8429 81.8057 40.9622 81.8781 41.0554 81.9557L38.4946 85.0286C39.0197 85.4662 39.6581 85.6875 40.3219 85.6875V81.6875ZM41.3114 82.2118C41.3891 82.305 41.4615 82.4243 41.512 82.5656C41.5622 82.7063 41.5797 82.8378 41.5797 82.9453H37.5797C37.5797 83.6091 37.801 84.2475 38.2386 84.7726L41.3114 82.2118ZM41.5797 82.9453V79.1562H37.5797V82.9453H41.5797ZM41.5797 79.1562C41.5797 79.2615 41.5629 79.4151 41.4952 79.591C41.4257 79.7716 41.3189 79.933 41.1892 80.0627L38.3608 77.2342C37.805 77.79 37.5797 78.4934 37.5797 79.1562H41.5797ZM41.1892 80.0627C41.1079 80.1439 40.9847 80.239 40.8167 80.3109C40.6465 80.3839 40.4746 80.4141 40.3219 80.4141V76.4141C39.5484 76.4141 38.8669 76.7282 38.3608 77.2342L41.1892 80.0627ZM40.3219 80.4141H56.1813V76.4141H40.3219V80.4141ZM56.1813 80.4141C56.8441 80.4141 57.5475 80.1887 58.1033 79.633L55.2749 76.8045C55.4045 76.6749 55.5659 76.568 55.7465 76.4985C55.9224 76.4309 56.076 76.4141 56.1813 76.4141V80.4141ZM58.1033 79.633C58.6093 79.1269 58.9234 78.4453 58.9234 77.6719H54.9234C54.9234 77.5191 54.9536 77.3473 55.0266 77.177C55.0985 77.009 55.1936 76.8858 55.2749 76.8045L58.1033 79.633ZM58.9234 77.6719V75.4062H54.9234V77.6719H58.9234ZM58.9234 75.4062C58.9234 74.6328 58.6093 73.9512 58.1033 73.4452L55.2749 76.2736C55.1936 76.1923 55.0985 76.0691 55.0266 75.9011C54.9536 75.7308 54.9234 75.559 54.9234 75.4062H58.9234ZM58.2255 73.579C57.7048 72.9541 56.9665 72.625 56.1813 72.625V76.625C56.0302 76.625 55.8338 76.5953 55.6263 76.4995C55.4175 76.4031 55.2601 76.2687 55.1526 76.1397L58.2255 73.579ZM56.1813 72.625H43.3688V76.625H56.1813V72.625ZM43.3688 72.625C42.8499 72.625 42.4482 72.4647 42.0626 72.0924L39.2842 74.9701C40.4091 76.0561 41.8043 76.625 43.3688 76.625V72.625ZM42.0877 72.117C41.7378 71.7672 41.5797 71.3923 41.5797 70.875H37.5797C37.5797 72.441 38.1507 73.837 39.2592 74.9455L42.0877 72.117ZM41.5797 70.875V64.0781H37.5797V70.875H41.5797ZM41.5797 64.0781C41.5797 63.5608 41.7378 63.1859 42.0877 62.8361L39.2592 60.0077C38.1507 61.1162 37.5797 62.5121 37.5797 64.0781H41.5797ZM42.0877 62.8361C42.4784 62.4453 42.8724 62.2891 43.3688 62.2891V58.2891C41.7818 58.2891 40.3789 58.888 39.2592 60.0077L42.0877 62.8361ZM43.3688 62.2891H61.4547V58.2891H43.3688V62.2891ZM61.4547 62.2891C61.3019 62.2891 61.1301 62.2589 60.9598 62.1859C60.7918 62.114 60.6686 62.0189 60.5874 61.9377L63.4158 59.1092C62.9097 58.6032 62.2281 58.2891 61.4547 58.2891V62.2891ZM60.5874 61.9377C60.5061 61.8564 60.411 61.7332 60.3391 61.5652C60.2661 61.3949 60.2359 61.2231 60.2359 61.0703H64.2359C64.2359 60.2969 63.9218 59.6153 63.4158 59.1092L60.5874 61.9377ZM60.2359 61.0703V64.8203H64.2359V61.0703H60.2359ZM60.2359 64.8203C60.2359 64.6675 60.2661 64.4957 60.3391 64.3254C60.411 64.1575 60.5061 64.0343 60.5874 63.953L63.4158 66.7814C63.9218 66.2753 64.2359 65.5938 64.2359 64.8203H60.2359ZM60.7212 63.8307C60.8144 63.7531 60.9337 63.6807 61.075 63.6302C61.2156 63.58 61.3471 63.5625 61.4547 63.5625V67.5625C62.1185 67.5625 62.7568 67.3412 63.2819 66.9036L60.7212 63.8307ZM61.4547 63.5625H45.6344V67.5625H61.4547V63.5625ZM45.6344 63.5625C44.8609 63.5625 44.1794 63.8766 43.6733 64.3827L46.5017 67.2111C46.4204 67.2924 46.2972 67.3874 46.1292 67.4594C45.959 67.5324 45.7871 67.5625 45.6344 67.5625V63.5625ZM43.6733 64.3827C43.1672 64.8887 42.8531 65.5703 42.8531 66.3438H46.8531C46.8531 66.4965 46.823 66.6683 46.75 66.8386C46.678 67.0066 46.583 67.1298 46.5017 67.2111L43.6733 64.3827ZM42.8531 66.3438V68.6094H46.8531V66.3438H42.8531ZM89.4594 61.4219L88.0206 62.8111L88.0449 62.8363L88.0702 62.8607L89.4594 61.4219ZM89.4594 82.5938L88.0702 81.1549L88.0576 81.1671L88.0452 81.1795L89.4594 82.5938ZM69.0297 82.5938L67.6155 84.008L67.6279 84.0204L67.6405 84.0326L69.0297 82.5938ZM69.0297 61.4219L70.4439 62.8361L69.0297 61.4219ZM73.4437 78.2188L72.0295 79.633L72.0937 79.6971L72.1634 79.7552L73.4437 78.2188ZM85.0453 78.2188L83.6311 76.8045L85.0453 78.2188ZM85.0453 65.7969L83.5089 67.0772L83.5669 67.1469L83.6311 67.2111L85.0453 65.7969ZM86.8031 62.2891C87.2974 62.2891 87.665 62.4428 88.0206 62.8111L90.8982 60.0327C89.7954 58.8906 88.3921 58.2891 86.8031 58.2891V62.2891ZM88.0702 62.8607C88.4385 63.2163 88.5922 63.5838 88.5922 64.0781H92.5922C92.5922 62.4891 91.9907 61.0858 90.8486 59.9831L88.0702 62.8607ZM88.5922 64.0781V79.9375H92.5922V64.0781H88.5922ZM88.5922 79.9375C88.5922 80.4318 88.4385 80.7994 88.0702 81.1549L90.8486 84.0326C91.9907 82.9298 92.5922 81.5265 92.5922 79.9375H88.5922ZM88.0452 81.1795C87.6953 81.5294 87.3204 81.6875 86.8031 81.6875V85.6875C88.3692 85.6875 89.7651 85.1165 90.8736 84.008L88.0452 81.1795ZM86.8031 81.6875H71.725V85.6875H86.8031V81.6875ZM71.725 81.6875C71.2061 81.6875 70.8045 81.5272 70.4189 81.1549L67.6405 84.0326C68.7653 85.1186 70.1606 85.6875 71.725 85.6875V81.6875ZM70.4439 81.1795C70.0941 80.8297 69.9359 80.4548 69.9359 79.9375H65.9359C65.9359 81.5035 66.507 82.8995 67.6155 84.008L70.4439 81.1795ZM69.9359 79.9375V64.0781H65.9359V79.9375H69.9359ZM69.9359 64.0781C69.9359 63.5608 70.0941 63.1859 70.4439 62.8361L67.6155 60.0077C66.507 61.1162 65.9359 62.5121 65.9359 64.0781H69.9359ZM70.4439 62.8361C70.8347 62.4453 71.2286 62.2891 71.725 62.2891V58.2891C70.1381 58.2891 68.7351 58.888 67.6155 60.0077L70.4439 62.8361ZM71.725 62.2891H86.8031V58.2891H71.725V62.2891ZM71.2094 77.6719C71.2094 78.4453 71.5235 79.1269 72.0295 79.633L74.858 76.8045C74.9392 76.8858 75.0343 77.009 75.1063 77.177C75.1792 77.3473 75.2094 77.5191 75.2094 77.6719H71.2094ZM72.1634 79.7552C72.6885 80.1928 73.3268 80.4141 73.9906 80.4141V76.4141C74.0982 76.4141 74.2297 76.4315 74.3703 76.4818C74.5116 76.5322 74.6309 76.6046 74.7241 76.6823L72.1634 79.7552ZM73.9906 80.4141H84.5375V76.4141H73.9906V80.4141ZM84.5375 80.4141C85.2003 80.4141 85.9038 80.1887 86.4595 79.633L83.6311 76.8045C83.7607 76.6749 83.9221 76.568 84.1027 76.4985C84.2786 76.4309 84.4323 76.4141 84.5375 76.4141V80.4141ZM86.4595 79.633C86.9656 79.1269 87.2797 78.4453 87.2797 77.6719H83.2797C83.2797 77.5191 83.3098 77.3473 83.3828 77.177C83.4548 77.009 83.5498 76.8858 83.6311 76.8045L86.4595 79.633ZM87.2797 77.6719V66.3438H83.2797V77.6719H87.2797ZM87.2797 66.3438C87.2797 65.5703 86.9656 64.8887 86.4595 64.3827L83.6311 67.2111C83.5498 67.1298 83.4548 67.0066 83.3828 66.8386C83.3098 66.6683 83.2797 66.4965 83.2797 66.3438H87.2797ZM86.5818 64.5165C86.061 63.8916 85.3227 63.5625 84.5375 63.5625V67.5625C84.3865 67.5625 84.1901 67.5328 83.9826 67.437C83.7737 67.3406 83.6163 67.2062 83.5089 67.0772L86.5818 64.5165ZM84.5375 63.5625H73.9906V67.5625H84.5375V63.5625ZM73.9906 63.5625C73.2172 63.5625 72.5356 63.8766 72.0295 64.3827L74.858 67.2111C74.7767 67.2924 74.6535 67.3874 74.4855 67.4594C74.3152 67.5324 74.1434 67.5625 73.9906 67.5625V63.5625ZM72.0295 64.3827C71.5235 64.8887 71.2094 65.5703 71.2094 66.3438H75.2094C75.2094 66.4965 75.1792 66.6683 75.1063 66.8386C75.0343 67.0066 74.9392 67.1298 74.858 67.2111L72.0295 64.3827ZM71.2094 66.3438V77.6719H75.2094V66.3438H71.2094ZM101.331 83.4922L102.745 84.9064L101.331 83.4922ZM96.4875 83.4922L94.9511 84.7726L95.0675 84.9122L95.2071 85.0286L96.4875 83.4922ZM96.4875 60.5234L95.0733 59.1092L95.0091 59.1734L94.9511 59.2431L96.4875 60.5234ZM117.816 61.4219L116.377 62.8111L116.401 62.8363L116.426 62.8607L117.816 61.4219ZM113.402 65.7969L111.865 67.0772L111.923 67.1469L111.987 67.2111L113.402 65.7969ZM102.347 63.5625C101.573 63.5625 100.892 63.8766 100.386 64.3827L103.214 67.2111C103.133 67.2924 103.01 67.3874 102.842 67.4594C102.671 67.5324 102.5 67.5625 102.347 67.5625V63.5625ZM100.386 64.3827C99.8797 64.8887 99.5656 65.5703 99.5656 66.3438H103.566C103.566 66.4965 103.535 66.6683 103.463 66.8386C103.391 67.0066 103.295 67.1298 103.214 67.2111L100.386 64.3827ZM99.5656 66.3438V82.9453H103.566V66.3438H99.5656ZM99.5656 82.9453C99.5656 82.7925 99.5958 82.6207 99.6687 82.4504C99.7407 82.2825 99.8358 82.1593 99.917 82.078L102.745 84.9064C103.252 84.4003 103.566 83.7188 103.566 82.9453H99.5656ZM99.917 82.078C100.047 81.9483 100.208 81.8415 100.389 81.772C100.565 81.7043 100.718 81.6875 100.823 81.6875V85.6875C101.486 85.6875 102.19 85.4622 102.745 84.9064L99.917 82.078ZM100.823 81.6875H97.0344V85.6875H100.823V81.6875ZM97.0344 81.6875C97.1419 81.6875 97.2734 81.705 97.4141 81.7552C97.5554 81.8057 97.6747 81.8781 97.7679 81.9557L95.2071 85.0286C95.7322 85.4662 96.3706 85.6875 97.0344 85.6875V81.6875ZM98.0239 82.2118C98.1016 82.305 98.174 82.4243 98.2245 82.5656C98.2747 82.7063 98.2922 82.8378 98.2922 82.9453H94.2922C94.2922 83.6091 94.5135 84.2475 94.9511 84.7726L98.0239 82.2118ZM98.2922 82.9453V61.0703H94.2922V82.9453H98.2922ZM98.2922 61.0703C98.2922 61.1779 98.2747 61.3094 98.2245 61.45C98.174 61.5913 98.1016 61.7106 98.0239 61.8038L94.9511 59.2431C94.5135 59.7682 94.2922 60.4065 94.2922 61.0703H98.2922ZM97.9017 61.9377C97.8204 62.0189 97.6972 62.114 97.5292 62.1859C97.359 62.2589 97.1871 62.2891 97.0344 62.2891V58.2891C96.2609 58.2891 95.5794 58.6032 95.0733 59.1092L97.9017 61.9377ZM97.0344 62.2891H115.159V58.2891H97.0344V62.2891ZM115.159 62.2891C115.654 62.2891 116.021 62.4428 116.377 62.8111L119.254 60.0327C118.152 58.8906 116.748 58.2891 115.159 58.2891V62.2891ZM116.426 62.8607C116.795 63.2163 116.948 63.5838 116.948 64.0781H120.948C120.948 62.4891 120.347 61.0858 119.205 59.9831L116.426 62.8607ZM116.948 64.0781V67.8281H120.948V64.0781H116.948ZM116.948 67.8281C116.948 67.6754 116.979 67.5035 117.052 67.3333C117.124 67.1653 117.219 67.0421 117.3 66.9608L120.128 69.7892C120.634 69.2831 120.948 68.6016 120.948 67.8281H116.948ZM117.3 66.9608C117.381 66.8795 117.504 66.7845 117.672 66.7125C117.843 66.6395 118.014 66.6094 118.167 66.6094V70.6094C118.941 70.6094 119.622 70.2953 120.128 69.7892L117.3 66.9608ZM118.167 66.6094H114.417V70.6094H118.167V66.6094ZM114.417 66.6094C114.57 66.6094 114.742 66.6395 114.912 66.7125C115.08 66.7845 115.203 66.8795 115.285 66.9608L112.456 69.7892C112.962 70.2953 113.644 70.6094 114.417 70.6094V66.6094ZM115.285 66.9608C115.366 67.0421 115.461 67.1653 115.533 67.3333C115.606 67.5035 115.636 67.6754 115.636 67.8281H111.636C111.636 68.6016 111.95 69.2831 112.456 69.7892L115.285 66.9608ZM115.636 67.8281V66.3438H111.636V67.8281H115.636ZM115.636 66.3438C115.636 65.5703 115.322 64.8887 114.816 64.3827L111.987 67.2111C111.906 67.1298 111.811 67.0066 111.739 66.8386C111.666 66.6683 111.636 66.4965 111.636 66.3438H115.636ZM114.938 64.5165C114.417 63.8916 113.679 63.5625 112.894 63.5625V67.5625C112.743 67.5625 112.546 67.5328 112.339 67.437C112.13 67.3406 111.973 67.2062 111.865 67.0772L114.938 64.5165ZM112.894 63.5625H102.347V67.5625H112.894V63.5625Z" fill="#0F618A" fill-opacity="0.6"/>
</svg>
