<svg width="220" height="138" viewBox="0 0 220 138" fill="none" xmlns="http://www.w3.org/2000/svg">
    <path d="M29 77L33 84L26 102L45 105L49 112L18 107L29 77Z" fill="#80D5FF" fill-opacity="0.4" />
    <path d="M37 90L34 97L41 98L37 90Z" fill="#80D5FF" fill-opacity="0.4" />
    <path d="M84 56C79.0294 56 75 60.0294 75 65V74H93V65C93 60.0294 88.9706 56 84 56Z" fill="#80D5FF"
        fill-opacity="0.4" />
    <path d="M76 77V91H92V77H76Z" fill="#80D5FF" fill-opacity="0.4" />
    <path d="M63 105V110H71V97L63 105Z" fill="#80D5FF" fill-opacity="0.4" />
    <path d="M105 105V110H97V97L105 105Z" fill="#80D5FF" fill-opacity="0.4" />
    <path d="M74 94V110H82V98H86V110H94V94H74Z" fill="#80D5FF" fill-opacity="0.4" />
    <path d="M120 84L206 84" stroke="#456778" stroke-width="3" />
    <path
        d="M143.365 39.9023C144.514 39.9023 145.486 40.3008 146.283 41.0977C147.08 41.8945 147.479 42.8555 147.479 43.9805V68.5195C147.479 69.6445 147.08 70.6055 146.283 71.4023C145.486 72.1992 144.514 72.5977 143.365 72.5977H127.018C125.893 72.5977 124.932 72.1992 124.135 71.4023C123.338 70.6055 122.939 69.6445 122.939 68.5195V43.9805C122.939 42.8555 123.338 41.8945 124.135 41.0977C124.932 40.3008 125.893 39.9023 127.018 39.9023H143.365ZM128.635 46.4414V66.0586C128.635 66.293 128.717 66.4922 128.881 66.6562C129.045 66.8203 129.244 66.9023 129.479 66.9023H140.939C141.15 66.9023 141.338 66.8203 141.502 66.6562C141.666 66.4922 141.748 66.293 141.748 66.0586V46.4414C141.748 46.207 141.666 46.0078 141.502 45.8438C141.338 45.6797 141.15 45.5977 140.939 45.5977H129.479C129.244 45.5977 129.045 45.6797 128.881 45.8438C128.717 46.0078 128.635 46.207 128.635 46.4414ZM171.174 39.9023C172.322 39.9023 173.295 40.3008 174.092 41.0977C174.889 41.8945 175.287 42.8555 175.287 43.9805V68.5195C175.287 69.6445 174.889 70.6055 174.092 71.4023C173.295 72.1992 172.322 72.5977 171.174 72.5977H154.826C153.701 72.5977 152.74 72.1992 151.943 71.4023C151.146 70.6055 150.748 69.6445 150.748 68.5195V43.9805C150.748 42.8555 151.146 41.8945 151.943 41.0977C152.74 40.3008 153.701 39.9023 154.826 39.9023H171.174ZM156.443 46.4414V66.0586C156.443 66.293 156.525 66.4922 156.689 66.6562C156.854 66.8203 157.053 66.9023 157.287 66.9023H168.748C168.959 66.9023 169.146 66.8203 169.311 66.6562C169.475 66.4922 169.557 66.293 169.557 66.0586V46.4414C169.557 46.207 169.475 46.0078 169.311 45.8438C169.146 45.6797 168.959 45.5977 168.748 45.5977H157.287C157.053 45.5977 156.854 45.6797 156.689 45.8438C156.525 46.0078 156.443 46.207 156.443 46.4414ZM198.982 39.9023C200.131 39.9023 201.104 40.3008 201.9 41.0977C202.697 41.8945 203.096 42.8555 203.096 43.9805V68.5195C203.096 69.6445 202.697 70.6055 201.9 71.4023C201.104 72.1992 200.131 72.5977 198.982 72.5977H182.635C181.51 72.5977 180.549 72.1992 179.752 71.4023C178.955 70.6055 178.557 69.6445 178.557 68.5195V43.9805C178.557 42.8555 178.955 41.8945 179.752 41.0977C180.549 40.3008 181.51 39.9023 182.635 39.9023H198.982ZM184.252 46.4414V66.0586C184.252 66.293 184.334 66.4922 184.498 66.6562C184.662 66.8203 184.861 66.9023 185.096 66.9023H196.557C196.768 66.9023 196.955 66.8203 197.119 66.6562C197.283 66.4922 197.365 66.293 197.365 66.0586V46.4414C197.365 46.207 197.283 46.0078 197.119 45.8438C196.955 45.6797 196.768 45.5977 196.557 45.5977H185.096C184.861 45.5977 184.662 45.6797 184.498 45.8438C184.334 46.0078 184.252 46.207 184.252 46.4414Z"
        fill="#456778" />
    <path
        d="M143.365 95.9023C144.514 95.9023 145.486 96.3008 146.283 97.0977C147.08 97.8945 147.479 98.8555 147.479 99.9805V124.52C147.479 125.645 147.08 126.605 146.283 127.402C145.486 128.199 144.514 128.598 143.365 128.598H127.018C125.893 128.598 124.932 128.199 124.135 127.402C123.338 126.605 122.939 125.645 122.939 124.52V99.9805C122.939 98.8555 123.338 97.8945 124.135 97.0977C124.932 96.3008 125.893 95.9023 127.018 95.9023H143.365ZM128.635 102.441V122.059C128.635 122.293 128.717 122.492 128.881 122.656C129.045 122.82 129.244 122.902 129.479 122.902H140.939C141.15 122.902 141.338 122.82 141.502 122.656C141.666 122.492 141.748 122.293 141.748 122.059V102.441C141.748 102.207 141.666 102.008 141.502 101.844C141.338 101.68 141.15 101.598 140.939 101.598H129.479C129.244 101.598 129.045 101.68 128.881 101.844C128.717 102.008 128.635 102.207 128.635 102.441ZM175.287 123.711V127.789C175.287 128.023 175.205 128.211 175.041 128.352C174.877 128.516 174.678 128.598 174.443 128.598H151.557C151.322 128.598 151.123 128.516 150.959 128.352C150.818 128.211 150.748 128.023 150.748 127.789V113.902C150.748 112.754 151.146 111.781 151.943 110.984C152.74 110.188 153.701 109.789 154.826 109.789H168.748C168.959 109.789 169.146 109.719 169.311 109.578C169.475 109.414 169.557 109.215 169.557 108.98V102.441C169.557 102.207 169.475 102.008 169.311 101.844C169.146 101.68 168.959 101.598 168.748 101.598H151.557C151.322 101.598 151.123 101.527 150.959 101.387C150.818 101.223 150.748 101.023 150.748 100.789V96.7109C150.748 96.4766 150.818 96.2891 150.959 96.1484C151.123 95.9844 151.322 95.9023 151.557 95.9023H171.174C172.322 95.9023 173.295 96.3008 174.092 97.0977C174.889 97.8945 175.287 98.8555 175.287 99.9805V110.598C175.287 111.746 174.889 112.719 174.092 113.516C173.295 114.312 172.322 114.711 171.174 114.711H157.287C157.053 114.711 156.854 114.793 156.689 114.957C156.525 115.098 156.443 115.285 156.443 115.52V122.059C156.443 122.293 156.525 122.492 156.689 122.656C156.854 122.82 157.053 122.902 157.287 122.902H174.443C174.678 122.902 174.877 122.984 175.041 123.148C175.205 123.289 175.287 123.477 175.287 123.711ZM198.982 95.9023C200.131 95.9023 201.104 96.3008 201.9 97.0977C202.697 97.8945 203.096 98.8555 203.096 99.9805V124.52C203.096 125.645 202.697 126.605 201.9 127.402C201.104 128.199 200.131 128.598 198.982 128.598H179.365C179.131 128.598 178.932 128.516 178.768 128.352C178.627 128.211 178.557 128.023 178.557 127.789V123.711C178.557 123.477 178.627 123.289 178.768 123.148C178.932 122.984 179.131 122.902 179.365 122.902H196.557C196.768 122.902 196.955 122.82 197.119 122.656C197.283 122.492 197.365 122.293 197.365 122.059V115.52C197.365 115.285 197.283 115.098 197.119 114.957C196.955 114.793 196.768 114.711 196.557 114.711H182.635C181.51 114.711 180.549 114.312 179.752 113.516C178.955 112.719 178.557 111.746 178.557 110.598V99.9805C178.557 98.8555 178.955 97.8945 179.752 97.0977C180.549 96.3008 181.51 95.9023 182.635 95.9023H198.982ZM197.365 108.98V102.441C197.365 102.207 197.283 102.008 197.119 101.844C196.955 101.68 196.768 101.598 196.557 101.598H185.096C184.861 101.598 184.662 101.68 184.498 101.844C184.334 102.008 184.252 102.207 184.252 102.441V108.98C184.252 109.215 184.334 109.414 184.498 109.578C184.662 109.719 184.861 109.789 185.096 109.789H196.557C196.768 109.789 196.955 109.719 197.119 109.578C197.283 109.414 197.365 109.215 197.365 108.98Z"
        fill="#456778" />
    <path
        d="M16.0938 24.75H1.59375C1.42708 24.75 1.28125 24.6979 1.15625 24.5938C1.05208 24.4688 1 24.3229 1 24.1562V0.59375C1 0.427083 1.05208 0.291667 1.15625 0.1875C1.28125 0.0625 1.42708 0 1.59375 0H16.0938C16.9271 0 17.6354 0.302083 18.2188 0.90625C18.8229 1.48958 19.125 2.19792 19.125 3.03125V21.75C19.125 22.5833 18.8229 23.2917 18.2188 23.875C17.6354 24.4583 16.9271 24.75 16.0938 24.75ZM5.21875 4.84375V19.9375C5.21875 20.1042 5.28125 20.25 5.40625 20.375C5.53125 20.4792 5.67708 20.5312 5.84375 20.5312H14.2812C14.4479 20.5312 14.5833 20.4792 14.6875 20.375C14.8125 20.25 14.875 20.1042 14.875 19.9375V4.84375C14.875 4.67708 14.8125 4.53125 14.6875 4.40625C14.5833 4.28125 14.4479 4.21875 14.2812 4.21875H5.84375C5.67708 4.21875 5.53125 4.28125 5.40625 4.40625C5.28125 4.53125 5.21875 4.67708 5.21875 4.84375ZM24.1562 24.75C23.3229 24.75 22.6042 24.4583 22 23.875C21.4167 23.2917 21.125 22.5833 21.125 21.75V9.0625C21.125 8.22917 21.4167 7.52083 22 6.9375C22.6042 6.33333 23.3229 6.03125 24.1562 6.03125H36.2188C37.0521 6.03125 37.7604 6.33333 38.3438 6.9375C38.9479 7.52083 39.25 8.22917 39.25 9.0625V14.5C39.25 15.3333 38.9479 16.0417 38.3438 16.625C37.7604 17.2083 37.0521 17.5 36.2188 17.5H25.9688C25.8021 17.5 25.6562 17.5625 25.5312 17.6875C25.4062 17.8125 25.3438 17.9583 25.3438 18.125V19.9375C25.3438 20.1042 25.4062 20.25 25.5312 20.375C25.6562 20.4792 25.8021 20.5312 25.9688 20.5312H38.625C38.7917 20.5312 38.9375 20.5938 39.0625 20.7188C39.1875 20.8229 39.25 20.9583 39.25 21.125V24.1562C39.25 24.3229 39.1875 24.4688 39.0625 24.5938C38.9375 24.6979 38.7917 24.75 38.625 24.75H24.1562ZM35 10.875C35 10.7083 34.9375 10.5625 34.8125 10.4375C34.7083 10.3125 34.5729 10.25 34.4062 10.25H25.9688C25.8021 10.25 25.6562 10.3125 25.5312 10.4375C25.4062 10.5625 25.3438 10.7083 25.3438 10.875V12.6875C25.3438 12.8542 25.4062 13 25.5312 13.125C25.6562 13.2292 25.8021 13.2812 25.9688 13.2812H34.4062C34.5729 13.2812 34.7083 13.2292 34.8125 13.125C34.9375 13 35 12.8542 35 12.6875V10.875ZM41.8438 30.1875C41.6771 30.1875 41.5312 30.125 41.4062 30C41.3021 29.8958 41.25 29.7604 41.25 29.5938V6.65625C41.25 6.48958 41.3021 6.34375 41.4062 6.21875C41.5312 6.09375 41.6771 6.03125 41.8438 6.03125H56.3438C57.1771 6.03125 57.8854 6.33333 58.4688 6.9375C59.0729 7.52083 59.375 8.22917 59.375 9.0625V21.75C59.375 22.5833 59.0729 23.2917 58.4688 23.875C57.8854 24.4583 57.1771 24.75 56.3438 24.75H46.0938C45.9271 24.75 45.7812 24.8125 45.6562 24.9375C45.5312 25.0417 45.4688 25.1771 45.4688 25.3438V29.5938C45.4688 29.7604 45.4062 29.8958 45.2812 30C45.1771 30.125 45.0417 30.1875 44.875 30.1875H41.8438ZM55.125 10.875C55.125 10.7083 55.0625 10.5625 54.9375 10.4375C54.8333 10.3125 54.6979 10.25 54.5312 10.25H46.0938C45.9271 10.25 45.7812 10.3125 45.6562 10.4375C45.5312 10.5625 45.4688 10.7083 45.4688 10.875V19.9375C45.4688 20.1042 45.5312 20.25 45.6562 20.375C45.7812 20.4792 45.9271 20.5312 46.0938 20.5312H54.5312C54.6979 20.5312 54.8333 20.4792 54.9375 20.375C55.0625 20.25 55.125 20.1042 55.125 19.9375V10.875ZM61.9688 24.75C61.8021 24.75 61.6562 24.6979 61.5312 24.5938C61.4271 24.4688 61.375 24.3229 61.375 24.1562V0.59375C61.375 0.427083 61.4271 0.291667 61.5312 0.1875C61.6562 0.0625 61.8021 0 61.9688 0H65C65.1667 0 65.3021 0.0625 65.4062 0.1875C65.5312 0.291667 65.5938 0.427083 65.5938 0.59375V24.1562C65.5938 24.3229 65.5312 24.4688 65.4062 24.5938C65.3021 24.6979 65.1667 24.75 65 24.75H61.9688ZM70.625 24.75C69.7917 24.75 69.0729 24.4583 68.4688 23.875C67.8854 23.2917 67.5938 22.5833 67.5938 21.75V9.0625C67.5938 8.22917 67.8854 7.52083 68.4688 6.9375C69.0729 6.33333 69.7917 6.03125 70.625 6.03125H82.6875C83.5208 6.03125 84.2292 6.33333 84.8125 6.9375C85.4167 7.52083 85.7188 8.22917 85.7188 9.0625V14.5C85.7188 15.3333 85.4167 16.0417 84.8125 16.625C84.2292 17.2083 83.5208 17.5 82.6875 17.5H72.4375C72.2708 17.5 72.125 17.5625 72 17.6875C71.875 17.8125 71.8125 17.9583 71.8125 18.125V19.9375C71.8125 20.1042 71.875 20.25 72 20.375C72.125 20.4792 72.2708 20.5312 72.4375 20.5312H85.0938C85.2604 20.5312 85.4062 20.5938 85.5312 20.7188C85.6562 20.8229 85.7188 20.9583 85.7188 21.125V24.1562C85.7188 24.3229 85.6562 24.4688 85.5312 24.5938C85.4062 24.6979 85.2604 24.75 85.0938 24.75H70.625ZM81.4688 10.875C81.4688 10.7083 81.4062 10.5625 81.2812 10.4375C81.1771 10.3125 81.0417 10.25 80.875 10.25H72.4375C72.2708 10.25 72.125 10.3125 72 10.4375C71.875 10.5625 71.8125 10.7083 71.8125 10.875V12.6875C71.8125 12.8542 71.875 13 72 13.125C72.125 13.2292 72.2708 13.2812 72.4375 13.2812H80.875C81.0417 13.2812 81.1771 13.2292 81.2812 13.125C81.4062 13 81.4688 12.8542 81.4688 12.6875V10.875ZM90.75 24.75C89.9167 24.75 89.1979 24.4583 88.5938 23.875C88.0104 23.2917 87.7188 22.5833 87.7188 21.75V0.59375C87.7188 0.427083 87.7708 0.291667 87.875 0.1875C88 0.0625 88.1458 0 88.3125 0H91.3438C91.5104 0 91.6458 0.0625 91.75 0.1875C91.875 0.291667 91.9375 0.427083 91.9375 0.59375V5.4375C91.9375 5.60417 92 5.75 92.125 5.875C92.25 5.97917 92.3958 6.03125 92.5625 6.03125H96.1562C96.3229 6.03125 96.4688 6.09375 96.5938 6.21875C96.7188 6.34375 96.7812 6.48958 96.7812 6.65625V9.65625C96.7812 9.82292 96.7188 9.96875 96.5938 10.0938C96.4688 10.1979 96.3229 10.25 96.1562 10.25H92.5625C92.3958 10.25 92.25 10.3125 92.125 10.4375C92 10.5625 91.9375 10.7083 91.9375 10.875V19.9375C91.9375 20.1042 92 20.25 92.125 20.375C92.25 20.4792 92.3958 20.5312 92.5625 20.5312H96.1562C96.3229 20.5312 96.4688 20.5938 96.5938 20.7188C96.7188 20.8229 96.7812 20.9583 96.7812 21.125V24.1562C96.7812 24.3229 96.7188 24.4688 96.5938 24.5938C96.4688 24.6979 96.3229 24.75 96.1562 24.75H90.75ZM101.812 24.75C100.979 24.75 100.26 24.4583 99.6562 23.875C99.0729 23.2917 98.7812 22.5833 98.7812 21.75V9.0625C98.7812 8.22917 99.0729 7.52083 99.6562 6.9375C100.26 6.33333 100.979 6.03125 101.812 6.03125H113.875C114.708 6.03125 115.417 6.33333 116 6.9375C116.604 7.52083 116.906 8.22917 116.906 9.0625V14.5C116.906 15.3333 116.604 16.0417 116 16.625C115.417 17.2083 114.708 17.5 113.875 17.5H103.625C103.458 17.5 103.312 17.5625 103.188 17.6875C103.062 17.8125 103 17.9583 103 18.125V19.9375C103 20.1042 103.062 20.25 103.188 20.375C103.312 20.4792 103.458 20.5312 103.625 20.5312H116.281C116.448 20.5312 116.594 20.5938 116.719 20.7188C116.844 20.8229 116.906 20.9583 116.906 21.125V24.1562C116.906 24.3229 116.844 24.4688 116.719 24.5938C116.594 24.6979 116.448 24.75 116.281 24.75H101.812ZM112.656 10.875C112.656 10.7083 112.594 10.5625 112.469 10.4375C112.365 10.3125 112.229 10.25 112.062 10.25H103.625C103.458 10.25 103.312 10.3125 103.188 10.4375C103.062 10.5625 103 10.7083 103 10.875V12.6875C103 12.8542 103.062 13 103.188 13.125C103.312 13.2292 103.458 13.2812 103.625 13.2812H112.062C112.229 13.2812 112.365 13.2292 112.469 13.125C112.594 13 112.656 12.8542 112.656 12.6875V10.875ZM136.406 0C136.573 0 136.719 0.0625 136.844 0.1875C136.969 0.291667 137.031 0.427083 137.031 0.59375V24.1562C137.031 24.3229 136.969 24.4688 136.844 24.5938C136.719 24.6979 136.573 24.75 136.406 24.75H121.938C121.104 24.75 120.385 24.4583 119.781 23.875C119.198 23.2917 118.906 22.5833 118.906 21.75V9.0625C118.906 8.22917 119.198 7.52083 119.781 6.9375C120.385 6.33333 121.104 6.03125 121.938 6.03125H132.188C132.354 6.03125 132.49 5.97917 132.594 5.875C132.719 5.75 132.781 5.60417 132.781 5.4375V0.59375C132.781 0.427083 132.844 0.291667 132.969 0.1875C133.094 0.0625 133.24 0 133.406 0H136.406ZM123.125 19.9375C123.125 20.1042 123.188 20.25 123.312 20.375C123.438 20.4792 123.583 20.5312 123.75 20.5312H132.188C132.354 20.5312 132.49 20.4792 132.594 20.375C132.719 20.25 132.781 20.1042 132.781 19.9375V10.875C132.781 10.7083 132.719 10.5625 132.594 10.4375C132.49 10.3125 132.354 10.25 132.188 10.25H123.75C123.583 10.25 123.438 10.3125 123.312 10.4375C123.188 10.5625 123.125 10.7083 123.125 10.875V19.9375Z"
        fill="#E5631A" fill-opacity="0.8" />
    <path
        d="M1.15625 24.5938L0.772139 24.9138L0.801239 24.9488L0.836158 24.9779L1.15625 24.5938ZM1.15625 0.1875L0.802697 -0.166053L1.15625 0.1875ZM18.2188 0.90625L17.859 1.25355L17.8651 1.25986L17.8715 1.26595L18.2188 0.90625ZM18.2188 23.875L17.8714 23.5152L17.8652 23.5214L18.2188 23.875ZM5.40625 20.375L5.0527 20.7286L5.06873 20.7446L5.08616 20.7591L5.40625 20.375ZM14.6875 20.375L14.3339 20.0214L14.6875 20.375ZM14.6875 4.40625L14.3034 4.72634L14.3179 4.74377L14.3339 4.7598L14.6875 4.40625ZM16.0938 24.25H1.59375V25.25H16.0938V24.25ZM1.59375 24.25C1.54095 24.25 1.50913 24.237 1.47634 24.2096L0.836158 24.9779C1.05337 25.1589 1.31321 25.25 1.59375 25.25V24.25ZM1.54036 24.2737C1.51304 24.2409 1.5 24.209 1.5 24.1562H0.5C0.5 24.4368 0.591131 24.6966 0.772139 24.9138L1.54036 24.2737ZM1.5 24.1562V0.59375H0.5V24.1562H1.5ZM1.5 0.59375C1.5 0.562769 1.50474 0.549256 1.50574 0.546677C1.50632 0.545156 1.50665 0.544695 1.5067 0.544618C1.50676 0.544522 1.5075 0.543355 1.5098 0.541053L0.802697 -0.166053C0.59214 0.0445029 0.5 0.313459 0.5 0.59375H1.5ZM1.5098 0.541053C1.54735 0.503509 1.56836 0.5 1.59375 0.5V-0.5C1.28581 -0.5 1.01515 -0.378509 0.802697 -0.166053L1.5098 0.541053ZM1.59375 0.5H16.0938V-0.5H1.59375V0.5ZM16.0938 0.5C16.7902 0.5 17.3691 0.746109 17.859 1.25355L18.5785 0.558953C17.9017 -0.141942 17.0639 -0.5 16.0938 -0.5V0.5ZM17.8715 1.26595C18.3789 1.75589 18.625 2.33476 18.625 3.03125H19.625C19.625 2.06108 19.2669 1.22328 18.566 0.546549L17.8715 1.26595ZM18.625 3.03125V21.75H19.625V3.03125H18.625ZM18.625 21.75C18.625 22.4465 18.3789 23.0254 17.8715 23.5153L18.566 24.2347C19.2669 23.558 19.625 22.7202 19.625 21.75H18.625ZM17.8652 23.5214C17.3767 24.0099 16.796 24.25 16.0938 24.25V25.25C17.0582 25.25 17.8941 24.9067 18.5723 24.2286L17.8652 23.5214ZM4.71875 4.84375V19.9375H5.71875V4.84375H4.71875ZM4.71875 19.9375C4.71875 20.2454 4.84024 20.5161 5.0527 20.7286L5.7598 20.0214C5.72226 19.9839 5.71875 19.9629 5.71875 19.9375H4.71875ZM5.08616 20.7591C5.30337 20.9401 5.56321 21.0312 5.84375 21.0312V20.0312C5.79095 20.0312 5.75913 20.0182 5.72634 19.9909L5.08616 20.7591ZM5.84375 21.0312H14.2812V20.0312H5.84375V21.0312ZM14.2812 21.0312C14.5615 21.0312 14.8305 20.9391 15.0411 20.7286L14.3339 20.0214C14.3316 20.0237 14.3305 20.0245 14.3304 20.0246C14.3303 20.0246 14.3298 20.0249 14.3283 20.0255C14.3257 20.0265 14.3122 20.0312 14.2812 20.0312V21.0312ZM15.0411 20.7286C15.2535 20.5161 15.375 20.2454 15.375 19.9375H14.375C14.375 19.9629 14.3715 19.9839 14.3339 20.0214L15.0411 20.7286ZM15.375 19.9375V4.84375H14.375V19.9375H15.375ZM15.375 4.84375C15.375 4.53581 15.2535 4.26515 15.0411 4.0527L14.3339 4.7598C14.3715 4.79735 14.375 4.81836 14.375 4.84375H15.375ZM15.0716 4.08616C14.8698 3.844 14.5921 3.71875 14.2812 3.71875V4.71875C14.2916 4.71875 14.2972 4.71971 14.2991 4.7201C14.3008 4.72046 14.3002 4.72049 14.2983 4.7196C14.2963 4.71871 14.2952 4.71788 14.2954 4.71797C14.2956 4.71816 14.2984 4.72039 14.3034 4.72634L15.0716 4.08616ZM14.2812 3.71875H5.84375V4.71875H14.2812V3.71875ZM5.84375 3.71875C5.53581 3.71875 5.26515 3.84024 5.0527 4.0527L5.7598 4.7598C5.79735 4.72226 5.81836 4.71875 5.84375 4.71875V3.71875ZM5.0527 4.0527C4.84024 4.26515 4.71875 4.53581 4.71875 4.84375H5.71875C5.71875 4.81836 5.72226 4.79735 5.7598 4.7598L5.0527 4.0527ZM22 23.875L21.6464 24.2286L21.6527 24.2347L22 23.875ZM22 6.9375L22.3536 7.29105L22 6.9375ZM38.3438 6.9375L37.984 7.2848L37.9901 7.29111L37.9965 7.2972L38.3438 6.9375ZM38.3438 16.625L37.9964 16.2652L37.9902 16.2714L38.3438 16.625ZM25.5312 20.375L25.1777 20.7286L25.1937 20.7446L25.2112 20.7591L25.5312 20.375ZM39.0625 20.7188L38.7089 21.0723L38.725 21.0883L38.7424 21.1029L39.0625 20.7188ZM39.0625 24.5938L39.3826 24.9779L39.4 24.9633L39.4161 24.9473L39.0625 24.5938ZM34.8125 10.4375L34.4284 10.7576L34.4429 10.775L34.4589 10.7911L34.8125 10.4375ZM25.5312 13.125L25.1777 13.4786L25.1937 13.4946L25.2112 13.5091L25.5312 13.125ZM24.1562 24.25C23.4536 24.25 22.8591 24.0094 22.3473 23.5153L21.6527 24.2347C22.3493 24.9073 23.1922 25.25 24.1562 25.25V24.25ZM22.3536 23.5214C21.8651 23.0329 21.625 22.4522 21.625 21.75H20.625C20.625 22.7144 20.9683 23.5504 21.6464 24.2286L22.3536 23.5214ZM21.625 21.75V9.0625H20.625V21.75H21.625ZM21.625 9.0625C21.625 8.36026 21.8651 7.77955 22.3536 7.29105L21.6464 6.58395C20.9683 7.26211 20.625 8.09807 20.625 9.0625H21.625ZM22.3536 7.29105C22.8666 6.778 23.4592 6.53125 24.1562 6.53125V5.53125C23.1866 5.53125 22.3417 5.88867 21.6464 6.58395L22.3536 7.29105ZM24.1562 6.53125H36.2188V5.53125H24.1562V6.53125ZM36.2188 6.53125C36.9152 6.53125 37.4941 6.77736 37.984 7.2848L38.7035 6.5902C38.0267 5.88931 37.1889 5.53125 36.2188 5.53125V6.53125ZM37.9965 7.2972C38.5039 7.78714 38.75 8.36601 38.75 9.0625H39.75C39.75 8.09233 39.3919 7.25453 38.691 6.5778L37.9965 7.2972ZM38.75 9.0625V14.5H39.75V9.0625H38.75ZM38.75 14.5C38.75 15.1965 38.5039 15.7754 37.9965 16.2653L38.691 16.9847C39.3919 16.308 39.75 15.4702 39.75 14.5H38.75ZM37.9902 16.2714C37.5017 16.7599 36.921 17 36.2188 17V18C37.1832 18 38.0191 17.6567 38.6973 16.9786L37.9902 16.2714ZM36.2188 17H25.9688V18H36.2188V17ZM25.9688 17C25.6608 17 25.3902 17.1215 25.1777 17.3339L25.8848 18.0411C25.9223 18.0035 25.9434 18 25.9688 18V17ZM25.1777 17.3339C24.9652 17.5464 24.8438 17.8171 24.8438 18.125H25.8438C25.8438 18.0996 25.8473 18.0786 25.8848 18.0411L25.1777 17.3339ZM24.8438 18.125V19.9375H25.8438V18.125H24.8438ZM24.8438 19.9375C24.8438 20.2454 24.9652 20.5161 25.1777 20.7286L25.8848 20.0214C25.8473 19.9839 25.8438 19.9629 25.8438 19.9375H24.8438ZM25.2112 20.7591C25.4284 20.9401 25.6882 21.0312 25.9688 21.0312V20.0312C25.916 20.0312 25.8841 20.0182 25.8513 19.9909L25.2112 20.7591ZM25.9688 21.0312H38.625V20.0312H25.9688V21.0312ZM38.625 21.0312C38.6504 21.0312 38.6714 21.0348 38.7089 21.0723L39.4161 20.3652C39.2036 20.1527 38.9329 20.0312 38.625 20.0312V21.0312ZM38.7424 21.1029C38.7484 21.1078 38.7506 21.1107 38.7508 21.1109C38.7509 21.111 38.75 21.1099 38.7491 21.108C38.7483 21.1061 38.7483 21.1054 38.7487 21.1072C38.749 21.109 38.75 21.1147 38.75 21.125H39.75C39.75 20.8141 39.6247 20.5364 39.3826 20.3346L38.7424 21.1029ZM38.75 21.125V24.1562H39.75V21.125H38.75ZM38.75 24.1562C38.75 24.1816 38.7465 24.2027 38.7089 24.2402L39.4161 24.9473C39.6285 24.7348 39.75 24.4642 39.75 24.1562H38.75ZM38.7424 24.2096C38.7096 24.237 38.6778 24.25 38.625 24.25V25.25C38.9055 25.25 39.1654 25.1589 39.3826 24.9779L38.7424 24.2096ZM38.625 24.25H24.1562V25.25H38.625V24.25ZM35.5 10.875C35.5 10.5671 35.3785 10.2964 35.1661 10.0839L34.4589 10.7911C34.4965 10.8286 34.5 10.8496 34.5 10.875H35.5ZM35.1966 10.1174C34.9948 9.87525 34.7171 9.75 34.4062 9.75V10.75C34.4166 10.75 34.4222 10.751 34.4241 10.7513C34.4258 10.7517 34.4252 10.7517 34.4233 10.7509C34.4213 10.75 34.4202 10.7491 34.4204 10.7492C34.4206 10.7494 34.4234 10.7516 34.4284 10.7576L35.1966 10.1174ZM34.4062 9.75H25.9688V10.75H34.4062V9.75ZM25.9688 9.75C25.6608 9.75 25.3902 9.87149 25.1777 10.0839L25.8848 10.7911C25.9223 10.7535 25.9434 10.75 25.9688 10.75V9.75ZM25.1777 10.0839C24.9652 10.2964 24.8438 10.5671 24.8438 10.875H25.8438C25.8438 10.8496 25.8473 10.8286 25.8848 10.7911L25.1777 10.0839ZM24.8438 10.875V12.6875H25.8438V10.875H24.8438ZM24.8438 12.6875C24.8438 12.9954 24.9652 13.2661 25.1777 13.4786L25.8848 12.7714C25.8473 12.7339 25.8438 12.7129 25.8438 12.6875H24.8438ZM25.2112 13.5091C25.4284 13.6901 25.6882 13.7812 25.9688 13.7812V12.7812C25.916 12.7812 25.8841 12.7682 25.8513 12.7409L25.2112 13.5091ZM25.9688 13.7812H34.4062V12.7812H25.9688V13.7812ZM34.4062 13.7812C34.6865 13.7812 34.9555 13.6891 35.1661 13.4786L34.4589 12.7714C34.4566 12.7737 34.4555 12.7745 34.4554 12.7746C34.4553 12.7746 34.4548 12.7749 34.4533 12.7755C34.4507 12.7765 34.4372 12.7812 34.4062 12.7812V13.7812ZM35.1661 13.4786C35.3785 13.2661 35.5 12.9954 35.5 12.6875H34.5C34.5 12.7129 34.4965 12.7339 34.4589 12.7714L35.1661 13.4786ZM35.5 12.6875V10.875H34.5V12.6875H35.5ZM41.4062 30L41.0527 30.3536L41.4062 30ZM41.4062 6.21875L41.0527 5.8652L41.0367 5.88123L41.0221 5.89866L41.4062 6.21875ZM58.4688 6.9375L58.109 7.2848L58.1151 7.29111L58.1215 7.2972L58.4688 6.9375ZM58.4688 23.875L58.1214 23.5152L58.1152 23.5214L58.4688 23.875ZM45.6562 24.9375L45.9763 25.3216L45.9938 25.3071L46.0098 25.2911L45.6562 24.9375ZM45.2812 30L44.9612 29.6159L44.9262 29.645L44.8971 29.6799L45.2812 30ZM54.9375 10.4375L54.5534 10.7576L54.5679 10.775L54.5839 10.7911L54.9375 10.4375ZM45.6562 20.375L45.3027 20.7286L45.3187 20.7446L45.3362 20.7591L45.6562 20.375ZM54.9375 20.375L54.5839 20.0214L54.9375 20.375ZM41.8438 29.6875C41.8184 29.6875 41.7973 29.684 41.7598 29.6464L41.0527 30.3536C41.2652 30.566 41.5358 30.6875 41.8438 30.6875V29.6875ZM41.7598 29.6464C41.7575 29.6441 41.7568 29.643 41.7567 29.6429C41.7566 29.6428 41.7563 29.6423 41.7557 29.6408C41.7547 29.6382 41.75 29.6247 41.75 29.5938H40.75C40.75 29.874 40.8421 30.143 41.0527 30.3536L41.7598 29.6464ZM41.75 29.5938V6.65625H40.75V29.5938H41.75ZM41.75 6.65625C41.75 6.60345 41.763 6.57163 41.7904 6.53884L41.0221 5.89866C40.8411 6.11587 40.75 6.37571 40.75 6.65625H41.75ZM41.7598 6.5723C41.7973 6.53476 41.8184 6.53125 41.8438 6.53125V5.53125C41.5358 5.53125 41.2652 5.65274 41.0527 5.8652L41.7598 6.5723ZM41.8438 6.53125H56.3438V5.53125H41.8438V6.53125ZM56.3438 6.53125C57.0402 6.53125 57.6191 6.77736 58.109 7.2848L58.8285 6.5902C58.1517 5.88931 57.3139 5.53125 56.3438 5.53125V6.53125ZM58.1215 7.2972C58.6289 7.78714 58.875 8.36601 58.875 9.0625H59.875C59.875 8.09233 59.5169 7.25453 58.816 6.5778L58.1215 7.2972ZM58.875 9.0625V21.75H59.875V9.0625H58.875ZM58.875 21.75C58.875 22.4465 58.6289 23.0254 58.1215 23.5153L58.816 24.2347C59.5169 23.558 59.875 22.7202 59.875 21.75H58.875ZM58.1152 23.5214C57.6267 24.0099 57.046 24.25 56.3438 24.25V25.25C57.3082 25.25 58.1441 24.9067 58.8223 24.2286L58.1152 23.5214ZM56.3438 24.25H46.0938V25.25H56.3438V24.25ZM46.0938 24.25C45.7858 24.25 45.5152 24.3715 45.3027 24.5839L46.0098 25.2911C46.0473 25.2535 46.0684 25.25 46.0938 25.25V24.25ZM45.3362 24.5534C45.094 24.7552 44.9688 25.0329 44.9688 25.3438H45.9688C45.9688 25.3334 45.9697 25.3278 45.9701 25.3259C45.9705 25.3242 45.9705 25.3248 45.9696 25.3267C45.9687 25.3287 45.9679 25.3298 45.968 25.3296C45.9682 25.3294 45.9704 25.3266 45.9763 25.3216L45.3362 24.5534ZM44.9688 25.3438V29.5938H45.9688V25.3438H44.9688ZM44.9688 29.5938C44.9688 29.6041 44.9678 29.6097 44.9674 29.6116C44.967 29.6133 44.967 29.6127 44.9679 29.6108C44.9688 29.6088 44.9696 29.6077 44.9695 29.6079C44.9693 29.6081 44.9671 29.6109 44.9612 29.6159L45.6013 30.3841C45.8435 30.1823 45.9688 29.9046 45.9688 29.5938H44.9688ZM44.8971 29.6799C44.8922 29.6859 44.8893 29.6881 44.8891 29.6883C44.889 29.6884 44.8901 29.6875 44.892 29.6866C44.8939 29.6858 44.8946 29.6858 44.8928 29.6862C44.891 29.6865 44.8853 29.6875 44.875 29.6875V30.6875C45.1859 30.6875 45.4636 30.5622 45.6654 30.3201L44.8971 29.6799ZM44.875 29.6875H41.8438V30.6875H44.875V29.6875ZM55.625 10.875C55.625 10.5671 55.5035 10.2964 55.2911 10.0839L54.5839 10.7911C54.6215 10.8286 54.625 10.8496 54.625 10.875H55.625ZM55.3216 10.1174C55.1198 9.87525 54.8421 9.75 54.5312 9.75V10.75C54.5416 10.75 54.5472 10.751 54.5491 10.7513C54.5508 10.7517 54.5502 10.7517 54.5483 10.7509C54.5463 10.75 54.5452 10.7491 54.5454 10.7492C54.5456 10.7494 54.5484 10.7516 54.5534 10.7576L55.3216 10.1174ZM54.5312 9.75H46.0938V10.75H54.5312V9.75ZM46.0938 9.75C45.7858 9.75 45.5152 9.87149 45.3027 10.0839L46.0098 10.7911C46.0473 10.7535 46.0684 10.75 46.0938 10.75V9.75ZM45.3027 10.0839C45.0902 10.2964 44.9688 10.5671 44.9688 10.875H45.9688C45.9688 10.8496 45.9723 10.8286 46.0098 10.7911L45.3027 10.0839ZM44.9688 10.875V19.9375H45.9688V10.875H44.9688ZM44.9688 19.9375C44.9688 20.2454 45.0902 20.5161 45.3027 20.7286L46.0098 20.0214C45.9723 19.9839 45.9688 19.9629 45.9688 19.9375H44.9688ZM45.3362 20.7591C45.5534 20.9401 45.8132 21.0312 46.0938 21.0312V20.0312C46.041 20.0312 46.0091 20.0182 45.9763 19.9909L45.3362 20.7591ZM46.0938 21.0312H54.5312V20.0312H46.0938V21.0312ZM54.5312 21.0312C54.8115 21.0312 55.0805 20.9391 55.2911 20.7286L54.5839 20.0214C54.5816 20.0237 54.5805 20.0245 54.5804 20.0246C54.5803 20.0246 54.5798 20.0249 54.5783 20.0255C54.5757 20.0265 54.5622 20.0312 54.5312 20.0312V21.0312ZM55.2911 20.7286C55.5035 20.5161 55.625 20.2454 55.625 19.9375H54.625C54.625 19.9629 54.6215 19.9839 54.5839 20.0214L55.2911 20.7286ZM55.625 19.9375V10.875H54.625V19.9375H55.625ZM61.5312 24.5938L61.1471 24.9138L61.1762 24.9488L61.2112 24.9779L61.5312 24.5938ZM61.5312 0.1875L61.1777 -0.166053L61.5312 0.1875ZM65.4062 0.1875L65.0221 0.507592L65.0512 0.542511L65.0862 0.571611L65.4062 0.1875ZM65.4062 24.5938L65.7598 24.9473L65.4062 24.5938ZM61.9688 24.25C61.916 24.25 61.8841 24.237 61.8513 24.2096L61.2112 24.9779C61.4284 25.1589 61.6882 25.25 61.9688 25.25V24.25ZM61.9154 24.2737C61.888 24.2409 61.875 24.209 61.875 24.1562H60.875C60.875 24.4368 60.9661 24.6966 61.1471 24.9138L61.9154 24.2737ZM61.875 24.1562V0.59375H60.875V24.1562H61.875ZM61.875 0.59375C61.875 0.562769 61.8797 0.549256 61.8807 0.546677C61.8813 0.545156 61.8816 0.544695 61.8817 0.544618C61.8818 0.544522 61.8825 0.543355 61.8848 0.541053L61.1777 -0.166053C60.9671 0.0445029 60.875 0.313459 60.875 0.59375H61.875ZM61.8848 0.541053C61.9223 0.503509 61.9434 0.5 61.9688 0.5V-0.5C61.6608 -0.5 61.3902 -0.378509 61.1777 -0.166053L61.8848 0.541053ZM61.9688 0.5H65V-0.5H61.9688V0.5ZM65 0.5C65.0103 0.5 65.016 0.500959 65.0178 0.501349C65.0196 0.501705 65.0189 0.501736 65.017 0.500855C65.0151 0.499962 65.014 0.499127 65.0141 0.499221C65.0143 0.499406 65.0172 0.501637 65.0221 0.507592L65.7904 -0.132592C65.5886 -0.374748 65.3109 -0.5 65 -0.5V0.5ZM65.0862 0.571611C65.0921 0.576573 65.0943 0.579403 65.0945 0.579639C65.0946 0.579759 65.0938 0.578651 65.0929 0.576717C65.092 0.574808 65.092 0.574191 65.0924 0.575912C65.0928 0.577795 65.0938 0.583408 65.0938 0.59375H66.0938C66.0938 0.282856 65.9685 0.00518623 65.7263 -0.196611L65.0862 0.571611ZM65.0938 0.59375V24.1562H66.0938V0.59375H65.0938ZM65.0938 24.1562C65.0938 24.1816 65.0902 24.2027 65.0527 24.2402L65.7598 24.9473C65.9723 24.7348 66.0938 24.4642 66.0938 24.1562H65.0938ZM65.0527 24.2402C65.0504 24.2425 65.0492 24.2432 65.0491 24.2433C65.0491 24.2434 65.0486 24.2437 65.0471 24.2443C65.0445 24.2453 65.031 24.25 65 24.25V25.25C65.2803 25.25 65.5492 25.1579 65.7598 24.9473L65.0527 24.2402ZM65 24.25H61.9688V25.25H65V24.25ZM68.4688 23.875L68.1151 24.2286L68.1215 24.2347L68.4688 23.875ZM68.4688 6.9375L68.8223 7.29105L68.4688 6.9375ZM84.8125 6.9375L84.4528 7.2848L84.4589 7.29111L84.4652 7.2972L84.8125 6.9375ZM84.8125 16.625L84.4651 16.2652L84.4589 16.2714L84.8125 16.625ZM72 20.375L71.6464 20.7286L71.6625 20.7446L71.6799 20.7591L72 20.375ZM85.5312 20.7188L85.1777 21.0723L85.1937 21.0883L85.2112 21.1029L85.5312 20.7188ZM85.5312 24.5938L85.8513 24.9779L85.8688 24.9633L85.8848 24.9473L85.5312 24.5938ZM81.2812 10.4375L80.8971 10.7576L80.9117 10.775L80.9277 10.7911L81.2812 10.4375ZM72 13.125L71.6464 13.4786L71.6625 13.4946L71.6799 13.5091L72 13.125ZM70.625 24.25C69.9224 24.25 69.3278 24.0094 68.816 23.5153L68.1215 24.2347C68.818 24.9073 69.661 25.25 70.625 25.25V24.25ZM68.8223 23.5214C68.3338 23.0329 68.0938 22.4522 68.0938 21.75H67.0938C67.0938 22.7144 67.437 23.5504 68.1152 24.2286L68.8223 23.5214ZM68.0938 21.75V9.0625H67.0938V21.75H68.0938ZM68.0938 9.0625C68.0938 8.36026 68.3338 7.77955 68.8223 7.29105L68.1152 6.58395C67.437 7.26211 67.0938 8.09807 67.0938 9.0625H68.0938ZM68.8223 7.29105C69.3354 6.778 69.928 6.53125 70.625 6.53125V5.53125C69.6553 5.53125 68.8105 5.88867 68.1152 6.58395L68.8223 7.29105ZM70.625 6.53125H82.6875V5.53125H70.625V6.53125ZM82.6875 6.53125C83.384 6.53125 83.9629 6.77736 84.4528 7.2848L85.1722 6.5902C84.4955 5.88931 83.6577 5.53125 82.6875 5.53125V6.53125ZM84.4652 7.2972C84.9726 7.78714 85.2188 8.36601 85.2188 9.0625H86.2188C86.2188 8.09233 85.8607 7.25453 85.1598 6.5778L84.4652 7.2972ZM85.2188 9.0625V14.5H86.2188V9.0625H85.2188ZM85.2188 14.5C85.2188 15.1965 84.9726 15.7754 84.4652 16.2653L85.1598 16.9847C85.8607 16.308 86.2188 15.4702 86.2188 14.5H85.2188ZM84.4589 16.2714C83.9704 16.7599 83.3897 17 82.6875 17V18C83.6519 18 84.4879 17.6567 85.1661 16.9786L84.4589 16.2714ZM82.6875 17H72.4375V18H82.6875V17ZM72.4375 17C72.1296 17 71.8589 17.1215 71.6464 17.3339L72.3536 18.0411C72.3911 18.0035 72.4121 18 72.4375 18V17ZM71.6464 17.3339C71.434 17.5464 71.3125 17.8171 71.3125 18.125H72.3125C72.3125 18.0996 72.316 18.0786 72.3536 18.0411L71.6464 17.3339ZM71.3125 18.125V19.9375H72.3125V18.125H71.3125ZM71.3125 19.9375C71.3125 20.2454 71.434 20.5161 71.6464 20.7286L72.3536 20.0214C72.316 19.9839 72.3125 19.9629 72.3125 19.9375H71.3125ZM71.6799 20.7591C71.8971 20.9401 72.157 21.0312 72.4375 21.0312V20.0312C72.3847 20.0312 72.3529 20.0182 72.3201 19.9909L71.6799 20.7591ZM72.4375 21.0312H85.0938V20.0312H72.4375V21.0312ZM85.0938 21.0312C85.1191 21.0312 85.1402 21.0348 85.1777 21.0723L85.8848 20.3652C85.6723 20.1527 85.4017 20.0312 85.0938 20.0312V21.0312ZM85.2112 21.1029C85.2171 21.1078 85.2193 21.1107 85.2195 21.1109C85.2196 21.111 85.2188 21.1099 85.2179 21.108C85.217 21.1061 85.217 21.1054 85.2174 21.1072C85.2178 21.109 85.2188 21.1147 85.2188 21.125H86.2188C86.2188 20.8141 86.0935 20.5364 85.8513 20.3346L85.2112 21.1029ZM85.2188 21.125V24.1562H86.2188V21.125H85.2188ZM85.2188 24.1562C85.2188 24.1816 85.2152 24.2027 85.1777 24.2402L85.8848 24.9473C86.0973 24.7348 86.2188 24.4642 86.2188 24.1562H85.2188ZM85.2112 24.2096C85.1784 24.237 85.1465 24.25 85.0938 24.25V25.25C85.3743 25.25 85.6341 25.1589 85.8513 24.9779L85.2112 24.2096ZM85.0938 24.25H70.625V25.25H85.0938V24.25ZM81.9688 10.875C81.9688 10.5671 81.8473 10.2964 81.6348 10.0839L80.9277 10.7911C80.9652 10.8286 80.9688 10.8496 80.9688 10.875H81.9688ZM81.6654 10.1174C81.4636 9.87525 81.1859 9.75 80.875 9.75V10.75C80.8853 10.75 80.891 10.751 80.8928 10.7513C80.8946 10.7517 80.8939 10.7517 80.892 10.7509C80.8901 10.75 80.889 10.7491 80.8891 10.7492C80.8893 10.7494 80.8922 10.7516 80.8971 10.7576L81.6654 10.1174ZM80.875 9.75H72.4375V10.75H80.875V9.75ZM72.4375 9.75C72.1296 9.75 71.8589 9.87149 71.6464 10.0839L72.3536 10.7911C72.3911 10.7535 72.4121 10.75 72.4375 10.75V9.75ZM71.6464 10.0839C71.434 10.2964 71.3125 10.5671 71.3125 10.875H72.3125C72.3125 10.8496 72.316 10.8286 72.3536 10.7911L71.6464 10.0839ZM71.3125 10.875V12.6875H72.3125V10.875H71.3125ZM71.3125 12.6875C71.3125 12.9954 71.434 13.2661 71.6464 13.4786L72.3536 12.7714C72.316 12.7339 72.3125 12.7129 72.3125 12.6875H71.3125ZM71.6799 13.5091C71.8971 13.6901 72.157 13.7812 72.4375 13.7812V12.7812C72.3847 12.7812 72.3529 12.7682 72.3201 12.7409L71.6799 13.5091ZM72.4375 13.7812H80.875V12.7812H72.4375V13.7812ZM80.875 13.7812C81.1553 13.7812 81.4242 13.6891 81.6348 13.4786L80.9277 12.7714C80.9254 12.7737 80.9242 12.7745 80.9241 12.7746C80.9241 12.7746 80.9236 12.7749 80.9221 12.7755C80.9195 12.7765 80.906 12.7812 80.875 12.7812V13.7812ZM81.6348 13.4786C81.8473 13.2661 81.9688 12.9954 81.9688 12.6875H80.9688C80.9688 12.7129 80.9652 12.7339 80.9277 12.7714L81.6348 13.4786ZM81.9688 12.6875V10.875H80.9688V12.6875H81.9688ZM88.5938 23.875L88.2401 24.2286L88.2465 24.2347L88.5938 23.875ZM87.875 0.1875L87.5214 -0.166053L87.875 0.1875ZM91.75 0.1875L91.3659 0.507592L91.395 0.542511L91.4299 0.571611L91.75 0.1875ZM92.125 5.875L91.7714 6.22855L91.7875 6.24459L91.8049 6.25911L92.125 5.875ZM96.5938 10.0938L96.9138 10.4779L96.9313 10.4633L96.9473 10.4473L96.5938 10.0938ZM92.125 20.375L91.7714 20.7286L91.7875 20.7446L91.8049 20.7591L92.125 20.375ZM96.5938 20.7188L96.2402 21.0723L96.2562 21.0883L96.2737 21.1029L96.5938 20.7188ZM96.5938 24.5938L96.9138 24.9779L96.9313 24.9633L96.9473 24.9473L96.5938 24.5938ZM90.75 24.25C90.0474 24.25 89.4528 24.0094 88.941 23.5153L88.2465 24.2347C88.943 24.9073 89.786 25.25 90.75 25.25V24.25ZM88.9473 23.5214C88.4588 23.0329 88.2188 22.4522 88.2188 21.75H87.2188C87.2188 22.7144 87.562 23.5504 88.2402 24.2286L88.9473 23.5214ZM88.2188 21.75V0.59375H87.2188V21.75H88.2188ZM88.2188 0.59375C88.2188 0.562769 88.2235 0.549256 88.2245 0.546677C88.2251 0.545156 88.2254 0.544695 88.2254 0.544618C88.2255 0.544522 88.2263 0.543355 88.2286 0.541053L87.5214 -0.166053C87.3109 0.0445029 87.2188 0.313459 87.2188 0.59375H88.2188ZM88.2286 0.541053C88.2661 0.503509 88.2871 0.5 88.3125 0.5V-0.5C88.0046 -0.5 87.7339 -0.378509 87.5214 -0.166053L88.2286 0.541053ZM88.3125 0.5H91.3438V-0.5H88.3125V0.5ZM91.3438 0.5C91.3541 0.5 91.3597 0.500959 91.3616 0.501349C91.3633 0.501705 91.3627 0.501736 91.3608 0.500855C91.3588 0.499962 91.3577 0.499127 91.3579 0.499221C91.3581 0.499406 91.3609 0.501637 91.3659 0.507592L92.1341 -0.132592C91.9323 -0.374748 91.6546 -0.5 91.3438 -0.5V0.5ZM91.4299 0.571611C91.4359 0.576573 91.4381 0.579403 91.4383 0.579639C91.4384 0.579759 91.4375 0.578651 91.4366 0.576717C91.4358 0.574808 91.4358 0.574191 91.4362 0.575912C91.4365 0.577795 91.4375 0.583408 91.4375 0.59375H92.4375C92.4375 0.282856 92.3122 0.00518623 92.0701 -0.196611L91.4299 0.571611ZM91.4375 0.59375V5.4375H92.4375V0.59375H91.4375ZM91.4375 5.4375C91.4375 5.74544 91.559 6.0161 91.7714 6.22855L92.4786 5.52145C92.441 5.4839 92.4375 5.46289 92.4375 5.4375H91.4375ZM91.8049 6.25911C92.0221 6.44012 92.282 6.53125 92.5625 6.53125V5.53125C92.5097 5.53125 92.4779 5.51821 92.4451 5.49089L91.8049 6.25911ZM92.5625 6.53125H96.1562V5.53125H92.5625V6.53125ZM96.1562 6.53125C96.1816 6.53125 96.2027 6.53476 96.2402 6.5723L96.9473 5.8652C96.7348 5.65274 96.4642 5.53125 96.1562 5.53125V6.53125ZM96.2402 6.5723C96.2777 6.60985 96.2812 6.63086 96.2812 6.65625H97.2812C97.2812 6.34831 97.1598 6.07765 96.9473 5.8652L96.2402 6.5723ZM96.2812 6.65625V9.65625H97.2812V6.65625H96.2812ZM96.2812 9.65625C96.2812 9.68164 96.2777 9.70265 96.2402 9.7402L96.9473 10.4473C97.1598 10.2348 97.2812 9.96419 97.2812 9.65625H96.2812ZM96.2737 9.70964C96.2409 9.73696 96.209 9.75 96.1562 9.75V10.75C96.4368 10.75 96.6966 10.6589 96.9138 10.4779L96.2737 9.70964ZM96.1562 9.75H92.5625V10.75H96.1562V9.75ZM92.5625 9.75C92.2546 9.75 91.9839 9.87149 91.7714 10.0839L92.4786 10.7911C92.5161 10.7535 92.5371 10.75 92.5625 10.75V9.75ZM91.7714 10.0839C91.559 10.2964 91.4375 10.5671 91.4375 10.875H92.4375C92.4375 10.8496 92.441 10.8286 92.4786 10.7911L91.7714 10.0839ZM91.4375 10.875V19.9375H92.4375V10.875H91.4375ZM91.4375 19.9375C91.4375 20.2454 91.559 20.5161 91.7714 20.7286L92.4786 20.0214C92.441 19.9839 92.4375 19.9629 92.4375 19.9375H91.4375ZM91.8049 20.7591C92.0221 20.9401 92.282 21.0312 92.5625 21.0312V20.0312C92.5097 20.0312 92.4779 20.0182 92.4451 19.9909L91.8049 20.7591ZM92.5625 21.0312H96.1562V20.0312H92.5625V21.0312ZM96.1562 21.0312C96.1816 21.0312 96.2027 21.0348 96.2402 21.0723L96.9473 20.3652C96.7348 20.1527 96.4642 20.0312 96.1562 20.0312V21.0312ZM96.2737 21.1029C96.2796 21.1078 96.2818 21.1107 96.282 21.1109C96.2821 21.111 96.2813 21.1099 96.2804 21.108C96.2795 21.1061 96.2795 21.1054 96.2799 21.1072C96.2803 21.109 96.2812 21.1147 96.2812 21.125H97.2812C97.2812 20.8141 97.156 20.5364 96.9138 20.3346L96.2737 21.1029ZM96.2812 21.125V24.1562H97.2812V21.125H96.2812ZM96.2812 24.1562C96.2812 24.1816 96.2777 24.2027 96.2402 24.2402L96.9473 24.9473C97.1598 24.7348 97.2812 24.4642 97.2812 24.1562H96.2812ZM96.2737 24.2096C96.2409 24.237 96.209 24.25 96.1562 24.25V25.25C96.4368 25.25 96.6966 25.1589 96.9138 24.9779L96.2737 24.2096ZM96.1562 24.25H90.75V25.25H96.1562V24.25ZM99.6562 23.875L99.3026 24.2286L99.309 24.2347L99.6562 23.875ZM99.6562 6.9375L100.01 7.29105L99.6562 6.9375ZM116 6.9375L115.64 7.2848L115.646 7.29111L115.653 7.2972L116 6.9375ZM116 16.625L115.653 16.2652L115.646 16.2714L116 16.625ZM103.188 20.375L102.834 20.7286L102.85 20.7446L102.867 20.7591L103.188 20.375ZM116.719 20.7188L116.365 21.0723L116.381 21.0883L116.399 21.1029L116.719 20.7188ZM116.719 24.5938L117.039 24.9779L117.056 24.9633L117.072 24.9473L116.719 24.5938ZM112.469 10.4375L112.085 10.7576L112.099 10.775L112.115 10.7911L112.469 10.4375ZM103.188 13.125L102.834 13.4786L102.85 13.4946L102.867 13.5091L103.188 13.125ZM101.812 24.25C101.11 24.25 100.515 24.0094 100.004 23.5153L99.309 24.2347C100.006 24.9073 100.848 25.25 101.812 25.25V24.25ZM100.01 23.5214C99.5213 23.0329 99.2812 22.4522 99.2812 21.75H98.2812C98.2812 22.7144 98.6245 23.5504 99.3027 24.2286L100.01 23.5214ZM99.2812 21.75V9.0625H98.2812V21.75H99.2812ZM99.2812 9.0625C99.2812 8.36026 99.5213 7.77955 100.01 7.29105L99.3027 6.58395C98.6245 7.26211 98.2812 8.09807 98.2812 9.0625H99.2812ZM100.01 7.29105C100.523 6.778 101.115 6.53125 101.812 6.53125V5.53125C100.843 5.53125 99.998 5.88867 99.3027 6.58395L100.01 7.29105ZM101.812 6.53125H113.875V5.53125H101.812V6.53125ZM113.875 6.53125C114.571 6.53125 115.15 6.77736 115.64 7.2848L116.36 6.5902C115.683 5.88931 114.845 5.53125 113.875 5.53125V6.53125ZM115.653 7.2972C116.16 7.78714 116.406 8.36601 116.406 9.0625H117.406C117.406 8.09233 117.048 7.25453 116.347 6.5778L115.653 7.2972ZM116.406 9.0625V14.5H117.406V9.0625H116.406ZM116.406 14.5C116.406 15.1965 116.16 15.7754 115.653 16.2653L116.347 16.9847C117.048 16.308 117.406 15.4702 117.406 14.5H116.406ZM115.646 16.2714C115.158 16.7599 114.577 17 113.875 17V18C114.839 18 115.675 17.6567 116.354 16.9786L115.646 16.2714ZM113.875 17H103.625V18H113.875V17ZM103.625 17C103.317 17 103.046 17.1215 102.834 17.3339L103.541 18.0411C103.579 18.0035 103.6 18 103.625 18V17ZM102.834 17.3339C102.621 17.5464 102.5 17.8171 102.5 18.125H103.5C103.5 18.0996 103.504 18.0786 103.541 18.0411L102.834 17.3339ZM102.5 18.125V19.9375H103.5V18.125H102.5ZM102.5 19.9375C102.5 20.2454 102.621 20.5161 102.834 20.7286L103.541 20.0214C103.504 19.9839 103.5 19.9629 103.5 19.9375H102.5ZM102.867 20.7591C103.085 20.9401 103.344 21.0312 103.625 21.0312V20.0312C103.572 20.0312 103.54 20.0182 103.508 19.9909L102.867 20.7591ZM103.625 21.0312H116.281V20.0312H103.625V21.0312ZM116.281 21.0312C116.307 21.0312 116.328 21.0348 116.365 21.0723L117.072 20.3652C116.86 20.1527 116.589 20.0312 116.281 20.0312V21.0312ZM116.399 21.1029C116.405 21.1078 116.407 21.1107 116.407 21.1109C116.407 21.111 116.406 21.1099 116.405 21.108C116.405 21.1061 116.405 21.1054 116.405 21.1072C116.405 21.109 116.406 21.1147 116.406 21.125H117.406C117.406 20.8141 117.281 20.5364 117.039 20.3346L116.399 21.1029ZM116.406 21.125V24.1562H117.406V21.125H116.406ZM116.406 24.1562C116.406 24.1816 116.403 24.2027 116.365 24.2402L117.072 24.9473C117.285 24.7348 117.406 24.4642 117.406 24.1562H116.406ZM116.399 24.2096C116.366 24.237 116.334 24.25 116.281 24.25V25.25C116.562 25.25 116.822 25.1589 117.039 24.9779L116.399 24.2096ZM116.281 24.25H101.812V25.25H116.281V24.25ZM113.156 10.875C113.156 10.5671 113.035 10.2964 112.822 10.0839L112.115 10.7911C112.153 10.8286 112.156 10.8496 112.156 10.875H113.156ZM112.853 10.1174C112.651 9.87525 112.373 9.75 112.062 9.75V10.75C112.073 10.75 112.078 10.751 112.08 10.7513C112.082 10.7517 112.081 10.7517 112.08 10.7509C112.078 10.75 112.076 10.7491 112.077 10.7492C112.077 10.7494 112.08 10.7516 112.085 10.7576L112.853 10.1174ZM112.062 9.75H103.625V10.75H112.062V9.75ZM103.625 9.75C103.317 9.75 103.046 9.87149 102.834 10.0839L103.541 10.7911C103.579 10.7535 103.6 10.75 103.625 10.75V9.75ZM102.834 10.0839C102.621 10.2964 102.5 10.5671 102.5 10.875H103.5C103.5 10.8496 103.504 10.8286 103.541 10.7911L102.834 10.0839ZM102.5 10.875V12.6875H103.5V10.875H102.5ZM102.5 12.6875C102.5 12.9954 102.621 13.2661 102.834 13.4786L103.541 12.7714C103.504 12.7339 103.5 12.7129 103.5 12.6875H102.5ZM102.867 13.5091C103.085 13.6901 103.344 13.7812 103.625 13.7812V12.7812C103.572 12.7812 103.54 12.7682 103.508 12.7409L102.867 13.5091ZM103.625 13.7812H112.062V12.7812H103.625V13.7812ZM112.062 13.7812C112.343 13.7812 112.612 13.6891 112.822 13.4786L112.115 12.7714C112.113 12.7737 112.112 12.7745 112.112 12.7746C112.112 12.7746 112.111 12.7749 112.11 12.7755C112.107 12.7765 112.093 12.7812 112.062 12.7812V13.7812ZM112.822 13.4786C113.035 13.2661 113.156 12.9954 113.156 12.6875H112.156C112.156 12.7129 112.153 12.7339 112.115 12.7714L112.822 13.4786ZM113.156 12.6875V10.875H112.156V12.6875H113.156ZM136.844 0.1875L136.49 0.541053L136.506 0.557091L136.524 0.571611L136.844 0.1875ZM136.844 24.5938L137.164 24.9779L137.181 24.9633L137.197 24.9473L136.844 24.5938ZM119.781 23.875L119.428 24.2286L119.434 24.2347L119.781 23.875ZM119.781 6.9375L120.135 7.29105L119.781 6.9375ZM132.594 5.875L132.24 5.52145L132.594 5.875ZM132.969 0.1875L133.289 0.571611L133.306 0.557091L133.322 0.541053L132.969 0.1875ZM123.312 20.375L122.959 20.7286L122.975 20.7446L122.992 20.7591L123.312 20.375ZM132.594 20.375L132.24 20.0214L132.594 20.375ZM132.594 10.4375L132.21 10.7576L132.224 10.775L132.24 10.7911L132.594 10.4375ZM136.406 0.5C136.432 0.5 136.453 0.503509 136.49 0.541053L137.197 -0.166053C136.985 -0.378509 136.714 -0.5 136.406 -0.5V0.5ZM136.524 0.571611C136.53 0.576573 136.532 0.579403 136.532 0.579639C136.532 0.579759 136.531 0.578651 136.53 0.576717C136.53 0.574808 136.53 0.574191 136.53 0.575912C136.53 0.577795 136.531 0.583408 136.531 0.59375H137.531C137.531 0.282856 137.406 0.00518623 137.164 -0.196611L136.524 0.571611ZM136.531 0.59375V24.1562H137.531V0.59375H136.531ZM136.531 24.1562C136.531 24.1816 136.528 24.2027 136.49 24.2402L137.197 24.9473C137.41 24.7348 137.531 24.4642 137.531 24.1562H136.531ZM136.524 24.2096C136.491 24.237 136.459 24.25 136.406 24.25V25.25C136.687 25.25 136.947 25.1589 137.164 24.9779L136.524 24.2096ZM136.406 24.25H121.938V25.25H136.406V24.25ZM121.938 24.25C121.235 24.25 120.64 24.0094 120.129 23.5153L119.434 24.2347C120.131 24.9073 120.973 25.25 121.938 25.25V24.25ZM120.135 23.5214C119.646 23.0329 119.406 22.4522 119.406 21.75H118.406C118.406 22.7144 118.75 23.5504 119.428 24.2286L120.135 23.5214ZM119.406 21.75V9.0625H118.406V21.75H119.406ZM119.406 9.0625C119.406 8.36026 119.646 7.77955 120.135 7.29105L119.428 6.58395C118.75 7.26211 118.406 8.09807 118.406 9.0625H119.406ZM120.135 7.29105C120.648 6.778 121.24 6.53125 121.938 6.53125V5.53125C120.968 5.53125 120.123 5.88867 119.428 6.58395L120.135 7.29105ZM121.938 6.53125H132.188V5.53125H121.938V6.53125ZM132.188 6.53125C132.468 6.53125 132.737 6.43911 132.947 6.22855L132.24 5.52145C132.238 5.52375 132.237 5.52449 132.237 5.52455C132.237 5.5246 132.236 5.52493 132.235 5.52551C132.232 5.52651 132.218 5.53125 132.188 5.53125V6.53125ZM132.947 6.22855C133.16 6.0161 133.281 5.74544 133.281 5.4375H132.281C132.281 5.46289 132.278 5.4839 132.24 5.52145L132.947 6.22855ZM133.281 5.4375V0.59375H132.281V5.4375H133.281ZM133.281 0.59375C133.281 0.583408 133.282 0.577795 133.283 0.575912C133.283 0.574191 133.283 0.574808 133.282 0.576717C133.281 0.578651 133.28 0.579759 133.28 0.579639C133.281 0.579403 133.283 0.576573 133.289 0.571611L132.649 -0.196611C132.407 0.00518623 132.281 0.282856 132.281 0.59375H133.281ZM133.322 0.541053C133.36 0.503509 133.381 0.5 133.406 0.5V-0.5C133.098 -0.5 132.828 -0.378509 132.615 -0.166053L133.322 0.541053ZM133.406 0.5H136.406V-0.5H133.406V0.5ZM122.625 19.9375C122.625 20.2454 122.746 20.5161 122.959 20.7286L123.666 20.0214C123.629 19.9839 123.625 19.9629 123.625 19.9375H122.625ZM122.992 20.7591C123.21 20.9401 123.469 21.0312 123.75 21.0312V20.0312C123.697 20.0312 123.665 20.0182 123.633 19.9909L122.992 20.7591ZM123.75 21.0312H132.188V20.0312H123.75V21.0312ZM132.188 21.0312C132.468 21.0312 132.737 20.9391 132.947 20.7286L132.24 20.0214C132.238 20.0237 132.237 20.0245 132.237 20.0246C132.237 20.0246 132.236 20.0249 132.235 20.0255C132.232 20.0265 132.218 20.0312 132.188 20.0312V21.0312ZM132.947 20.7286C133.16 20.5161 133.281 20.2454 133.281 19.9375H132.281C132.281 19.9629 132.278 19.9839 132.24 20.0214L132.947 20.7286ZM133.281 19.9375V10.875H132.281V19.9375H133.281ZM133.281 10.875C133.281 10.5671 133.16 10.2964 132.947 10.0839L132.24 10.7911C132.278 10.8286 132.281 10.8496 132.281 10.875H133.281ZM132.978 10.1174C132.776 9.87525 132.498 9.75 132.188 9.75V10.75C132.198 10.75 132.203 10.751 132.205 10.7513C132.207 10.7517 132.206 10.7517 132.205 10.7509C132.203 10.75 132.201 10.7491 132.202 10.7492C132.202 10.7494 132.205 10.7516 132.21 10.7576L132.978 10.1174ZM132.188 9.75H123.75V10.75H132.188V9.75ZM123.75 9.75C123.442 9.75 123.171 9.87149 122.959 10.0839L123.666 10.7911C123.704 10.7535 123.725 10.75 123.75 10.75V9.75ZM122.959 10.0839C122.746 10.2964 122.625 10.5671 122.625 10.875H123.625C123.625 10.8496 123.629 10.8286 123.666 10.7911L122.959 10.0839ZM122.625 10.875V19.9375H123.625V10.875H122.625Z"
        fill="#993300" fill-opacity="0.8" />
</svg>